<?xml version="1.0" encoding="UTF-8" standalone="no"?>
<!-- Created with Inkscape (http://www.inkscape.org/) -->

<svg
   width="500mm"
   height="119.43734mm"
   viewBox="0 0 499.99999 119.43735"
   version="1.1"
   id="svg5"
   xmlns="http://www.w3.org/2000/svg"
   xmlns:svg="http://www.w3.org/2000/svg">
  <defs
     id="defs2">
    <rect
       x="458.90567"
       y="272.50494"
       width="1698.5909"
       height="85.345093"
       id="rect5066" />
    <rect
       x="400"
       y="1.0220447e-10"
       width="1380"
       height="380"
       id="rect65287-3" />
  </defs>
  <g
     id="layer1"
     style="display:inline">
    <g
       id="g25590"
       transform="translate(-0.52916663,4.9690883)">
      <g
         id="g1073"
         transform="translate(40.740493,9.6686707)">
        <circle
           style="display:inline;fill:#b5dbd8;fill-opacity:1;stroke-width:5.53611;stroke-linejoin:round"
           id="circle26197"
           cx="50"
           cy="50.099998"
           r="50"
           transform="translate(0.52916663,-4.9690883)" />
        <path
           id="path26297"
           style="display:inline;fill:#c5e3e0;fill-opacity:1;stroke-width:5.53612;stroke-linejoin:round"
           d="M 99.98976,50.819118 A 50,50 0 0 0 50.000048,1.099674 50,50 0 0 0 0.02067057,50.549886 50,50 0 0 1 0,50.000047 50,50 0 0 1 50.000048,0 50,50 0 0 1 100.0001,50.000047 50,50 0 0 1 99.98975,50.819118 Z"
           transform="translate(0.52916663,-4.9690883)" />
        <path
           id="path848"
           style="display:inline;fill:#a2d2ce;fill-opacity:1;stroke-width:20.9239;stroke-linejoin:round"
           d="M 377.91406,186.25781 A 188.97638,188.97638 0 0 1 188.97656,374.17383 188.97638,188.97638 0 0 1 0.078125,187.27539 188.97638,188.97638 0 0 0 0,189.35352 188.97638,188.97638 0 0 0 188.97656,378.33008 188.97638,188.97638 0 0 0 377.95312,189.35352 a 188.97638,188.97638 0 0 0 -0.0391,-3.09571 z"
           transform="matrix(0.26458333,0,0,0.26458333,0.52916663,-4.9690883)" />
        <g
           id="g72272"
           transform="rotate(28.496952,60.048639,48.557421)"
           style="display:inline;stroke:#006d93;stroke-width:0.05;stroke-miterlimit:4;stroke-dasharray:none;stroke-opacity:0.5">
          <g
             id="g5146"
             style="display:inline;stroke:#006d93;stroke-width:0.05;stroke-miterlimit:4;stroke-dasharray:none;stroke-opacity:0.5">
            <path
               id="path1166-3"
               style="display:inline;fill:#048ba8;fill-opacity:1;stroke:#006d93;stroke-width:0.188976;stroke-linejoin:round;stroke-miterlimit:4;stroke-dasharray:none;stroke-opacity:0.5"
               d="m 377.95312,188.97656 a 75.590549,75.590549 0 0 1 -75.59179,75.58985 75.590549,75.590549 0 0 1 -50.42383,-19.39844 132.28346,132.28346 0 0 1 -63.07422,63.24805 132.28346,132.28346 0 0 0 56.80664,12.84375 132.28346,132.28346 0 0 0 132.2832,-132.28321 z"
               transform="scale(0.26458333)" />
            <path
               id="path1084-6"
               style="display:inline;fill:#2c699a;fill-opacity:1;stroke:#006d93;stroke-width:0.188976;stroke-linejoin:round;stroke-miterlimit:4;stroke-dasharray:none;stroke-opacity:0.5"
               d="m 377.95312,188.97656 a 75.590549,75.590549 0 0 1 -75.59179,75.58985 75.590549,75.590549 0 0 1 -50.55274,-19.51563 132.28346,132.28346 0 0 1 -35.95898,46.21094 113.38583,113.38583 0 0 0 48.7168,11.09961 113.38583,113.38583 0 0 0 113.38671,-113.38477 z"
               transform="scale(0.26458333)" />
            <path
               id="path1408-7"
               style="display:inline;fill:#54478c;fill-opacity:1;stroke:#006d93;stroke-width:0.188976;stroke-linejoin:round;stroke-miterlimit:4;stroke-dasharray:none;stroke-opacity:0.5"
               d="m 377.95312,188.97656 a 75.590549,75.590549 0 0 1 -75.59179,75.58985 75.590549,75.590549 0 0 1 -50.52735,-19.49219 132.28346,132.28346 0 0 1 -15.81836,25.60156 94.488187,94.488187 0 0 0 47.44922,12.78906 94.488187,94.488187 0 0 0 94.48828,-94.48828 z"
               transform="scale(0.26458333)" />
            <path
               id="path1512-2"
               style="display:inline;fill:#2c699a;fill-opacity:1;stroke:#006d93;stroke-width:0.188976;stroke-linejoin:round;stroke-miterlimit:4;stroke-dasharray:none;stroke-opacity:0.5"
               d="m 264.56641,188.97656 a 132.28346,132.28346 0 0 1 -12.60938,56.21094 75.590549,75.590549 0 0 0 50.4043,19.37891 75.590549,75.590549 0 0 0 75.33008,-70.25196 56.692911,56.692911 0 0 1 -56.43164,51.35547 56.692911,56.692911 0 0 1 -56.69336,-56.69336 z"
               transform="scale(0.26458333)" />
          </g>
          <g
             id="g6558"
             style="display:inline;stroke:#006d93;stroke-width:0.05;stroke-miterlimit:4;stroke-dasharray:none;stroke-opacity:0.5">
            <path
               id="path1166"
               style="display:inline;fill:#f1c453;fill-opacity:1;stroke:#006d93;stroke-width:0.188976;stroke-linejoin:round;stroke-miterlimit:4;stroke-dasharray:none;stroke-opacity:0.5"
               d="M 132.2832,56.693359 A 132.28346,132.28346 0 0 0 0,188.97656 56.692911,56.692911 0 0 1 56.693359,132.2832 56.692911,56.692911 0 0 1 113.38672,188.97656 132.28346,132.28346 0 0 1 189.08789,69.535156 132.28346,132.28346 0 0 0 132.2832,56.693359 Z"
               transform="scale(0.26458333)" />
            <path
               id="path1084"
               style="display:inline;fill:#f29e4c;fill-opacity:1;stroke:#006d93;stroke-width:0.188976;stroke-linejoin:round;stroke-miterlimit:4;stroke-dasharray:none;stroke-opacity:0.5"
               d="M 113.38672,75.589844 A 113.38583,113.38583 0 0 0 0,188.97656 56.692911,56.692911 0 0 1 56.693359,132.2832 56.692911,56.692911 0 0 1 113.38672,188.97656 132.28346,132.28346 0 0 1 162.17578,86.628906 113.38583,113.38583 0 0 0 113.38672,75.589844 Z"
               transform="scale(0.26458333)" />
            <path
               id="path1408"
               style="display:inline;fill:#f1c453;fill-opacity:1;stroke:#006d93;stroke-width:0.188976;stroke-linejoin:round;stroke-miterlimit:4;stroke-dasharray:none;stroke-opacity:0.5"
               d="M 94.488281,94.488281 A 94.488187,94.488187 0 0 0 0,188.97656 56.692911,56.692911 0 0 1 56.693359,132.2832 56.692911,56.692911 0 0 1 113.38672,188.97656 132.28346,132.28346 0 0 1 141.9375,107.27734 94.488187,94.488187 0 0 0 94.488281,94.488281 Z"
               transform="scale(0.26458333)" />
            <path
               id="path1512"
               style="display:inline;fill:#efea5a;fill-opacity:1;stroke:#006d93;stroke-width:0.188976;stroke-linejoin:round;stroke-miterlimit:4;stroke-dasharray:none;stroke-opacity:0.5"
               d="M 75.589844,113.38672 A 75.590549,75.590549 0 0 0 0,188.97656 56.692911,56.692911 0 0 1 56.693359,132.2832 a 56.692911,56.692911 0 0 1 56.693361,56.69336 132.28346,132.28346 0 0 1 12.60937,-56.21094 75.590549,75.590549 0 0 0 -50.406246,-19.3789 z"
               transform="scale(0.26458333)" />
          </g>
          <g
             id="g3439"
             transform="translate(-51.904326,8.8074715)"
             style="display:inline;stroke:#006d93;stroke-width:0.05;stroke-miterlimit:4;stroke-dasharray:none;stroke-opacity:0.5">
            <path
               id="circle5148-1"
               style="display:inline;fill:#2c699a;fill-opacity:1;stroke:#006d93;stroke-width:0.188976;stroke-linejoin:round;stroke-miterlimit:4;stroke-dasharray:none;stroke-opacity:0.5"
               d="m 236.12305,107.20703 a 94.488187,94.488187 0 0 0 -26.22852,22.55664 113.38583,113.38583 0 0 1 16.87695,59.21289 75.590549,75.590549 0 0 1 25.04102,-56.15625 132.28346,132.28346 0 0 1 6.83594,17.59766 132.28346,132.28346 0 0 0 -22.52539,-43.21094 z m 22.52539,43.21094 a 132.28346,132.28346 0 0 1 0.29101,0.96484 132.28346,132.28346 0 0 0 -0.29101,-0.96484 z m 0.29101,0.96484 a 132.28346,132.28346 0 0 1 2.16602,8.14649 132.28346,132.28346 0 0 0 -2.16602,-8.14649 z m 2.16602,8.14649 a 132.28346,132.28346 0 0 1 0.45508,2.14062 132.28346,132.28346 0 0 0 -0.45508,-2.14062 z m 0.45508,2.14062 a 132.28346,132.28346 0 0 1 1.4082,7.45117 132.28346,132.28346 0 0 0 -1.4082,-7.45117 z m 1.4082,7.45117 a 132.28346,132.28346 0 0 1 0.42969,3.39453 132.28346,132.28346 0 0 0 -0.42969,-3.39453 z m 0.42969,3.39453 a 132.28346,132.28346 0 0 1 0.73633,6.4336 132.28346,132.28346 0 0 0 -0.73633,-6.4336 z m 0.73633,6.4336 a 132.28346,132.28346 0 0 1 0.43164,10.03125 132.28346,132.28346 0 0 0 -0.43164,-10.03125 z m 0.43164,10.03125 a 132.28346,132.28346 0 0 1 -0.43164,10.00195 132.28346,132.28346 0 0 0 0.43164,-10.00195 z m -0.43164,10.00195 a 132.28346,132.28346 0 0 1 -0.7461,6.53906 132.28346,132.28346 0 0 0 0.7461,-6.53906 z m -0.7461,6.53906 a 132.28346,132.28346 0 0 1 -0.41992,3.30469 132.28346,132.28346 0 0 0 0.41992,-3.30469 z m -0.41992,3.30469 a 132.28346,132.28346 0 0 1 -1.42773,7.54297 132.28346,132.28346 0 0 0 1.42773,-7.54297 z m -1.42773,7.54297 a 132.28346,132.28346 0 0 1 -0.42774,2.01172 132.28346,132.28346 0 0 0 0.42774,-2.01172 z m -0.42774,2.01172 a 132.28346,132.28346 0 0 1 -2.1875,8.22852 132.28346,132.28346 0 0 0 2.1875,-8.22852 z m -2.1875,8.22852 a 132.28346,132.28346 0 0 1 -0.27344,0.90039 132.28346,132.28346 0 0 0 0.27344,-0.90039 z m -0.27344,0.90039 a 132.28346,132.28346 0 0 1 -6.84375,17.62109 75.590549,75.590549 0 0 1 -25.03711,-56.15039 113.38583,113.38583 0 0 1 -16.90625,59.17383 94.488187,94.488187 0 0 0 26.25586,22.58789 132.28346,132.28346 0 0 0 22.53125,-43.23242 z m -49.00195,-97.46289 a 94.488187,94.488187 0 0 0 -5.91211,8.25195 94.488188,94.488188 0 0 1 5.91211,-8.25195 z m -6.41406,9.125 a 94.488187,94.488187 0 0 0 -4.3418,7.79101 94.488188,94.488188 0 0 1 4.3418,-7.79101 z m -5.60156,10.55078 a 94.488187,94.488187 0 0 0 -2.67579,6.40625 94.488188,94.488188 0 0 1 2.67579,-6.40625 z m -3.82227,9.72265 a 94.488187,94.488187 0 0 0 -1.83008,6.29883 94.488188,94.488188 0 0 1 1.83008,-6.29883 z m -2.66992,9.76758 a 94.488187,94.488187 0 0 0 -1.16602,6.80664 94.488188,94.488188 0 0 1 1.16602,-6.80664 z m -1.60156,9.8457 a 94.488187,94.488187 0 0 0 -0.56446,9.91797 94.488188,94.488188 0 0 1 0.56446,-9.91797 z m -0.56446,9.91797 a 94.488187,94.488187 0 0 0 0.56055,9.90235 94.488188,94.488188 0 0 1 -0.56055,-9.90235 z m 1.00586,12.98828 a 94.488187,94.488187 0 0 0 1.1543,6.75196 94.488188,94.488188 0 0 1 -1.1543,-6.75196 z m 2.00196,10.25 a 94.488187,94.488187 0 0 0 1.81835,6.25977 94.488188,94.488188 0 0 1 -1.81835,-6.25977 z m 2.97656,9.60938 a 94.488187,94.488187 0 0 0 2.64648,6.34375 94.488188,94.488188 0 0 1 -2.64648,-6.34375 z m 3.93164,9.16406 a 94.488187,94.488187 0 0 0 4.23242,7.5957 94.488188,94.488188 0 0 1 -4.23242,-7.5957 z m 4.8457,8.66211 a 94.488187,94.488187 0 0 0 5.88086,8.21875 94.488188,94.488188 0 0 1 -5.88086,-8.21875 z"
               transform="matrix(0.26458333,0,0,0.26458333,51.904326,-8.8074715)" />
            <path
               id="circle5150-8"
               style="display:inline;fill:#54478c;fill-opacity:1;stroke:#006d93;stroke-width:0.188976;stroke-linejoin:round;stroke-miterlimit:4;stroke-dasharray:none;stroke-opacity:0.5"
               d="m 209.87695,129.73047 a 94.488189,94.488189 0 0 0 -20.90039,59.24609 94.488189,94.488189 0 0 0 20.8711,59.21094 113.38583,113.38583 0 0 0 16.92382,-59.20703 113.38583,113.38583 0 0 0 -16.89453,-59.25 z"
               transform="matrix(0.26458333,0,0,0.26458333,51.904326,-8.8074715)" />
            <path
               id="path7774"
               style="display:inline;fill:#0db39e;fill-opacity:1;stroke:#006d93;stroke-width:0.188976;stroke-linejoin:round;stroke-miterlimit:4;stroke-dasharray:none;stroke-opacity:0.5"
               d="m 251.8125,132.82031 a 75.590551,75.590551 0 0 0 -25.04102,56.15625 75.590551,75.590551 0 0 0 25.03711,56.1543 132.28346,132.28346 0 0 0 12.75782,-56.15039 132.28346,132.28346 0 0 0 -12.75391,-56.16016 z"
               transform="matrix(0.26458333,0,0,0.26458333,51.904326,-8.8074715)" />
          </g>
          <g
             id="g5751"
             style="display:inline;stroke:#006d93;stroke-width:0.05;stroke-miterlimit:4;stroke-dasharray:none;stroke-opacity:0.5"
             transform="translate(-0.16019701)">
            <path
               id="circle5148"
               style="display:inline;fill:#048ba8;fill-opacity:1;stroke:#006d93;stroke-width:0.05;stroke-linejoin:round;stroke-miterlimit:4;stroke-dasharray:none;stroke-opacity:0.5"
               d="M 50.160245,50.000048 A 24.999999,24.999999 0 0 1 44.60658,65.672477 30,30 0 0 0 57.283325,77.089867 34.999998,34.999998 0 0 0 62.629768,71.629735 24.999999,24.999999 0 0 1 50.160245,50.000048 Z m -9.826273,3.06493 a 30,30 0 0 0 0.15813,1.131713 30,30 0 0 1 -0.15813,-1.131713 z m 0.481623,3.024622 a 30,30 0 0 0 0.311611,1.328599 30,30 0 0 1 -0.311611,-1.328599 z m 0.786517,2.967775 a 30,30 0 0 0 0.454752,1.364777 30,30 0 0 1 -0.454752,-1.364777 z m 1.099158,2.911967 a 30,30 0 0 0 0.883666,1.865003 30,30 0 0 1 -0.883666,-1.865003 z" />
            <path
               id="circle5150"
               style="display:inline;fill:#49769e;fill-opacity:1;stroke:#006d93;stroke-width:0.05;stroke-linejoin:round;stroke-miterlimit:4;stroke-dasharray:none;stroke-opacity:0.5"
               d="m 50.160245,50.000048 a 24.999998,24.999998 0 0 1 -5.542296,15.657959 30,30 0 0 0 5.502505,6.648172 30,30 0 0 0 5.581573,-6.679694 24.999999,24.999999 0 0 1 -5.541782,-15.626437 z m -9.839709,3.011704 a 30,30 0 0 0 0.03721,0.31781 30,30 0 0 1 -0.03721,-0.31781 z m 0.464571,3.0055 a 30,30 0 0 0 0.0894,0.42478 30,30 0 0 1 -0.0894,-0.42478 z m 0.787548,3.01997 a 30,30 0 0 0 0.112655,0.365868 30,30 0 0 1 -0.112655,-0.365868 z m 1.136365,3.024621 a 30,30 0 0 0 0.199988,0.428398 30,30 0 0 1 -0.199988,-0.428398 z m 1.352888,2.685624 a 30,30 0 0 0 0.319879,0.548288 30,30 0 0 1 -0.319879,-0.548288 z" />
          </g>
          <g
             id="g2903"
             style="display:inline;stroke:#006d93;stroke-width:0.05;stroke-miterlimit:4;stroke-dasharray:none;stroke-opacity:0.5">
            <path
               id="path2899"
               style="display:inline;fill:#83e377;fill-opacity:1;stroke:#006d93;stroke-width:0.188976;stroke-linejoin:round;stroke-miterlimit:4;stroke-dasharray:none;stroke-opacity:0.5"
               d="m 215.91211,86.582031 a 113.38583,113.38583 0 0 0 -47.92773,43.162109 94.488186,94.488186 0 0 1 20.99218,59.23242 94.488187,94.488187 0 0 1 47.13672,-81.75781 132.28346,132.28346 0 0 0 -20.20117,-20.636719 z m -51.45117,49.501949 a 113.38583,113.38583 0 0 0 -3.69532,7.70118 113.38583,113.38583 0 0 1 3.69532,-7.70118 z m -6.10938,13.5 a 113.38583,113.38583 0 0 0 -1.71289,5.13086 113.38583,113.38583 0 0 1 1.71289,-5.13086 z m -3.51953,11.36914 a 113.38583,113.38583 0 0 0 -1.17578,5.00977 113.38583,113.38583 0 0 1 1.17578,-5.00977 z m -2.39453,12.14844 a 113.38583,113.38583 0 0 0 -0.59961,4.29297 113.38583,113.38583 0 0 1 0.59961,-4.29297 z"
               transform="scale(0.26458333)" />
            <path
               id="path2901"
               style="display:inline;fill:#16db93;fill-opacity:1;stroke:#006d93;stroke-width:0.188976;stroke-linejoin:round;stroke-miterlimit:4;stroke-dasharray:none;stroke-opacity:0.5"
               d="m 188.88086,104.62305 a 113.38583,113.38583 0 0 0 -20.85352,25.17578 94.488184,94.488184 0 0 1 20.94922,59.17773 94.488187,94.488187 0 0 1 20.97852,-59.10351 113.38583,113.38583 0 0 0 -21.07422,-25.25 z m -21.73828,26.53515 a 113.38583,113.38583 0 0 0 -1.1836,2.02735 113.38583,113.38583 0 0 1 1.1836,-2.02735 z m -5.56641,10.59766 a 113.38583,113.38583 0 0 0 -0.74219,1.58789 113.38583,113.38583 0 0 1 0.74219,-1.58789 z m -4.6289,11.67578 a 113.38583,113.38583 0 0 0 -0.41016,1.32813 113.38583,113.38583 0 0 1 0.41016,-1.32813 z m -3.0625,11.18164 a 113.38583,113.38583 0 0 0 -0.33789,1.60547 113.38583,113.38583 0 0 1 0.33789,-1.60547 z m -1.95704,11.77344 a 113.38583,113.38583 0 0 0 -0.14062,1.20898 113.38583,113.38583 0 0 1 0.14062,-1.20898 z"
               transform="scale(0.26458333)" />
          </g>
          <path
             id="circle5152-6"
             style="display:inline;fill:#0db39e;fill-opacity:1;stroke:#006d93;stroke-width:0.05;stroke-linejoin:round;stroke-miterlimit:4;stroke-dasharray:none;stroke-opacity:0.5"
             d="m 44.443282,34.32452 a 30,30 0 0 0 -4.44314,15.675528 30,30 0 0 0 4.443656,15.676046 24.999999,24.999999 0 0 0 5.55625,-15.676046 24.999999,24.999999 0 0 0 -5.556766,-15.675528 z" />
          <path
             id="path7530"
             style="display:inline;fill:#b9e769;fill-opacity:1;stroke:#006d93;stroke-width:0.05;stroke-linejoin:round;stroke-miterlimit:4;stroke-dasharray:none;stroke-opacity:0.5"
             d="M 33.349903,35.111033 A 34.999998,34.999998 0 0 0 30.000236,50.000048 34.999998,34.999998 0 0 0 33.340085,64.869424 20,20 0 0 0 40.000142,50.000048 20,20 0 0 0 33.349903,35.111033 Z" />
          <g
             id="g10285"
             style="stroke:#006d93;stroke-width:0.05;stroke-miterlimit:4;stroke-dasharray:none;stroke-opacity:0.5">
            <path
               id="path10120"
               style="display:inline;fill:#83e377;fill-opacity:1;stroke:#006d93;stroke-width:0.188976;stroke-linejoin:round;stroke-miterlimit:4;stroke-dasharray:none;stroke-opacity:0.5"
               d="m 151.18164,188.97656 a 75.59055,75.59055 0 0 1 -25.2168,56.07813 132.28346,132.28346 0 0 0 63.12696,63.36133 132.28346,132.28346 0 0 0 27.00781,-17.16797 113.38583,113.38583 0 0 1 -64.91797,-102.27149 z"
               transform="scale(0.26458333)" />
            <path
               id="path9476"
               style="display:inline;fill:#0db39e;fill-opacity:1;stroke:#006d93;stroke-width:0.188976;stroke-linejoin:round;stroke-miterlimit:4;stroke-dasharray:none;stroke-opacity:0.5"
               d="m 167.98828,248.06055 a 94.488188,94.488188 0 0 1 -26.26172,22.5039 132.28346,132.28346 0 0 0 47.36524,37.85157 132.28346,132.28346 0 0 0 27.00781,-17.16797 113.38583,113.38583 0 0 1 -48.11133,-43.1875 z"
               transform="scale(0.26458333)" />
            <path
               id="path9889"
               style="display:inline;fill:#16db93;fill-opacity:1;stroke:#006d93;stroke-width:0.188976;stroke-linejoin:round;stroke-miterlimit:4;stroke-dasharray:none;stroke-opacity:0.5"
               d="m 188.96289,273.18555 a 113.38583,113.38583 0 0 1 -26.99609,17.98633 132.28346,132.28346 0 0 0 27.125,17.24414 132.28346,132.28346 0 0 0 27.00781,-17.16797 113.38583,113.38583 0 0 1 -27.13672,-18.0625 z"
               transform="scale(0.26458333)" />
          </g>
          <g
             id="g10293"
             style="stroke:#006d93;stroke-width:0.05;stroke-miterlimit:4;stroke-dasharray:none;stroke-opacity:0.5">
            <path
               id="path10287"
               style="display:inline;fill:#f29e4c;fill-opacity:1;stroke:#006d93;stroke-width:0.188976;stroke-linejoin:round;stroke-miterlimit:4;stroke-dasharray:none;stroke-opacity:0.5"
               d="m 189.10742,69.527344 a 132.28346,132.28346 0 0 0 -63.06445,63.195316 75.59055,75.59055 0 0 1 25.13867,56.2539 113.38583,113.38583 0 0 1 64.96289,-102.292966 132.28346,132.28346 0 0 0 -27.03711,-17.15625 z"
               transform="scale(0.26458333)" />
            <path
               id="path10289"
               style="display:inline;fill:#83e377;fill-opacity:1;stroke:#006d93;stroke-width:0.188976;stroke-linejoin:round;stroke-miterlimit:4;stroke-dasharray:none;stroke-opacity:0.5"
               d="m 189.10742,69.527344 a 132.28346,132.28346 0 0 0 -47.26562,37.710936 94.488188,94.488188 0 0 1 26.23828,22.5 113.38583,113.38583 0 0 1 48.06445,-43.054686 132.28346,132.28346 0 0 0 -27.03711,-17.15625 z"
               transform="scale(0.26458333)" />
            <path
               id="path10291"
               style="display:inline;fill:#b9e769;fill-opacity:1;stroke:#006d93;stroke-width:0.188976;stroke-linejoin:round;stroke-miterlimit:4;stroke-dasharray:none;stroke-opacity:0.5"
               d="M 189.10742,69.527344 A 132.28346,132.28346 0 0 0 162.15625,86.625 a 113.38583,113.38583 0 0 1 26.9668,18.00391 113.38583,113.38583 0 0 1 27.02148,-17.945316 132.28346,132.28346 0 0 0 -27.03711,-17.15625 z"
               transform="scale(0.26458333)" />
          </g>
        </g>
        <g
           aria-label="Gradient Boosted Multi-Label Classification Rules"
           transform="matrix(0.26458333,0,0,0.26458333,300.82037,1.0583322)"
           id="text5064"
           style="font-size:50.6667px;line-height:1.25;font-family:'Jost*';-inkscape-font-specification:'Jost*';letter-spacing:0px;word-spacing:0px;white-space:pre;shape-inside:url(#rect5066);display:inline;fill:#d1d1d1;stroke:none;fill-opacity:1">
          <path
             d="m -644.90686,302.49601 h 14.552 c -1.564,6.392 -6.392,11.628 -14.892,11.628 -9.384,0 -16.524,-6.936 -16.524,-17.34 0,-10.404 7.344,-17.204 16.524,-17.204 6.596,0 11.288,2.992 13.94,7.48 l 6.528,-4.352 c -4.216,-6.596 -11.152,-10.608 -20.468,-10.608 -14.348,0 -25.024,10.132 -25.024,24.684 0,14.552 10.472,24.82 24.888,24.82 15.232,0 23.732,-11.968 23.392,-25.908 h -22.916 z m 47.12403,-5.372 3.604,-6.188 c -1.428,-1.632 -3.536,-2.38 -5.78,-2.38 -2.652,0 -5.304,1.7 -7.14,4.488 v -3.74 h -7.276 v 31.28 h 7.276 v -17.612 c 0,-4.488 1.496,-7.48 5.168,-7.48 1.768,0 2.788,0.544 4.148,1.632 z m 10.94802,0.34 c 1.36,-1.02 5.1,-2.924 9.52,-2.924 3.876,0 6.664,1.36 6.664,5.168 v 3.808 c -1.972,-1.088 -4.964,-2.176 -9.044,-2.176 -7.752,0 -12.24,3.876 -12.24,9.928 0,6.392 5.032,9.996 10.948,9.996 4.012,0 8.364,-1.632 10.336,-4.964 v 4.284 h 7.208 v -22.304 c 0,-6.188 -5.508,-9.724 -13.124,-9.724 -5.848,0 -10.404,2.04 -13.26,3.74 z m 2.312,13.396 c 0,-2.924 1.972,-4.692 6.596,-4.692 2.652,0 5.032,0.476 7.276,1.496 v 0.476 c 0,4.76 -3.672,7.616 -8.024,7.616 -3.4,0 -5.848,-1.768 -5.848,-4.896 z m 27.26798,-5.916 c 0,10.268 7.072,16.32 15.232,16.32 4.556,0 8.364,-2.108 10.676,-5.916 v 5.236 h 7.412 v -53.04 h -7.412 v 26.996 c -2.312,-3.808 -6.12,-5.916 -10.676,-5.916 -8.16,0 -15.232,5.984 -15.232,16.32 z m 7.616,0 c 0,-6.256 4.284,-9.928 9.384,-9.928 4.284,0 8.908,3.536 8.908,9.928 0,6.324 -4.624,9.928 -8.908,9.928 -5.1,0 -9.384,-3.672 -9.384,-9.928 z m 34.54404,-28.084 c 0,2.516 2.108,4.488 4.624,4.488 2.584,0 4.692,-1.972 4.692,-4.488 0,-2.516 -2.108,-4.488 -4.692,-4.488 -2.516,0 -4.624,1.972 -4.624,4.488 z m 1.02,12.444 v 31.28 h 7.276 v -31.28 z m 31.00803,31.96 c 7.208,0 12.376,-2.788 15.708,-8.5 l -6.392,-2.516 c -1.972,3.332 -4.964,4.964 -8.976,4.964 -5.1,0 -8.296,-3.06 -8.772,-8.568 h 24.344 c 0,-0.34 0.068,-1.224 0.068,-2.04 0,-9.996 -5.78,-15.98 -15.64,-15.98 -9.928,0 -16.32,6.46 -16.32,16.32 0,9.792 6.324,16.32 15.98,16.32 z m 0.272,-27.064 c 4.42,0 7.344,2.924 7.684,7.344 h -16.184 c 0.884,-4.76 3.808,-7.276 8.5,-7.344 z m 42.90796,7.344 v 19.04 h 7.548 v -19.924 c 0,-7.48 -3.808,-12.036 -10.88,-12.036 -4.284,0 -7.412,1.836 -9.384,5.508 v -4.828 h -7.412 v 31.28 h 7.412 v -19.04 c 0,-4.284 2.72,-7.004 6.936,-7.004 3.944,0 5.78,2.448 5.78,7.004 z m 12.58001,-12.24 v 6.46 h 5.304 v 24.82 h 7.208 v -24.82 h 5.236 v -6.46 h -5.236 v -10.88 h -7.208 v 10.88 z m 76.09194,17.544 c 0,-6.664 -4.216,-10.472 -10.132,-12.104 4.624,-1.7 7.412,-5.032 7.412,-9.792 0,-8.092 -6.256,-11.968 -15.232,-11.968 h -14.348 v 47.6 h 15.164 c 10.064,0 17.136,-4.284 17.136,-13.736 z m -18.496,-27.268 c 4.42,0 7.548,2.312 7.548,6.256 0,4.012 -3.128,6.256 -7.548,6.256 h -5.78 v -12.512 z m -5.78,34.34 v -15.572 h 6.664 c 5.44,0 9.384,2.516 9.384,7.684 0,5.304 -3.944,7.888 -9.384,7.888 z m 29.85198,-8.976 c 0,9.588 7.276,16.32 16.864,16.32 9.588,0 16.864,-6.732 16.864,-16.32 0,-9.656 -7.276,-16.32 -16.864,-16.32 -9.588,0 -16.864,6.664 -16.864,16.32 z m 7.548,0 c 0,-5.848 4.012,-9.86 9.316,-9.86 5.236,0 9.316,4.012 9.316,9.86 0,5.848 -4.08,9.86 -9.316,9.86 -5.304,0 -9.316,-4.012 -9.316,-9.86 z m 30.80393,0 c 0,9.588 7.276,16.32 16.864,16.32 9.588,0 16.864,-6.732 16.864,-16.32 0,-9.656 -7.276,-16.32 -16.864,-16.32 -9.588,0 -16.864,6.664 -16.864,16.32 z m 7.548,0 c 0,-5.848 4.012,-9.86 9.316,-9.86 5.236,0 9.316,4.012 9.316,9.86 0,5.848 -4.08,9.86 -9.316,9.86 -5.304,0 -9.316,-4.012 -9.316,-9.86 z m 34.61196,5.304 -4.284,4.352 c 2.72,3.536 7.48,6.936 14.008,6.936 6.8,0 11.152,-3.876 11.152,-9.792 0,-5.644 -4.352,-7.752 -9.588,-9.86 -3.808,-1.496 -6.8,-2.584 -6.8,-4.896 0,-1.768 1.564,-2.652 3.672,-2.652 3.06,0 6.12,1.768 8.16,4.148 l 4.08,-4.352 c -2.584,-3.128 -7.004,-5.508 -12.104,-5.508 -5.78,0 -10.744,2.856 -10.744,8.5 0,5.644 4.624,8.024 8.908,9.52 4.148,1.496 7.004,2.72 7.004,5.508 0,2.04 -1.564,3.332 -4.216,3.332 -3.196,0 -6.188,-1.836 -9.248,-5.236 z m 23.052,-20.944 v 6.46 h 5.304 v 24.82 h 7.208 v -24.82 h 5.236 v -6.46 h -5.236 v -10.88 h -7.208 v 10.88 z m 36.37998,31.96 c 7.208,0 12.376,-2.788 15.708,-8.5 l -6.392,-2.516 c -1.972,3.332 -4.964,4.964 -8.976,4.964 -5.1,0 -8.296,-3.06 -8.772,-8.568 h 24.344 c 0,-0.34 0.068,-1.224 0.068,-2.04 0,-9.996 -5.78,-15.98 -15.64,-15.98 -9.928,0 -16.32,6.46 -16.32,16.32 0,9.792 6.324,16.32 15.98,16.32 z m 0.272,-27.064 c 4.42,0 7.344,2.924 7.684,7.344 h -16.184 c 0.884,-4.76 3.808,-7.276 8.5,-7.344 z m 20.39998,10.744 c 0,10.268 7.072,16.32 15.232,16.32 4.556,0 8.364,-2.108 10.676,-5.916 v 5.236 h 7.412 v -53.04 h -7.412 v 26.996 c -2.312,-3.808 -6.12,-5.916 -10.676,-5.916 -8.16,0 -15.232,5.984 -15.232,16.32 z m 7.616,0 c 0,-6.256 4.284,-9.928 9.384,-9.928 4.284,0 8.908,3.536 8.908,9.928 0,6.324 -4.624,9.928 -8.908,9.928 -5.1,0 -9.384,-3.672 -9.384,-9.928 z m 64.66796,-13.328 14.484003,24.548 14.484,-24.548 3.332,28.968 h 8.296 l -6.528,-49.98 -19.584,32.3 -19.516003,-32.3 -6.528,49.98 h 8.296 z m 55.420039,16.728 v -19.04 h -7.548 v 19.856 c 0,7.48 3.876,12.104 10.88,12.104 4.352,0 7.412,-1.904 9.452,-5.508 v 4.828 h 7.344 v -31.28 h -7.344 v 19.04 c 0,4.216 -2.788,7.004 -6.936,7.004 -3.944,0 -5.848,-2.516 -5.848,-7.004 z m 29.511998,-40.8 v 53.04 h 7.412 v -53.04 z m 12.376027,21.76 v 6.46 h 5.304 v 24.82 h 7.2079999 v -24.82 h 5.236 v -6.46 h -5.236 v -10.88 h -7.2079999 v 10.88 z m 22.5079784,-12.444 c 0,2.516 2.108,4.488 4.6239996,4.488 2.584,0 4.692,-1.972 4.692,-4.488 0,-2.516 -2.108,-4.488 -4.692,-4.488 -2.5159996,0 -4.6239996,1.972 -4.6239996,4.488 z m 1.02,12.444 v 31.28 h 7.2759996 v -31.28 z m 13.0560666,18.428 h 13.94 v -6.596 h -13.94 z m 16.863995,-10.948 c 0,14.212 10.404,24.82 24.684,24.82 14.348,0 24.752,-10.608 24.752,-24.82 0,-14.212 -10.54,-24.684 -24.752,-24.684 -14.076,0 -24.684,10.472 -24.684,24.684 z m 8.5,0 c 0,-9.792 6.732,-16.932 16.184,-16.932 9.588,0 16.184,7.14 16.184,16.932 0,9.792 -6.664,16.932 -16.184,16.932 -9.452,0 -16.184,-7.14 -16.184,-16.932 z m 55.759946,11.56 v -19.04 h -7.548003 v 19.856 c 0,7.48 3.876,12.104 10.880003,12.104 4.352,0 7.412,-1.904 9.452,-5.508 v 4.828 h 7.344 v -31.28 h -7.344 v 19.04 c 0,4.216 -2.788,7.004 -6.936,7.004 -3.944,0 -5.848,-2.516 -5.848,-7.004 z m 25.15999,-19.04 v 6.46 h 5.304 v 24.82 h 7.208 v -24.82 h 5.236 v -6.46 h -5.236 v -10.88 h -7.208 v 10.88 z m 29.92004,46.24 v -20.196 c 2.244,3.876 5.984,6.052 10.676,6.052 8.16,0 15.232,-5.984 15.232,-16.456 0,-10.472 -7.072,-16.524 -15.232,-16.524 -4.692,0 -8.432,2.244 -10.676,6.12 v -5.236 h -7.412 v 46.24 z m 18.292,-30.6 c 0,6.256 -4.284,9.792 -9.384,9.792 -4.284,0 -8.908,-3.468 -8.908,-9.792 0,-6.392 4.624,-9.792 8.908,-9.792 5.1,0 9.384,3.536 9.384,9.792 z m 22.16801,3.4 v -19.04 h -7.548 v 19.856 c 0,7.48 3.876,12.104 10.88,12.104 4.352,0 7.412,-1.904 9.452,-5.508 v 4.828 h 7.344 v -31.28 h -7.344 v 19.04 c 0,4.216 -2.788,7.004 -6.936,7.004 -3.944,0 -5.848,-2.516 -5.848,-7.004 z m 25.16005,-19.04 v 6.46 h 5.304 v 24.82 h 7.208 v -24.82 h 5.236 v -6.46 h -5.236 v -10.88 h -7.208 v 10.88 z m 43.79189,-16.32 v 47.6 h 8.024 v -18.02 h 4.896 l 12.036,18.02 h 9.724 l -13.464,-18.904 c 6.596,-1.972 10.608,-7.004 10.608,-13.94 0,-8.908 -6.8,-14.756 -17.136,-14.756 z m 14.348,6.936 c 5.508,0 9.18,2.924 9.18,8.024 0,5.1 -3.672,7.956 -9.18,7.956 h -6.324 v -15.98 z m 33.04796,28.424 v -19.04 h -7.548 v 19.856 c 0,7.48 3.876,12.104 10.88,12.104 4.352,0 7.412,-1.904 9.452,-5.508 v 4.828 h 7.344 v -31.28 h -7.344 v 19.04 c 0,4.216 -2.788,7.004 -6.936,7.004 -3.944,0 -5.848,-2.516 -5.848,-7.004 z m 29.51206,-40.8 v 53.04 h 7.412 v -53.04 z m 30.32802,53.72 c 7.208,0 12.376,-2.788 15.708,-8.5 l -6.392,-2.516 c -1.972,3.332 -4.964,4.964 -8.976,4.964 -5.1,0 -8.296,-3.06 -8.772,-8.568 h 24.344 c 0,-0.34 0.068,-1.224 0.068,-2.04 0,-9.996 -5.78,-15.98 -15.64,-15.98 -9.928,0 -16.32,6.46 -16.32,16.32 0,9.792 6.324,16.32 15.98,16.32 z m 0.272,-27.064 c 4.42,0 7.344,2.924 7.684,7.344 h -16.184 c 0.884,-4.76 3.808,-7.276 8.5,-7.344 z m 24.20798,16.048 -4.284,4.352 c 2.72,3.536 7.48,6.936 14.008,6.936 6.8,0 11.152,-3.876 11.152,-9.792 0,-5.644 -4.352,-7.752 -9.588,-9.86 -3.808,-1.496 -6.8,-2.584 -6.8,-4.896 0,-1.768 1.564,-2.652 3.672,-2.652 3.06,0 6.12,1.768 8.16,4.148 l 4.08,-4.352 c -2.584,-3.128 -7.004,-5.508 -12.104,-5.508 -5.78,0 -10.744,2.856 -10.744,8.5 0,5.644 4.624,8.024 8.908,9.52 4.148,1.496 7.004,2.72 7.004,5.508 0,2.04 -1.564,3.332 -4.216,3.332 -3.196,0 -6.188,-1.836 -9.248,-5.236 z"
             id="text2"
             style="font-weight:500;font-size:68px;-inkscape-font-specification:'Jost* Medium';stroke-width:1.00157"
             aria-label="Gradient Boosted Multi-Output Rules" />
        </g>
        <path
           style="fill:none;stroke:#d1d1d1;stroke-width:1.5;stroke-linecap:butt;stroke-linejoin:miter;stroke-miterlimit:4;stroke-dasharray:none;stroke-opacity:1"
           d="M 116.20723,66.113946 419.04695,65.617083"
           id="path25487" />
        <g
           aria-label="BOOMER"
           transform="matrix(0.26458333,0,0,0.26458333,12.209961,-2.5128633)"
           id="text65285"
           style="font-size:264px;line-height:1.25;font-family:'Jost*';-inkscape-font-specification:'Jost*';letter-spacing:0px;word-spacing:0px;white-space:pre;shape-inside:url(#rect65287-3);display:inline;fill:#d1d1d1;stroke:none;fill-opacity:1">
          <path
             style="font-weight:500;-inkscape-font-specification:'Jost* Medium'"
             d="m 545.992,175.19989 c 0,-25.872 -16.368,-40.656 -39.336,-46.992 17.952,-6.6 28.776,-19.536 28.776,-38.015997 0,-31.416 -24.288,-46.464 -59.136,-46.464 H 420.592 V 228.52789 h 58.872 c 39.072,0 66.528,-16.632 66.528,-53.328 z M 474.184,69.335893 c 17.16,0 29.304,8.976 29.304,24.288 0,15.575997 -12.144,24.287997 -29.304,24.287997 h -22.44 V 69.335893 Z m -22.44,133.319997 v -60.456 h 25.872 c 21.12,0 36.432,9.768 36.432,29.832 0,20.592 -15.312,30.624 -36.432,30.624 z m 116.95196,-66.528 c 0,55.176 40.392,96.36 95.832,96.36 55.704,0 96.096,-41.184 96.096,-96.36 0,-55.175997 -40.92,-95.831997 -96.096,-95.831997 -54.648,0 -95.832,40.656 -95.832,95.831997 z m 33,0 c 0,-38.015997 26.136,-65.735997 62.832,-65.735997 37.224,0 62.832,27.72 62.832,65.735997 0,38.016 -25.872,65.736 -62.832,65.736 -36.696,0 -62.832,-27.72 -62.832,-65.736 z m 178.99186,0 c 0,55.176 40.392,96.36 95.832,96.36 55.704,0 96.096,-41.184 96.096,-96.36 0,-55.175997 -40.92,-95.831997 -96.096,-95.831997 -54.648,0 -95.832,40.656 -95.832,95.831997 z m 33,0 c 0,-38.015997 26.136,-65.735997 62.832,-65.735997 37.224,0 62.832,27.72 62.832,65.735997 0,38.016 -25.872,65.736 -62.832,65.736 -36.696,0 -62.832,-27.72 -62.832,-65.736 z m 223.87188,-20.064 56.232,95.304 56.232,-95.304 12.936,112.464 h 32.208 l -25.344,-194.039997 -76.032,125.399997 -75.768,-125.399997 -25.34399,194.039997 h 32.20799 z M 1225.7918,43.727893 V 228.52789 h 112.464 v -27.456 h -81.84 v -58.08 h 76.56 v -26.928 h -76.56 V 71.183893 h 81.84 v -27.456 z m 150.7438,0 V 228.52789 h 31.152 v -69.96 h 19.008 l 46.728,69.96 h 37.752 l -52.272,-73.392 c 25.608,-7.656 41.184,-27.192 41.184,-54.12 0,-34.583997 -26.4,-57.287997 -66.528,-57.287997 z m 55.704,26.928 c 21.384,0 35.64,11.352 35.64,31.151997 0,19.8 -14.256,30.888 -35.64,30.888 h -24.552 V 70.655893 Z"
             id="text1"
             aria-label="BOOMER" />
        </g>
      </g>
    </g>
  </g>
</svg>
