<?xml version="1.0" encoding="UTF-8"?>
<!-- Created with Inkscape (http://www.inkscape.org/) -->
<svg width="1171.7" height="604.72" version="1.1" viewBox="0 0 1171.7 604.72" xmlns="http://www.w3.org/2000/svg">
 <path transform="scale(1.3333)" d="m133.73 12.707h158.78v51.105h-158.78z" fill="none" stroke="#fff" stroke-width="2.8392"/>
 <path transform="matrix(1.3333 0 0 1.3333 197.23 58.357)" d="m2.1294-2.2536h1.8721v2.2536h-1.8721zm0-7.1424h1.8721v2.2536h-1.8721zm12.058 3.1852q0.57672 0.1952 1.1179 0.83402 0.5501 0.63882 1.1002 1.7568l1.8189 3.62h-1.9253l-1.6947-3.3982q-0.65657-1.3309-1.2776-1.7656-0.61221-0.43476-1.6769-0.43476h-1.952v5.5986h-1.7923v-13.247h4.0459q2.2714 0 3.3893 0.94936 1.1179 0.94936 1.1179 2.8658 0 1.251-0.58559 2.0762-0.57672 0.82515-1.6858 1.1446zm-4.4895-5.5631v4.7025h2.2536q1.2954 0 1.952-0.59446 0.66544-0.60333 0.66544-1.7656 0-1.1623-0.66544-1.7479-0.65657-0.59446-1.952-0.59446zm9.7761 7.8522v-6.0156h1.6326v5.9535q0 1.4107 0.5501 2.1205 0.5501 0.70093 1.6503 0.70093 1.322 0 2.0851-0.84289 0.77191-0.84289 0.77191-2.298v-5.6341h1.6326v9.9373h-1.6326v-1.5261q-0.59446 0.905-1.3841 1.3486-0.78078 0.43476-1.8189 0.43476-1.7124 0-2.5997-1.0647-0.88726-1.0647-0.88726-3.1143zm4.108-6.2552m7.5772-3.6289h1.6326v13.806h-1.6326zm13.548 8.4289v0.79853h-7.5062q0.10647 1.6858 1.0115 2.573 0.91387 0.87838 2.5376 0.87838 0.94049 0 1.8189-0.23069 0.88726-0.23069 1.7568-0.69206v1.5438q-0.87838 0.37265-1.8011 0.56784-0.92275 0.1952-1.8721 0.1952-2.3778 0-3.7708-1.3841-1.3841-1.3841-1.3841-3.7442 0-2.44 1.3131-3.8684 1.322-1.4374 3.5579-1.4374 2.0052 0 3.1675 1.2954 1.1712 1.2865 1.1712 3.5047zm-1.6326-0.47912q-0.01775-1.3398-0.75417-2.1383-0.72755-0.79853-1.9342-0.79853-1.3664 0-2.1915 0.77191-0.81628 0.77191-0.94049 2.1738zm4.383-7.3908h1.7923v13.247h-1.7923zm13.548 7.2489v5.9978h-1.6326v-5.9446q0-1.4107-0.5501-2.1117-0.5501-0.70093-1.6503-0.70093-1.322 0-2.0851 0.84289-0.76304 0.84289-0.76304 2.298v5.6163h-1.6414v-9.9373h1.6414v1.5438q0.58559-0.89613 1.3752-1.3398 0.79853-0.44363 1.8366-0.44363 1.7124 0 2.5908 1.0647 0.87838 1.0558 0.87838 3.1143zm9.7953-2.4311v-5.3768h1.6326v13.806h-1.6326v-1.4906q-0.51461 0.88726-1.3043 1.322-0.78078 0.42588-1.881 0.42588-1.8011 0-2.9368-1.4374-1.1268-1.4374-1.1268-3.7797t1.1268-3.7797q1.1357-1.4374 2.9368-1.4374 1.1002 0 1.881 0.43475 0.78966 0.42588 1.3043 1.3131zm-5.5631 3.4692q0 1.8011 0.73642 2.8303 0.7453 1.0203 2.0407 1.0203 1.2954 0 2.0407-1.0203 0.7453-1.0292 0.7453-2.8303 0-1.8011-0.7453-2.8215-0.7453-1.0292-2.0407-1.0292-1.2954 0-2.0407 1.0292-0.73642 1.0203-0.73642 2.8215zm10.39 1.0381v-6.0156h1.6326v5.9535q0 1.4107 0.5501 2.1205 0.5501 0.70093 1.6503 0.70093 1.322 0 2.0851-0.84289 0.77191-0.84289 0.77191-2.298v-5.6341h1.6326v9.9373h-1.6326v-1.5261q-0.59446 0.905-1.3841 1.3486-0.78078 0.43476-1.8189 0.43476-1.7124 0-2.5997-1.0647-0.88726-1.0647-0.88726-3.1143zm4.108-6.2552m14.728 0.62108v1.5261q-0.69206-0.38152-1.393-0.56784-0.69206-0.1952-1.4019-0.1952-1.5882 0-2.4666 1.0115-0.87838 1.0026-0.87838 2.8215 0 1.8189 0.87838 2.8303 0.87838 1.0026 2.4666 1.0026 0.7098 0 1.4019-0.18632 0.70093-0.1952 1.393-0.57672v1.5083q-0.68319 0.31941-1.4196 0.47912-0.72755 0.15971-1.5527 0.15971-2.2448 0-3.5668-1.4107-1.322-1.4107-1.322-3.8063 0-2.4311 1.3309-3.8241 1.3398-1.393 3.6644-1.393 0.75417 0 1.4728 0.15971 0.71868 0.15083 1.393 0.46137zm4.454-3.203v2.8215h3.3627v1.2688h-3.3627v5.3945q0 1.2155 0.32828 1.5616 0.33716 0.34603 1.3575 0.34603h1.6769v1.3664h-1.6769q-1.8899 0-2.6085-0.70093-0.71868-0.7098-0.71868-2.573v-5.3945h-1.1978v-1.2688h1.1978v-2.8215zm5.5099 2.8215h1.6326v9.9373h-1.6326zm0-3.8684h1.6326v2.0673h-1.6326zm8.8992 5.013q-1.3131 0-2.0762 1.0292-0.76304 1.0203-0.76304 2.8037 0 1.7834 0.75416 2.8126 0.76304 1.0203 2.0851 1.0203 1.3043 0 2.0673-1.0292t0.76304-2.8037q0-1.7656-0.76304-2.7949-0.76304-1.0381-2.0673-1.0381zm0-1.3841q2.1294 0 3.345 1.3841 1.2155 1.3841 1.2155 3.8329 0 2.44-1.2155 3.8329-1.2155 1.3841-3.345 1.3841-2.1383 0-3.3538-1.3841-1.2067-1.393-1.2067-3.8329 0-2.4488 1.2067-3.8329 1.2155-1.3841 3.3538-1.3841zm15.527 4.179v5.9978h-1.6326v-5.9446q0-1.4107-0.5501-2.1117-0.55009-0.70093-1.6503-0.70093-1.322 0-2.085 0.84289-0.76304 0.84289-0.76304 2.298v5.6163h-1.6414v-9.9373h1.6414v1.5438q0.58559-0.89613 1.3752-1.3398 0.79853-0.44363 1.8366-0.44363 1.7124 0 2.5908 1.0647 0.87838 1.0558 0.87838 3.1143z" fill="#fff" aria-label=":RuleInduction"/>
 <g fill="none" stroke="#fff">
  <path transform="scale(1.3333)" d="m147.93 48.055h130.39" stroke-width="1.4196"/>
  <path transform="scale(1.3333)" d="m128.72 267.07h749.03v99.73h-749.03z" stroke-width="2.8392"/>
  <path transform="scale(1.3333)" d="m128.72 238.68h56.785v28.391h-56.785z" stroke-width="2.8392"/>
 </g>
 <path transform="matrix(1.3333 0 0 1.3333 175.41 346.6)" d="m5.6695-3.6022q0 1.1002 0.39926 1.6592 0.40813 0.55897 1.1978 0.55897h1.9076v1.3841h-2.0673q-1.464 0-2.2713-0.94048-0.79852-0.94048-0.79852-2.6617v-9.0233h-2.6174v-1.2776h4.2499zm10.736-5.1904q-1.2421 0-1.881 0.9671t-0.63882 2.8658q0 1.8898 0.63882 2.8658 0.63882 0.9671 1.881 0.9671 1.251 0 1.8898-0.9671 0.63882-0.97597 0.63882-2.8658 0-1.8987-0.63882-2.8658t-1.8898-0.9671zm0-1.3841q2.0673 0 3.1586 1.3397 1.1002 1.3397 1.1002 3.8773 0 2.5464-1.0913 3.8861-1.0913 1.3309-3.1675 1.3309-2.0673 0-3.1586-1.3309-1.0913-1.3397-1.0913-3.8861 0-2.5375 1.0913-3.8773 1.0913-1.3397 3.1586-1.3397zm10.94 1.3841q-1.2421 0-1.881 0.9671t-0.63882 2.8658q0 1.8898 0.63882 2.8658 0.63882 0.9671 1.881 0.9671 1.251 0 1.8898-0.9671 0.63882-0.97597 0.63882-2.8658 0-1.8987-0.63882-2.8658t-1.8898-0.9671zm0-1.3841q2.0673 0 3.1586 1.3397 1.1002 1.3397 1.1002 3.8773 0 2.5464-1.0913 3.8861-1.0913 1.3309-3.1675 1.3309-2.0673 0-3.1586-1.3309-1.0913-1.3397-1.0913-3.8861 0-2.5375 1.0913-3.8773 1.0913-1.3397 3.1586-1.3397zm8.8015 8.9257v5.0307h-1.6414v-13.717h1.6414v1.2688q0.40813-0.73641 1.0824-1.1179 0.68318-0.39039 1.5704-0.39039 1.8011 0 2.8214 1.393 1.0292 1.393 1.0292 3.8595 0 2.4222-1.0292 3.8063-1.0292 1.3752-2.8214 1.3752-0.90499 0-1.5882-0.38152-0.67431-0.39039-1.0647-1.1268zm4.7911-3.7087q0-1.8987-0.60333-2.8658-0.59446-0.9671-1.7745-0.9671-1.1889 0-1.8011 0.97597-0.6122 0.9671-0.6122 2.8569 0 1.881 0.6122 2.8569 0.6122 0.97597 1.8011 0.97597 1.18 0 1.7745-0.9671 0.60333-0.9671 0.60333-2.8658z" fill="#fff" aria-label="loop"/>
 <g fill="none" stroke="#fff">
  <path transform="scale(1.3333)" d="m213.12 63.813v35.488" stroke-dasharray="11.3569, 11.3569" stroke-width="1.4196"/>
  <path transform="scale(1.3333)" d="m213.12 411.62v30.696" stroke-dasharray="11.3569, 11.3569" stroke-width="1.4196"/>
  <path transform="scale(1.3333)" d="m203.19 99.301h19.875v312.32h-19.875z" stroke-width="2.8392"/>
  <path transform="scale(1.3333)" d="m179.06 99.289-176.37-0.078" stroke-width="2.8392"/>
 </g>
 <path transform="scale(1.3333)" d="m179.06 106.39 22.715-7.086-22.711-7.11z" fill="#fff" stroke="#fff" stroke-width="2.8392"/>
 <path transform="matrix(1.3333 0 0 1.3333 3.2004 161.03)" d="m1.7124-9.9372h1.6325v9.9372h-1.6325zm0-3.8684h1.6325v2.0673h-1.6325zm13.309 7.8078v5.9978h-1.6325v-5.9445q0-1.4107-0.55009-2.1116-0.55009-0.70092-1.6503-0.70092-1.322 0-2.085 0.84288-0.76303 0.84288-0.76303 2.298v5.6163h-1.6414v-9.9372h1.6414v1.5438q0.58558-0.89612 1.3752-1.3397 0.79852-0.44362 1.8366-0.44362 1.7124 0 2.5908 1.0647 0.87837 1.0558 0.87837 3.1142zm9.7952-2.4311v-5.3767h1.6325v13.806h-1.6325v-1.4906q-0.5146 0.88725-1.3043 1.322-0.78078 0.42588-1.881 0.42588-1.8011 0-2.9368-1.4373-1.1268-1.4373-1.1268-3.7797t1.1268-3.7797q1.1357-1.4373 2.9368-1.4373 1.1002 0 1.881 0.43475 0.78965 0.42588 1.3043 1.3131zm-5.563 3.4691q0 1.8011 0.73641 2.8303 0.74529 1.0203 2.0407 1.0203t2.0407-1.0203q0.74529-1.0292 0.74529-2.8303t-0.74529-2.8214q-0.74529-1.0292-2.0407-1.0292t-2.0407 1.0292q-0.73641 1.0203-0.73641 2.8214zm10.39 1.0381v-6.0155h1.6325v5.9534q0 1.4107 0.55009 2.1205 0.55009 0.70092 1.6503 0.70092 1.322 0 2.085-0.84288 0.7719-0.84288 0.7719-2.298v-5.634h1.6325v9.9372h-1.6325v-1.5261q-0.59445 0.90499-1.3841 1.3486-0.78078 0.43475-1.8189 0.43475-1.7124 0-2.5996-1.0647-0.88725-1.0647-0.88725-3.1142zm4.1079-6.2551m14.728 0.62107v1.5261q-0.69205-0.38152-1.393-0.56784-0.69205-0.19519-1.4018-0.19519-1.5882 0-2.4665 1.0115-0.87837 1.0026-0.87837 2.8214 0 1.8189 0.87837 2.8303 0.87837 1.0026 2.4665 1.0026 0.7098 0 1.4018-0.18632 0.70092-0.19519 1.393-0.57671v1.5083q-0.68318 0.31941-1.4196 0.47911-0.72754 0.1597-1.5527 0.1597-2.2447 0-3.5667-1.4107-1.322-1.4107-1.322-3.8063 0-2.4311 1.3309-3.824 1.3397-1.393 3.6643-1.393 0.75416 0 1.4728 0.1597 0.71867 0.15083 1.393 0.46137zm11.339 4.1789v0.79852h-7.5061q0.10647 1.6858 1.0115 2.573 0.91386 0.87837 2.5375 0.87837 0.94048 0 1.8189-0.23068 0.88725-0.23068 1.7567-0.69205v1.5438q-0.87837 0.37264-1.8011 0.56784-0.92274 0.19519-1.8721 0.19519-2.3778 0-3.7708-1.3841-1.3841-1.3841-1.3841-3.7442 0-2.4399 1.3131-3.8684 1.322-1.4373 3.5579-1.4373 2.0052 0 3.1675 1.2954 1.1712 1.2865 1.1712 3.5046zm-1.6325-0.47911q-0.01774-1.3397-0.75416-2.1383-0.72754-0.79852-1.9342-0.79852-1.3664 0-2.1915 0.7719-0.81627 0.7719-0.94048 2.1738zm10.665-0.3549q0.57671 0.19519 1.1179 0.83401 0.55009 0.63882 1.1002 1.7567l1.8189 3.62h-1.9253l-1.6946-3.3982q-0.65656-1.3309-1.2776-1.7656-0.6122-0.43475-1.6769-0.43475h-1.9519v5.5985h-1.7922v-13.247h4.0458q2.2714 0 3.3893 0.94935 1.1179 0.94935 1.1179 2.8658 0 1.251-0.58558 2.0762-0.57671 0.82514-1.6858 1.1445zm-4.4895-5.563v4.7024h2.2536q1.2954 0 1.9519-0.59445 0.66543-0.60333 0.66543-1.7656 0-1.1623-0.66543-1.7479-0.65656-0.59446-1.9519-0.59446zm9.776 7.8521v-6.0155h1.6325v5.9534q0 1.4107 0.55009 2.1205 0.55009 0.70092 1.6503 0.70092 1.322 0 2.085-0.84288 0.7719-0.84288 0.7719-2.298v-5.634h1.6325v9.9372h-1.6325v-1.5261q-0.59446 0.90499-1.3841 1.3486-0.78078 0.43475-1.8189 0.43475-1.7124 0-2.5996-1.0647-0.88725-1.0647-0.88725-3.1142zm4.1079-6.2551m7.5771-3.6288h1.6325v13.806h-1.6325zm13.548 8.4288v0.79852h-7.5061q0.10647 1.6858 1.0115 2.573 0.91386 0.87837 2.5375 0.87837 0.94048 0 1.8189-0.23068 0.88725-0.23068 1.7567-0.69205v1.5438q-0.87837 0.37264-1.8011 0.56784-0.92274 0.19519-1.8721 0.19519-2.3778 0-3.7708-1.3841-1.3841-1.3841-1.3841-3.7442 0-2.4399 1.3131-3.8684 1.322-1.4373 3.5579-1.4373 2.0052 0 3.1675 1.2954 1.1712 1.2865 1.1712 3.5046zm-1.6325-0.47911q-0.01774-1.3397-0.75416-2.1383-0.72754-0.79852-1.9342-0.79852-1.3664 0-2.1915 0.7719-0.81627 0.7719-0.94048 2.1738zm8.2336-7.932q-1.1889 2.0407-1.7656 4.037-0.57671 1.9963-0.57671 4.0458 0 2.0495 0.57671 4.0636 0.58559 2.0052 1.7656 4.037h-1.4196q-1.3309-2.085-1.9963-4.0991-0.65656-2.014-0.65656-4.0015 0-1.9786 0.65656-3.9837 0.65656-2.0052 1.9963-4.0991zm2.5996 0.54122h1.9253l3.2917 4.9242 3.3094-4.9242h1.9253l-4.2588 6.3616 4.5427 6.885h-1.9253l-3.7264-5.634-3.7531 5.634h-1.9342l4.729-7.0714zm13.433 10.993h1.8721v1.5261l-1.4551 2.8392h-1.1445l0.72754-2.8392zm9.3871-10.993h1.9253l3.6732 5.4477 3.6466-5.4477h1.9253l-4.6847 6.9383v6.3083h-1.8011v-6.3083zm13.264 10.993h1.8721v1.5261l-1.4551 2.8392h-1.1445l0.72754-2.8392zm19.147-10.558v1.7479q-1.0203-0.48799-1.9253-0.72754-0.90499-0.23956-1.7479-0.23956-1.464 0-2.2625 0.56784-0.78965 0.56784-0.78965 1.6148 0 0.87837 0.52348 1.3309 0.53234 0.44362 2.0052 0.71867l1.0824 0.22181q2.0052 0.38152 2.9545 1.3486 0.95823 0.95823 0.95823 2.573 0 1.9253-1.2954 2.919-1.2865 0.99372-3.7797 0.99372-0.94048 0-2.0052-0.21294-1.0558-0.21294-2.1915-0.62994v-1.8455q1.0913 0.6122 2.1383 0.92274t2.0584 0.31054q1.5349 0 2.369-0.60333 0.83401-0.60333 0.83401-1.7213 0-0.97597-0.60333-1.5261-0.59445-0.55009-1.9608-0.82514l-1.0913-0.21294q-2.0052-0.39926-2.9013-1.251t-0.89612-2.3689q0-1.7567 1.2333-2.7682 1.2422-1.0115 3.4159-1.0115 0.93161 0 1.8987 0.16858 0.96709 0.16858 1.9786 0.50573zm3.2651-0.97597h1.4196q1.3309 2.0939 1.9874 4.0991 0.66543 2.0052 0.66543 3.9837 0 1.9874-0.66543 4.0015-0.65657 2.014-1.9874 4.0991h-1.4196q1.18-2.0318 1.7568-4.037 0.58558-2.014 0.58558-4.0636 0-2.0495-0.58558-4.0458-0.57671-1.9963-1.7568-4.037z" fill="#fff" aria-label="induceRule(X, Y, S)"/>
 <path transform="scale(1.3333)" d="m309.22 12.707h196.9v51.105h-196.9z" fill="none" stroke="#fff" stroke-width="2.8392"/>
 <path transform="matrix(1.3333 0 0 1.3333 431.25 58.357)" d="m2.1294-2.2536h1.8721v2.2536h-1.8721zm0-7.1424h1.8721v2.2536h-1.8721zm5.776-3.8507h1.7923v13.247h-1.7923zm13.548 7.2489v5.9978h-1.6326v-5.9446q0-1.4107-0.5501-2.1117-0.5501-0.70093-1.6503-0.70093-1.322 0-2.0851 0.84289-0.76304 0.84289-0.76304 2.298v5.6163h-1.6414v-9.9373h1.6414v1.5438q0.58559-0.89613 1.3752-1.3398 0.79853-0.44363 1.8366-0.44363 1.7124 0 2.5908 1.0647 0.87838 1.0558 0.87838 3.1143zm9.5912-3.6466v1.5438q-0.69206-0.3549-1.4374-0.53235t-1.5438-0.17745q-1.2155 0-1.8277 0.37265-0.60333 0.37265-0.60333 1.1179 0 0.56784 0.43476 0.89613 0.43476 0.31941 1.7479 0.61221l0.55897 0.12422q1.739 0.37265 2.4666 1.0558 0.73642 0.67431 0.73642 1.8899 0 1.3841-1.1002 2.1915-1.0913 0.8074-3.0078 0.8074-0.79853 0-1.668-0.15971-0.86064-0.15083-1.8189-0.46137v-1.6858q0.905 0.47025 1.7834 0.7098 0.87838 0.23069 1.739 0.23069 1.1534 0 1.7745-0.39039 0.62108-0.39927 0.62108-1.1179 0-0.66544-0.4525-1.0203-0.44363-0.3549-1.9608-0.68319l-0.56784-0.13309q-1.5172-0.31941-2.1915-0.97598-0.67431-0.66544-0.67431-1.8189 0-1.4019 0.99373-2.1649 0.99373-0.76304 2.8215-0.76304 0.905 0 1.7035 0.13309 0.79853 0.13309 1.4728 0.39927zm4.7468-3.1143v2.8215h3.3627v1.2688h-3.3627v5.3945q0 1.2155 0.32828 1.5616 0.33716 0.34603 1.3575 0.34603h1.6769v1.3664h-1.6769q-1.8899 0-2.6085-0.70093-0.71868-0.7098-0.71868-2.573v-5.3945h-1.1978v-1.2688h1.1978v-2.8215zm10.026 7.7635q-1.9786 0-2.7416 0.4525t-0.76304 1.5438q0 0.86951 0.56784 1.3841 0.57672 0.50574 1.5616 0.50574 1.3575 0 2.1738-0.95824 0.82515-0.96711 0.82515-2.5642v-0.36377zm3.2562-0.67431v5.6696h-1.6326v-1.5083q-0.55897 0.905-1.393 1.3398-0.83402 0.42588-2.0407 0.42588-1.5261 0-2.4311-0.85177-0.89613-0.86064-0.89613-2.298 0-1.6769 1.1179-2.5287 1.1268-0.85177 3.3538-0.85177h2.2891v-0.15971q0-1.1268-0.7453-1.739-0.73642-0.62108-2.0762-0.62108-0.85177 0-1.6592 0.20407-0.8074 0.20407-1.5527 0.61221v-1.5083q0.89613-0.34603 1.739-0.51461 0.84289-0.17745 1.6414-0.17745 2.156 0 3.2207 1.1179 1.0647 1.1179 1.0647 3.3893zm11.623-0.32828v5.9978h-1.6326v-5.9446q0-1.4107-0.5501-2.1117t-1.6503-0.70093q-1.322 0-2.0851 0.84289-0.76304 0.84289-0.76304 2.298v5.6163h-1.6414v-9.9373h1.6414v1.5438q0.58559-0.89613 1.3752-1.3398 0.79853-0.44363 1.8366-0.44363 1.7124 0 2.5908 1.0647 0.87838 1.0558 0.87838 3.1143zm10.408-3.5579v1.5261q-0.69206-0.38152-1.393-0.56784-0.69206-0.1952-1.4019-0.1952-1.5882 0-2.4666 1.0115-0.87838 1.0026-0.87838 2.8215 0 1.8189 0.87838 2.8303 0.87838 1.0026 2.4666 1.0026 0.7098 0 1.4019-0.18632 0.70093-0.1952 1.393-0.57672v1.5083q-0.68319 0.31941-1.4196 0.47912-0.72755 0.15971-1.5527 0.15971-2.2448 0-3.5668-1.4107-1.322-1.4107-1.322-3.8063 0-2.4311 1.3309-3.8241 1.3398-1.393 3.6644-1.393 0.75417 0 1.4728 0.15971 0.71868 0.15083 1.393 0.46137zm11.339 4.179v0.79853h-7.5062q0.10647 1.6858 1.0115 2.573 0.91387 0.87838 2.5376 0.87838 0.94049 0 1.8189-0.23069 0.88726-0.23069 1.7568-0.69206v1.5438q-0.87838 0.37265-1.8011 0.56784-0.92275 0.1952-1.8721 0.1952-2.3778 0-3.7708-1.3841-1.3841-1.3841-1.3841-3.7442 0-2.44 1.3131-3.8684 1.322-1.4374 3.5579-1.4374 2.0052 0 3.1675 1.2954 1.1712 1.2865 1.1712 3.5047zm-1.6326-0.47912q-0.01774-1.3398-0.75417-2.1383-0.72755-0.79853-1.9342-0.79853-1.3664 0-2.1915 0.77191-0.81628 0.77191-0.94049 2.1738zm12.324-6.9561v1.7479q-1.0203-0.48799-1.9253-0.72755t-1.7479-0.23956q-1.464 0-2.2625 0.56784-0.78966 0.56784-0.78966 1.6148 0 0.87838 0.52348 1.3309 0.53235 0.44363 2.0052 0.71868l1.0825 0.22181q2.0052 0.38152 2.9546 1.3486 0.95824 0.95824 0.95824 2.573 0 1.9253-1.2954 2.9191-1.2865 0.99373-3.7797 0.99373-0.94049 0-2.0052-0.21294-1.0558-0.21294-2.1915-0.62995v-1.8455q1.0913 0.61221 2.1383 0.92275 1.047 0.31054 2.0584 0.31054 1.535 0 2.369-0.60333 0.83402-0.60333 0.83402-1.7213 0-0.97598-0.60333-1.5261-0.59446-0.5501-1.9608-0.82515l-1.0913-0.21294q-2.0052-0.39927-2.9013-1.251t-0.89613-2.369q0-1.7568 1.2333-2.7682 1.2422-1.0115 3.4159-1.0115 0.93162 0 1.8987 0.16858t1.9786 0.50574zm8.0385 7.8167q-1.9786 0-2.7416 0.4525t-0.76304 1.5438q0 0.86951 0.56784 1.3841 0.57672 0.50574 1.5616 0.50574 1.3575 0 2.1738-0.95824 0.82515-0.96711 0.82515-2.5642v-0.36377zm3.2562-0.67431v5.6696h-1.6326v-1.5083q-0.55897 0.905-1.393 1.3398-0.83402 0.42588-2.0407 0.42588-1.5261 0-2.4311-0.85177-0.89613-0.86064-0.89613-2.298 0-1.6769 1.1179-2.5287 1.1268-0.85177 3.3538-0.85177h2.2891v-0.15971q0-1.1268-0.7453-1.739-0.73642-0.62108-2.0762-0.62108-0.85176 0-1.6592 0.20407t-1.5527 0.61221v-1.5083q0.89613-0.34603 1.739-0.51461 0.84289-0.17745 1.6414-0.17745 2.156 0 3.2207 1.1179 1.0647 1.1179 1.0647 3.3893zm11.1-2.3601q0.61221-1.1002 1.464-1.6237 0.85177-0.52348 2.0052-0.52348 1.5527 0 2.3956 1.0913 0.8429 1.0825 0.8429 3.0877v5.9978h-1.6414v-5.9446q0-1.4285-0.50573-2.1205-0.50574-0.69206-1.5438-0.69206-1.2688 0-2.0052 0.84289-0.73642 0.84289-0.73642 2.298v5.6163h-1.6414v-5.9446q0-1.4374-0.50574-2.1205-0.50573-0.69206-1.5616-0.69206-1.251 0-1.9874 0.85177-0.73642 0.84289-0.73642 2.2891v5.6163h-1.6414v-9.9373h1.6414v1.5438q0.55897-0.91387 1.3398-1.3486 0.78079-0.43475 1.8544-0.43475 1.0824 0 1.8366 0.5501 0.76304 0.5501 1.1268 1.5971zm11.543 6.5391v5.2703h-1.6414v-13.717h1.6414v1.5083q0.51461-0.88726 1.2954-1.3131 0.78966-0.43475 1.881-0.43475 1.81 0 2.9368 1.4374 1.1357 1.4374 1.1357 3.7797t-1.1357 3.7797q-1.1268 1.4374-2.9368 1.4374-1.0913 0-1.881-0.42588-0.78078-0.43476-1.2954-1.322zm5.5542-3.4692q0-1.8011-0.74529-2.8215-0.73643-1.0292-2.0318-1.0292t-2.0407 1.0292q-0.73642 1.0203-0.73642 2.8215 0 1.8011 0.73642 2.8303 0.7453 1.0203 2.0407 1.0203t2.0318-1.0203q0.74529-1.0292 0.74529-2.8303zm4.4008-8.8459h1.6326v13.806h-1.6326zm5.0485 3.8684h1.6326v9.9373h-1.6326zm0-3.8684h1.6326v2.0673h-1.6326zm13.309 7.8079v5.9978h-1.6326v-5.9446q0-1.4107-0.5501-2.1117t-1.6503-0.70093q-1.322 0-2.085 0.84289-0.76304 0.84289-0.76304 2.298v5.6163h-1.6414v-9.9373h1.6414v1.5438q0.58559-0.89613 1.3752-1.3398 0.79853-0.44363 1.8366-0.44363 1.7124 0 2.5908 1.0647 0.87838 1.0558 0.87838 3.1143zm9.7953 0.91387q0-1.7745-0.73642-2.7505-0.72755-0.97598-2.0496-0.97598-1.3131 0-2.0496 0.97598-0.72754 0.97598-0.72754 2.7505 0 1.7656 0.72754 2.7416 0.73643 0.97598 2.0496 0.97598 1.322 0 2.0496-0.97598 0.73642-0.97598 0.73642-2.7416zm1.6326 3.8507q0 2.5376-1.1268 3.7708-1.1268 1.2422-3.4514 1.2422-0.86064 0-1.6237-0.13309-0.76304-0.12422-1.4817-0.39039v-1.5882q0.71868 0.39039 1.4196 0.57672 0.70094 0.18632 1.4285 0.18632 1.6059 0 2.4045-0.84289 0.79853-0.83402 0.79853-2.5287v-0.8074q-0.50574 0.87838-1.2954 1.3131-0.78966 0.43476-1.8899 0.43476-1.8278 0-2.9457-1.393-1.1179-1.393-1.1179-3.691 0-2.3069 1.1179-3.6999 1.1179-1.393 2.9457-1.393 1.1002 0 1.8899 0.43475 0.78965 0.43476 1.2954 1.3131v-1.5083h1.6326z" fill="#fff" aria-label=":InstanceSampling"/>
 <path transform="scale(1.3333)" d="m323.42 48.055h168.51" fill="none" stroke="#fff" stroke-width="1.4196"/>
 <path transform="scale(1.3333)" d="m708.25 12.707h169.93v51.105h-169.93z" fill="none" stroke="#fff" stroke-width="2.8392"/>
 <path transform="matrix(1.3333 0 0 1.3333 963.24 58.357)" d="m2.1294-2.2536h1.8721v2.2536h-1.8721zm0-7.1424h1.8721v2.2536h-1.8721zm12.058 3.1852q0.57672 0.1952 1.1179 0.83402 0.5501 0.63882 1.1002 1.7568l1.8189 3.62h-1.9253l-1.6947-3.3982q-0.65657-1.3309-1.2776-1.7656-0.61221-0.43476-1.6769-0.43476h-1.952v5.5986h-1.7923v-13.247h4.0459q2.2714 0 3.3893 0.94936 1.1179 0.94936 1.1179 2.8658 0 1.251-0.58559 2.0762-0.57672 0.82515-1.6858 1.1446zm-4.4895-5.5631v4.7025h2.2536q1.2954 0 1.952-0.59446 0.66544-0.60333 0.66544-1.7656 0-1.1623-0.66544-1.7479-0.65657-0.59446-1.952-0.59446zm9.7761 7.8522v-6.0156h1.6326v5.9535q0 1.4107 0.5501 2.1205 0.5501 0.70093 1.6503 0.70093 1.322 0 2.0851-0.84289 0.77191-0.84289 0.77191-2.298v-5.6341h1.6326v9.9373h-1.6326v-1.5261q-0.59446 0.905-1.3841 1.3486-0.78078 0.43476-1.8189 0.43476-1.7124 0-2.5997-1.0647-0.88726-1.0647-0.88726-3.1143zm4.108-6.2552m7.5772-3.6289h1.6326v13.806h-1.6326zm13.548 8.4289v0.79853h-7.5062q0.10647 1.6858 1.0115 2.573 0.91387 0.87838 2.5376 0.87838 0.94049 0 1.8189-0.23069 0.88726-0.23069 1.7568-0.69206v1.5438q-0.87838 0.37265-1.8011 0.56784-0.92275 0.1952-1.8721 0.1952-2.3778 0-3.7708-1.3841-1.3841-1.3841-1.3841-3.7442 0-2.44 1.3131-3.8684 1.322-1.4374 3.5579-1.4374 2.0052 0 3.1675 1.2954 1.1712 1.2865 1.1712 3.5047zm-1.6326-0.47912q-0.01775-1.3398-0.75417-2.1383-0.72755-0.79853-1.9342-0.79853-1.3664 0-2.1915 0.77191-0.81628 0.77191-0.94049 2.1738zm4.383-7.3908h8.3757v1.5083h-6.5834v3.9217h6.3084v1.5083h-6.3084v4.8001h6.7431v1.5083h-8.5354zm10.239 3.3095h1.7301l3.1054 8.3402 3.1054-8.3402h1.7301l-3.7265 9.9373h-2.2181zm16.441 4.942q-1.9786 0-2.7416 0.4525t-0.76304 1.5438q0 0.86951 0.56784 1.3841 0.57672 0.50574 1.5616 0.50574 1.3575 0 2.1738-0.95824 0.82515-0.96711 0.82515-2.5642v-0.36377zm3.2562-0.67431v5.6696h-1.6326v-1.5083q-0.55897 0.905-1.393 1.3398-0.83402 0.42588-2.0407 0.42588-1.5261 0-2.4311-0.85177-0.89613-0.86064-0.89613-2.298 0-1.6769 1.1179-2.5287 1.1268-0.85177 3.3538-0.85177h2.2891v-0.15971q0-1.1268-0.7453-1.739-0.73642-0.62108-2.0762-0.62108-0.85176 0-1.6592 0.20407t-1.5527 0.61221v-1.5083q0.89613-0.34603 1.739-0.51461 0.84289-0.17745 1.6414-0.17745 2.156 0 3.2207 1.1179 1.0647 1.1179 1.0647 3.3893zm3.3627-8.1361h1.6326v13.806h-1.6326zm4.8799 9.884v-6.0156h1.6326v5.9535q0 1.4107 0.5501 2.1205 0.5501 0.70093 1.6503 0.70093 1.322 0 2.0851-0.84289 0.77191-0.84289 0.77191-2.298v-5.6341h1.6326v9.9373h-1.6326v-1.5261q-0.59446 0.905-1.3841 1.3486-0.78079 0.43476-1.8189 0.43476-1.7124 0-2.5997-1.0647-0.88726-1.0647-0.88726-3.1143zm4.108-6.2552m12.093 5.1816q-1.9786 0-2.7416 0.4525t-0.76304 1.5438q0 0.86951 0.56784 1.3841 0.57672 0.50574 1.5616 0.50574 1.3575 0 2.1738-0.95824 0.82515-0.96711 0.82515-2.5642v-0.36377zm3.2562-0.67431v5.6696h-1.6326v-1.5083q-0.55897 0.905-1.393 1.3398-0.83402 0.42588-2.0407 0.42588-1.5261 0-2.4311-0.85177-0.89613-0.86064-0.89613-2.298 0-1.6769 1.1179-2.5287 1.1268-0.85177 3.3538-0.85177h2.2891v-0.15971q0-1.1268-0.74529-1.739-0.73642-0.62108-2.0762-0.62108-0.85177 0-1.6592 0.20407-0.8074 0.20407-1.5527 0.61221v-1.5083q0.89613-0.34603 1.739-0.51461 0.8429-0.17745 1.6414-0.17745 2.156 0 3.2207 1.1179 1.0647 1.1179 1.0647 3.3893zm4.9775-7.0892v2.8215h3.3627v1.2688h-3.3627v5.3945q0 1.2155 0.32829 1.5616 0.33715 0.34603 1.3575 0.34603h1.6769v1.3664h-1.6769q-1.8899 0-2.6085-0.70093-0.71868-0.7098-0.71868-2.573v-5.3945h-1.1978v-1.2688h1.1978v-2.8215zm5.5099 2.8215h1.6326v9.9373h-1.6326zm0-3.8684h1.6326v2.0673h-1.6326zm8.8992 5.013q-1.3131 0-2.0762 1.0292-0.76304 1.0203-0.76304 2.8037 0 1.7834 0.75416 2.8126 0.76304 1.0203 2.085 1.0203 1.3043 0 2.0673-1.0292t0.76304-2.8037q0-1.7656-0.76304-2.7949-0.76304-1.0381-2.0673-1.0381zm0-1.3841q2.1294 0 3.345 1.3841 1.2155 1.3841 1.2155 3.8329 0 2.44-1.2155 3.8329-1.2155 1.3841-3.345 1.3841-2.1383 0-3.3538-1.3841-1.2067-1.393-1.2067-3.8329 0-2.4488 1.2067-3.8329 1.2155-1.3841 3.3538-1.3841zm15.527 4.179v5.9978h-1.6326v-5.9446q0-1.4107-0.55009-2.1117-0.5501-0.70093-1.6503-0.70093-1.322 0-2.085 0.84289-0.76304 0.84289-0.76304 2.298v5.6163h-1.6414v-9.9373h1.6414v1.5438q0.58559-0.89613 1.3752-1.3398 0.79853-0.44363 1.8366-0.44363 1.7124 0 2.5908 1.0647 0.87839 1.0558 0.87839 3.1143z" fill="#fff" aria-label=":RuleEvaluation"/>
 <g stroke="#fff">
  <path transform="scale(1.3333)" d="m722.44 48.055h141.54" fill="none" stroke-width="1.4196"/>
  <path transform="scale(1.3333)" d="m32.496 411.77 170.69-0.153" fill="none" stroke-dasharray="11.3569, 11.3569" stroke-width="2.8392"/>
  <path transform="scale(1.3333)" d="m32.492 404.67-22.707 7.117 22.719 7.078z" fill="#fff" stroke-width="2.8392"/>
 </g>
 <path transform="matrix(1.3333 0 0 1.3333 99.595 574.13)" d="m3.5756-6.3261v4.8532h2.8747q1.4462 0 2.1383-0.59445 0.70092-0.60333 0.70092-1.8366 0-1.2421-0.70092-1.8277-0.69205-0.59445-2.1383-0.59445zm0-5.4477v3.9926h2.6529q1.3131 0 1.9519-0.48799 0.64769-0.49686 0.64769-1.5083 0-1.0026-0.64769-1.4994-0.63882-0.49686-1.9519-0.49686zm-1.7922-1.4728h4.5782q2.0495 0 3.1586 0.85176 1.1091 0.85176 1.1091 2.4222 0 1.2155-0.56784 1.9342-0.56784 0.71867-1.668 0.89612 1.322 0.28392 2.0495 1.1889 0.73641 0.89612 0.73641 2.2447 0 1.7745-1.2067 2.7416-1.2067 0.9671-3.4336 0.9671h-4.7556zm20.895 7.8699v0.79852h-7.5061q0.10647 1.6858 1.0115 2.573 0.91386 0.87837 2.5375 0.87837 0.94048 0 1.8189-0.23068 0.88725-0.23068 1.7567-0.69205v1.5438q-0.87837 0.37264-1.8011 0.56784-0.92274 0.19519-1.8721 0.19519-2.3778 0-3.7708-1.3841-1.3841-1.3841-1.3841-3.7442 0-2.4399 1.3131-3.8684 1.322-1.4373 3.5579-1.4373 2.0052 0 3.1675 1.2954 1.1712 1.2865 1.1712 3.5046zm-1.6325-0.47911q-0.01775-1.3397-0.75416-2.1383-0.72754-0.79852-1.9342-0.79852-1.3664 0-2.1915 0.7719-0.81627 0.7719-0.94048 2.1738zm10.647-3.7885v1.5438q-0.69205-0.3549-1.4373-0.53235-0.74529-0.17745-1.5438-0.17745-1.2155 0-1.8277 0.37264-0.60333 0.37264-0.60333 1.1179 0 0.56784 0.43475 0.89612 0.43475 0.31941 1.7479 0.6122l0.55896 0.12421q1.739 0.37264 2.4665 1.0558 0.73642 0.67431 0.73642 1.8898 0 1.3841-1.1002 2.1915-1.0913 0.80739-3.0078 0.80739-0.79852 0-1.668-0.1597-0.86063-0.15083-1.8189-0.46137v-1.6858q0.90499 0.47024 1.7834 0.7098 0.87837 0.23068 1.739 0.23068 1.1534 0 1.7745-0.39039 0.62107-0.39926 0.62107-1.1179 0-0.66543-0.4525-1.0203-0.44362-0.3549-1.9608-0.68318l-0.56784-0.13309q-1.5172-0.31941-2.1915-0.97597-0.67431-0.66543-0.67431-1.8189 0-1.4018 0.99372-2.1649 0.99372-0.76303 2.8214-0.76303 0.90499 0 1.7035 0.13309 0.79852 0.13309 1.4728 0.39926zm4.7468-3.1142v2.8214h3.3627v1.2688h-3.3627v5.3945q0 1.2155 0.32828 1.5616 0.33715 0.34603 1.3575 0.34603h1.6769v1.3664h-1.6769q-1.8898 0-2.6085-0.70092-0.71867-0.7098-0.71867-2.573v-5.3945h-1.1978v-1.2688h1.1978v-2.8214zm17.044 4.3475q-0.27505-0.1597-0.60333-0.23068-0.31941-0.079852-0.7098-0.079852-1.3841 0-2.1294 0.90499-0.73641 0.89612-0.73641 2.5819v5.2348h-1.6414v-9.9372h1.6414v1.5438q0.5146-0.90499 1.3397-1.3397 0.82514-0.44362 2.0052-0.44362 0.16858 0 0.37264 0.02662 0.20407 0.01774 0.4525 0.06211zm1.5438 4.4895v-6.0155h1.6325v5.9534q0 1.4107 0.55009 2.1205 0.55009 0.70092 1.6503 0.70092 1.322 0 2.085-0.84288 0.7719-0.84288 0.7719-2.298v-5.634h1.6325v9.9372h-1.6325v-1.5261q-0.59446 0.90499-1.3841 1.3486-0.78078 0.43475-1.8189 0.43475-1.7124 0-2.5996-1.0647-0.88725-1.0647-0.88725-3.1142zm4.1079-6.2551m7.5771-3.6288h1.6325v13.806h-1.6325zm13.548 8.4288v0.79852h-7.5061q0.10647 1.6858 1.0115 2.573 0.91386 0.87837 2.5375 0.87837 0.94048 0 1.8189-0.23068 0.88725-0.23068 1.7567-0.69205v1.5438q-0.87837 0.37264-1.8011 0.56784-0.92274 0.19519-1.8721 0.19519-2.3778 0-3.7708-1.3841-1.3841-1.3841-1.3841-3.7442 0-2.4399 1.3131-3.8684 1.322-1.4373 3.5579-1.4373 2.0052 0 3.1675 1.2954 1.1712 1.2865 1.1712 3.5046zm-1.6325-0.47911q-0.01774-1.3397-0.75416-2.1383-0.72754-0.79852-1.9342-0.79852-1.3664 0-2.1915 0.7719-0.81627 0.7719-0.94048 2.1738zm15.846-2.5553q-0.27505-0.1597-0.60333-0.23068-0.31941-0.079852-0.7098-0.079852-1.3841 0-2.1294 0.90499-0.73641 0.89612-0.73641 2.5819v5.2348h-1.6414v-9.9372h1.6414v1.5438q0.5146-0.90499 1.3397-1.3397 0.82514-0.44362 2.0052-0.44362 0.16858 0 0.37264 0.02662 0.20407 0.01774 0.4525 0.06211z" fill="#fff" aria-label="Best rule r"/>
 <path transform="scale(1.3333)" d="m522.82 12.469h168.72v51.105h-168.72z" fill="none" stroke="#fff" stroke-width="2.8392"/>
 <path transform="matrix(1.3333 0 0 1.3333 716.11 58.043)" d="m2.1294-2.2536h1.8721v2.2536h-1.8721zm0-7.1424h1.8721v2.2536h-1.8721zm5.776-3.8507h1.7923v11.738h6.4503v1.5083h-8.2426zm14.569 8.2515q-1.9786 0-2.7416 0.4525-0.76304 0.4525-0.76304 1.5438 0 0.86951 0.56784 1.3841 0.57672 0.50574 1.5616 0.50574 1.3575 0 2.1738-0.95824 0.82515-0.96711 0.82515-2.5642v-0.36377zm3.2562-0.67431v5.6696h-1.6326v-1.5083q-0.55897 0.905-1.393 1.3398-0.83402 0.42588-2.0407 0.42588-1.5261 0-2.4311-0.85177-0.89613-0.86064-0.89613-2.298 0-1.6769 1.1179-2.5287 1.1268-0.85177 3.3538-0.85177h2.2891v-0.15971q0-1.1268-0.7453-1.739-0.73642-0.62108-2.0762-0.62108-0.85177 0-1.6592 0.20407t-1.5527 0.61221v-1.5083q0.89613-0.34603 1.739-0.51461 0.84289-0.17745 1.6414-0.17745 2.156 0 3.2207 1.1179 1.0647 1.1179 1.0647 3.3893zm10.496 0.7098q0-1.8011-0.7453-2.8215-0.73642-1.0292-2.0318-1.0292-1.2954 0-2.0407 1.0292-0.73642 1.0203-0.73642 2.8215 0 1.8011 0.73642 2.8303 0.7453 1.0203 2.0407 1.0203 1.2954 0 2.0318-1.0203 0.7453-1.0292 0.7453-2.8303zm-5.5542-3.4692q0.51461-0.88726 1.2954-1.3131 0.78966-0.43475 1.881-0.43475 1.81 0 2.9368 1.4374 1.1357 1.4374 1.1357 3.7797t-1.1357 3.7797q-1.1268 1.4374-2.9368 1.4374-1.0913 0-1.881-0.42588-0.78078-0.43476-1.2954-1.322v1.4906h-1.6414v-13.806h1.6414zm18.455 3.0522v0.79853h-7.5062q0.10647 1.6858 1.0115 2.573 0.91387 0.87838 2.5376 0.87838 0.94049 0 1.8189-0.23069 0.88726-0.23069 1.7568-0.69206v1.5438q-0.87838 0.37265-1.8011 0.56784-0.92275 0.1952-1.8721 0.1952-2.3778 0-3.7708-1.3841-1.3841-1.3841-1.3841-3.7442 0-2.44 1.3131-3.8684 1.322-1.4374 3.5579-1.4374 2.0052 0 3.1675 1.2954 1.1712 1.2865 1.1712 3.5047zm-1.6326-0.47912q-0.01774-1.3398-0.75417-2.1383-0.72755-0.79853-1.9342-0.79853-1.3664 0-2.1915 0.77191-0.81628 0.77191-0.94049 2.1738zm4.3121-7.9498h1.6326v13.806h-1.6326zm13.06 0.99373v1.7479q-1.0203-0.48799-1.9253-0.72755t-1.7479-0.23956q-1.464 0-2.2625 0.56784-0.78966 0.56784-0.78966 1.6148 0 0.87838 0.52348 1.3309 0.53235 0.44363 2.0052 0.71868l1.0825 0.22181q2.0052 0.38152 2.9546 1.3486 0.95824 0.95824 0.95824 2.573 0 1.9253-1.2954 2.9191-1.2865 0.99373-3.7797 0.99373-0.94049 0-2.0052-0.21294-1.0558-0.21294-2.1915-0.62995v-1.8455q1.0913 0.61221 2.1383 0.92275 1.047 0.31054 2.0584 0.31054 1.535 0 2.369-0.60333 0.83402-0.60333 0.83402-1.7213 0-0.97598-0.60333-1.5261-0.59446-0.5501-1.9608-0.82515l-1.0913-0.21294q-2.0052-0.39927-2.9013-1.251t-0.89613-2.369q0-1.7568 1.2333-2.7682 1.2422-1.0115 3.4159-1.0115 0.93162 0 1.8987 0.16858 0.96711 0.16858 1.9786 0.50574zm8.0385 7.8167q-1.9786 0-2.7416 0.4525t-0.76304 1.5438q0 0.86951 0.56784 1.3841 0.57672 0.50574 1.5616 0.50574 1.3575 0 2.1738-0.95824 0.82515-0.96711 0.82515-2.5642v-0.36377zm3.2562-0.67431v5.6696h-1.6326v-1.5083q-0.55897 0.905-1.393 1.3398-0.83402 0.42588-2.0407 0.42588-1.5261 0-2.4311-0.85177-0.89613-0.86064-0.89613-2.298 0-1.6769 1.1179-2.5287 1.1268-0.85177 3.3538-0.85177h2.2891v-0.15971q0-1.1268-0.7453-1.739-0.73642-0.62108-2.0762-0.62108-0.85176 0-1.6592 0.20407t-1.5527 0.61221v-1.5083q0.89613-0.34603 1.739-0.51461 0.84289-0.17745 1.6414-0.17745 2.156 0 3.2207 1.1179 1.0647 1.1179 1.0647 3.3893zm11.1-2.3601q0.61221-1.1002 1.464-1.6237 0.85177-0.52348 2.0052-0.52348 1.5527 0 2.3956 1.0913 0.84289 1.0825 0.84289 3.0877v5.9978h-1.6414v-5.9446q0-1.4285-0.50574-2.1205-0.50574-0.69206-1.5438-0.69206-1.2688 0-2.0052 0.84289-0.73642 0.84289-0.73642 2.298v5.6163h-1.6414v-5.9446q0-1.4374-0.50574-2.1205-0.50574-0.69206-1.5616-0.69206-1.251 0-1.9875 0.85177-0.73642 0.84289-0.73642 2.2891v5.6163h-1.6414v-9.9373h1.6414v1.5438q0.55897-0.91387 1.3398-1.3486 0.78078-0.43475 1.8544-0.43475 1.0825 0 1.8366 0.5501 0.76304 0.5501 1.1268 1.5971zm11.543 6.5391v5.2703h-1.6414v-13.717h1.6414v1.5083q0.51461-0.88726 1.2954-1.3131 0.78966-0.43475 1.881-0.43475 1.81 0 2.9368 1.4374 1.1357 1.4374 1.1357 3.7797t-1.1357 3.7797q-1.1268 1.4374-2.9368 1.4374-1.0913 0-1.881-0.42588-0.78078-0.43476-1.2954-1.322zm5.5542-3.4692q0-1.8011-0.74529-2.8215-0.73642-1.0292-2.0318-1.0292-1.2954 0-2.0407 1.0292-0.73642 1.0203-0.73642 2.8215 0 1.8011 0.73642 2.8303 0.7453 1.0203 2.0407 1.0203 1.2954 0 2.0318-1.0203 0.74529-1.0292 0.74529-2.8303zm4.4008-8.8459h1.6326v13.806h-1.6326zm5.0485 3.8684h1.6326v9.9373h-1.6326zm0-3.8684h1.6326v2.0673h-1.6326zm13.309 7.8079v5.9978h-1.6326v-5.9446q0-1.4107-0.5501-2.1117t-1.6503-0.70093q-1.322 0-2.085 0.84289-0.76304 0.84289-0.76304 2.298v5.6163h-1.6414v-9.9373h1.6414v1.5438q0.58558-0.89613 1.3752-1.3398 0.79853-0.44363 1.8366-0.44363 1.7124 0 2.5908 1.0647 0.87838 1.0558 0.87838 3.1143zm9.7953 0.91387q0-1.7745-0.73642-2.7505-0.72755-0.97598-2.0496-0.97598-1.3131 0-2.0496 0.97598-0.72755 0.97598-0.72755 2.7505 0 1.7656 0.72755 2.7416 0.73642 0.97598 2.0496 0.97598 1.322 0 2.0496-0.97598 0.73642-0.97598 0.73642-2.7416zm1.6326 3.8507q0 2.5376-1.1268 3.7708-1.1268 1.2422-3.4514 1.2422-0.86063 0-1.6237-0.13309-0.76304-0.12422-1.4817-0.39039v-1.5882q0.71868 0.39039 1.4196 0.57672 0.70093 0.18632 1.4285 0.18632 1.6059 0 2.4045-0.84289 0.79853-0.83402 0.79853-2.5287v-0.8074q-0.50573 0.87838-1.2954 1.3131t-1.8898 0.43476q-1.8278 0-2.9457-1.393-1.118-1.393-1.118-3.691 0-2.3069 1.118-3.6999 1.1179-1.393 2.9457-1.393 1.1002 0 1.8898 0.43475 0.78966 0.43476 1.2954 1.3131v-1.5083h1.6326z" fill="#fff" aria-label=":LabelSampling"/>
 <g fill="none" stroke="#fff">
  <g stroke-width="1.4196">
   <path transform="scale(1.3333)" d="m537.02 47.816h140.33"/>
   <path transform="scale(1.3333)" d="m407.67 63.813v64.089" stroke-dasharray="11.3569, 11.3569"/>
   <path transform="scale(1.3333)" d="m407.67 156.29v285.84" stroke-dasharray="11.3569, 11.3569"/>
  </g>
  <path transform="scale(1.3333)" d="m397.73 127.9h19.871v28.391h-19.871z" stroke-width="2.8392"/>
  <path transform="scale(1.3333)" d="m373.6 127.87-150.54-0.176" stroke-width="2.8392"/>
 </g>
 <path transform="scale(1.3333)" d="m373.59 134.97 22.723-7.075-22.704-7.125z" fill="#fff" stroke="#fff" stroke-width="2.8392"/>
 <path transform="matrix(1.3333 0 0 1.3333 309.57 193.79)" d="m8.0473-9.6444v1.5438q-0.69205-0.3549-1.4373-0.53235t-1.5438-0.17745q-1.2155 0-1.8277 0.37264-0.60333 0.37264-0.60333 1.1179 0 0.56784 0.43475 0.89612 0.43475 0.31941 1.7479 0.6122l0.55896 0.12421q1.739 0.37264 2.4665 1.0558 0.73641 0.67431 0.73641 1.8898 0 1.3841-1.1002 2.1915-1.0913 0.80739-3.0078 0.80739-0.79852 0-1.668-0.1597-0.86063-0.15083-1.8189-0.46137v-1.6858q0.90499 0.47024 1.7834 0.7098 0.87837 0.23068 1.739 0.23068 1.1534 0 1.7745-0.39039 0.62107-0.39926 0.62107-1.1179 0-0.66543-0.4525-1.0203-0.44362-0.3549-1.9608-0.68318l-0.56784-0.13309q-1.5172-0.31941-2.1915-0.97597-0.67431-0.66543-0.67431-1.8189 0-1.4018 0.99372-2.1649 0.99372-0.76303 2.8214-0.76303 0.90499 0 1.7035 0.13309 0.79852 0.13309 1.4728 0.39926zm7.6481 4.6492q-1.9786 0-2.7416 0.4525-0.76303 0.4525-0.76303 1.5438 0 0.8695 0.56784 1.3841 0.57671 0.50573 1.5616 0.50573 1.3575 0 2.1738-0.95823 0.82514-0.9671 0.82514-2.5641v-0.36377zm3.2562-0.67431v5.6695h-1.6325v-1.5083q-0.55896 0.90499-1.393 1.3397-0.83401 0.42588-2.0407 0.42588-1.5261 0-2.4311-0.85176-0.89612-0.86063-0.89612-2.298 0-1.6769 1.1179-2.5287 1.1268-0.85176 3.3538-0.85176h2.2891v-0.1597q0-1.1268-0.74529-1.739-0.73641-0.62107-2.0762-0.62107-0.85176 0-1.6592 0.20407t-1.5527 0.6122v-1.5083q0.89612-0.34603 1.739-0.5146 0.84288-0.17745 1.6414-0.17745 2.156 0 3.2207 1.1179 1.0647 1.1179 1.0647 3.3893zm11.099-2.3601q0.6122-1.1002 1.464-1.6237 0.85176-0.52347 2.0052-0.52347 1.5527 0 2.3956 1.0913 0.84288 1.0824 0.84288 3.0876v5.9978h-1.6414v-5.9445q0-1.4285-0.50573-2.1205-0.50573-0.69205-1.5438-0.69205-1.2688 0-2.0052 0.84288-0.73641 0.84288-0.73641 2.298v5.6163h-1.6414v-5.9445q0-1.4373-0.50573-2.1205-0.50573-0.69205-1.5616-0.69205-1.251 0-1.9874 0.85176-0.73642 0.84288-0.73642 2.2891v5.6163h-1.6414v-9.9372h1.6414v1.5438q0.55896-0.91386 1.3397-1.3486 0.78078-0.43475 1.8543-0.43475 1.0824 0 1.8366 0.55009 0.76303 0.55009 1.1268 1.597zm11.543 6.539v5.2702h-1.6414v-13.717h1.6414v1.5083q0.5146-0.88725 1.2954-1.3131 0.78965-0.43475 1.881-0.43475 1.81 0 2.9368 1.4373 1.1357 1.4373 1.1357 3.7797t-1.1357 3.7797q-1.1268 1.4373-2.9368 1.4373-1.0913 0-1.881-0.42588-0.78078-0.43475-1.2954-1.322zm5.5542-3.4691q0-1.8011-0.74529-2.8214-0.73641-1.0292-2.0318-1.0292t-2.0407 1.0292q-0.73641 1.0203-0.73641 2.8214t0.73641 2.8303q0.74529 1.0203 2.0407 1.0203t2.0318-1.0203q0.74529-1.0292 0.74529-2.8303zm4.4007-8.8458h1.6325v13.806h-1.6325zm13.548 8.4288v0.79852h-7.5061q0.10647 1.6858 1.0115 2.573 0.91386 0.87837 2.5375 0.87837 0.94048 0 1.8189-0.23068 0.88725-0.23068 1.7567-0.69205v1.5438q-0.87837 0.37264-1.8011 0.56784-0.92274 0.19519-1.8721 0.19519-2.3778 0-3.7708-1.3841-1.3841-1.3841-1.3841-3.7442 0-2.4399 1.3131-3.8684 1.322-1.4373 3.5579-1.4373 2.0052 0 3.1675 1.2954 1.1712 1.2865 1.1712 3.5046zm-1.6325-0.47911q-0.01774-1.3397-0.75416-2.1383-0.72754-0.79852-1.9342-0.79852-1.3664 0-2.1915 0.7719-0.81627 0.7719-0.94048 2.1738zm8.2336-7.932q-1.1889 2.0407-1.7656 4.037-0.57671 1.9963-0.57671 4.0458 0 2.0495 0.57671 4.0636 0.58558 2.0052 1.7656 4.037h-1.4196q-1.3309-2.085-1.9963-4.0991-0.65656-2.014-0.65656-4.0015 0-1.9786 0.65656-3.9837 0.65656-2.0052 1.9963-4.0991zm2.5996 0.54122h1.9253l3.2917 4.9242 3.3094-4.9242h1.9253l-4.2588 6.3616 4.5427 6.885h-1.9253l-3.7264-5.634-3.7531 5.634h-1.9342l4.729-7.0714zm13.433 10.993h1.8721v1.5261l-1.4551 2.8392h-1.1445l0.72754-2.8392zm9.3871-10.993h1.9253l3.6732 5.4477 3.6466-5.4477h1.9253l-4.6847 6.9383v6.3083h-1.8011v-6.3083zm13.264 10.993h1.8721v1.5261l-1.4551 2.8392h-1.1446l0.72754-2.8392zm19.147-10.558v1.7479q-1.0203-0.48799-1.9253-0.72754-0.905-0.23956-1.7479-0.23956-1.464 0-2.2625 0.56784-0.78965 0.56784-0.78965 1.6148 0 0.87837 0.52348 1.3309 0.53235 0.44362 2.0052 0.71867l1.0824 0.22181q2.0052 0.38152 2.9545 1.3486 0.95823 0.95823 0.95823 2.573 0 1.9253-1.2954 2.919-1.2865 0.99372-3.7797 0.99372-0.94048 0-2.0052-0.21294-1.0558-0.21294-2.1915-0.62994v-1.8455q1.0913 0.6122 2.1383 0.92274t2.0584 0.31054q1.5349 0 2.369-0.60333t0.83401-1.7213q0-0.97597-0.60333-1.5261-0.59445-0.55009-1.9608-0.82514l-1.0913-0.21294q-2.0052-0.39926-2.9013-1.251t-0.89612-2.3689q0-1.7567 1.2333-2.7682 1.2421-1.0115 3.4159-1.0115 0.93161 0 1.8987 0.16858 0.9671 0.16858 1.9786 0.50573zm3.2651-0.97597h1.4196q1.3309 2.0939 1.9874 4.0991 0.66544 2.0052 0.66544 3.9837 0 1.9874-0.66544 4.0015-0.65656 2.014-1.9874 4.0991h-1.4196q1.18-2.0318 1.7568-4.037 0.58558-2.014 0.58558-4.0636 0-2.0495-0.58558-4.0458-0.57671-1.9963-1.7568-4.037z" fill="#fff" aria-label="sample(X, Y, S)"/>
 <path transform="scale(1.3333)" d="m247.2 156.11 150.54 0.18" fill="none" stroke="#fff" stroke-dasharray="11.3569, 11.3569" stroke-width="2.8392"/>
 <path transform="scale(1.3333)" d="m247.21 149.02-22.723 7.07 22.704 7.125z" fill="#fff" stroke="#fff" stroke-width="2.8392"/>
 <path transform="matrix(1.3333 0 0 1.3333 370.68 234.33)" d="m0.60333-13.247h1.81l2.786 11.197 2.7771-11.197h2.014l2.786 11.197 2.7771-11.197h1.8189l-3.3272 13.247h-2.2536l-2.7948-11.499-2.8214 11.499h-2.2536zm26.504 7.8699v0.79852h-7.5061q0.10647 1.6858 1.0115 2.573 0.91386 0.87837 2.5375 0.87837 0.94048 0 1.8189-0.23068 0.88725-0.23068 1.7567-0.69205v1.5438q-0.87837 0.37264-1.8011 0.56784-0.92274 0.19519-1.8721 0.19519-2.3778 0-3.7708-1.3841-1.3841-1.3841-1.3841-3.7442 0-2.4399 1.3131-3.8684 1.322-1.4373 3.5579-1.4373 2.0052 0 3.1675 1.2954 1.1712 1.2865 1.1712 3.5046zm-1.6325-0.47911q-0.01774-1.3397-0.75416-2.1383-0.72754-0.79852-1.9342-0.79852-1.3664 0-2.1915 0.7719-0.81627 0.7719-0.94048 2.1738zm4.312-4.0813h1.6325v9.9372h-1.6325zm0-3.8684h1.6325v2.0673h-1.6325zm11.587 8.7216q0-1.7745-0.73641-2.7505-0.72754-0.97597-2.0495-0.97597-1.3131 0-2.0495 0.97597-0.72754 0.97597-0.72754 2.7505 0 1.7656 0.72754 2.7416 0.73641 0.97597 2.0495 0.97597 1.322 0 2.0495-0.97597 0.73641-0.97597 0.73641-2.7416zm1.6325 3.8506q0 2.5375-1.1268 3.7708-1.1268 1.2421-3.4514 1.2421-0.86063 0-1.6237-0.13309-0.76303-0.12421-1.4817-0.39039v-1.5882q0.71867 0.39039 1.4196 0.57671 0.70092 0.18632 1.4285 0.18632 1.6059 0 2.4044-0.84288 0.79852-0.83401 0.79852-2.5287v-0.80739q-0.50573 0.87837-1.2954 1.3131t-1.8898 0.43475q-1.8277 0-2.9457-1.393t-1.1179-3.6909q0-2.3068 1.1179-3.6998 1.1179-1.393 2.9457-1.393 1.1002 0 1.8898 0.43475 0.78965 0.43475 1.2954 1.3131v-1.5083h1.6325zm11.623-4.7645v5.9978h-1.6325v-5.9445q0-1.4107-0.55009-2.1116-0.55009-0.70092-1.6503-0.70092-1.322 0-2.085 0.84288-0.76303 0.84288-0.76303 2.298v5.6163h-1.6414v-13.806h1.6414v5.4122q0.58558-0.89612 1.3752-1.3397 0.79852-0.44362 1.8366-0.44362 1.7124 0 2.5908 1.0647 0.87837 1.0558 0.87837 3.1142zm4.871-6.7608v2.8214h3.3627v1.2688h-3.3627v5.3945q0 1.2155 0.32828 1.5616 0.33715 0.34603 1.3575 0.34603h1.6769v1.3664h-1.6769q-1.8898 0-2.6085-0.70092-0.71867-0.7098-0.71867-2.573v-5.3945h-1.1978v-1.2688h1.1978v-2.8214zm11.845 3.1142v1.5438q-0.69205-0.3549-1.4373-0.53235-0.74529-0.17745-1.5438-0.17745-1.2155 0-1.8277 0.37264-0.60333 0.37264-0.60333 1.1179 0 0.56784 0.43475 0.89612 0.43475 0.31941 1.7479 0.6122l0.55896 0.12421q1.739 0.37264 2.4665 1.0558 0.73641 0.67431 0.73641 1.8898 0 1.3841-1.1002 2.1915-1.0913 0.80739-3.0078 0.80739-0.79852 0-1.668-0.1597-0.86063-0.15083-1.8189-0.46137v-1.6858q0.90499 0.47024 1.7834 0.7098 0.87837 0.23068 1.739 0.23068 1.1534 0 1.7745-0.39039 0.62107-0.39926 0.62107-1.1179 0-0.66543-0.4525-1.0203-0.44362-0.3549-1.9608-0.68318l-0.56784-0.13309q-1.5172-0.31941-2.1915-0.97597-0.67431-0.66543-0.67431-1.8189 0-1.4018 0.99372-2.1649 0.99372-0.76303 2.8214-0.76303 0.90499 0 1.7035 0.13309 0.79852 0.13309 1.4728 0.39926zm7.9586-0.29279h1.6325l2.0407 7.7545 2.0318-7.7545h1.9253l2.0407 7.7545 2.0318-7.7545h1.6325l-2.5996 9.9372h-1.9253l-2.1383-8.1449-2.1471 8.1449h-1.9253z" fill="#fff" aria-label="Weights w"/>
 <g fill="none" stroke="#fff">
  <path transform="scale(1.3333)" d="m607.18 60.566v137.98" stroke-dasharray="11.3569, 11.3569" stroke-width="1.4196"/>
  <path transform="scale(1.3333)" d="m607.18 226.94v214.4" stroke-dasharray="11.3569, 11.3569" stroke-width="1.4196"/>
  <path transform="scale(1.3333)" d="m597.25 198.54h19.875v28.395h-19.875z" stroke-width="2.8392"/>
  <path transform="scale(1.3333)" d="m573.11 198.55-350.05 0.125" stroke-width="2.8392"/>
 </g>
 <path transform="scale(1.3333)" d="m573.11 205.65 22.711-7.109-22.715-7.09z" fill="#fff" stroke="#fff" stroke-width="2.8392"/>
 <path transform="matrix(1.3333 0 0 1.3333 583.88 289.49)" d="m8.0473-9.6444v1.5438q-0.69205-0.3549-1.4373-0.53235t-1.5438-0.17745q-1.2155 0-1.8277 0.37264-0.60333 0.37264-0.60333 1.1179 0 0.56784 0.43475 0.89612 0.43475 0.31941 1.7479 0.6122l0.55896 0.12421q1.739 0.37264 2.4665 1.0558 0.73641 0.67431 0.73641 1.8898 0 1.3841-1.1002 2.1915-1.0913 0.80739-3.0078 0.80739-0.79852 0-1.668-0.1597-0.86063-0.15083-1.8189-0.46137v-1.6858q0.90499 0.47024 1.7834 0.7098 0.87837 0.23068 1.739 0.23068 1.1534 0 1.7745-0.39039 0.62107-0.39926 0.62107-1.1179 0-0.66543-0.4525-1.0203-0.44362-0.3549-1.9608-0.68318l-0.56784-0.13309q-1.5172-0.31941-2.1915-0.97597-0.67431-0.66543-0.67431-1.8189 0-1.4018 0.99372-2.1649 0.99372-0.76303 2.8214-0.76303 0.90499 0 1.7035 0.13309 0.79852 0.13309 1.4728 0.39926zm7.6481 4.6492q-1.9786 0-2.7416 0.4525-0.76303 0.4525-0.76303 1.5438 0 0.8695 0.56784 1.3841 0.57671 0.50573 1.5616 0.50573 1.3575 0 2.1738-0.95823 0.82514-0.9671 0.82514-2.5641v-0.36377zm3.2562-0.67431v5.6695h-1.6325v-1.5083q-0.55896 0.90499-1.393 1.3397-0.83401 0.42588-2.0407 0.42588-1.5261 0-2.4311-0.85176-0.89612-0.86063-0.89612-2.298 0-1.6769 1.1179-2.5287 1.1268-0.85176 3.3538-0.85176h2.2891v-0.1597q0-1.1268-0.74529-1.739-0.73641-0.62107-2.0762-0.62107-0.85176 0-1.6592 0.20407t-1.5527 0.6122v-1.5083q0.89612-0.34603 1.739-0.5146 0.84288-0.17745 1.6414-0.17745 2.156 0 3.2207 1.1179 1.0647 1.1179 1.0647 3.3893zm11.099-2.3601q0.6122-1.1002 1.464-1.6237 0.85176-0.52347 2.0052-0.52347 1.5527 0 2.3956 1.0913 0.84288 1.0824 0.84288 3.0876v5.9978h-1.6414v-5.9445q0-1.4285-0.50573-2.1205-0.50573-0.69205-1.5438-0.69205-1.2688 0-2.0052 0.84288-0.73641 0.84288-0.73641 2.298v5.6163h-1.6414v-5.9445q0-1.4373-0.50573-2.1205-0.50573-0.69205-1.5616-0.69205-1.251 0-1.9874 0.85176-0.73642 0.84288-0.73642 2.2891v5.6163h-1.6414v-9.9372h1.6414v1.5438q0.55896-0.91386 1.3397-1.3486 0.78078-0.43475 1.8543-0.43475 1.0824 0 1.8366 0.55009 0.76303 0.55009 1.1268 1.597zm11.543 6.539v5.2702h-1.6414v-13.717h1.6414v1.5083q0.5146-0.88725 1.2954-1.3131 0.78965-0.43475 1.881-0.43475 1.81 0 2.9368 1.4373 1.1357 1.4373 1.1357 3.7797t-1.1357 3.7797q-1.1268 1.4373-2.9368 1.4373-1.0913 0-1.881-0.42588-0.78078-0.43475-1.2954-1.322zm5.5542-3.4691q0-1.8011-0.74529-2.8214-0.73641-1.0292-2.0318-1.0292t-2.0407 1.0292q-0.73641 1.0203-0.73641 2.8214t0.73641 2.8303q0.74529 1.0203 2.0407 1.0203t2.0318-1.0203q0.74529-1.0292 0.74529-2.8303zm4.4007-8.8458h1.6325v13.806h-1.6325zm13.548 8.4288v0.79852h-7.5061q0.10647 1.6858 1.0115 2.573 0.91386 0.87837 2.5375 0.87837 0.94048 0 1.8189-0.23068 0.88725-0.23068 1.7567-0.69205v1.5438q-0.87837 0.37264-1.8011 0.56784-0.92274 0.19519-1.8721 0.19519-2.3778 0-3.7708-1.3841-1.3841-1.3841-1.3841-3.7442 0-2.4399 1.3131-3.8684 1.322-1.4373 3.5579-1.4373 2.0052 0 3.1675 1.2954 1.1712 1.2865 1.1712 3.5046zm-1.6325-0.47911q-0.01774-1.3397-0.75416-2.1383-0.72754-0.79852-1.9342-0.79852-1.3664 0-2.1915 0.7719-0.81627 0.7719-0.94048 2.1738zm8.2336-7.932q-1.1889 2.0407-1.7656 4.037-0.57671 1.9963-0.57671 4.0458 0 2.0495 0.57671 4.0636 0.58558 2.0052 1.7656 4.037h-1.4196q-1.3309-2.085-1.9963-4.0991-0.65656-2.014-0.65656-4.0015 0-1.9786 0.65656-3.9837 0.65656-2.0052 1.9963-4.0991zm1.4196 0.54122h1.9253l3.6732 5.4477 3.6466-5.4477h1.9253l-4.6847 6.9383v6.3083h-1.8011v-6.3083zm13.264 10.993h1.8721v1.5261l-1.4551 2.8392h-1.1445l0.72754-2.8392zm19.147-10.558v1.7479q-1.0203-0.48799-1.9253-0.72754-0.905-0.23956-1.7479-0.23956-1.464 0-2.2625 0.56784-0.78965 0.56784-0.78965 1.6148 0 0.87837 0.52348 1.3309 0.53235 0.44362 2.0052 0.71867l1.0824 0.22181q2.0052 0.38152 2.9545 1.3486 0.95823 0.95823 0.95823 2.573 0 1.9253-1.2954 2.919-1.2865 0.99372-3.7797 0.99372-0.94048 0-2.0052-0.21294-1.0558-0.21294-2.1915-0.62994v-1.8455q1.0913 0.6122 2.1383 0.92274 1.0469 0.31054 2.0584 0.31054 1.5349 0 2.369-0.60333t0.83401-1.7213q0-0.97597-0.60333-1.5261-0.59445-0.55009-1.9608-0.82514l-1.0913-0.21294q-2.0052-0.39926-2.9013-1.251-0.89612-0.85176-0.89612-2.3689 0-1.7567 1.2333-2.7682 1.2421-1.0115 3.4159-1.0115 0.93161 0 1.8987 0.16858 0.9671 0.16858 1.9786 0.50573zm3.2651-0.97597h1.4196q1.3309 2.0939 1.9874 4.0991 0.66543 2.0052 0.66543 3.9837 0 1.9874-0.66543 4.0015-0.65657 2.014-1.9874 4.0991h-1.4196q1.18-2.0318 1.7568-4.037 0.58558-2.014 0.58558-4.0636 0-2.0495-0.58558-4.0458-0.57671-1.9963-1.7568-4.037z" fill="#fff" aria-label="sample(Y, S)"/>
 <path transform="scale(1.3333)" d="m247.2 227.06 350.05-0.121" fill="none" stroke="#fff" stroke-dasharray="11.3569, 11.3569" stroke-width="2.8392"/>
 <path transform="scale(1.3333)" d="m247.2 219.96-22.711 7.105 22.715 7.09z" fill="#fff" stroke="#fff" stroke-width="2.8392"/>
 <path transform="matrix(1.3333 0 0 1.3333 374.52 329.25)" d="m1.7834-13.247h1.7922v11.738h6.4503v1.5083h-8.2425zm14.569 8.2514q-1.9786 0-2.7416 0.4525t-0.76303 1.5438q0 0.8695 0.56784 1.3841 0.57671 0.50573 1.5616 0.50573 1.3575 0 2.1738-0.95823 0.82514-0.9671 0.82514-2.5641v-0.36377zm3.2562-0.67431v5.6695h-1.6325v-1.5083q-0.55896 0.90499-1.393 1.3397-0.83401 0.42588-2.0407 0.42588-1.5261 0-2.4311-0.85176-0.89612-0.86063-0.89612-2.298 0-1.6769 1.1179-2.5287 1.1268-0.85176 3.3538-0.85176h2.2891v-0.1597q0-1.1268-0.74529-1.739-0.73641-0.62107-2.0762-0.62107-0.85176 0-1.6592 0.20407t-1.5527 0.6122v-1.5083q0.89612-0.34603 1.739-0.5146 0.84288-0.17745 1.6414-0.17745 2.156 0 3.2207 1.1179 1.0647 1.1179 1.0647 3.3893zm10.496 0.7098q0-1.8011-0.74529-2.8214-0.73642-1.0292-2.0318-1.0292t-2.0407 1.0292q-0.73641 1.0203-0.73641 2.8214t0.73641 2.8303q0.74529 1.0203 2.0407 1.0203t2.0318-1.0203q0.74529-1.0292 0.74529-2.8303zm-5.5542-3.4691q0.5146-0.88725 1.2954-1.3131 0.78965-0.43475 1.881-0.43475 1.81 0 2.9368 1.4373 1.1357 1.4373 1.1357 3.7797t-1.1357 3.7797q-1.1268 1.4373-2.9368 1.4373-1.0913 0-1.881-0.42588-0.78078-0.43475-1.2954-1.322v1.4906h-1.6414v-13.806h1.6414zm18.455 3.0521v0.79852h-7.5061q0.10647 1.6858 1.0115 2.573 0.91386 0.87837 2.5375 0.87837 0.94048 0 1.8189-0.23068 0.88725-0.23068 1.7567-0.69205v1.5438q-0.87837 0.37264-1.8011 0.56784-0.92274 0.19519-1.8721 0.19519-2.3778 0-3.7708-1.3841-1.3841-1.3841-1.3841-3.7442 0-2.4399 1.3131-3.8684 1.322-1.4373 3.5579-1.4373 2.0052 0 3.1675 1.2954 1.1712 1.2865 1.1712 3.5046zm-1.6325-0.47911q-0.01775-1.3397-0.75416-2.1383-0.72754-0.79852-1.9342-0.79852-1.3664 0-2.1915 0.7719-0.81627 0.7719-0.94048 2.1738zm4.312-7.9497h1.6325v13.806h-1.6325zm11.383 4.1612v1.5438q-0.69205-0.3549-1.4373-0.53235t-1.5438-0.17745q-1.2155 0-1.8277 0.37264-0.60333 0.37264-0.60333 1.1179 0 0.56784 0.43475 0.89612 0.43475 0.31941 1.7479 0.6122l0.55896 0.12421q1.739 0.37264 2.4665 1.0558 0.73641 0.67431 0.73641 1.8898 0 1.3841-1.1002 2.1915-1.0913 0.80739-3.0078 0.80739-0.79852 0-1.668-0.1597-0.86063-0.15083-1.8189-0.46137v-1.6858q0.90499 0.47024 1.7834 0.7098 0.87837 0.23068 1.739 0.23068 1.1534 0 1.7745-0.39039 0.62107-0.39926 0.62107-1.1179 0-0.66543-0.4525-1.0203-0.44362-0.3549-1.9608-0.68318l-0.56784-0.13309q-1.5172-0.31941-2.1915-0.97597-0.67431-0.66543-0.67431-1.8189 0-1.4018 0.99372-2.1649 0.99372-0.76303 2.8214-0.76303 0.90499 0 1.7035 0.13309 0.79852 0.13309 1.4728 0.39926zm11.632 4.2677v0.79852h-7.5061q0.10647 1.6858 1.0115 2.573 0.91386 0.87837 2.5375 0.87837 0.94048 0 1.8189-0.23068 0.88725-0.23068 1.7567-0.69205v1.5438q-0.87837 0.37264-1.8011 0.56784-0.92274 0.19519-1.8721 0.19519-2.3778 0-3.7708-1.3841-1.3841-1.3841-1.3841-3.7442 0-2.4399 1.3131-3.8684 1.322-1.4373 3.5579-1.4373 2.0052 0 3.1675 1.2954 1.1712 1.2865 1.1712 3.5046zm-1.6325-0.47911q-0.01775-1.3397-0.75416-2.1383-0.72754-0.79852-1.9342-0.79852-1.3664 0-2.1915 0.7719-0.81627 0.7719-0.94048 2.1738zm5.9268-6.9028v2.8214h3.3627v1.2688h-3.3627v5.3945q0 1.2155 0.32828 1.5616 0.33715 0.34603 1.3575 0.34603h1.6769v1.3664h-1.6769q-1.8898 0-2.6085-0.70092-0.71867-0.7098-0.71867-2.573v-5.3945h-1.1978v-1.2688h1.1978v-2.8214zm11.357-0.48799h1.7922v11.738h6.4503v1.5083h-8.2425zm11.596 0v4.9242h-1.5083v-4.9242z" fill="#fff" aria-label="Labelset L'"/>
 <g fill="none" stroke="#fff">
  <path transform="scale(1.3333)" d="m793.21 74.813v222.88" stroke-dasharray="11.3569, 11.3569" stroke-width="1.4196"/>
  <path transform="scale(1.3333)" d="m793.21 326.08v115.61" stroke-dasharray="11.3569, 11.3569" stroke-width="1.4196"/>
  <path transform="scale(1.3333)" d="m783.27 297.69h19.875v28.391h-19.875z" stroke-width="2.8392"/>
  <path transform="scale(1.3333)" d="m759.14 297.71-536.07 0.34" stroke-width="2.8392"/>
 </g>
 <path transform="scale(1.3333)" d="m759.14 304.8 22.711-7.114-22.719-7.086z" fill="#fff" stroke="#fff" stroke-width="2.8392"/>
 <path transform="matrix(1.3333 0 0 1.3333 544.13 421.85)" d="m8.8636-9.5556v1.5261q-0.69205-0.38152-1.393-0.56784-0.69205-0.19519-1.4018-0.19519-1.5882 0-2.4665 1.0115-0.87837 1.0026-0.87837 2.8214 0 1.8189 0.87837 2.8303 0.87837 1.0026 2.4665 1.0026 0.7098 0 1.4018-0.18632 0.70092-0.19519 1.393-0.57671v1.5083q-0.68318 0.31941-1.4196 0.47911-0.72754 0.1597-1.5527 0.1597-2.2447 0-3.5667-1.4107-1.322-1.4107-1.322-3.8063 0-2.4311 1.3309-3.824 1.3397-1.393 3.6643-1.393 0.75416 0 1.4728 0.1597 0.71867 0.15083 1.393 0.46137zm7.3553 4.5604q-1.9786 0-2.7416 0.4525-0.76303 0.4525-0.76303 1.5438 0 0.8695 0.56784 1.3841 0.57671 0.50573 1.5616 0.50573 1.3575 0 2.1738-0.95823 0.82514-0.9671 0.82514-2.5641v-0.36377zm3.2562-0.67431v5.6695h-1.6325v-1.5083q-0.55896 0.90499-1.393 1.3397-0.83401 0.42588-2.0407 0.42588-1.5261 0-2.4311-0.85176-0.89612-0.86063-0.89612-2.298 0-1.6769 1.1179-2.5287 1.1268-0.85176 3.3538-0.85176h2.2891v-0.1597q0-1.1268-0.74529-1.739-0.73642-0.62107-2.0762-0.62107-0.85176 0-1.6592 0.20407t-1.5527 0.6122v-1.5083q0.89612-0.34603 1.739-0.5146 0.84288-0.17745 1.6414-0.17745 2.156 0 3.2207 1.1179 1.0647 1.1179 1.0647 3.3893zm3.3627-8.136h1.6325v13.806h-1.6325zm12.2 4.2499v1.5261q-0.69205-0.38152-1.393-0.56784-0.69205-0.19519-1.4018-0.19519-1.5882 0-2.4665 1.0115-0.87837 1.0026-0.87837 2.8214 0 1.8189 0.87837 2.8303 0.87837 1.0026 2.4665 1.0026 0.7098 0 1.4018-0.18632 0.70092-0.19519 1.393-0.57671v1.5083q-0.68318 0.31941-1.4196 0.47911-0.72754 0.1597-1.5527 0.1597-2.2447 0-3.5667-1.4107-1.322-1.4107-1.322-3.8063 0-2.4311 1.3309-3.824 1.3397-1.393 3.6643-1.393 0.75416 0 1.4728 0.1597 0.71867 0.15083 1.393 0.46137zm2.6706 5.634v-6.0155h1.6325v5.9534q0 1.4107 0.55009 2.1205 0.55009 0.70092 1.6503 0.70092 1.322 0 2.085-0.84288 0.7719-0.84288 0.7719-2.298v-5.634h1.6325v9.9372h-1.6325v-1.5261q-0.59446 0.90499-1.3841 1.3486-0.78078 0.43475-1.8189 0.43475-1.7124 0-2.5996-1.0647-0.88725-1.0647-0.88725-3.1142zm4.108-6.2551m7.5771-3.6288h1.6325v13.806h-1.6325zm9.5645 8.8104q-1.9786 0-2.7416 0.4525-0.76303 0.4525-0.76303 1.5438 0 0.8695 0.56784 1.3841 0.57671 0.50573 1.5616 0.50573 1.3575 0 2.1738-0.95823 0.82514-0.9671 0.82514-2.5641v-0.36377zm3.2562-0.67431v5.6695h-1.6325v-1.5083q-0.55896 0.90499-1.393 1.3397-0.83401 0.42588-2.0407 0.42588-1.5261 0-2.4311-0.85176-0.89612-0.86063-0.89612-2.298 0-1.6769 1.1179-2.5287 1.1268-0.85176 3.3538-0.85176h2.2891v-0.1597q0-1.1268-0.74529-1.739-0.73641-0.62107-2.0762-0.62107-0.85176 0-1.6592 0.20407-0.80739 0.20407-1.5527 0.6122v-1.5083q0.89612-0.34603 1.739-0.5146 0.84288-0.17745 1.6414-0.17745 2.156 0 3.2207 1.1179 1.0647 1.1179 1.0647 3.3893zm4.9774-7.0891v2.8214h3.3627v1.2688h-3.3627v5.3945q0 1.2155 0.32828 1.5616 0.33715 0.34603 1.3575 0.34603h1.6769v1.3664h-1.6769q-1.8898 0-2.6085-0.70092-0.71867-0.7098-0.71867-2.573v-5.3945h-1.1978v-1.2688h1.1978v-2.8214zm14.01 7.3819v0.79852h-7.5061q0.10647 1.6858 1.0115 2.573 0.91386 0.87837 2.5375 0.87837 0.94048 0 1.8189-0.23068 0.88725-0.23068 1.7567-0.69205v1.5438q-0.87837 0.37264-1.8011 0.56784-0.92274 0.19519-1.8721 0.19519-2.3778 0-3.7708-1.3841-1.3841-1.3841-1.3841-3.7442 0-2.4399 1.3131-3.8684 1.322-1.4373 3.5579-1.4373 2.0052 0 3.1675 1.2954 1.1712 1.2865 1.1712 3.5046zm-1.6325-0.47911q-0.01775-1.3397-0.75416-2.1383-0.72754-0.79852-1.9342-0.79852-1.3664 0-2.1915 0.7719-0.81627 0.7719-0.94048 2.1738zm6.1752-5.9179v4.9775h2.2536q1.251 0 1.9342-0.64769 0.68318-0.64769 0.68318-1.8455 0-1.1889-0.68318-1.8366-0.68318-0.64769-1.9342-0.64769zm-1.7922-1.4728h4.0458q2.227 0 3.3627 1.0115 1.1445 1.0026 1.1445 2.9457 0 1.9608-1.1445 2.9634-1.1357 1.0026-3.3627 1.0026h-2.2536v5.3235h-1.7922zm16.318 4.8355q-0.27504-0.1597-0.60332-0.23068-0.31941-0.079852-0.7098-0.079852-1.3841 0-2.1294 0.90499-0.73641 0.89612-0.73641 2.5819v5.2348h-1.6414v-9.9372h1.6414v1.5438q0.5146-0.90499 1.3397-1.3397 0.82514-0.44362 2.0052-0.44362 0.16858 0 0.37264 0.02662 0.20406 0.01774 0.4525 0.06211zm9.8124 3.0344v0.79852h-7.5061q0.10647 1.6858 1.0115 2.573 0.91386 0.87837 2.5375 0.87837 0.94048 0 1.8188-0.23068 0.88725-0.23068 1.7568-0.69205v1.5438q-0.87837 0.37264-1.8011 0.56784-0.92273 0.19519-1.8721 0.19519-2.3778 0-3.7708-1.3841-1.3841-1.3841-1.3841-3.7442 0-2.4399 1.3131-3.8684 1.322-1.4373 3.5578-1.4373 2.0052 0 3.1675 1.2954 1.1712 1.2865 1.1712 3.5046zm-1.6325-0.47911q-0.0177-1.3397-0.75415-2.1383-0.72755-0.79852-1.9342-0.79852-1.3664 0-2.1915 0.7719-0.81626 0.7719-0.94048 2.1738zm10.851-2.573v-5.3767h1.6325v13.806h-1.6325v-1.4906q-0.5146 0.88725-1.3042 1.322-0.78078 0.42588-1.881 0.42588-1.8011 0-2.9368-1.4373-1.1268-1.4373-1.1268-3.7797t1.1268-3.7797q1.1357-1.4373 2.9368-1.4373 1.1002 0 1.881 0.43475 0.78965 0.42588 1.3042 1.3131zm-5.563 3.4691q0 1.8011 0.73641 2.8303 0.74529 1.0203 2.0407 1.0203t2.0407-1.0203q0.74529-1.0292 0.74529-2.8303t-0.74529-2.8214q-0.74528-1.0292-2.0407-1.0292t-2.0407 1.0292q-0.73641 1.0203-0.73641 2.8214zm10.558-4.9775h1.6325v9.9372h-1.6325zm0-3.8684h1.6325v2.0673h-1.6325zm12.2 4.2499v1.5261q-0.69206-0.38152-1.393-0.56784-0.69205-0.19519-1.4018-0.19519-1.5882 0-2.4665 1.0115-0.87838 1.0026-0.87838 2.8214 0 1.8189 0.87838 2.8303 0.87837 1.0026 2.4665 1.0026 0.7098 0 1.4018-0.18632 0.70092-0.19519 1.393-0.57671v1.5083q-0.68318 0.31941-1.4196 0.47911-0.72754 0.1597-1.5527 0.1597-2.2447 0-3.5667-1.4107-1.322-1.4107-1.322-3.8063 0-2.4311 1.3309-3.824 1.3398-1.393 3.6643-1.393 0.75416 0 1.4728 0.1597 0.71867 0.15083 1.393 0.46137zm4.454-3.203v2.8214h3.3627v1.2688h-3.3627v5.3945q0 1.2155 0.32828 1.5616 0.33715 0.34603 1.3575 0.34603h1.6769v1.3664h-1.6769q-1.8898 0-2.6085-0.70092-0.71867-0.7098-0.71867-2.573v-5.3945h-1.1978v-1.2688h1.1978v-2.8214zm5.5098 2.8214h1.6325v9.9372h-1.6325zm0-3.8684h1.6325v2.0673h-1.6325zm8.8991 5.0129q-1.3131 0-2.0762 1.0292-0.76303 1.0203-0.76303 2.8037 0 1.7834 0.75416 2.8126 0.76303 1.0203 2.085 1.0203 1.3042 0 2.0673-1.0292t0.76303-2.8037q0-1.7656-0.76303-2.7948-0.76303-1.0381-2.0673-1.0381zm0-1.3841q2.1294 0 3.3449 1.3841 1.2155 1.3841 1.2155 3.8329 0 2.4399-1.2155 3.8329-1.2155 1.3841-3.3449 1.3841-2.1383 0-3.3538-1.3841-1.2067-1.393-1.2067-3.8329 0-2.4488 1.2067-3.8329 1.2155-1.3841 3.3538-1.3841zm15.527 4.1789v5.9978h-1.6325v-5.9445q0-1.4107-0.55009-2.1116t-1.6503-0.70092q-1.322 0-2.085 0.84288-0.76304 0.84288-0.76304 2.298v5.6163h-1.6414v-9.9372h1.6414v1.5438q0.58559-0.89612 1.3752-1.3397 0.79852-0.44362 1.8366-0.44362 1.7124 0 2.5908 1.0647 0.87838 1.0558 0.87838 3.1142zm7.1778-7.79q-1.1889 2.0407-1.7656 4.037-0.57671 1.9963-0.57671 4.0458 0 2.0495 0.57671 4.0636 0.58558 2.0052 1.7656 4.037h-1.4196q-1.3309-2.085-1.9963-4.0991-0.65656-2.014-0.65656-4.0015 0-1.9786 0.65656-3.9837 0.65656-2.0052 1.9963-4.0991zm5.0307 7.4617v4.8532h2.8747q1.4462 0 2.1383-0.59445 0.70093-0.60333 0.70093-1.8366 0-1.2421-0.70093-1.8277-0.69205-0.59445-2.1383-0.59445zm0-5.4477v3.9926h2.6529q1.3131 0 1.9519-0.48799 0.64769-0.49686 0.64769-1.5083 0-1.0026-0.64769-1.4994-0.63882-0.49686-1.9519-0.49686zm-1.7922-1.4728h4.5782q2.0495 0 3.1586 0.85176 1.1091 0.85176 1.1091 2.4222 0 1.2155-0.56784 1.9342t-1.668 0.89612q1.322 0.28392 2.0495 1.1889 0.73641 0.89612 0.73641 2.2447 0 1.7745-1.2066 2.7416-1.2067 0.9671-3.4336 0.9671h-4.7556zm12.812 10.993h1.8721v1.5261l-1.4551 2.8392h-1.1445l0.72754-2.8392zm19.147-10.558v1.7479q-1.0203-0.48799-1.9253-0.72754-0.90499-0.23956-1.7479-0.23956-1.464 0-2.2625 0.56784-0.78965 0.56784-0.78965 1.6148 0 0.87837 0.52347 1.3309 0.53235 0.44362 2.0052 0.71867l1.0824 0.22181q2.0052 0.38152 2.9545 1.3486 0.95823 0.95823 0.95823 2.573 0 1.9253-1.2954 2.919-1.2865 0.99372-3.7797 0.99372-0.94048 0-2.0052-0.21294-1.0558-0.21294-2.1915-0.62994v-1.8455q1.0913 0.6122 2.1383 0.92274t2.0584 0.31054q1.5349 0 2.369-0.60333 0.83401-0.60333 0.83401-1.7213 0-0.97597-0.60333-1.5261-0.59446-0.55009-1.9608-0.82514l-1.0913-0.21294q-2.0052-0.39926-2.9013-1.251t-0.89612-2.3689q0-1.7567 1.2333-2.7682 1.2422-1.0115 3.4159-1.0115 0.93161 0 1.8987 0.16858 0.96709 0.16858 1.9786 0.50573zm5.0662-0.43475v4.9242h-1.5083v-4.9242zm3.8684 10.993h1.8721v1.5261l-1.4551 2.8392h-1.1445l0.72754-2.8392zm11.206-10.993h1.7922v11.738h6.4503v1.5083h-8.2425zm11.596 0v4.9242h-1.5083v-4.9242zm3.1941-0.54122h1.4196q1.3309 2.0939 1.9874 4.0991 0.66543 2.0052 0.66543 3.9837 0 1.9874-0.66543 4.0015-0.65656 2.014-1.9874 4.0991h-1.4196q1.18-2.0318 1.7568-4.037 0.58558-2.014 0.58558-4.0636 0-2.0495-0.58558-4.0458-0.57671-1.9963-1.7568-4.037z" fill="#fff" aria-label="calculatePrediction(B, S', L')"/>
 <path transform="scale(1.3333)" d="m247.2 326.43 536.08-0.344" fill="none" stroke="#fff" stroke-dasharray="11.3569, 11.3569" stroke-width="2.8392"/>
 <path transform="scale(1.3333)" d="m247.19 319.32-22.707 7.114 22.719 7.085z" fill="#fff" stroke="#fff" stroke-width="2.8392"/>
 <path transform="matrix(1.3333 0 0 1.3333 351.19 460.21)" d="m1.7834-13.247h1.7922v5.4299h6.5124v-5.4299h1.7922v13.247h-1.7922v-6.3083h-6.5124v6.3083h-1.7922zm22.092 7.8699v0.79852h-7.5061q0.10647 1.6858 1.0115 2.573 0.91386 0.87837 2.5375 0.87837 0.94048 0 1.8189-0.23068 0.88725-0.23068 1.7567-0.69205v1.5438q-0.87837 0.37264-1.8011 0.56784-0.92274 0.19519-1.8721 0.19519-2.3778 0-3.7708-1.3841-1.3841-1.3841-1.3841-3.7442 0-2.4399 1.3131-3.8684 1.322-1.4373 3.5579-1.4373 2.0052 0 3.1675 1.2954 1.1712 1.2865 1.1712 3.5046zm-1.6325-0.47911q-0.01774-1.3397-0.75416-2.1383-0.72754-0.79852-1.9342-0.79852-1.3664 0-2.1915 0.7719-0.81627 0.7719-0.94048 2.1738zm8.8281 0.86063q-1.9786 0-2.7416 0.4525-0.76303 0.4525-0.76303 1.5438 0 0.8695 0.56784 1.3841 0.57671 0.50573 1.5616 0.50573 1.3575 0 2.1738-0.95823 0.82514-0.9671 0.82514-2.5641v-0.36377zm3.2562-0.67431v5.6695h-1.6325v-1.5083q-0.55896 0.90499-1.393 1.3397-0.83401 0.42588-2.0407 0.42588-1.5261 0-2.4311-0.85176-0.89612-0.86063-0.89612-2.298 0-1.6769 1.1179-2.5287 1.1268-0.85176 3.3538-0.85176h2.2891v-0.1597q0-1.1268-0.74529-1.739-0.73642-0.62107-2.0762-0.62107-0.85176 0-1.6592 0.20407t-1.5527 0.6122v-1.5083q0.89612-0.34603 1.739-0.5146 0.84288-0.17745 1.6414-0.17745 2.156 0 3.2207 1.1179 1.0647 1.1179 1.0647 3.3893zm9.9017-2.7593v-5.3767h1.6325v13.806h-1.6325v-1.4906q-0.5146 0.88725-1.3043 1.322-0.78078 0.42588-1.881 0.42588-1.8011 0-2.9368-1.4373-1.1268-1.4373-1.1268-3.7797t1.1268-3.7797q1.1357-1.4373 2.9368-1.4373 1.1002 0 1.881 0.43475 0.78965 0.42588 1.3043 1.3131zm-5.563 3.4691q0 1.8011 0.73641 2.8303 0.74529 1.0203 2.0407 1.0203 1.2954 0 2.0407-1.0203 0.74529-1.0292 0.74529-2.8303t-0.74529-2.8214q-0.74529-1.0292-2.0407-1.0292-1.2954 0-2.0407 1.0292-0.73641 1.0203-0.73641 2.8214zm16.405-8.2869h1.7922v5.4299h6.5124v-5.4299h1.7922v13.247h-1.7922v-6.3083h-6.5124v6.3083h-1.7922zm14.01 10.993h1.8721v1.5261l-1.4551 2.8392h-1.1445l0.72754-2.8392zm12.111-2.7061q0 1.8011 0.73641 2.8303 0.74529 1.0203 2.0407 1.0203t2.0407-1.0203q0.74529-1.0292 0.74529-2.8303t-0.74529-2.8214q-0.74529-1.0292-2.0407-1.0292t-2.0407 1.0292q-0.73641 1.0203-0.73641 2.8214zm5.563 3.4691q-0.5146 0.88725-1.3043 1.322-0.78078 0.42588-1.881 0.42588-1.8011 0-2.9368-1.4373-1.1268-1.4373-1.1268-3.7797t1.1268-3.7797q1.1357-1.4373 2.9368-1.4373 1.1002 0 1.881 0.43475 0.78965 0.42588 1.3043 1.3131v-1.5083h1.6325v13.717h-1.6325zm4.8266-2.4311v-6.0155h1.6325v5.9534q0 1.4107 0.55009 2.1205 0.55009 0.70092 1.6503 0.70092 1.322 0 2.085-0.84288 0.7719-0.84288 0.7719-2.298v-5.634h1.6325v9.9372h-1.6325v-1.5261q-0.59446 0.90499-1.3841 1.3486-0.78078 0.43475-1.8189 0.43475-1.7124 0-2.5996-1.0647-0.88725-1.0647-0.88725-3.1142zm4.108-6.2551m12.093 5.1815q-1.9786 0-2.7416 0.4525t-0.76303 1.5438q0 0.8695 0.56784 1.3841 0.57671 0.50573 1.5616 0.50573 1.3575 0 2.1738-0.95823 0.82514-0.9671 0.82514-2.5641v-0.36377zm3.2562-0.67431v5.6695h-1.6325v-1.5083q-0.55896 0.90499-1.393 1.3397-0.83402 0.42588-2.0407 0.42588-1.5261 0-2.431-0.85176-0.89612-0.86063-0.89612-2.298 0-1.6769 1.1179-2.5287 1.1268-0.85176 3.3538-0.85176h2.2891v-0.1597q0-1.1268-0.74529-1.739-0.73641-0.62107-2.0762-0.62107-0.85176 0-1.6592 0.20407t-1.5527 0.6122v-1.5083q0.89612-0.34603 1.739-0.5146 0.84288-0.17745 1.6414-0.17745 2.156 0 3.2207 1.1179 1.0647 1.1179 1.0647 3.3893zm3.3627-8.136h1.6325v13.806h-1.6325zm5.0484 3.8684h1.6325v9.9372h-1.6325zm0-3.8684h1.6325v2.0673h-1.6325zm6.6632 1.047v2.8214h3.3627v1.2688h-3.3627v5.3945q0 1.2155 0.32828 1.5616 0.33716 0.34603 1.3575 0.34603h1.6769v1.3664h-1.6769q-1.8898 0-2.6085-0.70092-0.71867-0.7098-0.71867-2.573v-5.3945h-1.1978v-1.2688h1.1978v-2.8214zm9.6444 13.681q-0.69205 1.7745-1.3486 2.3157-0.65657 0.54122-1.7568 0.54122h-1.3042v-1.3664h0.95822q0.67431 0 1.047-0.31941 0.37265-0.31941 0.82514-1.5083l0.29279-0.74529-4.0192-9.7775h1.7301l3.1054 7.7723 3.1054-7.7723h1.7301zm18.73-10.567v1.5438q-0.69205-0.3549-1.4373-0.53235t-1.5438-0.17745q-1.2155 0-1.8277 0.37264-0.60332 0.37264-0.60332 1.1179 0 0.56784 0.43475 0.89612 0.43475 0.31941 1.7479 0.6122l0.55897 0.12421q1.739 0.37264 2.4665 1.0558 0.73642 0.67431 0.73642 1.8898 0 1.3841-1.1002 2.1915-1.0913 0.80739-3.0078 0.80739-0.79852 0-1.668-0.1597-0.86062-0.15083-1.8188-0.46137v-1.6858q0.90499 0.47024 1.7834 0.7098 0.87838 0.23068 1.739 0.23068 1.1534 0 1.7745-0.39039 0.62107-0.39926 0.62107-1.1179 0-0.66543-0.45249-1.0203-0.44363-0.3549-1.9608-0.68318l-0.56784-0.13309q-1.5172-0.31941-2.1915-0.97597-0.67431-0.66543-0.67431-1.8189 0-1.4018 0.99372-2.1649 0.99371-0.76303 2.8214-0.76303 0.90499 0 1.7035 0.13309 0.79852 0.13309 1.4728 0.39926zm10.283 0.088725v1.5261q-0.69205-0.38152-1.393-0.56784-0.69205-0.19519-1.4018-0.19519-1.5882 0-2.4666 1.0115-0.87837 1.0026-0.87837 2.8214 0 1.8189 0.87837 2.8303 0.87838 1.0026 2.4666 1.0026 0.7098 0 1.4018-0.18632 0.70092-0.19519 1.393-0.57671v1.5083q-0.68318 0.31941-1.4196 0.47911-0.72754 0.1597-1.5527 0.1597-2.2447 0-3.5667-1.4107-1.322-1.4107-1.322-3.8063 0-2.4311 1.3309-3.824 1.3397-1.393 3.6643-1.393 0.75416 0 1.4728 0.1597 0.71867 0.15083 1.393 0.46137zm6.6898 0.76303q-1.3131 0-2.0762 1.0292-0.76303 1.0203-0.76303 2.8037 0 1.7834 0.75416 2.8126 0.76303 1.0203 2.085 1.0203 1.3042 0 2.0673-1.0292t0.76303-2.8037q0-1.7656-0.76303-2.7948-0.76303-1.0381-2.0673-1.0381zm0-1.3841q2.1294 0 3.3449 1.3841 1.2155 1.3841 1.2155 3.8329 0 2.4399-1.2155 3.8329-1.2155 1.3841-3.3449 1.3841-2.1383 0-3.3538-1.3841-1.2067-1.393-1.2067-3.8329 0-2.4488 1.2067-3.8329 1.2155-1.3841 3.3538-1.3841zm13.025 1.7656q-0.27505-0.1597-0.60333-0.23068-0.31941-0.079852-0.7098-0.079852-1.3841 0-2.1294 0.90499-0.73641 0.89612-0.73641 2.5819v5.2348h-1.6414v-9.9372h1.6414v1.5438q0.5146-0.90499 1.3397-1.3397 0.82514-0.44362 2.0052-0.44362 0.16857 0 0.37264 0.02662 0.20407 0.01774 0.45249 0.06211zm9.8124 3.0344v0.79852h-7.5061q0.10647 1.6858 1.0115 2.573 0.91387 0.87837 2.5375 0.87837 0.94048 0 1.8188-0.23068 0.88725-0.23068 1.7568-0.69205v1.5438q-0.87838 0.37264-1.8011 0.56784-0.92274 0.19519-1.8721 0.19519-2.3778 0-3.7708-1.3841-1.3841-1.3841-1.3841-3.7442 0-2.4399 1.3131-3.8684 1.322-1.4373 3.5579-1.4373 2.0052 0 3.1675 1.2954 1.1712 1.2865 1.1712 3.5046zm-1.6325-0.47911q-0.0177-1.3397-0.75416-2.1383-0.72754-0.79852-1.9342-0.79852-1.3664 0-2.1915 0.7719-0.81627 0.7719-0.94048 2.1738zm11.064 0.89612q0 1.8011 0.73642 2.8303 0.74528 1.0203 2.0407 1.0203t2.0407-1.0203q0.74529-1.0292 0.74529-2.8303t-0.74529-2.8214q-0.74529-1.0292-2.0407-1.0292t-2.0407 1.0292q-0.73642 1.0203-0.73642 2.8214zm5.563 3.4691q-0.51461 0.88725-1.3042 1.322-0.78078 0.42588-1.881 0.42588-1.8011 0-2.9368-1.4373-1.1268-1.4373-1.1268-3.7797t1.1268-3.7797q1.1357-1.4373 2.9368-1.4373 1.1002 0 1.881 0.43475 0.78964 0.42588 1.3042 1.3131v-1.5083h1.6325v13.717h-1.6325z" fill="#fff" aria-label="Head H, quality score q"/>
</svg>
