<?xml version="1.0" encoding="UTF-8"?>
<!-- Created with Inkscape (http://www.inkscape.org/) -->
<svg width="1133.9" height="680.31" version="1.1" viewBox="0 0 1133.9 680.31" xmlns="http://www.w3.org/2000/svg">
 <path transform="scale(1.3333)" d="m42.52 211.89h803.62v163.34h-803.62z" fill="none" stroke="#fff" stroke-width="2.8346"/>
 <path transform="scale(1.3333)" d="m42.52 183.54h56.691v28.348h-56.691z" fill="none" stroke="#fff" stroke-width="2.8346"/>
 <path transform="matrix(1.3333 0 0 1.3333 60.472 273.03)" d="m5.6603-3.5964q0 1.0984 0.39861 1.6565 0.40747 0.55806 1.1958 0.55806h1.9045v1.3819h-2.0639q-1.4616 0-2.2677-0.93896-0.79723-0.93896-0.79723-2.6574v-9.0087h-2.6131v-1.2756h4.243zm10.718-5.182q-1.2401 0-1.8779 0.96553-0.63778 0.96553-0.63778 2.8612 0 1.8868 0.63778 2.8612 0.63778 0.96553 1.8779 0.96553 1.249 0 1.8868-0.96553 0.63778-0.97439 0.63778-2.8612 0-1.8956-0.63778-2.8612-0.63778-0.96553-1.8868-0.96553zm0-1.3819q2.0639 0 3.1535 1.3376 1.0984 1.3376 1.0984 3.871 0 2.5423-1.0895 3.8799-1.0895 1.3287-3.1623 1.3287-2.0639 0-3.1535-1.3287-1.0895-1.3376-1.0895-3.8799 0-2.5334 1.0895-3.871 1.0895-1.3376 3.1535-1.3376zm10.922 1.3819q-1.2401 0-1.8779 0.96553-0.63778 0.96553-0.63778 2.8612 0 1.8868 0.63778 2.8612 0.63778 0.96553 1.8779 0.96553 1.249 0 1.8868-0.96553 0.63778-0.97439 0.63778-2.8612 0-1.8956-0.63778-2.8612-0.63778-0.96553-1.8868-0.96553zm0-1.3819q2.0639 0 3.1535 1.3376 1.0984 1.3376 1.0984 3.871 0 2.5423-1.0895 3.8799-1.0895 1.3287-3.1623 1.3287-2.0639 0-3.1535-1.3287-1.0895-1.3376-1.0895-3.8799 0-2.5334 1.0895-3.871 1.0895-1.3376 3.1535-1.3376zm8.7872 8.9113v5.0225h-1.6388v-13.695h1.6388v1.2667q0.40747-0.73522 1.0807-1.1161 0.68207-0.38976 1.5679-0.38976 1.7982 0 2.8169 1.3907 1.0275 1.3907 1.0275 3.8533 0 2.4183-1.0275 3.8001-1.0275 1.373-2.8169 1.373-0.90353 0-1.5856-0.3809-0.67322-0.38976-1.063-1.125zm4.7834-3.7027q0-1.8956-0.60235-2.8612-0.59349-0.96553-1.7716-0.96553-1.187 0-1.7982 0.97439-0.61121 0.96553-0.61121 2.8523 0 1.8779 0.61121 2.8523 0.61121 0.97439 1.7982 0.97439 1.1781 0 1.7716-0.96553 0.60235-0.96553 0.60235-2.8612z" fill="#fff" aria-label="loop"/>
 <path transform="scale(1.3333)" d="m29.766 12.047h199.56v51.023h-199.56z" fill="none" stroke="#fff" stroke-width="2.8346"/>
 <path transform="matrix(1.3333 0 0 1.3333 58.671 57.413)" d="m2.126-2.25h1.8691v2.25h-1.8691zm0-7.1309h1.8691v2.25h-1.8691zm5.7667-3.8445h2.6663l3.375 9 3.3927-9h2.6663v13.225h-1.7451v-11.613l-3.4104 9.0709h-1.7982l-3.4104-9.0709v11.613h-1.7362zm19.426 4.4468q-1.311 0-2.0728 1.0276-0.76181 1.0187-0.76181 2.7992 0 1.7805 0.75295 2.8081 0.76181 1.0187 2.0817 1.0187 1.3022 0 2.064-1.0276 0.76181-1.0276 0.76181-2.7992 0-1.7628-0.76181-2.7903-0.76181-1.0364-2.064-1.0364zm0-1.3819q2.126 0 3.3396 1.3819 1.2136 1.3819 1.2136 3.8268 0 2.436-1.2136 3.8268-1.2136 1.3819-3.3396 1.3819-2.1348 0-3.3484-1.3819-1.2047-1.3907-1.2047-3.8268 0-2.4449 1.2047-3.8268 1.2136-1.3819 3.3484-1.3819zm13.783 1.7451v-5.3681h1.6299v13.783h-1.6299v-1.4882q-0.51378 0.88583-1.3022 1.3199-0.77953 0.4252-1.8779 0.4252-1.7982 0-2.9321-1.435-1.125-1.435-1.125-3.7736 0-2.3386 1.125-3.7736 1.1339-1.435 2.9321-1.435 1.0984 0 1.8779 0.43405 0.78838 0.4252 1.3022 1.311zm-5.5541 3.4636q0 1.7982 0.73524 2.8258 0.74409 1.0187 2.0374 1.0187t2.0374-1.0187q0.74409-1.0276 0.74409-2.8258 0-1.7982-0.74409-2.8169-0.74409-1.0276-2.0374-1.0276t-2.0374 1.0276q-0.73524 1.0187-0.73524 2.8169zm19.028-0.41634v0.79724h-7.4941q0.1063 1.6831 1.0098 2.5689 0.9124 0.87697 2.5335 0.87697 0.93897 0 1.8159-0.23031 0.88583-0.23031 1.7539-0.69094v1.5413q-0.87697 0.37205-1.7982 0.56693t-1.8691 0.19488q-2.374 0-3.7648-1.3819-1.3819-1.3819-1.3819-3.7382 0-2.436 1.311-3.8622 1.3199-1.435 3.5522-1.435 2.002 0 3.1624 1.2933 1.1693 1.2844 1.1693 3.499zm-1.6299-0.47835q-0.01772-1.3376-0.75295-2.1348-0.72638-0.79724-1.9311-0.79724-1.3642 0-2.188 0.77067-0.81496 0.77067-0.93898 2.1703zm4.3051-7.937h1.6299v13.783h-1.6299zm9.5315 2.3209-2.4272 6.5817h4.8632zm-1.0098-1.7628h2.0285l5.0403 13.225h-1.8602l-1.2047-3.3927h-5.9616l-1.2047 3.3927h-1.8868zm15.254 3.5965v1.5413q-0.69094-0.35433-1.435-0.5315-0.74409-0.17717-1.5413-0.17717-1.2136 0-1.8248 0.37205-0.60236 0.37205-0.60236 1.1161 0 0.56693 0.43405 0.89468 0.43405 0.3189 1.7451 0.61122l0.55807 0.12402q1.7362 0.37205 2.4626 1.0541 0.73524 0.67323 0.73524 1.8868 0 1.3819-1.0984 2.188-1.0896 0.8061-3.0029 0.8061-0.79724 0-1.6654-0.15945-0.85925-0.15059-1.8159-0.46063v-1.6831q0.90354 0.46949 1.7805 0.70866 0.87697 0.23031 1.7362 0.23031 1.1516 0 1.7716-0.38976 0.62008-0.39862 0.62008-1.1161 0-0.66437-0.45177-1.0187-0.44291-0.35433-1.9577-0.68209l-0.56693-0.13287q-1.5148-0.3189-2.188-0.97441-0.67323-0.66437-0.67323-1.8159 0-1.3996 0.99212-2.1614 0.99212-0.76181 2.8169-0.76181 0.90354 0 1.7008 0.13287 0.79724 0.13287 1.4705 0.39862zm9.4518 0v1.5413q-0.69094-0.35433-1.435-0.5315-0.74409-0.17717-1.5413-0.17717-1.2136 0-1.8248 0.37205-0.60236 0.37205-0.60236 1.1161 0 0.56693 0.43405 0.89468 0.43406 0.3189 1.7451 0.61122l0.55807 0.12402q1.7362 0.37205 2.4626 1.0541 0.73524 0.67323 0.73524 1.8868 0 1.3819-1.0984 2.188-1.0896 0.8061-3.0029 0.8061-0.79724 0-1.6654-0.15945-0.85925-0.15059-1.8159-0.46063v-1.6831q0.90354 0.46949 1.7805 0.70866 0.87697 0.23031 1.7362 0.23031 1.1516 0 1.7717-0.38976 0.62008-0.39862 0.62008-1.1161 0-0.66437-0.45177-1.0187-0.44291-0.35433-1.9577-0.68209l-0.56693-0.13287q-1.5148-0.3189-2.188-0.97441-0.67323-0.66437-0.67323-1.8159 0-1.3996 0.99212-2.1614 0.99212-0.76181 2.8169-0.76181 0.90354 0 1.7008 0.13287 0.79724 0.13287 1.4705 0.39862zm11.613 4.2608v0.79724h-7.4941q0.1063 1.6831 1.0098 2.5689 0.9124 0.87697 2.5335 0.87697 0.93897 0 1.8159-0.23031 0.88582-0.23031 1.7539-0.69094v1.5413q-0.87697 0.37205-1.7982 0.56693-0.92126 0.19488-1.8691 0.19488-2.374 0-3.7648-1.3819-1.3819-1.3819-1.3819-3.7382 0-2.436 1.311-3.8622 1.3199-1.435 3.5522-1.435 2.002 0 3.1624 1.2933 1.1693 1.2844 1.1693 3.499zm-1.6299-0.47835q-0.0177-1.3376-0.75295-2.1348-0.72638-0.79724-1.9311-0.79724-1.3642 0-2.188 0.77067-0.81496 0.77067-0.93898 2.1703zm12.03-2.1703q0.61122-1.0984 1.4616-1.6211 0.85039-0.52264 2.002-0.52264 1.5502 0 2.3917 1.0896 0.84154 1.0807 0.84154 3.0827v5.9882h-1.6388v-5.935q0-1.4262-0.50492-2.1171-0.50492-0.69094-1.5413-0.69094-1.2667 0-2.002 0.84153-0.73524 0.84153-0.73524 2.2943v5.6073h-1.6388v-5.935q0-1.435-0.50492-2.1171-0.50493-0.69094-1.5591-0.69094-1.249 0-1.9842 0.85039-0.73523 0.84153-0.73523 2.2854v5.6073h-1.6388v-9.9212h1.6388v1.5413q0.55807-0.9124 1.3376-1.3465 0.77952-0.43405 1.8514-0.43405 1.0807 0 1.8337 0.54921 0.76181 0.54921 1.125 1.5945zm17.07 3.065q0-1.7982-0.7441-2.8169-0.73523-1.0276-2.0285-1.0276-1.2933 0-2.0374 1.0276-0.73523 1.0187-0.73523 2.8169 0 1.7982 0.73523 2.8258 0.7441 1.0187 2.0374 1.0187 1.2933 0 2.0285-1.0187 0.7441-1.0276 0.7441-2.8258zm-5.5453-3.4636q0.51378-0.88583 1.2933-1.311 0.78839-0.43405 1.878-0.43405 1.8071 0 2.9321 1.435 1.1338 1.435 1.1338 3.7736 0 2.3386-1.1338 3.7736-1.125 1.435-2.9321 1.435-1.0896 0-1.878-0.4252-0.77952-0.43405-1.2933-1.3199v1.4882h-1.6388v-13.783h1.6388zm9.939-5.3681h1.6299v13.783h-1.6299zm9.5492 8.7962q-1.9754 0-2.7372 0.45177t-0.76181 1.5413q0 0.86811 0.56693 1.3819 0.57578 0.50492 1.559 0.50492 1.3553 0 2.1703-0.95669 0.82382-0.96555 0.82382-2.56v-0.36319zm3.251-0.67323v5.6604h-1.6299v-1.5059q-0.55807 0.90354-1.3908 1.3376-0.83267 0.4252-2.0374 0.4252-1.5236 0-2.4272-0.85039-0.89469-0.85925-0.89469-2.2943 0-1.6742 1.1161-2.5246 1.125-0.85039 3.3484-0.85039h2.2854v-0.15945q0-1.125-0.74409-1.7362-0.73524-0.62008-2.0728-0.62008-0.8504 0-1.6565 0.20374t-1.5502 0.61122v-1.5059q0.89468-0.34547 1.7362-0.51378 0.84153-0.17716 1.6388-0.17716 2.1526 0 3.2156 1.1161 1.063 1.1161 1.063 3.3839zm9.8858 0.58464q0-1.7717-0.73523-2.7461-0.72638-0.97441-2.0463-0.97441-1.311 0-2.0462 0.97441-0.72638 0.97441-0.72638 2.7461 0 1.7628 0.72638 2.7372 0.73523 0.97441 2.0462 0.97441 1.3199 0 2.0463-0.97441 0.73523-0.97441 0.73523-2.7372zm1.6299 3.8445q0 2.5335-1.125 3.7648-1.125 1.2402-3.4459 1.2402-0.85925 0-1.6211-0.13287-0.76181-0.12402-1.4793-0.38976v-1.5856q0.71752 0.38976 1.4173 0.57579 0.69981 0.18602 1.4262 0.18602 1.6034 0 2.4006-0.84153 0.79724-0.83268 0.79724-2.5246v-0.8061q-0.50492 0.87697-1.2933 1.311-0.78839 0.43405-1.8868 0.43405-1.8248 0-2.9409-1.3907t-1.1161-3.685q0-2.3031 1.1161-3.6939 1.1161-1.3907 2.9409-1.3907 1.0984 0 1.8868 0.43405 0.78838 0.43405 1.2933 1.311v-1.5059h1.6299zm11.843-4.1368v0.79724h-7.4941q0.1063 1.6831 1.0098 2.5689 0.9124 0.87697 2.5335 0.87697 0.93897 0 1.8159-0.23031 0.88582-0.23031 1.7539-0.69094v1.5413q-0.87696 0.37205-1.7982 0.56693t-1.8691 0.19488q-2.374 0-3.7648-1.3819-1.3819-1.3819-1.3819-3.7382 0-2.436 1.311-3.8622 1.3199-1.435 3.5522-1.435 2.002 0 3.1624 1.2933 1.1693 1.2844 1.1693 3.499zm-1.6299-0.47835q-0.0177-1.3376-0.75295-2.1348-0.72638-0.79724-1.9311-0.79724-1.3642 0-2.188 0.77067-0.81496 0.77067-0.93897 2.1703z" fill="#fff" aria-label=":ModelAssemblage"/>
 <g fill="none" stroke="#fff">
  <g stroke-width="1.4173">
   <path transform="scale(1.3333)" d="m43.938 47.34h171.21"/>
   <path transform="scale(1.3333)" d="m129.54 63.07v35.434" stroke-dasharray="11.3386, 11.3386"/>
   <path transform="scale(1.3333)" d="m129.54 467.01v31.18" stroke-dasharray="11.3386, 11.3386"/>
  </g>
  <path transform="scale(1.3333)" d="m119.62 98.504h19.844v368.5h-19.844z" stroke-width="2.8346"/>
  <path transform="scale(1.3333)" d="m93.719 98.504h-92.301" stroke-width="2.8346"/>
 </g>
 <path transform="scale(1.3333)" d="m93.719 105.59 22.676-7.086-22.676-7.086z" fill="#fff" stroke="#fff" stroke-width="2.8346"/>
 <path transform="matrix(1.3333 0 0 1.3333 32.322 156.38)" d="m9.7262-9.9211v9.9211h-1.6387v-8.6544h-4.4733v8.6544h-1.6387v-8.6544h-1.559v-1.2667h1.559v-0.69093q0-1.621 0.7618-2.3917 0.77066-0.77951 2.3563-0.77951h1.6387v1.3553h-1.559q-0.87695 0-1.2224 0.35432-0.33661 0.35432-0.33661 1.2756v0.87695zm-1.6387-3.8444h1.6387v2.0639h-1.6387zm6.6613 1.0275v2.8169h3.3572v1.2667h-3.3572v5.3857q0 1.2136 0.32775 1.559 0.33661 0.34547 1.3553 0.34547h1.6742v1.3641h-1.6742q-1.8868 0-2.6043-0.69979-0.71751-0.70865-0.71751-2.5689v-5.3857h-1.1958v-1.2667h1.1958v-2.8169zm9.4162-1.0275q-1.187 2.0374-1.7628 4.0304-0.57578 1.9931-0.57578 4.0393t0.57578 4.057q0.58464 2.0019 1.7628 4.0304h-1.4173q-1.3287-2.0817-1.9931-4.0924-0.6555-2.0108-0.6555-3.995 0-1.9754 0.6555-3.9773 0.6555-2.0019 1.9931-4.0924zm2.5954 0.54034h1.9222l3.2864 4.9162 3.3041-4.9162h1.9222l-4.2519 6.3513 4.5353 6.8739h-1.9222l-3.7204-5.6249-3.747 5.6249h-1.9311l4.7214-7.0599zm13.411 10.975h1.8691v1.5236l-1.4527 2.8346h-1.1427l0.72636-2.8346zm9.3719-10.975h1.9222l3.6673 5.4389 3.6407-5.4389h1.9222l-4.6771 6.927v6.2981h-1.7982v-6.2981zm12.57-0.54034h1.4173q1.3287 2.0905 1.9842 4.0924 0.66436 2.0019 0.66436 3.9773 0 1.9842-0.66436 3.995-0.6555 2.0108-1.9842 4.0924h-1.4173q1.1781-2.0285 1.7539-4.0304 0.58464-2.0108 0.58464-4.057t-0.58464-4.0393q-0.57578-1.9931-1.7539-4.0304z" fill="#fff" aria-label="ï¬t(X, Y)"/>
 <path transform="scale(1.3333)" d="m253.7 12.047h193.89v51.023h-193.89z" fill="none" stroke="#fff" stroke-width="2.8346"/>
 <path transform="matrix(1.3333 0 0 1.3333 357.22 57.413)" d="m2.126-2.25h1.8691v2.25h-1.8691zm0-7.1309h1.8691v2.25h-1.8691zm13.695-3.4104v1.7451q-1.0187-0.4872-1.9222-0.72638-0.90354-0.23917-1.7451-0.23917-1.4616 0-2.2589 0.56693-0.78838 0.56693-0.78838 1.6122 0 0.87697 0.52264 1.3287 0.53149 0.44291 2.002 0.71752l1.0807 0.22146q2.002 0.3809 2.9498 1.3465 0.95669 0.95669 0.95669 2.5689 0 1.9222-1.2933 2.9144-1.2844 0.99212-3.7736 0.99212-0.93898 0-2.002-0.2126-1.0541-0.2126-2.188-0.62894v-1.8425q1.0896 0.61122 2.1348 0.92126 1.0453 0.31004 2.0551 0.31004 1.5325 0 2.3652-0.60236 0.83268-0.60236 0.83268-1.7185 0-0.97441-0.60236-1.5236-0.5935-0.54921-1.9577-0.82382l-1.0896-0.2126q-2.002-0.39862-2.8966-1.249-0.89468-0.85039-0.89468-2.3652 0-1.7539 1.2313-2.7638 1.2402-1.0098 3.4104-1.0098 0.93012 0 1.8957 0.16831 0.96555 0.16831 1.9754 0.50492zm5.1289 0.05315v2.8169h3.3573v1.2667h-3.3573v5.3858q0 1.2136 0.32776 1.5591 0.33661 0.34547 1.3553 0.34547h1.6742v1.3642h-1.6742q-1.8868 0-2.6043-0.6998-0.71752-0.70866-0.71752-2.5689v-5.3858h-1.1959v-1.2667h1.1959v-2.8169zm9.3455 3.9596q-1.311 0-2.0728 1.0276-0.76181 1.0187-0.76181 2.7992 0 1.7805 0.75295 2.8081 0.76181 1.0187 2.0817 1.0187 1.3022 0 2.064-1.0276 0.76181-1.0276 0.76181-2.7992 0-1.7628-0.76181-2.7903-0.76181-1.0364-2.064-1.0364zm0-1.3819q2.126 0 3.3396 1.3819 1.2136 1.3819 1.2136 3.8268 0 2.436-1.2136 3.8268-1.2136 1.3819-3.3396 1.3819-2.1348 0-3.3484-1.3819-1.2047-1.3907-1.2047-3.8268 0-2.4449 1.2047-3.8268 1.2136-1.3819 3.3484-1.3819zm8.8317 8.6722v5.2618h-1.6388v-13.695h1.6388v1.5059q0.51378-0.88583 1.2933-1.311 0.78838-0.43405 1.8779-0.43405 1.8071 0 2.9321 1.435 1.1339 1.435 1.1339 3.7736 0 2.3386-1.1339 3.7736-1.125 1.435-2.9321 1.435-1.0896 0-1.8779-0.4252-0.77953-0.43405-1.2933-1.3199zm5.5453-3.4636q0-1.7982-0.74409-2.8169-0.73524-1.0276-2.0285-1.0276t-2.0374 1.0276q-0.73524 1.0187-0.73524 2.8169 0 1.7982 0.73524 2.8258 0.74409 1.0187 2.0374 1.0187t2.0285-1.0187q0.74409-1.0276 0.74409-2.8258zm5.9705 3.4636v5.2618h-1.6388v-13.695h1.6388v1.5059q0.51378-0.88583 1.2933-1.311 0.78838-0.43405 1.8779-0.43405 1.8071 0 2.9321 1.435 1.1339 1.435 1.1339 3.7736 0 2.3386-1.1339 3.7736-1.125 1.435-2.9321 1.435-1.0896 0-1.8779-0.4252-0.77953-0.43405-1.2933-1.3199zm5.5453-3.4636q0-1.7982-0.74409-2.8169-0.73524-1.0276-2.0285-1.0276t-2.0374 1.0276q-0.73524 1.0187-0.73524 2.8169 0 1.7982 0.73524 2.8258 0.74409 1.0187 2.0374 1.0187t2.0285-1.0187q0.74409-1.0276 0.74409-2.8258zm4.3937-4.9695h1.6299v9.9212h-1.6299zm0-3.8622h1.6299v2.064h-1.6299zm13.287 7.7953v5.9882h-1.6299v-5.935q0-1.4085-0.54921-2.1083t-1.6476-0.6998q-1.3199 0-2.0817 0.84153-0.76181 0.84153-0.76181 2.2943v5.6073h-1.6388v-9.9212h1.6388v1.5413q0.58464-0.89468 1.373-1.3376 0.79724-0.44291 1.8337-0.44291 1.7096 0 2.5866 1.063 0.87697 1.0541 0.87697 3.1092zm9.7795 0.9124q0-1.7717-0.73524-2.7461-0.72638-0.97441-2.0463-0.97441-1.311 0-2.0463 0.97441-0.72638 0.97441-0.72638 2.7461 0 1.7628 0.72638 2.7372 0.73524 0.97441 2.0463 0.97441 1.3199 0 2.0463-0.97441 0.73524-0.97441 0.73524-2.7372zm1.6299 3.8445q0 2.5335-1.125 3.7648-1.125 1.2402-3.4459 1.2402-0.85925 0-1.6211-0.13287-0.76181-0.12402-1.4793-0.38976v-1.5856q0.71752 0.38976 1.4173 0.57579t1.4262 0.18602q1.6033 0 2.4006-0.84153 0.79724-0.83268 0.79724-2.5246v-0.8061q-0.50492 0.87697-1.2933 1.311-0.78838 0.43405-1.8868 0.43405-1.8248 0-2.9409-1.3907-1.1161-1.3907-1.1161-3.685 0-2.3031 1.1161-3.6939 1.1161-1.3907 2.9409-1.3907 1.0984 0 1.8868 0.43405 0.78838 0.43405 1.2933 1.311v-1.5059h1.6299zm13.332-10.975v1.8868q-0.90354-0.84153-1.9311-1.2579-1.0187-0.41634-2.1703-0.41634-2.2677 0-3.4724 1.3907-1.2047 1.3819-1.2047 4.0039 0 2.6132 1.2047 4.0039 1.2047 1.3819 3.4724 1.3819 1.1516 0 2.1703-0.41634 1.0276-0.41634 1.9311-1.2579v1.8691q-0.93898 0.63779-1.9931 0.95669-1.0453 0.3189-2.2146 0.3189-3.0029 0-4.7303-1.8337-1.7274-1.8425-1.7274-5.0226 0-3.189 1.7274-5.0226 1.7274-1.8425 4.7303-1.8425 1.187 0 2.2323 0.3189 1.0541 0.31004 1.9754 0.93897zm8.4419 3.809q-0.27461-0.15945-0.60236-0.23031-0.3189-0.079724-0.70866-0.079724-1.3819 0-2.126 0.90354-0.73524 0.89468-0.73524 2.5778v5.2264h-1.6388v-9.9212h1.6388v1.5413q0.51378-0.90354 1.3376-1.3376 0.82382-0.44291 2.002-0.44291 0.16831 0 0.37205 0.02657 0.20374 0.01772 0.45177 0.06201zm1.7096-1.5236h1.6299v9.9212h-1.6299zm0-3.8622h1.6299v2.064h-1.6299zm6.6526 1.0453v2.8169h3.3573v1.2667h-3.3573v5.3858q0 1.2136 0.32775 1.5591 0.33662 0.34547 1.3553 0.34547h1.6742v1.3642h-1.6742q-1.8868 0-2.6043-0.6998-0.71752-0.70866-0.71752-2.5689v-5.3858h-1.1959v-1.2667h1.1959v-2.8169zm13.987 7.3701v0.79724h-7.4941q0.1063 1.6831 1.0098 2.5689 0.9124 0.87697 2.5335 0.87697 0.93898 0 1.8159-0.23031 0.88583-0.23031 1.7539-0.69094v1.5413q-0.87697 0.37205-1.7982 0.56693-0.92125 0.19488-1.8691 0.19488-2.374 0-3.7648-1.3819-1.3819-1.3819-1.3819-3.7382 0-2.436 1.311-3.8622 1.3199-1.435 3.5522-1.435 2.002 0 3.1624 1.2933 1.1693 1.2844 1.1693 3.499zm-1.6299-0.47835q-0.0177-1.3376-0.75296-2.1348-0.72637-0.79724-1.9311-0.79724-1.3642 0-2.188 0.77067-0.81496 0.77067-0.93898 2.1703zm10.054-2.5512q-0.27461-0.15945-0.60237-0.23031-0.31889-0.079724-0.70866-0.079724-1.3819 0-2.126 0.90354-0.73523 0.89468-0.73523 2.5778v5.2264h-1.6388v-9.9212h1.6388v1.5413q0.51378-0.90354 1.3376-1.3376 0.82381-0.44291 2.002-0.44291 0.16831 0 0.37205 0.02657 0.20374 0.01772 0.45177 0.06201zm1.7096-1.5236h1.6299v9.9212h-1.6299zm0-3.8622h1.6299v2.064h-1.6299zm8.8848 5.0049q-1.311 0-2.0728 1.0276-0.76181 1.0187-0.76181 2.7992 0 1.7805 0.75296 2.8081 0.76181 1.0187 2.0817 1.0187 1.3022 0 2.064-1.0276t0.76181-2.7992q0-1.7628-0.76181-2.7903-0.76181-1.0364-2.064-1.0364zm0-1.3819q2.126 0 3.3396 1.3819 1.2136 1.3819 1.2136 3.8268 0 2.436-1.2136 3.8268-1.2136 1.3819-3.3396 1.3819-2.1348 0-3.3484-1.3819-1.2047-1.3907-1.2047-3.8268 0-2.4449 1.2047-3.8268 1.2136-1.3819 3.3484-1.3819zm15.502 4.1722v5.9882h-1.6299v-5.935q0-1.4085-0.54921-2.1083t-1.6476-0.6998q-1.3199 0-2.0817 0.84153-0.76181 0.84153-0.76181 2.2943v5.6073h-1.6388v-9.9212h1.6388v1.5413q0.58464-0.89468 1.373-1.3376 0.79724-0.44291 1.8337-0.44291 1.7096 0 2.5866 1.063 0.87697 1.0541 0.87697 3.1092z" fill="#fff" aria-label=":StoppingCriterion"/>
 <g fill="none" stroke="#fff">
  <g stroke-width="1.4173">
   <path transform="scale(1.3333)" d="m267.88 47.34h165.54"/>
   <path transform="scale(1.3333)" d="m350.64 62.57v177.54" stroke-dasharray="11.3386, 11.3386"/>
   <path transform="scale(1.3333)" d="m350.64 268.46v229.23" stroke-dasharray="11.3386, 11.3386"/>
  </g>
  <path transform="scale(1.3333)" d="m340.72 240.11h19.844v28.348h-19.844z" stroke-width="2.8346"/>
  <path transform="scale(1.3333)" d="m660.47 13.051h188.36v51.023h-188.36z" stroke-width="2.8346"/>
 </g>
 <path transform="matrix(1.3333 0 0 1.3333 899.46 58.751)" d="m2.126-2.25h1.8691v2.25h-1.8691zm0-7.1309h1.8691v2.25h-1.8691zm7.5561-2.374v4.9695h2.25q1.249 0 1.9311-0.64665 0.68208-0.64665 0.68208-1.8425 0-1.187-0.68208-1.8337-0.68209-0.64665-1.9311-0.64665zm-1.7894-1.4705h4.0394q2.2234 0 3.3573 1.0098 1.1427 1.001 1.1427 2.9409 0 1.9577-1.1427 2.9587-1.1339 1.001-3.3573 1.001h-2.25v5.315h-1.7894zm14.06 4.4468q-1.311 0-2.0728 1.0276-0.76181 1.0187-0.76181 2.7992 0 1.7805 0.75295 2.8081 0.76181 1.0187 2.0817 1.0187 1.3022 0 2.064-1.0276 0.76181-1.0276 0.76181-2.7992 0-1.7628-0.76181-2.7903-0.76181-1.0364-2.064-1.0364zm0-1.3819q2.126 0 3.3396 1.3819 1.2136 1.3819 1.2136 3.8268 0 2.436-1.2136 3.8268-1.2136 1.3819-3.3396 1.3819-2.1348 0-3.3484-1.3819-1.2047-1.3907-1.2047-3.8268 0-2.4449 1.2047-3.8268 1.2136-1.3819 3.3484-1.3819zm13.58 0.53149v1.5413q-0.69094-0.35433-1.435-0.5315-0.74409-0.17717-1.5413-0.17717-1.2136 0-1.8248 0.37205-0.60236 0.37205-0.60236 1.1161 0 0.56693 0.43405 0.89468 0.43405 0.3189 1.7451 0.61122l0.55807 0.12402q1.7362 0.37205 2.4626 1.0541 0.73524 0.67323 0.73524 1.8868 0 1.3819-1.0984 2.188-1.0896 0.8061-3.0029 0.8061-0.79724 0-1.6654-0.15945-0.85925-0.15059-1.8159-0.46063v-1.6831q0.90354 0.46949 1.7805 0.70866 0.87697 0.23031 1.7362 0.23031 1.1516 0 1.7716-0.38976 0.62008-0.39862 0.62008-1.1161 0-0.66437-0.45177-1.0187-0.44291-0.35433-1.9577-0.68209l-0.56693-0.13287q-1.5148-0.3189-2.188-0.97441-0.67323-0.66437-0.67323-1.8159 0-1.3996 0.99212-2.1614 0.99212-0.76181 2.8169-0.76181 0.90354 0 1.7008 0.13287 0.79724 0.13287 1.4705 0.39862zm4.7392-3.1092v2.8169h3.3573v1.2667h-3.3573v5.3858q0 1.2136 0.32776 1.5591 0.33661 0.34547 1.3553 0.34547h1.6742v1.3642h-1.6742q-1.8868 0-2.6043-0.6998-0.71752-0.70866-0.71752-2.5689v-5.3858h-1.1959v-1.2667h1.1959v-2.8169zm10.94 0.72638q-1.9488 0-3.1004 1.4528-1.1427 1.4528-1.1427 3.9596 0 2.498 1.1427 3.9508 1.1516 1.4528 3.1004 1.4528 1.9488 0 3.0827-1.4528 1.1427-1.4528 1.1427-3.9508 0-2.5069-1.1427-3.9596-1.1339-1.4528-3.0827-1.4528zm0-1.4528q2.7815 0 4.4468 1.8691 1.6654 1.8602 1.6654 4.9961 0 3.127-1.6654 4.9961-1.6654 1.8602-4.4468 1.8602-2.7903 0-4.4646-1.8602-1.6654-1.8602-1.6654-4.9961t1.6654-4.9961q1.6742-1.8691 4.4646-1.8691zm10.417 11.976v5.2618h-1.6388v-13.695h1.6388v1.5059q0.51378-0.88583 1.2933-1.311 0.78838-0.43405 1.8779-0.43405 1.8071 0 2.9321 1.435 1.1339 1.435 1.1339 3.7736 0 2.3386-1.1339 3.7736-1.125 1.435-2.9321 1.435-1.0896 0-1.8779-0.4252-0.77953-0.43405-1.2933-1.3199zm5.5453-3.4636q0-1.7982-0.74409-2.8169-0.73524-1.0276-2.0285-1.0276t-2.0374 1.0276q-0.73524 1.0187-0.73524 2.8169 0 1.7982 0.73524 2.8258 0.74409 1.0187 2.0374 1.0187t2.0285-1.0187q0.74409-1.0276 0.74409-2.8258zm6.0059-7.7864v2.8169h3.3573v1.2667h-3.3573v5.3858q0 1.2136 0.32776 1.5591 0.33661 0.34547 1.3553 0.34547h1.6742v1.3642h-1.6742q-1.8868 0-2.6043-0.6998-0.71752-0.70866-0.71752-2.5689v-5.3858h-1.1959v-1.2667h1.1959v-2.8169zm5.501 2.8169h1.6299v9.9212h-1.6299zm0-3.8622h1.6299v2.064h-1.6299zm12.765 5.7667q0.61122-1.0984 1.4616-1.6211 0.85039-0.52264 2.002-0.52264 1.5502 0 2.3917 1.0896 0.84153 1.0807 0.84153 3.0827v5.9882h-1.6388v-5.935q0-1.4262-0.50492-2.1171-0.50492-0.69094-1.5413-0.69094-1.2667 0-2.002 0.84153-0.73524 0.84153-0.73524 2.2943v5.6073h-1.6388v-5.935q0-1.435-0.50492-2.1171-0.50492-0.69094-1.5591-0.69094-1.249 0-1.9842 0.85039-0.73524 0.84153-0.73524 2.2854v5.6073h-1.6388v-9.9212h1.6388v1.5413q0.55807-0.9124 1.3376-1.3465 0.77953-0.43405 1.8514-0.43405 1.0807 0 1.8337 0.54921 0.76181 0.54921 1.125 1.5945zm9.9478-1.9045h1.6299v9.9212h-1.6299zm0-3.8622h1.6299v2.064h-1.6299zm4.3317 3.8622h7.7421v1.4882l-6.1299 7.1309h6.1299v1.3022h-7.9636v-1.4882l6.1299-7.1309h-5.9085zm14.74 4.934q-1.9754 0-2.7372 0.45177-0.7618 0.45177-0.7618 1.5413 0 0.86811 0.56692 1.3819 0.57579 0.50492 1.5591 0.50492 1.3553 0 2.1703-0.95669 0.82381-0.96555 0.82381-2.56v-0.36319zm3.251-0.67323v5.6604h-1.6299v-1.5059q-0.55807 0.90354-1.3907 1.3376-0.83268 0.4252-2.0374 0.4252-1.5236 0-2.4272-0.85039-0.89468-0.85925-0.89468-2.2943 0-1.6742 1.1161-2.5246 1.125-0.85039 3.3484-0.85039h2.2854v-0.15945q0-1.125-0.74409-1.7362-0.73523-0.62008-2.0728-0.62008-0.85039 0-1.6565 0.20374t-1.5502 0.61122v-1.5059q0.89469-0.34547 1.7362-0.51378 0.84153-0.17716 1.6388-0.17716 2.1526 0 3.2155 1.1161 1.063 1.1161 1.063 3.3839zm4.9695-7.0777v2.8169h3.3573v1.2667h-3.3573v5.3858q0 1.2136 0.32776 1.5591 0.33661 0.34547 1.3553 0.34547h1.6742v1.3642h-1.6742q-1.8868 0-2.6043-0.6998-0.71752-0.70866-0.71752-2.5689v-5.3858h-1.1959v-1.2667h1.1959v-2.8169zm5.501 2.8169h1.6299v9.9212h-1.6299zm0-3.8622h1.6299v2.064h-1.6299zm8.8848 5.0049q-1.311 0-2.0728 1.0276-0.76181 1.0187-0.76181 2.7992 0 1.7805 0.75295 2.8081 0.76181 1.0187 2.0817 1.0187 1.3022 0 2.064-1.0276t0.76181-2.7992q0-1.7628-0.76181-2.7903-0.76181-1.0364-2.064-1.0364zm0-1.3819q2.126 0 3.3396 1.3819 1.2136 1.3819 1.2136 3.8268 0 2.436-1.2136 3.8268-1.2136 1.3819-3.3396 1.3819-2.1348 0-3.3484-1.3819-1.2047-1.3907-1.2047-3.8268 0-2.4449 1.2047-3.8268 1.2136-1.3819 3.3484-1.3819zm15.502 4.1722v5.9882h-1.6299v-5.935q0-1.4085-0.54921-2.1083-0.54922-0.6998-1.6476-0.6998-1.3199 0-2.0817 0.84153-0.76181 0.84153-0.76181 2.2943v5.6073h-1.6388v-9.9212h1.6388v1.5413q0.58465-0.89468 1.373-1.3376 0.79724-0.44291 1.8337-0.44291 1.7096 0 2.5866 1.063 0.87697 1.0541 0.87697 3.1092z" fill="#fff" aria-label=":PostOptimization"/>
 <g fill="none" stroke="#fff">
  <g stroke-width="1.4173">
   <path transform="scale(1.3333)" d="m674.64 48.344h160.02"/>
   <path transform="scale(1.3333)" d="m554.07 162.32v148.84" stroke-dasharray="11.3386, 11.3386"/>
   <path transform="scale(1.3333)" d="m554.07 339.5v158.69" stroke-dasharray="11.3386, 11.3386"/>
  </g>
  <path transform="scale(1.3333)" d="m544.15 311.16h19.84v28.348h-19.84z" stroke-width="2.8346"/>
  <path transform="scale(1.3333)" d="m316.63 240.12-177.16 0.113" stroke-width="2.8346"/>
 </g>
 <path transform="scale(1.3333)" d="m316.63 247.21 22.676-7.102-22.684-7.074z" fill="#fff" stroke="#fff" stroke-width="2.8346"/>
 <path transform="matrix(1.3333 0 0 1.3333 264.26 346.21)" d="m3.3218-12.738v2.8169h3.3572v1.2667h-3.3572v5.3857q0 1.2136 0.32775 1.559 0.33661 0.34547 1.3553 0.34547h1.6742v1.3641h-1.6742q-1.8868 0-2.6043-0.69979-0.71751-0.70865-0.71751-2.5689v-5.3857h-1.1958v-1.2667h1.1958v-2.8169zm13.987 7.3699v0.79723h-7.494q0.1063 1.683 1.0098 2.5689 0.91238 0.87695 2.5334 0.87695 0.93896 0 1.8159-0.23031 0.88581-0.23031 1.7539-0.69093v1.5413q-0.87695 0.37204-1.7982 0.56692-0.92124 0.19488-1.8691 0.19488-2.374 0-3.7647-1.3819-1.3819-1.3819-1.3819-3.7381 0-2.436 1.311-3.8621 1.3199-1.435 3.5521-1.435 2.0019 0 3.1623 1.2933 1.1693 1.2844 1.1693 3.499zm-1.6299-0.47834q-0.01772-1.3376-0.75294-2.1348-0.72636-0.79723-1.9311-0.79723-1.3641 0-2.188 0.77066-0.81495 0.77066-0.93896 2.1702zm10.63-3.7824v1.5413q-0.69093-0.35432-1.435-0.53149-0.74408-0.17716-1.5413-0.17716-1.2136 0-1.8248 0.37204-0.60235 0.37204-0.60235 1.1161 0 0.56692 0.43405 0.89467 0.43405 0.31889 1.745 0.61121l0.55806 0.12401q1.7362 0.37204 2.4626 1.0541 0.73522 0.67322 0.73522 1.8868 0 1.3819-1.0984 2.188-1.0895 0.80609-3.0029 0.80609-0.79723 0-1.6653-0.15945-0.85924-0.15059-1.8159-0.46062v-1.683q0.90353 0.46948 1.7805 0.70865 0.87695 0.23031 1.7362 0.23031 1.1516 0 1.7716-0.38976 0.62007-0.39861 0.62007-1.1161 0-0.66436-0.45176-1.0187-0.4429-0.35432-1.9576-0.68207l-0.56692-0.13287q-1.5147-0.31889-2.188-0.97439-0.67322-0.66436-0.67322-1.8159 0-1.3996 0.99211-2.1614 0.99211-0.7618 2.8169-0.7618 0.90353 0 1.7008 0.13287 0.79723 0.13287 1.4704 0.39861zm4.7391-3.1092v2.8169h3.3572v1.2667h-3.3572v5.3857q0 1.2136 0.32775 1.559 0.33661 0.34547 1.3553 0.34547h1.6742v1.3641h-1.6742q-1.8868 0-2.6043-0.69979-0.71751-0.70865-0.71751-2.5689v-5.3857h-1.1958v-1.2667h1.1958v-2.8169zm9.4162-1.0275q-1.187 2.0374-1.7628 4.0304-0.57578 1.9931-0.57578 4.0393t0.57578 4.057q0.58464 2.0019 1.7628 4.0304h-1.4173q-1.3287-2.0817-1.9931-4.0924-0.6555-2.0108-0.6555-3.995 0-1.9754 0.6555-3.9773 0.6555-2.0019 1.9931-4.0924zm9.5047 7.5648q0.57578 0.19488 1.1161 0.83266 0.5492 0.63778 1.0984 1.7539l1.8159 3.6141h-1.9222l-1.6919-3.3927q-0.6555-1.3287-1.2756-1.7628-0.61121-0.43405-1.6742-0.43405h-1.9488v5.5895h-1.7893v-13.225h4.0393q2.2677 0 3.3838 0.94782t1.1161 2.8612q0 1.249-0.58464 2.0728-0.57578 0.8238-1.683 1.1427zm-4.4822-5.554v4.6948h2.25q1.2933 0 1.9488-0.59349 0.66436-0.60235 0.66436-1.7628 0-1.1604-0.66436-1.745-0.6555-0.59349-1.9488-0.59349zm11.161 9.5047h1.8691v1.5236l-1.4527 2.8346h-1.1427l0.72636-2.8346zm19.116-10.541v1.745q-1.0187-0.4872-1.9222-0.72636t-1.745-0.23917q-1.4616 0-2.2588 0.56692-0.78837 0.56692-0.78837 1.6122 0 0.87695 0.52263 1.3287 0.53149 0.44291 2.0019 0.71751l1.0807 0.22145q2.0019 0.3809 2.9497 1.3464 0.95668 0.95668 0.95668 2.5689 0 1.9222-1.2933 2.9143-1.2844 0.99211-3.7736 0.99211-0.93896 0-2.0019-0.21259-1.0541-0.21259-2.188-0.62893v-1.8425q1.0895 0.61121 2.1348 0.92124 1.0453 0.31003 2.0551 0.31003 1.5325 0 2.3651-0.60235 0.83266-0.60235 0.83266-1.7185 0-0.97439-0.60235-1.5236-0.59349-0.5492-1.9576-0.8238l-1.0895-0.21259q-2.0019-0.39861-2.8966-1.249-0.89467-0.85038-0.89467-2.3651 0-1.7539 1.2313-2.7637 1.2401-1.0098 3.4104-1.0098 0.9301 0 1.8956 0.1683 0.96553 0.1683 1.9754 0.50491zm3.2598-0.97439h1.4173q1.3287 2.0905 1.9842 4.0924 0.66436 2.0019 0.66436 3.9773 0 1.9842-0.66436 3.995-0.6555 2.0108-1.9842 4.0924h-1.4173q1.1781-2.0285 1.7539-4.0304 0.58464-2.0108 0.58464-4.057t-0.58464-4.0393q-0.57578-1.9931-1.7539-4.0304z" fill="#fff" aria-label="test(R, S)"/>
 <g stroke="#fff" stroke-width="2.8346">
  <path transform="scale(1.3333)" d="m163.56 268.57 177.16-0.109" fill="none" stroke-dasharray="11.3386, 11.3386"/>
  <g>
   <path transform="scale(1.3333)" d="m163.56 261.48-22.672 7.102 22.68 7.07z" fill="#fff"/>
   <path transform="scale(1.3333)" d="m520.05 311.15-379.56-0.05" fill="none"/>
   <path transform="scale(1.3333)" d="m520.05 318.24 22.679-7.082-22.675-7.09z" fill="#fff"/>
  </g>
 </g>
 <path transform="matrix(1.3333 0 0 1.3333 382.06 437.48)" d="m1.7096-9.9211h1.6299v9.9211h-1.6299zm0-3.8621h1.6299v2.0639h-1.6299zm13.287 7.7951v5.9881h-1.6299v-5.9349q0-1.4084-0.5492-2.1082-0.5492-0.69979-1.6476-0.69979-1.3199 0-2.0817 0.84152-0.7618 0.84152-0.7618 2.2942v5.6072h-1.6387v-9.9211h1.6387v1.5413q0.58463-0.89467 1.373-1.3376 0.79723-0.44291 1.8336-0.44291 1.7096 0 2.5866 1.063 0.87695 1.0541 0.87695 3.1092zm9.7793-2.4271v-5.368h1.6299v13.783h-1.6299v-1.4882q-0.51377 0.88581-1.3021 1.3199-0.77951 0.42519-1.8779 0.42519-1.7982 0-2.932-1.435-1.125-1.435-1.125-3.7736t1.125-3.7736q1.1338-1.435 2.932-1.435 1.0984 0 1.8779 0.43405 0.78837 0.42519 1.3021 1.311zm-5.554 3.4635q0 1.7982 0.73522 2.8257 0.74408 1.0187 2.0374 1.0187t2.0374-1.0187q0.74408-1.0275 0.74408-2.8257 0-1.7982-0.74408-2.8169-0.74408-1.0275-2.0374-1.0275t-2.0374 1.0275q-0.73522 1.0187-0.73522 2.8169zm10.373 1.0364v-6.0058h1.6299v5.9438q0 1.4084 0.5492 2.1171 0.5492 0.69979 1.6476 0.69979 1.3199 0 2.0817-0.84152 0.77066-0.84152 0.77066-2.2942v-5.6249h1.6299v9.9211h-1.6299v-1.5236q-0.59349 0.90353-1.3819 1.3464-0.77951 0.43405-1.8159 0.43405-1.7096 0-2.5954-1.063-0.88581-1.063-0.88581-3.1092zm4.1013-6.245m14.704 0.62007v1.5236q-0.69093-0.3809-1.3907-0.56692-0.69093-0.19488-1.3996-0.19488-1.5856 0-2.4626 1.0098-0.87695 1.001-0.87695 2.8169 0 1.8159 0.87695 2.8257 0.87695 1.001 2.4626 1.001 0.70865 0 1.3996-0.18602 0.69979-0.19488 1.3907-0.57578v1.5059q-0.68207 0.31889-1.4173 0.47834-0.72636 0.15945-1.5502 0.15945-2.2411 0-3.561-1.4084-1.3199-1.4084-1.3199-3.8001 0-2.4271 1.3287-3.8178 1.3376-1.3907 3.6584-1.3907 0.75294 0 1.4704 0.15945 0.71751 0.15059 1.3907 0.46062zm11.321 4.1722v0.79723h-7.494q0.1063 1.683 1.0098 2.5689 0.91238 0.87695 2.5334 0.87695 0.93896 0 1.8159-0.23031 0.88581-0.23031 1.7539-0.69093v1.5413q-0.87695 0.37204-1.7982 0.56692-0.92124 0.19488-1.8691 0.19488-2.374 0-3.7647-1.3819-1.3819-1.3819-1.3819-3.7381 0-2.436 1.311-3.8621 1.3199-1.435 3.5521-1.435 2.0019 0 3.1623 1.2933 1.1693 1.2844 1.1693 3.499zm-1.6299-0.47834q-0.01772-1.3376-0.75294-2.1348-0.72636-0.79723-1.9311-0.79723-1.3641 0-2.188 0.77066-0.81495 0.77066-0.93896 2.1702zm10.647-0.35432q0.57578 0.19488 1.1161 0.83266 0.5492 0.63778 1.0984 1.7539l1.8159 3.6141h-1.9222l-1.6919-3.3927q-0.6555-1.3287-1.2756-1.7628-0.61121-0.43405-1.6742-0.43405h-1.9488v5.5895h-1.7893v-13.225h4.0393q2.2677 0 3.3838 0.94782 1.1161 0.94782 1.1161 2.8612 0 1.249-0.58464 2.0728-0.57578 0.8238-1.683 1.1427zm-4.4822-5.554v4.6948h2.25q1.2933 0 1.9488-0.59349 0.66436-0.60235 0.66436-1.7628 0-1.1604-0.66436-1.745-0.6555-0.59349-1.9488-0.59349zm9.7602 7.8394v-6.0058h1.6299v5.9438q0 1.4084 0.5492 2.1171 0.5492 0.69979 1.6476 0.69979 1.3199 0 2.0817-0.84152 0.77066-0.84152 0.77066-2.2942v-5.6249h1.6299v9.9211h-1.6299v-1.5236q-0.59349 0.90353-1.3819 1.3464-0.77951 0.43405-1.8159 0.43405-1.7096 0-2.5954-1.063-0.88581-1.063-0.88581-3.1092zm4.1013-6.245m7.5648-3.623h1.6299v13.783h-1.6299zm13.526 8.4152v0.79723h-7.494q0.1063 1.683 1.0098 2.5689 0.91238 0.87695 2.5334 0.87695 0.93896 0 1.8159-0.23031 0.88581-0.23031 1.7539-0.69093v1.5413q-0.87695 0.37204-1.7982 0.56692-0.92124 0.19488-1.8691 0.19488-2.374 0-3.7647-1.3819-1.3819-1.3819-1.3819-3.7381 0-2.436 1.311-3.8621 1.3199-1.435 3.5521-1.435 2.0019 0 3.1623 1.2933 1.1693 1.2844 1.1693 3.499zm-1.6299-0.47834q-0.01772-1.3376-0.75294-2.1348-0.72636-0.79723-1.9311-0.79723-1.3641 0-2.188 0.77066-0.81494 0.77066-0.93896 2.1702zm8.2203-7.9191q-1.187 2.0374-1.7628 4.0304-0.57578 1.9931-0.57578 4.0393t0.57578 4.057q0.58464 2.0019 1.7628 4.0304h-1.4173q-1.3287-2.0817-1.9931-4.0924-0.6555-2.0108-0.6555-3.995 0-1.9754 0.6555-3.9773 0.6555-2.0019 1.9931-4.0924zm2.5954 0.54034h1.9222l3.2864 4.9162 3.3041-4.9162h1.9222l-4.2519 6.3513 4.5354 6.8739h-1.9222l-3.7204-5.6249-3.747 5.6249h-1.9311l4.7214-7.0599zm13.411 10.975h1.8691v1.5236l-1.4527 2.8346h-1.1427l0.72637-2.8346zm9.3719-10.975h1.9222l3.6672 5.4389 3.6407-5.4389h1.9222l-4.6771 6.927v6.2981h-1.7982v-6.2981zm13.243 10.975h1.8691v1.5236l-1.4527 2.8346h-1.1427l0.72637-2.8346zm19.116-10.541v1.745q-1.0187-0.4872-1.9222-0.72636-0.90352-0.23917-1.745-0.23917-1.4616 0-2.2588 0.56692-0.78837 0.56692-0.78837 1.6122 0 0.87695 0.52263 1.3287 0.53148 0.44291 2.0019 0.71751l1.0807 0.22145q2.0019 0.3809 2.9498 1.3464 0.95667 0.95668 0.95667 2.5689 0 1.9222-1.2933 2.9143-1.2844 0.99211-3.7736 0.99211-0.93896 0-2.0019-0.21259-1.0541-0.21259-2.188-0.62893v-1.8425q1.0896 0.61121 2.1348 0.92124 1.0452 0.31003 2.0551 0.31003 1.5324 0 2.3651-0.60235 0.83266-0.60235 0.83266-1.7185 0-0.97439-0.60235-1.5236-0.59349-0.5492-1.9576-0.8238l-1.0896-0.21259q-2.0019-0.39861-2.8966-1.249t-0.89467-2.3651q0-1.7539 1.2313-2.7637 1.2401-1.0098 3.4104-1.0098 0.9301 0 1.8956 0.1683 0.96553 0.1683 1.9754 0.50491zm3.2598-0.97439h1.4173q1.3287 2.0905 1.9842 4.0924 0.66436 2.0019 0.66436 3.9773 0 1.9842-0.66436 3.995-0.6555 2.0108-1.9842 4.0924h-1.4173q1.1781-2.0285 1.7539-4.0304 0.58464-2.0108 0.58464-4.057t-0.58464-4.0393q-0.57577-1.9931-1.7539-4.0304z" fill="#fff" aria-label="induceRule(X, Y, S)"/>
 <path transform="scale(1.3333)" d="m164.59 339.38 368.32-0.996" fill="none" stroke="#fff" stroke-dasharray="11.3386, 11.3386" stroke-width="2.8346"/>
 <path transform="scale(1.3333)" d="m164.57 332.3-22.656 7.148 22.695 7.024z" fill="#fff" stroke="#fff" stroke-width="2.8346"/>
 <path transform="matrix(1.3333 0 0 1.3333 302.32 483.55)" d="m8.052-6.2007q0.57578 0.19488 1.1161 0.83266 0.5492 0.63778 1.0984 1.7539l1.8159 3.6141h-1.9222l-1.6919-3.3927q-0.6555-1.3287-1.2756-1.7628-0.61121-0.43405-1.6742-0.43405h-1.9488v5.5895h-1.7893v-13.225h4.0393q2.2677 0 3.3838 0.94782 1.1161 0.94782 1.1161 2.8612 0 1.249-0.58464 2.0728-0.57578 0.8238-1.683 1.1427zm-4.4822-5.554v4.6948h2.25q1.2933 0 1.9488-0.59349 0.66436-0.60235 0.66436-1.7628 0-1.1604-0.66436-1.745-0.6555-0.59349-1.9488-0.59349zm9.7602 7.8394v-6.0058h1.6299v5.9438q0 1.4084 0.5492 2.1171 0.5492 0.69979 1.6476 0.69979 1.3199 0 2.0817-0.84152 0.77066-0.84152 0.77066-2.2942v-5.6249h1.6299v9.9211h-1.6299v-1.5236q-0.59349 0.90353-1.3819 1.3464-0.77951 0.43405-1.8159 0.43405-1.7096 0-2.5954-1.063-0.88581-1.063-0.88581-3.1092zm4.1013-6.245m7.5648-3.623h1.6299v13.783h-1.6299zm13.526 8.4152v0.79723h-7.494q0.1063 1.683 1.0098 2.5689 0.91238 0.87695 2.5334 0.87695 0.93896 0 1.8159-0.23031 0.88581-0.23031 1.7539-0.69093v1.5413q-0.87695 0.37204-1.7982 0.56692-0.92124 0.19488-1.8691 0.19488-2.374 0-3.7647-1.3819-1.3819-1.3819-1.3819-3.7381 0-2.436 1.311-3.8621 1.3199-1.435 3.5521-1.435 2.0019 0 3.1623 1.2933 1.1693 1.2844 1.1693 3.499zm-1.6299-0.47834q-0.01772-1.3376-0.75294-2.1348-0.72636-0.79723-1.9311-0.79723-1.3641 0-2.188 0.77066-0.81495 0.77066-0.93896 2.1702zm15.821-2.5511q-0.2746-0.15945-0.60235-0.23031-0.31889-0.079723-0.70865-0.079723-1.3819 0-2.1259 0.90353-0.73522 0.89467-0.73522 2.5777v5.2263h-1.6388v-9.9211h1.6388v1.5413q0.51377-0.90353 1.3376-1.3376 0.8238-0.44291 2.0019-0.44291 0.1683 0 0.37204 0.02657 0.20374 0.01772 0.45176 0.06201z" fill="#fff" aria-label="Rule r"/>
 <path transform="scale(1.3333)" d="m28.348 467.01h91.273" fill="none" stroke="#fff" stroke-dasharray="11.3386, 11.3386" stroke-width="2.8346"/>
 <path transform="scale(1.3333)" d="m28.348 459.92-22.68 7.086 22.68 7.086z" fill="#fff" stroke="#fff" stroke-width="2.8346"/>
 <path transform="matrix(1.3333 0 0 1.3333 50.913 656.93)" d="m1.7805-13.225h2.6663l3.3749 8.9998 3.3927-8.9998h2.6663v13.225h-1.745v-11.613l-3.4104 9.0707h-1.7982l-3.4104-9.0707v11.613h-1.7362zm19.426 4.4468q-1.311 0-2.0728 1.0275-0.7618 1.0187-0.7618 2.7992t0.75294 2.808q0.7618 1.0187 2.0817 1.0187 1.3021 0 2.0639-1.0275t0.7618-2.7992q0-1.7628-0.7618-2.7903-0.7618-1.0364-2.0639-1.0364zm0-1.3819q2.1259 0 3.3395 1.3819 1.2136 1.3819 1.2136 3.8267 0 2.436-1.2136 3.8267-1.2136 1.3819-3.3395 1.3819-2.1348 0-3.3484-1.3819-1.2047-1.3907-1.2047-3.8267 0-2.4448 1.2047-3.8267 1.2136-1.3819 3.3484-1.3819zm13.783 1.745v-5.368h1.6299v13.783h-1.6299v-1.4882q-0.51377 0.88581-1.3021 1.3199-0.77951 0.42519-1.8779 0.42519-1.7982 0-2.932-1.435-1.125-1.435-1.125-3.7736t1.125-3.7736q1.1338-1.435 2.932-1.435 1.0984 0 1.8779 0.43405 0.78837 0.42519 1.3021 1.311zm-5.554 3.4635q0 1.7982 0.73522 2.8257 0.74408 1.0187 2.0374 1.0187t2.0374-1.0187q0.74408-1.0275 0.74408-2.8257 0-1.7982-0.74408-2.8169-0.74408-1.0275-2.0374-1.0275t-2.0374 1.0275q-0.73522 1.0187-0.73522 2.8169zm19.027-0.41633v0.79723h-7.494q0.1063 1.683 1.0098 2.5689 0.91238 0.87695 2.5334 0.87695 0.93896 0 1.8159-0.23031 0.88581-0.23031 1.7539-0.69093v1.5413q-0.87695 0.37204-1.7982 0.56692-0.92124 0.19488-1.8691 0.19488-2.374 0-3.7647-1.3819-1.3819-1.3819-1.3819-3.7381 0-2.436 1.311-3.8621 1.3199-1.435 3.5521-1.435 2.0019 0 3.1623 1.2933 1.1693 1.2844 1.1693 3.499zm-1.6299-0.47834q-0.01772-1.3376-0.75294-2.1348-0.72636-0.79723-1.9311-0.79723-1.3641 0-2.188 0.77066-0.81494 0.77066-0.93896 2.1702zm4.305-7.9369h1.6299v13.783h-1.6299zm17.149 7.5825q0.57578 0.19488 1.1161 0.83266 0.5492 0.63778 1.0984 1.7539l1.8159 3.6141h-1.9222l-1.6919-3.3927q-0.6555-1.3287-1.2756-1.7628-0.61121-0.43405-1.6742-0.43405h-1.9488v5.5895h-1.7893v-13.225h4.0393q2.2677 0 3.3838 0.94782 1.1161 0.94782 1.1161 2.8612 0 1.249-0.58464 2.0728-0.57578 0.8238-1.683 1.1427zm-4.4822-5.554v4.6948h2.25q1.2933 0 1.9488-0.59349 0.66436-0.60235 0.66436-1.7628 0-1.1604-0.66436-1.745-0.6555-0.59349-1.9488-0.59349z" fill="#fff" aria-label="Model R"/>
 <path transform="scale(1.3333)" d="m474.8 13.82h158.53v51.023h-158.53z" fill="none" stroke="#fff" stroke-width="2.8346"/>
 <path transform="matrix(1.3333 0 0 1.3333 651.96 59.775)" d="m2.126-2.25h1.8691v2.25h-1.8691zm0-7.1309h1.8691v2.25h-1.8691zm12.038 3.1801q0.57579 0.19488 1.1161 0.83268 0.54921 0.63779 1.0984 1.7539l1.8159 3.6142h-1.9222l-1.6919-3.3927q-0.65551-1.3287-1.2756-1.7628-0.61122-0.43405-1.6742-0.43405h-1.9488v5.5896h-1.7894v-13.225h4.0394q2.2677 0 3.3839 0.94783t1.1161 2.8612q0 1.249-0.58464 2.0728-0.57579 0.82382-1.6831 1.1427zm-4.4823-5.5541v4.6949h2.25q1.2933 0 1.9488-0.5935 0.66437-0.60236 0.66437-1.7628 0-1.1604-0.66437-1.7451-0.65551-0.5935-1.9488-0.5935zm9.7604 7.8396v-6.0059h1.6299v5.9439q0 1.4085 0.54921 2.1171 0.54921 0.6998 1.6476 0.6998 1.3199 0 2.0817-0.84153 0.77067-0.84153 0.77067-2.2943v-5.625h1.6299v9.9212h-1.6299v-1.5236q-0.5935 0.90354-1.3819 1.3465-0.77953 0.43405-1.8159 0.43405-1.7096 0-2.5955-1.063-0.88582-1.063-0.88582-3.1092zm4.1014-6.2451m7.5649-3.623h1.6299v13.783h-1.6299zm13.527 8.4153v0.79724h-7.4941q0.1063 1.6831 1.0098 2.5689 0.9124 0.87697 2.5335 0.87697 0.93898 0 1.8159-0.23031 0.88582-0.23031 1.7539-0.69094v1.5413q-0.87697 0.37205-1.7982 0.56693-0.92126 0.19488-1.8691 0.19488-2.374 0-3.7648-1.3819-1.3819-1.3819-1.3819-3.7382 0-2.436 1.311-3.8622 1.3199-1.435 3.5522-1.435 2.002 0 3.1624 1.2933 1.1693 1.2844 1.1693 3.499zm-1.6299-0.47835q-0.01772-1.3376-0.75295-2.1348-0.72638-0.79724-1.9311-0.79724-1.3642 0-2.188 0.77067-0.81496 0.77067-0.93898 2.1703zm4.376-7.3789h1.7894v13.225h-1.7894zm13.527 7.2372v5.9882h-1.6299v-5.935q0-1.4085-0.54921-2.1083-0.54921-0.6998-1.6476-0.6998-1.3199 0-2.0817 0.84153-0.76181 0.84153-0.76181 2.2943v5.6073h-1.6388v-9.9212h1.6388v1.5413q0.58464-0.89468 1.373-1.3376 0.79724-0.44291 1.8337-0.44291 1.7096 0 2.5866 1.063 0.87697 1.0541 0.87697 3.1092zm9.7795-2.4272v-5.3681h1.6299v13.783h-1.6299v-1.4882q-0.51378 0.88583-1.3022 1.3199-0.77953 0.4252-1.8779 0.4252-1.7982 0-2.9321-1.435-1.125-1.435-1.125-3.7736 0-2.3386 1.125-3.7736 1.1339-1.435 2.9321-1.435 1.0984 0 1.8779 0.43405 0.78838 0.4252 1.3022 1.311zm-5.5541 3.4636q0 1.7982 0.73524 2.8258 0.74409 1.0187 2.0374 1.0187t2.0374-1.0187q0.74409-1.0276 0.74409-2.8258 0-1.7982-0.74409-2.8169-0.74409-1.0276-2.0374-1.0276t-2.0374 1.0276q-0.73524 1.0187-0.73524 2.8169zm10.373 1.0364v-6.0059h1.6299v5.9439q0 1.4085 0.54921 2.1171 0.54921 0.6998 1.6476 0.6998 1.3199 0 2.0817-0.84153 0.77067-0.84153 0.77067-2.2943v-5.625h1.6299v9.9212h-1.6299v-1.5236q-0.5935 0.90354-1.3819 1.3465-0.77953 0.43405-1.8159 0.43405-1.7096 0-2.5955-1.063-0.88582-1.063-0.88582-3.1092zm4.1014-6.2451m14.705 0.62008v1.5236q-0.69094-0.3809-1.3907-0.56693-0.69094-0.19488-1.3996-0.19488-1.5856 0-2.4626 1.0098-0.87697 1.001-0.87697 2.8169 0 1.8159 0.87697 2.8258 0.87697 1.001 2.4626 1.001 0.70866 0 1.3996-0.18602 0.6998-0.19488 1.3907-0.57579v1.5059q-0.68209 0.3189-1.4173 0.47835-0.72638 0.15945-1.5502 0.15945-2.2411 0-3.561-1.4085-1.3199-1.4085-1.3199-3.8002 0-2.4272 1.3287-3.8179 1.3376-1.3907 3.6585-1.3907 0.75295 0 1.4705 0.15945 0.71752 0.15059 1.3907 0.46063zm4.4468-3.1978v2.8169h3.3573v1.2667h-3.3573v5.3858q0 1.2136 0.32776 1.5591 0.33661 0.34547 1.3553 0.34547h1.6742v1.3642h-1.6742q-1.8868 0-2.6043-0.6998-0.71752-0.70866-0.71752-2.5689v-5.3858h-1.1959v-1.2667h1.1959v-2.8169zm5.501 2.8169h1.6299v9.9212h-1.6299zm0-3.8622h1.6299v2.064h-1.6299zm8.8848 5.0049q-1.311 0-2.0728 1.0276-0.76181 1.0187-0.76181 2.7992 0 1.7805 0.75295 2.8081 0.76181 1.0187 2.0817 1.0187 1.3022 0 2.064-1.0276t0.76181-2.7992q0-1.7628-0.76181-2.7903-0.76181-1.0364-2.064-1.0364zm0-1.3819q2.126 0 3.3396 1.3819 1.2136 1.3819 1.2136 3.8268 0 2.436-1.2136 3.8268-1.2136 1.3819-3.3396 1.3819-2.1348 0-3.3484-1.3819-1.2047-1.3907-1.2047-3.8268 0-2.4449 1.2047-3.8268 1.2136-1.3819 3.3484-1.3819zm15.502 4.1722v5.9882h-1.6299v-5.935q0-1.4085-0.54921-2.1083t-1.6476-0.6998q-1.3199 0-2.0817 0.84153-0.76181 0.84153-0.76181 2.2943v5.6073h-1.6388v-9.9212h1.6388v1.5413q0.58464-0.89468 1.373-1.3376 0.79724-0.44291 1.8337-0.44291 1.7096 0 2.5866 1.063 0.87696 1.0541 0.87696 3.1092z" fill="#fff" aria-label=":RuleInduction"/>
 <g fill="none">
  <g stroke-width="1.4173">
   <path transform="scale(1.3333)" d="m488.98 49.109h130.18" stroke="#fff"/>
   <path transform="scale(1.3333)" d="m554.07 65.344v69.125" stroke="#fff" stroke-dasharray="11.3386, 11.3386"/>
   <path transform="scale(1.3333)" d="m554.07 162.82v3.157" stroke="#000" stroke-dasharray="11.3386, 11.3386"/>
  </g>
  <path transform="scale(1.3333)" d="m544.15 134.47h19.84v28.348h-19.84z" stroke="#fff" stroke-width="2.8346"/>
  <path transform="scale(1.3333)" d="m520.05 134.46-379.74-0.168" stroke="#fff" stroke-width="2.8346"/>
 </g>
 <path transform="scale(1.3333)" d="m520.05 141.55 22.679-7.078-22.675-7.094z" fill="#fff" stroke="#fff" stroke-width="2.8346"/>
 <path transform="matrix(1.3333 0 0 1.3333 332.8 204.12)" d="m1.7096-9.9211h1.6299v9.9211h-1.6299zm0-3.8621h1.6299v2.0639h-1.6299zm13.287 7.7951v5.9881h-1.6299v-5.9349q0-1.4084-0.5492-2.1082-0.5492-0.69979-1.6476-0.69979-1.3199 0-2.0817 0.84152-0.7618 0.84152-0.7618 2.2942v5.6072h-1.6387v-9.9211h1.6387v1.5413q0.58463-0.89467 1.373-1.3376 0.79723-0.44291 1.8336-0.44291 1.7096 0 2.5866 1.063 0.87695 1.0541 0.87695 3.1092zm9.7793-2.4271v-5.368h1.6299v13.783h-1.6299v-1.4882q-0.51377 0.88581-1.3021 1.3199-0.77951 0.42519-1.8779 0.42519-1.7982 0-2.932-1.435-1.125-1.435-1.125-3.7736t1.125-3.7736q1.1338-1.435 2.932-1.435 1.0984 0 1.8779 0.43405 0.78837 0.42519 1.3021 1.311zm-5.554 3.4635q0 1.7982 0.73522 2.8257 0.74408 1.0187 2.0374 1.0187t2.0374-1.0187q0.74408-1.0275 0.74408-2.8257 0-1.7982-0.74408-2.8169-0.74408-1.0275-2.0374-1.0275t-2.0374 1.0275q-0.73522 1.0187-0.73522 2.8169zm10.373 1.0364v-6.0058h1.6299v5.9438q0 1.4084 0.5492 2.1171 0.5492 0.69979 1.6476 0.69979 1.3199 0 2.0817-0.84152 0.77066-0.84152 0.77066-2.2942v-5.6249h1.6299v9.9211h-1.6299v-1.5236q-0.59349 0.90353-1.3819 1.3464-0.77951 0.43405-1.8159 0.43405-1.7096 0-2.5954-1.063-0.88581-1.063-0.88581-3.1092zm4.1013-6.245m14.704 0.62007v1.5236q-0.69093-0.3809-1.3907-0.56692-0.69093-0.19488-1.3996-0.19488-1.5856 0-2.4626 1.0098-0.87695 1.001-0.87695 2.8169 0 1.8159 0.87695 2.8257 0.87695 1.001 2.4626 1.001 0.70865 0 1.3996-0.18602 0.69979-0.19488 1.3907-0.57578v1.5059q-0.68207 0.31889-1.4173 0.47834-0.72636 0.15945-1.5502 0.15945-2.2411 0-3.561-1.4084-1.3199-1.4084-1.3199-3.8001 0-2.4271 1.3287-3.8178 1.3376-1.3907 3.6584-1.3907 0.75294 0 1.4704 0.15945 0.71751 0.15059 1.3907 0.46062zm11.321 4.1722v0.79723h-7.494q0.1063 1.683 1.0098 2.5689 0.91238 0.87695 2.5334 0.87695 0.93896 0 1.8159-0.23031 0.88581-0.23031 1.7539-0.69093v1.5413q-0.87695 0.37204-1.7982 0.56692-0.92124 0.19488-1.8691 0.19488-2.374 0-3.7647-1.3819-1.3819-1.3819-1.3819-3.7381 0-2.436 1.311-3.8621 1.3199-1.435 3.5521-1.435 2.0019 0 3.1623 1.2933 1.1693 1.2844 1.1693 3.499zm-1.6299-0.47834q-0.01772-1.3376-0.75294-2.1348-0.72636-0.79723-1.9311-0.79723-1.3641 0-2.188 0.77066-0.81495 0.77066-0.93896 2.1702zm6.1652-5.9084v10.284h2.1614q2.7372 0 4.0039-1.2401 1.2756-1.2401 1.2756-3.9153 0-2.6574-1.2756-3.8887-1.2667-1.2401-4.0039-1.2401zm-1.7893-1.4704h3.6761q3.8444 0 5.6426 1.6033 1.7982 1.5945 1.7982 4.996 0 3.4192-1.8071 5.0225-1.8071 1.6033-5.6338 1.6033h-3.6761zm22.384 7.8571v0.79723h-7.494q0.1063 1.683 1.0098 2.5689 0.91238 0.87695 2.5334 0.87695 0.93896 0 1.8159-0.23031 0.88581-0.23031 1.7539-0.69093v1.5413q-0.87695 0.37204-1.7982 0.56692-0.92124 0.19488-1.8691 0.19488-2.374 0-3.7647-1.3819-1.3819-1.3819-1.3819-3.7381 0-2.436 1.311-3.8621 1.3199-1.435 3.5521-1.435 2.0019 0 3.1623 1.2933 1.1693 1.2844 1.1693 3.499zm-1.6299-0.47834q-0.01772-1.3376-0.75294-2.1348-0.72636-0.79723-1.9311-0.79723-1.3641 0-2.188 0.77066-0.81495 0.77066-0.93896 2.1702zm9.3276-7.9369v1.3553h-1.559q-0.87695 0-1.2224 0.35432-0.33661 0.35432-0.33661 1.2756v0.87695h2.684v1.2667h-2.684v8.6544h-1.6388v-8.6544h-1.559v-1.2667h1.559v-0.69093q0-1.6565 0.77066-2.4094 0.77066-0.7618 2.4448-0.7618zm5.8729 8.7961q-1.9754 0-2.7372 0.45176-0.7618 0.45176-0.7618 1.5413 0 0.86809 0.56692 1.3819 0.57578 0.50491 1.559 0.50491 1.3553 0 2.1702-0.95668 0.8238-0.96553 0.8238-2.56v-0.36318zm3.2509-0.67322v5.6603h-1.6299v-1.5059q-0.55806 0.90353-1.3907 1.3376-0.83266 0.42519-2.0374 0.42519-1.5236 0-2.4271-0.85038-0.89467-0.85924-0.89467-2.2942 0-1.6742 1.1161-2.5246 1.125-0.85038 3.3484-0.85038h2.2854v-0.15945q0-1.125-0.74408-1.7362-0.73522-0.62007-2.0728-0.62007-0.85038 0-1.6565 0.20374-0.80609 0.20374-1.5502 0.61121v-1.5059q0.89467-0.34547 1.7362-0.51377 0.84152-0.17716 1.6387-0.17716 2.1525 0 3.2155 1.1161 1.063 1.1161 1.063 3.3838zm3.1889 1.745v-6.0058h1.6299v5.9438q0 1.4084 0.5492 2.1171 0.5492 0.69979 1.6476 0.69979 1.3199 0 2.0816-0.84152 0.77066-0.84152 0.77066-2.2942v-5.6249h1.6299v9.9211h-1.6299v-1.5236q-0.59349 0.90353-1.3819 1.3464-0.77952 0.43405-1.8159 0.43405-1.7096 0-2.5954-1.063-0.88581-1.063-0.88581-3.1092zm4.1013-6.245m7.5648-3.623h1.6299v13.783h-1.6299zm6.6524 1.0453v2.8169h3.3572v1.2667h-3.3572v5.3857q0 1.2136 0.32775 1.559 0.33661 0.34547 1.3553 0.34547h1.6742v1.3641h-1.6742q-1.8868 0-2.6043-0.69979-0.71751-0.70865-0.71751-2.5689v-5.3857h-1.1958v-1.2667h1.1958v-2.8169zm11.843 6.5373q0.57578 0.19488 1.1161 0.83266 0.54921 0.63778 1.0984 1.7539l1.8159 3.6141h-1.9222l-1.6919-3.3927q-0.6555-1.3287-1.2756-1.7628-0.61121-0.43405-1.6742-0.43405h-1.9488v5.5895h-1.7893v-13.225h4.0393q2.2677 0 3.3838 0.94782 1.1161 0.94782 1.1161 2.8612 0 1.249-0.58464 2.0728-0.57578 0.8238-1.683 1.1427zm-4.4822-5.554v4.6948h2.25q1.2933 0 1.9488-0.59349 0.66436-0.60235 0.66436-1.7628 0-1.1604-0.66436-1.745-0.6555-0.59349-1.9488-0.59349zm9.7602 7.8394v-6.0058h1.6299v5.9438q0 1.4084 0.54921 2.1171 0.5492 0.69979 1.6476 0.69979 1.3199 0 2.0817-0.84152 0.77065-0.84152 0.77065-2.2942v-5.6249h1.6299v9.9211h-1.6299v-1.5236q-0.59349 0.90353-1.3819 1.3464-0.77951 0.43405-1.8159 0.43405-1.7096 0-2.5954-1.063-0.88581-1.063-0.88581-3.1092zm4.1013-6.245m7.5648-3.623h1.6299v13.783h-1.6299zm13.526 8.4152v0.79723h-7.494q0.1063 1.683 1.0098 2.5689 0.91238 0.87695 2.5334 0.87695 0.93896 0 1.8159-0.23031 0.88582-0.23031 1.7539-0.69093v1.5413q-0.87695 0.37204-1.7982 0.56692-0.92124 0.19488-1.8691 0.19488-2.374 0-3.7647-1.3819-1.3819-1.3819-1.3819-3.7381 0-2.436 1.311-3.8621 1.3199-1.435 3.5521-1.435 2.0019 0 3.1624 1.2933 1.1693 1.2844 1.1693 3.499zm-1.6299-0.47834q-0.0177-1.3376-0.75294-2.1348-0.72637-0.79723-1.9311-0.79723-1.3642 0-2.188 0.77066-0.81495 0.77066-0.93896 2.1702zm8.2203-7.9191q-1.187 2.0374-1.7628 4.0304-0.57577 1.9931-0.57577 4.0393t0.57577 4.057q0.58464 2.0019 1.7628 4.0304h-1.4173q-1.3287-2.0817-1.9931-4.0924-0.6555-2.0108-0.6555-3.995 0-1.9754 0.6555-3.9773 0.6555-2.0019 1.9931-4.0924zm1.4173 0.54034h1.9222l3.6672 5.4389 3.6407-5.4389h1.9222l-4.6771 6.927v6.2981h-1.7982v-6.2981zm13.243 10.975h1.8691v1.5236l-1.4527 2.8346h-1.1427l0.72636-2.8346zm19.116-10.541v1.745q-1.0187-0.4872-1.9222-0.72636t-1.745-0.23917q-1.4616 0-2.2588 0.56692-0.78837 0.56692-0.78837 1.6122 0 0.87695 0.52262 1.3287 0.53149 0.44291 2.0019 0.71751l1.0807 0.22145q2.0019 0.3809 2.9498 1.3464 0.95668 0.95668 0.95668 2.5689 0 1.9222-1.2933 2.9143-1.2844 0.99211-3.7736 0.99211-0.93896 0-2.0019-0.21259-1.0541-0.21259-2.188-0.62893v-1.8425q1.0896 0.61121 2.1348 0.92124 1.0453 0.31003 2.0551 0.31003 1.5324 0 2.3651-0.60235 0.83266-0.60235 0.83266-1.7185 0-0.97439-0.60235-1.5236-0.5935-0.5492-1.9576-0.8238l-1.0896-0.21259q-2.0019-0.39861-2.8966-1.249t-0.89467-2.3651q0-1.7539 1.2313-2.7637 1.2401-1.0098 3.4104-1.0098 0.9301 0 1.8956 0.1683 0.96554 0.1683 1.9754 0.50491zm3.2598-0.97439h1.4173q1.3287 2.0905 1.9842 4.0924 0.66436 2.0019 0.66436 3.9773 0 1.9842-0.66436 3.995-0.6555 2.0108-1.9842 4.0924h-1.4173q1.1781-2.0285 1.7539-4.0304 0.58464-2.0108 0.58464-4.057t-0.58464-4.0393q-0.57577-1.9931-1.7539-4.0304z" fill="#fff" aria-label="induceDefaultRule(Y, S)"/>
 <path transform="scale(1.3333)" d="m164.41 162.65 379.74 0.168" fill="none" stroke="#fff" stroke-dasharray="11.3386, 11.3386" stroke-width="2.8346"/>
 <path transform="scale(1.3333)" d="m164.41 155.56-22.684 7.074 22.676 7.097z" fill="#fff" stroke="#fff" stroke-width="2.8346"/>
 <path transform="matrix(1.3333 0 0 1.3333 272.09 248.96)" d="m3.5698-11.755v10.284h2.1614q2.7372 0 4.0039-1.2401 1.2756-1.2401 1.2756-3.9153 0-2.6574-1.2756-3.8887-1.2667-1.2401-4.0039-1.2401zm-1.7893-1.4704h3.6761q3.8444 0 5.6426 1.6033 1.7982 1.5945 1.7982 4.996 0 3.4192-1.8071 5.0225-1.8071 1.6033-5.6338 1.6033h-3.6761zm22.384 7.8571v0.79723h-7.494q0.1063 1.683 1.0098 2.5689 0.91238 0.87695 2.5334 0.87695 0.93896 0 1.8159-0.23031 0.88581-0.23031 1.7539-0.69093v1.5413q-0.87695 0.37204-1.7982 0.56692-0.92124 0.19488-1.8691 0.19488-2.374 0-3.7647-1.3819-1.3819-1.3819-1.3819-3.7381 0-2.436 1.311-3.8621 1.3199-1.435 3.5521-1.435 2.0019 0 3.1623 1.2933 1.1693 1.2844 1.1693 3.499zm-1.6299-0.47834q-0.01772-1.3376-0.75294-2.1348-0.72636-0.79723-1.9311-0.79723-1.3641 0-2.188 0.77066-0.81494 0.77066-0.93896 2.1702zm9.3276-7.9369v1.3553h-1.559q-0.87695 0-1.2224 0.35432-0.33661 0.35432-0.33661 1.2756v0.87695h2.684v1.2667h-2.684v8.6544h-1.6387v-8.6544h-1.559v-1.2667h1.559v-0.69093q0-1.6565 0.77066-2.4094 0.77066-0.7618 2.4448-0.7618zm5.8729 8.7961q-1.9754 0-2.7372 0.45176-0.7618 0.45176-0.7618 1.5413 0 0.86809 0.56692 1.3819 0.57578 0.50491 1.559 0.50491 1.3553 0 2.1702-0.95668 0.8238-0.96553 0.8238-2.56v-0.36318zm3.2509-0.67322v5.6603h-1.6299v-1.5059q-0.55806 0.90353-1.3907 1.3376-0.83266 0.42519-2.0374 0.42519-1.5236 0-2.4271-0.85038-0.89467-0.85924-0.89467-2.2942 0-1.6742 1.1161-2.5246 1.125-0.85038 3.3484-0.85038h2.2854v-0.15945q0-1.125-0.74408-1.7362-0.73522-0.62007-2.0728-0.62007-0.85038 0-1.6565 0.20374-0.80609 0.20374-1.5502 0.61121v-1.5059q0.89467-0.34547 1.7362-0.51377 0.84152-0.17716 1.6387-0.17716 2.1525 0 3.2155 1.1161 1.063 1.1161 1.063 3.3838zm3.1889 1.745v-6.0058h1.6299v5.9438q0 1.4084 0.5492 2.1171 0.5492 0.69979 1.6476 0.69979 1.3199 0 2.0817-0.84152 0.77066-0.84152 0.77066-2.2942v-5.6249h1.6299v9.9211h-1.6299v-1.5236q-0.59349 0.90353-1.3819 1.3464-0.77951 0.43405-1.8159 0.43405-1.7096 0-2.5954-1.063-0.88581-1.063-0.88581-3.1092zm4.1013-6.245m7.5648-3.623h1.6299v13.783h-1.6299zm6.6524 1.0453v2.8169h3.3572v1.2667h-3.3572v5.3857q0 1.2136 0.32775 1.559 0.33661 0.34547 1.3553 0.34547h1.6742v1.3641h-1.6742q-1.8868 0-2.6043-0.69979-0.71751-0.70865-0.71751-2.5689v-5.3857h-1.1958v-1.2667h1.1958v-2.8169zm17.016 4.3405q-0.2746-0.15945-0.60235-0.23031-0.31889-0.079723-0.70865-0.079723-1.3819 0-2.1259 0.90353-0.73522 0.89467-0.73522 2.5777v5.2263h-1.6387v-9.9211h1.6387v1.5413q0.51377-0.90353 1.3376-1.3376 0.8238-0.44291 2.0019-0.44291 0.1683 0 0.37204 0.02657 0.20374 0.01772 0.45176 0.06201zm1.5413 4.4822v-6.0058h1.6299v5.9438q0 1.4084 0.5492 2.1171 0.5492 0.69979 1.6476 0.69979 1.3199 0 2.0817-0.84152 0.77066-0.84152 0.77066-2.2942v-5.6249h1.6299v9.9211h-1.6299v-1.5236q-0.59349 0.90353-1.3819 1.3464-0.77951 0.43405-1.8159 0.43405-1.7096 0-2.5954-1.063-0.88581-1.063-0.88581-3.1092zm4.1013-6.245m7.5648-3.623h1.6299v13.783h-1.6299zm13.526 8.4152v0.79723h-7.494q0.1063 1.683 1.0098 2.5689 0.91238 0.87695 2.5334 0.87695 0.93896 0 1.8159-0.23031 0.88582-0.23031 1.7539-0.69093v1.5413q-0.87695 0.37204-1.7982 0.56692-0.92124 0.19488-1.8691 0.19488-2.374 0-3.7647-1.3819-1.3819-1.3819-1.3819-3.7381 0-2.436 1.311-3.8621 1.3199-1.435 3.5521-1.435 2.0019 0 3.1624 1.2933 1.1693 1.2844 1.1693 3.499zm-1.6299-0.47834q-0.0177-1.3376-0.75294-2.1348-0.72637-0.79723-1.9311-0.79723-1.3642 0-2.188 0.77066-0.81495 0.77066-0.93896 2.1702zm15.821-2.5511q-0.2746-0.15945-0.60235-0.23031-0.3189-0.079723-0.70865-0.079723-1.3819 0-2.126 0.90353-0.73522 0.89467-0.73522 2.5777v5.2263h-1.6388v-9.9211h1.6388v1.5413q0.51377-0.90353 1.3376-1.3376 0.82381-0.44291 2.0019-0.44291 0.1683 0 0.37204 0.02657 0.20373 0.01772 0.45176 0.06201z" fill="#fff" aria-label="Default rule r"/>
 <g fill="none" stroke="#fff">
  <path transform="scale(1.3333)" d="m754.65 60.066v350.08" stroke-dasharray="11.3386, 11.3386" stroke-width="1.4173"/>
  <path transform="scale(1.3333)" d="m754.65 438.49v58.114" stroke-dasharray="11.3386, 11.3386" stroke-width="1.4173"/>
  <path transform="scale(1.3333)" d="m744.73 410.14h19.844v28.344h-19.844z" stroke-width="2.8346"/>
  <path transform="scale(1.3333)" d="m720.64 410.15-581.17 0.164" stroke-width="2.8346"/>
 </g>
 <path transform="scale(1.3333)" d="m720.64 417.24 22.675-7.093-22.679-7.082z" fill="#fff" stroke="#fff" stroke-width="2.8346"/>
 <path transform="matrix(1.3333 0 0 1.3333 449.18 575.15)" d="m5.554-8.7784q-1.311 0-2.0728 1.0275-0.7618 1.0187-0.7618 2.7992t0.75294 2.808q0.7618 1.0187 2.0817 1.0187 1.3021 0 2.0639-1.0275 0.7618-1.0275 0.7618-2.7992 0-1.7628-0.7618-2.7903-0.7618-1.0364-2.0639-1.0364zm0-1.3819q2.1259 0 3.3395 1.3819 1.2136 1.3819 1.2136 3.8267 0 2.436-1.2136 3.8267-1.2136 1.3819-3.3395 1.3819-2.1348 0-3.3484-1.3819-1.2047-1.3907-1.2047-3.8267 0-2.4448 1.2047-3.8267 1.2136-1.3819 3.3484-1.3819zm8.8315 8.6721v5.2617h-1.6387v-13.695h1.6387v1.5059q0.51377-0.88581 1.2933-1.311 0.78837-0.43405 1.8779-0.43405 1.8071 0 2.932 1.435 1.1338 1.435 1.1338 3.7736t-1.1338 3.7736q-1.125 1.435-2.932 1.435-1.0895 0-1.8779-0.42519-0.77951-0.43405-1.2933-1.3199zm5.5452-3.4635q0-1.7982-0.74408-2.8169-0.73522-1.0275-2.0285-1.0275t-2.0374 1.0275q-0.73522 1.0187-0.73522 2.8169 0 1.7982 0.73522 2.8257 0.74408 1.0187 2.0374 1.0187t2.0285-1.0187q0.74408-1.0275 0.74408-2.8257zm6.0058-7.7863v2.8169h3.3572v1.2667h-3.3572v5.3857q0 1.2136 0.32775 1.559 0.33661 0.34547 1.3553 0.34547h1.6742v1.3641h-1.6742q-1.8868 0-2.6043-0.69979-0.71751-0.70865-0.71751-2.5689v-5.3857h-1.1958v-1.2667h1.1958v-2.8169zm5.5009 2.8169h1.6299v9.9211h-1.6299zm0-3.8621h1.6299v2.0639h-1.6299zm12.765 5.7666q0.61121-1.0984 1.4616-1.621 0.85038-0.52263 2.0019-0.52263 1.5502 0 2.3917 1.0895 0.84152 1.0807 0.84152 3.0826v5.9881h-1.6387v-5.9349q0-1.4262-0.50491-2.1171t-1.5413-0.69093q-1.2667 0-2.0019 0.84152-0.73522 0.84152-0.73522 2.2942v5.6072h-1.6388v-5.9349q0-1.435-0.50491-2.1171-0.50491-0.69093-1.559-0.69093-1.249 0-1.9842 0.85038-0.73522 0.84152-0.73522 2.2854v5.6072h-1.6388v-9.9211h1.6388v1.5413q0.55806-0.91238 1.3376-1.3464 0.77951-0.43405 1.8513-0.43405 1.0807 0 1.8336 0.5492 0.7618 0.5492 1.125 1.5945zm9.9476-1.9045h1.6299v9.9211h-1.6299zm0-3.8621h1.6299v2.0639h-1.6299zm4.3316 3.8621h7.742v1.4882l-6.1298 7.1308h6.1298v1.3021h-7.9634v-1.4882l6.1298-7.1308h-5.9084zm18.717 4.5531v0.79723h-7.494q0.1063 1.683 1.0098 2.5689 0.91238 0.87695 2.5334 0.87695 0.93896 0 1.8159-0.23031 0.88581-0.23031 1.7539-0.69093v1.5413q-0.87695 0.37204-1.7982 0.56692-0.92124 0.19488-1.8691 0.19488-2.374 0-3.7647-1.3819-1.3819-1.3819-1.3819-3.7381 0-2.436 1.311-3.8621 1.3199-1.435 3.5521-1.435 2.0019 0 3.1623 1.2933 1.1693 1.2844 1.1693 3.499zm-1.6299-0.47834q-0.01772-1.3376-0.75294-2.1348-0.72636-0.79723-1.9311-0.79723-1.3641 0-2.188 0.77066-0.81494 0.77066-0.93896 2.1702zm10.647-0.35432q0.57578 0.19488 1.1161 0.83266 0.5492 0.63778 1.0984 1.7539l1.8159 3.6141h-1.9222l-1.6919-3.3927q-0.6555-1.3287-1.2756-1.7628-0.61121-0.43405-1.6742-0.43405h-1.9488v5.5895h-1.7893v-13.225h4.0393q2.2677 0 3.3838 0.94782t1.1161 2.8612q0 1.249-0.58464 2.0728-0.57578 0.8238-1.683 1.1427zm-4.4822-5.554v4.6948h2.25q1.2933 0 1.9488-0.59349 0.66436-0.60235 0.66436-1.7628 0-1.1604-0.66436-1.745-0.6555-0.59349-1.9488-0.59349zm9.7602 7.8394v-6.0058h1.6299v5.9438q0 1.4084 0.5492 2.1171 0.5492 0.69979 1.6476 0.69979 1.3199 0 2.0817-0.84152 0.77066-0.84152 0.77066-2.2942v-5.6249h1.6299v9.9211h-1.6299v-1.5236q-0.59349 0.90353-1.3819 1.3464-0.77951 0.43405-1.8159 0.43405-1.7096 0-2.5954-1.063-0.88581-1.063-0.88581-3.1092zm4.1013-6.245m7.5648-3.623h1.6299v13.783h-1.6299zm13.526 8.4152v0.79723h-7.494q0.1063 1.683 1.0098 2.5689 0.91238 0.87695 2.5334 0.87695 0.93896 0 1.8159-0.23031 0.88581-0.23031 1.7539-0.69093v1.5413q-0.87695 0.37204-1.7982 0.56692-0.92125 0.19488-1.8691 0.19488-2.374 0-3.7647-1.3819-1.3819-1.3819-1.3819-3.7381 0-2.436 1.311-3.8621 1.3199-1.435 3.5521-1.435 2.0019 0 3.1623 1.2933 1.1693 1.2844 1.1693 3.499zm-1.6299-0.47834q-0.0177-1.3376-0.75294-2.1348-0.72636-0.79723-1.9311-0.79723-1.3641 0-2.188 0.77066-0.81494 0.77066-0.93896 2.1702zm10.63-3.7824v1.5413q-0.69093-0.35432-1.435-0.53149t-1.5413-0.17716q-1.2136 0-1.8248 0.37204-0.60235 0.37204-0.60235 1.1161 0 0.56692 0.43405 0.89467 0.43404 0.31889 1.745 0.61121l0.55806 0.12401q1.7362 0.37204 2.4626 1.0541 0.73522 0.67322 0.73522 1.8868 0 1.3819-1.0984 2.188-1.0895 0.80609-3.0029 0.80609-0.79723 0-1.6653-0.15945-0.85923-0.15059-1.8159-0.46062v-1.683q0.90353 0.46948 1.7805 0.70865 0.87695 0.23031 1.7362 0.23031 1.1516 0 1.7716-0.38976 0.62007-0.39861 0.62007-1.1161 0-0.66436-0.45177-1.0187-0.4429-0.35432-1.9576-0.68207l-0.56692-0.13287q-1.5147-0.31889-2.188-0.97439-0.67321-0.66436-0.67321-1.8159 0-1.3996 0.9921-2.1614 0.99211-0.7618 2.8169-0.7618 0.90353 0 1.7008 0.13287 0.79723 0.13287 1.4704 0.39861zm7.0422-4.1367q-1.187 2.0374-1.7628 4.0304-0.57577 1.9931-0.57577 4.0393t0.57577 4.057q0.58464 2.0019 1.7628 4.0304h-1.4173q-1.3287-2.0817-1.9931-4.0924-0.6555-2.0108-0.6555-3.995 0-1.9754 0.6555-3.9773 0.6555-2.0019 1.9931-4.0924zm2.5954 0.54034h1.9222l3.2864 4.9162 3.3041-4.9162h1.9222l-4.2519 6.3513 4.5354 6.8739h-1.9222l-3.7204-5.6249-3.747 5.6249h-1.9311l4.7214-7.0599zm13.411 10.975h1.8691v1.5236l-1.4527 2.8346h-1.1427l0.72636-2.8346zm9.3719-10.975h1.9222l3.6673 5.4389 3.6407-5.4389h1.9222l-4.6771 6.927v6.2981h-1.7982v-6.2981zm13.243 10.975h1.8691v1.5236l-1.4527 2.8346h-1.1427l0.72636-2.8346zm19.116-10.541v1.745q-1.0187-0.4872-1.9222-0.72636-0.90352-0.23917-1.745-0.23917-1.4616 0-2.2588 0.56692-0.78837 0.56692-0.78837 1.6122 0 0.87695 0.52263 1.3287 0.53148 0.44291 2.0019 0.71751l1.0807 0.22145q2.0019 0.3809 2.9498 1.3464 0.95667 0.95668 0.95667 2.5689 0 1.9222-1.2933 2.9143-1.2844 0.99211-3.7736 0.99211-0.93896 0-2.0019-0.21259-1.0541-0.21259-2.188-0.62893v-1.8425q1.0896 0.61121 2.1348 0.92124 1.0452 0.31003 2.0551 0.31003 1.5324 0 2.3651-0.60235 0.83266-0.60235 0.83266-1.7185 0-0.97439-0.60235-1.5236-0.59349-0.5492-1.9576-0.8238l-1.0896-0.21259q-2.0019-0.39861-2.8966-1.249t-0.89467-2.3651q0-1.7539 1.2313-2.7637 1.2401-1.0098 3.4104-1.0098 0.9301 0 1.8956 0.1683 0.96553 0.1683 1.9754 0.50491zm3.933 10.541h1.8691v1.5236l-1.4527 2.8346h-1.1427l0.72637-2.8346zm17.459-3.9507q0.57578 0.19488 1.1161 0.83266 0.5492 0.63778 1.0984 1.7539l1.8159 3.6141h-1.9222l-1.6919-3.3927q-0.6555-1.3287-1.2756-1.7628-0.61121-0.43405-1.6742-0.43405h-1.9488v5.5895h-1.7893v-13.225h4.0393q2.2677 0 3.3838 0.94782t1.1161 2.8612q0 1.249-0.58463 2.0728-0.57578 0.8238-1.683 1.1427zm-4.4822-5.554v4.6948h2.25q1.2933 0 1.9488-0.59349 0.66436-0.60235 0.66436-1.7628 0-1.1604-0.66436-1.745-0.6555-0.59349-1.9488-0.59349zm10.488-2.0108h1.4173q1.3287 2.0905 1.9842 4.0924 0.66436 2.0019 0.66436 3.9773 0 1.9842-0.66436 3.995-0.6555 2.0108-1.9842 4.0924h-1.4173q1.1781-2.0285 1.7539-4.0304 0.58464-2.0108 0.58464-4.057t-0.58464-4.0393q-0.57577-1.9931-1.7539-4.0304z" fill="#fff" aria-label="optimizeRules(X, Y, S, R)"/>
 <path transform="scale(1.3333)" d="m163.56 438.66 581.17-0.168" fill="none" stroke="#fff" stroke-dasharray="11.3386, 11.3386" stroke-width="2.8346"/>
 <path transform="scale(1.3333)" d="m163.56 431.57-22.676 7.094 22.676 7.082z" fill="#fff" stroke="#fff" stroke-width="2.8346"/>
 <path transform="matrix(1.3333 0 0 1.3333 225.23 619.1)" d="m7.1485-12.012q-1.9488 0-3.1003 1.4527-1.1427 1.4527-1.1427 3.9596 0 2.498 1.1427 3.9507 1.1516 1.4527 3.1003 1.4527 1.9488 0 3.0826-1.4527 1.1427-1.4527 1.1427-3.9507 0-2.5068-1.1427-3.9596-1.1338-1.4527-3.0826-1.4527zm0-1.4527q2.7814 0 4.4468 1.8691 1.6653 1.8602 1.6653 4.996 0 3.1269-1.6653 4.996-1.6653 1.8602-4.4468 1.8602-2.7903 0-4.4645-1.8602-1.6653-1.8602-1.6653-4.996 0-3.1358 1.6653-4.996 1.6742-1.8691 4.4645-1.8691zm10.417 11.976v5.2617h-1.6387v-13.695h1.6387v1.5059q0.51377-0.88581 1.2933-1.311 0.78837-0.43405 1.8779-0.43405 1.8071 0 2.932 1.435 1.1338 1.435 1.1338 3.7736t-1.1338 3.7736q-1.125 1.435-2.932 1.435-1.0895 0-1.8779-0.42519-0.77951-0.43405-1.2933-1.3199zm5.5452-3.4635q0-1.7982-0.74408-2.8169-0.73522-1.0275-2.0285-1.0275-1.2933 0-2.0374 1.0275-0.73522 1.0187-0.73522 2.8169 0 1.7982 0.73522 2.8257 0.74408 1.0187 2.0374 1.0187 1.2933 0 2.0285-1.0187 0.74408-1.0275 0.74408-2.8257zm6.0058-7.7863v2.8169h3.3572v1.2667h-3.3572v5.3857q0 1.2136 0.32775 1.559 0.33661 0.34547 1.3553 0.34547h1.6742v1.3641h-1.6742q-1.8868 0-2.6043-0.69979-0.71751-0.70865-0.71751-2.5689v-5.3857h-1.1958v-1.2667h1.1958v-2.8169zm5.5009 2.8169h1.6299v9.9211h-1.6299zm0-3.8621h1.6299v2.0639h-1.6299zm12.765 5.7666q0.61121-1.0984 1.4616-1.621 0.85038-0.52263 2.0019-0.52263 1.5502 0 2.3917 1.0895 0.84152 1.0807 0.84152 3.0826v5.9881h-1.6388v-5.9349q0-1.4262-0.50491-2.1171t-1.5413-0.69093q-1.2667 0-2.0019 0.84152t-0.73522 2.2942v5.6072h-1.6387v-5.9349q0-1.435-0.50491-2.1171-0.50491-0.69093-1.559-0.69093-1.249 0-1.9842 0.85038-0.73522 0.84152-0.73522 2.2854v5.6072h-1.6387v-9.9211h1.6387v1.5413q0.55806-0.91238 1.3376-1.3464 0.77951-0.43405 1.8513-0.43405 1.0807 0 1.8336 0.5492 0.7618 0.5492 1.125 1.5945zm9.9477-1.9045h1.6299v9.9211h-1.6299zm0-3.8621h1.6299v2.0639h-1.6299zm4.3316 3.8621h7.742v1.4882l-6.1298 7.1308h6.1298v1.3021h-7.9634v-1.4882l6.1298-7.1308h-5.9084zm18.717 4.5531v0.79723h-7.494q0.1063 1.683 1.0098 2.5689 0.91238 0.87695 2.5334 0.87695 0.93896 0 1.8159-0.23031 0.88581-0.23031 1.7539-0.69093v1.5413q-0.87695 0.37204-1.7982 0.56692-0.92124 0.19488-1.8691 0.19488-2.374 0-3.7647-1.3819-1.3819-1.3819-1.3819-3.7381 0-2.436 1.311-3.8621 1.3199-1.435 3.5521-1.435 2.0019 0 3.1623 1.2933 1.1693 1.2844 1.1693 3.499zm-1.6299-0.47834q-0.01772-1.3376-0.75294-2.1348-0.72636-0.79723-1.9311-0.79723-1.3641 0-2.188 0.77066-0.81495 0.77066-0.93896 2.1702zm10.833-2.5689v-5.368h1.6299v13.783h-1.6299v-1.4882q-0.51377 0.88581-1.3021 1.3199-0.77951 0.42519-1.8779 0.42519-1.7982 0-2.932-1.435-1.125-1.435-1.125-3.7736t1.125-3.7736q1.1338-1.435 2.932-1.435 1.0984 0 1.8779 0.43405 0.78837 0.42519 1.3021 1.311zm-5.554 3.4635q0 1.7982 0.73522 2.8257 0.74408 1.0187 2.0374 1.0187 1.2933 0 2.0374-1.0187 0.74408-1.0275 0.74408-2.8257 0-1.7982-0.74408-2.8169-0.74408-1.0275-2.0374-1.0275-1.2933 0-2.0374 1.0275-0.73522 1.0187-0.73522 2.8169zm22.65-1.249q0.57578 0.19488 1.1161 0.83266 0.54921 0.63778 1.0984 1.7539l1.8159 3.6141h-1.9222l-1.6919-3.3927q-0.6555-1.3287-1.2756-1.7628-0.61121-0.43405-1.6742-0.43405h-1.9488v5.5895h-1.7893v-13.225h4.0393q2.2677 0 3.3838 0.94782 1.1161 0.94782 1.1161 2.8612 0 1.249-0.58464 2.0728-0.57577 0.8238-1.683 1.1427zm-4.4822-5.554v4.6948h2.25q1.2933 0 1.9488-0.59349 0.66436-0.60235 0.66436-1.7628 0-1.1604-0.66436-1.745-0.6555-0.59349-1.9488-0.59349zm9.7602 7.8394v-6.0058h1.6299v5.9438q0 1.4084 0.5492 2.1171 0.5492 0.69979 1.6476 0.69979 1.3199 0 2.0816-0.84152 0.77066-0.84152 0.77066-2.2942v-5.6249h1.6299v9.9211h-1.6299v-1.5236q-0.5935 0.90353-1.3819 1.3464-0.77951 0.43405-1.8159 0.43405-1.7096 0-2.5954-1.063-0.88581-1.063-0.88581-3.1092zm4.1013-6.245m7.5648-3.623h1.6299v13.783h-1.6299zm13.526 8.4152v0.79723h-7.494q0.1063 1.683 1.0098 2.5689 0.91238 0.87695 2.5334 0.87695 0.93896 0 1.8159-0.23031 0.88581-0.23031 1.7539-0.69093v1.5413q-0.87695 0.37204-1.7982 0.56692-0.92125 0.19488-1.8691 0.19488-2.374 0-3.7647-1.3819-1.3819-1.3819-1.3819-3.7381 0-2.436 1.311-3.8621 1.3199-1.435 3.5521-1.435 2.0019 0 3.1623 1.2933 1.1693 1.2844 1.1693 3.499zm-1.6299-0.47834q-0.0177-1.3376-0.75294-2.1348-0.72636-0.79723-1.9311-0.79723-1.3641 0-2.188 0.77066-0.81494 0.77066-0.93896 2.1702zm10.63-3.7824v1.5413q-0.69093-0.35432-1.435-0.53149t-1.5413-0.17716q-1.2136 0-1.8248 0.37204-0.60235 0.37204-0.60235 1.1161 0 0.56692 0.43405 0.89467 0.43404 0.31889 1.745 0.61121l0.55806 0.12401q1.7362 0.37204 2.4626 1.0541 0.73522 0.67322 0.73522 1.8868 0 1.3819-1.0984 2.188-1.0895 0.80609-3.0029 0.80609-0.79723 0-1.6653-0.15945-0.85923-0.15059-1.8159-0.46062v-1.683q0.90353 0.46948 1.7805 0.70865 0.87695 0.23031 1.7362 0.23031 1.1516 0 1.7716-0.38976 0.62007-0.39861 0.62007-1.1161 0-0.66436-0.45177-1.0187-0.4429-0.35432-1.9576-0.68207l-0.56692-0.13287q-1.5147-0.31889-2.188-0.97439-0.67321-0.66436-0.67321-1.8159 0-1.3996 0.9921-2.1614 0.99211-0.7618 2.8169-0.7618 0.90353 0 1.7008 0.13287 0.79723 0.13287 1.4704 0.39861zm15.236 3.4281q0.57578 0.19488 1.1161 0.83266 0.5492 0.63778 1.0984 1.7539l1.8159 3.6141h-1.9222l-1.6919-3.3927q-0.6555-1.3287-1.2756-1.7628-0.61121-0.43405-1.6742-0.43405h-1.9488v5.5895h-1.7893v-13.225h4.0393q2.2677 0 3.3838 0.94782t1.1161 2.8612q0 1.249-0.58463 2.0728-0.57578 0.8238-1.683 1.1427zm-4.4822-5.554v4.6948h2.25q1.2933 0 1.9488-0.59349 0.66436-0.60235 0.66436-1.7628 0-1.1604-0.66436-1.745-0.6555-0.59349-1.9488-0.59349z" fill="#fff" aria-label="Optimized Rules R"/>
</svg>
