<?xml version="1.0" encoding="UTF-8" standalone="no"?>
<!-- Created with Inkscape (http://www.inkscape.org/) -->

<svg
   width="220mm"
   height="86mm"
   viewBox="0 0 220 86"
   version="1.1"
   id="svg5"
   sodipodi:docname="project_structure_light.inkscape.svg"
   inkscape:version="1.4 (e7c3feb100, 2024-10-09)"
   xmlns:inkscape="http://www.inkscape.org/namespaces/inkscape"
   xmlns:sodipodi="http://sodipodi.sourceforge.net/DTD/sodipodi-0.dtd"
   xmlns="http://www.w3.org/2000/svg"
   xmlns:svg="http://www.w3.org/2000/svg">
  <sodipodi:namedview
     id="namedview1"
     pagecolor="#ffffff"
     bordercolor="#000000"
     borderopacity="0.25"
     inkscape:showpageshadow="2"
     inkscape:pageopacity="0.0"
     inkscape:pagecheckerboard="0"
     inkscape:deskcolor="#d1d1d1"
     inkscape:document-units="mm"
     inkscape:zoom="1.0442949"
     inkscape:cx="294.93584"
     inkscape:cy="26.333557"
     inkscape:window-width="1920"
     inkscape:window-height="1012"
     inkscape:window-x="0"
     inkscape:window-y="0"
     inkscape:window-maximized="1"
     inkscape:current-layer="layer1" />
  <defs
     id="defs2">
    <rect
       x="370"
       y="160"
       width="70"
       height="60"
       id="rect32155" />
    <rect
       x="20"
       y="170"
       width="240"
       height="50"
       id="rect9477" />
  </defs>
  <g
     id="g1"
     transform="translate(13.473433)">
    <g
       id="layer1"
       transform="translate(6.6458333,-3.3125)">
      <rect
         style="fill:#e5e5e5;fill-opacity:1;stroke:#006d93;stroke-width:1.25;stroke-linejoin:round;stroke-opacity:0.5"
         id="rect66020"
         width="158.75"
         height="21.166666"
         x="0"
         y="61.383354" />
      <rect
         style="fill:#e5e5e5;fill-opacity:1;stroke:#006d93;stroke-width:1.71687;stroke-linejoin:round;stroke-opacity:0.5"
         id="rect65836"
         width="158.28313"
         height="40.048332"
         x="0.23343316"
         y="10.518229" />
      <path
         id="rect1978"
         style="fill:#afe2f5;fill-opacity:1;stroke:#006d93;stroke-width:1.37743;stroke-linejoin:round;stroke-opacity:0.5"
         d="M 2.6458333,64.029179 H 47.625001 V 79.90418 H 2.6458333 Z" />
      <path
         id="rect1978-3"
         style="fill:#fac2d2;fill-opacity:1;stroke:#006d93;stroke-width:1.37743;stroke-linejoin:round;stroke-opacity:0.5"
         d="M 50.270833,64.02918 H 95.250001 V 79.904181 H 50.270833 Z" />
      <g
         aria-label="libmlrlcommon"
         transform="matrix(0.26458333,0,0,0.26458333,0,23.936432)"
         id="text9475"
         style="font-size:24px;line-height:1.25;font-family:'Jost*';-inkscape-font-specification:'Jost*';letter-spacing:0px;word-spacing:0px;white-space:pre;shape-inside:url(#rect9477)">
        <path
           d="m 21.8,172.05163 v 18.72 h 1.92 v -18.72 z"
           style="font-size:24px;line-height:1.25;font-family:'Jost*';-inkscape-font-specification:'Jost*';letter-spacing:0px;word-spacing:0px;white-space:pre;shape-inside:url(#rect9477)"
           id="path18114" />
        <path
           d="m 27.319989,175.17163 c 0,0.72 0.6,1.32 1.32,1.32 0.72,0 1.32,-0.6 1.32,-1.32 0,-0.72 -0.6,-1.32 -1.32,-1.32 -0.72,0 -1.32,0.6 -1.32,1.32 z m 0.36,4.56 v 11.04 h 1.92 v -11.04 z"
           style="font-size:24px;line-height:1.25;font-family:'Jost*';-inkscape-font-specification:'Jost*';letter-spacing:0px;word-spacing:0px;white-space:pre;shape-inside:url(#rect9477)"
           id="path18116" />
        <path
           d="m 44.599949,185.25163 c 0,-3.576 -2.472,-5.76 -5.472,-5.76 -1.632,0 -2.952,0.768 -3.768,2.136 v -9.576 h -1.92 v 18.72 h 1.92 v -1.896 c 0.816,1.368 2.136,2.136 3.768,2.136 3,0 5.472,-2.184 5.472,-5.76 z m -1.944,0 c 0,2.544 -1.728,3.96 -3.768,3.96 -1.68,0 -3.528,-1.416 -3.528,-3.96 0,-2.544 1.848,-3.96 3.528,-3.96 2.04,0 3.768,1.416 3.768,3.96 z"
           style="font-size:24px;line-height:1.25;font-family:'Jost*';-inkscape-font-specification:'Jost*';letter-spacing:0px;word-spacing:0px;white-space:pre;shape-inside:url(#rect9477)"
           id="path18118" />
        <path
           d="m 62.359941,183.81163 c 0,-2.736 -1.296,-4.32 -3.552,-4.32 -1.488,0 -2.64,0.696 -3.408,2.064 -0.504,-1.32 -1.656,-2.064 -3.192,-2.064 -1.368,0 -2.376,0.6 -3.048,1.848 v -1.608 h -1.92 v 11.04 h 1.92 v -6.72 c 0,-1.728 0.984,-2.76 2.568,-2.76 1.44,0 2.112,0.864 2.112,2.76 v 6.72 h 1.92 v -6.72 c 0,-1.728 0.984,-2.76 2.568,-2.76 1.44,0 2.112,0.864 2.112,2.76 v 6.72 h 1.92 z"
           style="font-size:24px;line-height:1.25;font-family:'Jost*';-inkscape-font-specification:'Jost*';letter-spacing:0px;word-spacing:0px;white-space:pre;shape-inside:url(#rect9477)"
           id="path18120" />
        <path
           d="m 65.959912,172.05163 v 18.72 h 1.92 v -18.72 z"
           style="font-size:24px;line-height:1.25;font-family:'Jost*';-inkscape-font-specification:'Jost*';letter-spacing:0px;word-spacing:0px;white-space:pre;shape-inside:url(#rect9477)"
           id="path18122" />
        <path
           d="m 76.735901,181.84363 1.056,-1.584 c -0.576,-0.6 -1.272,-0.768 -2.064,-0.768 -0.84,0 -1.704,0.576 -2.328,1.512 v -1.272 h -1.92 v 11.04 h 1.92 v -6.72 c 0,-1.584 0.408,-2.76 1.848,-2.76 0.624,0 0.96,0.168 1.488,0.552 z"
           style="font-size:24px;line-height:1.25;font-family:'Jost*';-inkscape-font-specification:'Jost*';letter-spacing:0px;word-spacing:0px;white-space:pre;shape-inside:url(#rect9477)"
           id="path18124" />
        <path
           d="m 79.711865,172.05163 v 18.72 h 1.92 v -18.72 z"
           style="font-size:24px;line-height:1.25;font-family:'Jost*';-inkscape-font-specification:'Jost*';letter-spacing:0px;word-spacing:0px;white-space:pre;shape-inside:url(#rect9477)"
           id="path18126" />
        <path
           d="m 86.095854,185.25163 c 0,-2.304 1.608,-3.96 3.768,-3.96 1.776,0 3.336,0.936 3.84,2.016 v -2.4 c -0.768,-0.888 -2.328,-1.416 -3.84,-1.416 -3.24,0 -5.712,2.424 -5.712,5.76 0,3.336 2.472,5.76 5.712,5.76 1.512,0 3.072,-0.504 3.84,-1.416 v -2.4 c -0.504,1.08 -2.064,2.016 -3.84,2.016 -2.16,0 -3.768,-1.656 -3.768,-3.96 z"
           style="font-size:24px;line-height:1.25;font-family:'Jost*';-inkscape-font-specification:'Jost*';letter-spacing:0px;word-spacing:0px;white-space:pre;shape-inside:url(#rect9477)"
           id="path18128" />
        <path
           d="m 95.743824,185.25163 c 0,3.336 2.472,5.76 5.711996,5.76 3.24,0 5.712,-2.424 5.712,-5.76 0,-3.336 -2.472,-5.76 -5.712,-5.76 -3.239996,0 -5.711996,2.424 -5.711996,5.76 z m 1.944,0 c 0,-2.304 1.608,-3.96 3.767996,-3.96 2.16,0 3.768,1.656 3.768,3.96 0,2.304 -1.608,3.96 -3.768,3.96 -2.159996,0 -3.767996,-1.656 -3.767996,-3.96 z"
           style="font-size:24px;line-height:1.25;font-family:'Jost*';-inkscape-font-specification:'Jost*';letter-spacing:0px;word-spacing:0px;white-space:pre;shape-inside:url(#rect9477)"
           id="path18130" />
        <path
           d="m 124.92781,183.81163 c 0,-2.736 -1.296,-4.32 -3.552,-4.32 -1.488,0 -2.64,0.696 -3.408,2.064 -0.504,-1.32 -1.656,-2.064 -3.192,-2.064 -1.368,0 -2.376,0.6 -3.048,1.848 v -1.608 h -1.92 v 11.04 h 1.92 v -6.72 c 0,-1.728 0.984,-2.76 2.568,-2.76 1.44,0 2.112,0.864 2.112,2.76 v 6.72 h 1.92 v -6.72 c 0,-1.728 0.984,-2.76 2.568,-2.76 1.44,0 2.112,0.864 2.112,2.76 v 6.72 h 1.92 z"
           style="font-size:24px;line-height:1.25;font-family:'Jost*';-inkscape-font-specification:'Jost*';letter-spacing:0px;word-spacing:0px;white-space:pre;shape-inside:url(#rect9477)"
           id="path18132" />
        <path
           d="m 143.64778,183.81163 c 0,-2.736 -1.296,-4.32 -3.552,-4.32 -1.488,0 -2.64,0.696 -3.408,2.064 -0.504,-1.32 -1.656,-2.064 -3.192,-2.064 -1.368,0 -2.376,0.6 -3.048,1.848 v -1.608 h -1.92 v 11.04 h 1.92 v -6.72 c 0,-1.728 0.984,-2.76 2.568,-2.76 1.44,0 2.112,0.864 2.112,2.76 v 6.72 h 1.92 v -6.72 c 0,-1.728 0.984,-2.76 2.568,-2.76 1.44,0 2.112,0.864 2.112,2.76 v 6.72 h 1.92 z"
           style="font-size:24px;line-height:1.25;font-family:'Jost*';-inkscape-font-specification:'Jost*';letter-spacing:0px;word-spacing:0px;white-space:pre;shape-inside:url(#rect9477)"
           id="path18134" />
        <path
           d="m 146.28775,185.25163 c 0,3.336 2.472,5.76 5.712,5.76 3.24,0 5.712,-2.424 5.712,-5.76 0,-3.336 -2.472,-5.76 -5.712,-5.76 -3.24,0 -5.712,2.424 -5.712,5.76 z m 1.944,0 c 0,-2.304 1.608,-3.96 3.768,-3.96 2.16,0 3.768,1.656 3.768,3.96 0,2.304 -1.608,3.96 -3.768,3.96 -2.16,0 -3.768,-1.656 -3.768,-3.96 z"
           style="font-size:24px;line-height:1.25;font-family:'Jost*';-inkscape-font-specification:'Jost*';letter-spacing:0px;word-spacing:0px;white-space:pre;shape-inside:url(#rect9477)"
           id="path18136" />
        <path
           d="m 167.43174,184.05163 v 6.72 h 1.92 v -6.96 c 0,-2.664 -1.464,-4.32 -3.792,-4.32 -1.44,0 -2.544,0.624 -3.288,1.968 v -1.728 h -1.92 v 11.04 h 1.92 v -6.72 c 0,-1.632 1.128,-2.76 2.808,-2.76 1.536,0 2.352,0.936 2.352,2.76 z"
           style="font-size:24px;line-height:1.25;font-family:'Jost*';-inkscape-font-specification:'Jost*';letter-spacing:0px;word-spacing:0px;white-space:pre;shape-inside:url(#rect9477)"
           id="path18138" />
      </g>
      <g
         aria-label="libmlrlcommon"
         transform="matrix(0.26458333,0,0,0.26458333,48.473855,27.344267)"
         id="text9475-6"
         style="font-size:24px;line-height:1.25;font-family:'Jost*';-inkscape-font-specification:'Jost*';letter-spacing:0px;word-spacing:0px;white-space:pre;shape-inside:url(#rect9477)">
        <text
           xml:space="preserve"
           style="font-size:24px;line-height:1.25;font-family:'Jost*';-inkscape-font-specification:'Jost*';letter-spacing:0px;word-spacing:0px"
           x="16.09585"
           y="175.25163"
           id="text27731"><tspan
             id="tspan27729"
             x="16.09585"
             y="175.25163"
             style="font-size:24px">libmlrlboosting</tspan></text>
      </g>
      <text
         xml:space="preserve"
         transform="matrix(0.26458333,0,0,0.26458333,2.11697,24.391517)"
         id="text32153"
         style="font-size:24px;line-height:1.25;font-family:'Jost*';-inkscape-font-specification:'Jost*';letter-spacing:0px;word-spacing:0px;white-space:pre;shape-inside:url(#rect32155);display:inline"><tspan
           x="370"
           y="180.77163"
           id="tspan1">...</tspan></text>
      <text
         xml:space="preserve"
         style="font-size:6.35px;line-height:1.25;font-family:'Jost*';-inkscape-font-specification:'Jost*';letter-spacing:0px;word-spacing:0px;stroke-width:0.264583"
         x="164.41518"
         y="74.189186"
         id="text43158"><tspan
           id="tspan43156"
           style="font-size:6.35px;stroke-width:0.264583"
           x="164.41518"
           y="74.189186">C++</tspan></text>
      <rect
         style="fill:#afe2f5;fill-opacity:1;stroke:#006d93;stroke-width:1.25;stroke-linejoin:round;stroke-opacity:0.5"
         id="rect47384"
         width="44.979168"
         height="15.875"
         x="2.6458333"
         y="13.229166" />
      <rect
         style="fill:#c3d9e1;fill-opacity:1;stroke:#006d93;stroke-width:1.25;stroke-linejoin:round;stroke-opacity:0.5"
         id="rect47384-1"
         width="153.5"
         height="15.875"
         x="2.6458333"
         y="31.766792" />
      <rect
         style="fill:#a2f6de;fill-opacity:1;stroke:#006d93;stroke-width:1.25;stroke-linejoin:round;stroke-opacity:0.5"
         id="rect47384-6"
         width="44.979168"
         height="15.875"
         x="111.125"
         y="13.229164" />
      <text
         xml:space="preserve"
         style="font-size:6.35px;line-height:1.25;font-family:'Jost*';-inkscape-font-specification:'Jost*';letter-spacing:0px;word-spacing:0px;stroke-width:0.264583"
         x="7.838047"
         y="23.61142"
         id="text49126"><tspan
           id="tspan49124"
           style="font-size:6.35px;stroke-width:0.264583"
           x="7.838047"
           y="23.61142">mlrl-common</tspan></text>
      <rect
         style="fill:#fac2d2;fill-opacity:1;stroke:#006d93;stroke-width:1.25;stroke-linejoin:round;stroke-opacity:0.5"
         id="rect54730"
         width="44.979168"
         height="15.875"
         x="50.270832"
         y="13.229166" />
      <text
         xml:space="preserve"
         style="font-size:6.35px;line-height:1.25;font-family:'Jost*';-inkscape-font-specification:'Jost*';letter-spacing:0px;word-spacing:0px;stroke-width:0.264583"
         x="56.367916"
         y="23.61142"
         id="text56065"><tspan
           id="tspan56063"
           style="font-size:6.35px;stroke-width:0.264583"
           x="56.367916"
           y="23.61142">mlrl-boomer</tspan></text>
      <text
         xml:space="preserve"
         style="font-size:6.35px;line-height:1.25;font-family:'Jost*';-inkscape-font-specification:'Jost*';letter-spacing:0px;word-spacing:0px;stroke-width:0.264583"
         x="69.114372"
         y="42.365604"
         id="text56065-5"><tspan
           id="tspan56063-6"
           style="font-size:6.35px;stroke-width:0.264583"
           x="69.114372"
           y="42.365604">mlrl-util</tspan></text>
      <text
         xml:space="preserve"
         style="font-size:6.35px;line-height:1.25;font-family:'Jost*';-inkscape-font-specification:'Jost*';letter-spacing:0px;word-spacing:0px;stroke-width:0.264583"
         x="118.21268"
         y="23.61142"
         id="text62122"><tspan
           id="tspan62120"
           style="font-size:6.35px;stroke-width:0.264583"
           x="118.21268"
           y="23.61142">mlrl-testbed</tspan></text>
      <text
         xml:space="preserve"
         style="font-size:6.35px;line-height:1.25;font-family:'Jost*';-inkscape-font-specification:'Jost*';letter-spacing:0px;word-spacing:0px;stroke-width:0.264583"
         x="164.38919"
         y="32.320408"
         id="text68758"><tspan
           id="tspan68756"
           style="font-size:6.35px;stroke-width:0.264583"
           x="164.38919"
           y="32.320408">Python</tspan></text>
      <path
         style="fill:none;stroke:#000000;stroke-width:1;stroke-linecap:round;stroke-linejoin:round;stroke-miterlimit:4;stroke-dasharray:1, 4;stroke-dashoffset:0;stroke-opacity:1"
         d="M 161.39583,56.09168 H -2.6458333"
         id="path72981" />
      <text
         xml:space="preserve"
         style="font-size:6.35px;line-height:1.25;font-family:'Jost*';-inkscape-font-specification:'Jost*';letter-spacing:0px;word-spacing:0px;stroke-width:0.264583"
         x="164.08121"
         y="57.869686"
         id="text86071"><tspan
           id="tspan86069"
           style="font-size:6.35px;stroke-width:0.264583"
           x="164.08121"
           y="57.869686">Cython</tspan></text>
      <text
         xml:space="preserve"
         style="font-size:6.35px;line-height:1.25;font-family:'Jost*';-inkscape-font-specification:'Jost*';letter-spacing:0px;word-spacing:0px;stroke-width:0.264583"
         x="100.0128"
         y="21.42067"
         id="text97092"><tspan
           id="tspan97090"
           style="font-size:6.35px;stroke-width:0.264583"
           x="100.0128"
           y="21.42067">...</tspan></text>
    </g>
  </g>
</svg>
