<?xml version="1.0" encoding="UTF-8" standalone="no"?>
<svg
   viewBox="0 0 42 31.5"
   version="1.1"
   id="svg1"
   sodipodi:docname="icon_issue_tracker.svg"
   width="42"
   height="31.5"
   inkscape:version="1.4.2 (ebf0e940d0, 2025-05-08)"
   xmlns:inkscape="http://www.inkscape.org/namespaces/inkscape"
   xmlns:sodipodi="http://sodipodi.sourceforge.net/DTD/sodipodi-0.dtd"
   xmlns="http://www.w3.org/2000/svg"
   xmlns:svg="http://www.w3.org/2000/svg">
  <defs
     id="defs1" />
  <sodipodi:namedview
     id="namedview1"
     pagecolor="#ffffff"
     bordercolor="#000000"
     borderopacity="0.25"
     inkscape:showpageshadow="2"
     inkscape:pageopacity="0.0"
     inkscape:pagecheckerboard="0"
     inkscape:deskcolor="#d1d1d1"
     inkscape:zoom="35.75"
     inkscape:cx="11.986014"
     inkscape:cy="12.013986"
     inkscape:window-width="1920"
     inkscape:window-height="1012"
     inkscape:window-x="0"
     inkscape:window-y="0"
     inkscape:window-maximized="1"
     inkscape:current-layer="svg1" />
  <path
     d="m 23,15.75 h -4 v -2 h 4 m 0,6 h -4 v -2 h 4 m 6,-6 H 26.19 C 25.74,10.97 25.12,10.3 24.37,9.79 L 26,8.16 24.59,6.75 22.42,8.92 C 21.96,8.81 21.5,8.75 21,8.75 c -0.5,0 -0.96,0.06 -1.41,0.17 L 17.41,6.75 16,8.16 17.62,9.79 c -0.74,0.51 -1.36,1.18 -1.81,1.96 H 13 v 2 h 2.09 c -0.05,0.33 -0.09,0.66 -0.09,1 v 1 h -2 v 2 h 2 v 1 c 0,0.34 0.04,0.67 0.09,1 H 13 v 2 h 2.81 c 1.04,1.79 2.97,3 5.19,3 2.22,0 4.15,-1.21 5.19,-3 H 29 v -2 h -2.09 c 0.05,-0.33 0.09,-0.66 0.09,-1 v -1 h 2 v -2 h -2 v -1 c 0,-0.34 -0.04,-0.67 -0.09,-1 H 29 Z"
     id="path1"
     style="fill:#1e1e1e;fill-opacity:1" />
</svg>
