<?xml version="1.0" encoding="UTF-8" standalone="no"?>
<!-- Created with Inkscape (http://www.inkscape.org/) -->

<svg
   width="148mm"
   height="48mm"
   viewBox="0 0 148 48"
   version="1.1"
   id="svg1"
   xml:space="preserve"
   xmlns="http://www.w3.org/2000/svg"
   xmlns:svg="http://www.w3.org/2000/svg"><defs
     id="defs1"><rect
       x="78.497879"
       y="83.731071"
       width="644.99091"
       height="324.45789"
       id="rect1-7-2" /><rect
       x="78.497879"
       y="83.731071"
       width="644.99091"
       height="324.45789"
       id="rect1-4" /></defs><g
     id="layer1"
     transform="translate(-12,-9.4999996)"><g
       id="g7"
       transform="translate(6.2300193,4.0000004)"><rect
         style="fill:#765ca4;fill-opacity:1;stroke:none;stroke-width:0.600001;stroke-linecap:round"
         id="rect7"
         width="4"
         height="4"
         x="25.720833"
         y="17.5" /><rect
         style="fill:#3c9ad2;fill-opacity:1;stroke:none;stroke-width:0.600001;stroke-linecap:round"
         id="rect7-8"
         width="4"
         height="4"
         x="30.720833"
         y="17.5" /><rect
         style="fill:#4fc8db;fill-opacity:1;stroke:none;stroke-width:0.600001;stroke-linecap:round"
         id="rect7-8-3"
         width="4"
         height="4"
         x="35.720833"
         y="17.5" /><rect
         style="fill:#70d2a1;fill-opacity:1;stroke:none;stroke-width:0.600001;stroke-linecap:round"
         id="rect7-8-3-1"
         width="4"
         height="4"
         x="40.720833"
         y="17.5" /><rect
         style="fill:#94da6f;fill-opacity:1;stroke:none;stroke-width:0.600001;stroke-linecap:round"
         id="rect7-8-3-1-8-4"
         width="4"
         height="4"
         x="45.990814"
         y="17.5" /><rect
         style="fill:#fcc727;fill-opacity:1;stroke:none;stroke-width:0.600001;stroke-linecap:round"
         id="rect7-8-3-1-8-4-9"
         width="4"
         height="4"
         x="50.990814"
         y="17.5" /><rect
         style="fill:#fc8a2b;fill-opacity:1;stroke:none;stroke-width:0.600001;stroke-linecap:round"
         id="rect7-8-3-1-8-4-9-8"
         width="4"
         height="4"
         x="55.990814"
         y="17.5" /><rect
         style="fill:#8871b0;fill-opacity:1;stroke:none;stroke-width:0.600001;stroke-linecap:round"
         id="rect7-85"
         width="4"
         height="4"
         x="25.720833"
         y="22.5" /><rect
         style="fill:#5caddb;fill-opacity:1;stroke:none;stroke-width:0.600001;stroke-linecap:round"
         id="rect7-8-9"
         width="4"
         height="4"
         x="30.720833"
         y="22.5" /><rect
         style="fill:#8edabe;fill-opacity:1;stroke:none;stroke-width:0.600001;stroke-linecap:round"
         id="rect7-8-3-7"
         width="4"
         height="4"
         x="35.720833"
         y="22.5" /><rect
         style="fill:#9ddea5;fill-opacity:1;stroke:none;stroke-width:0.600001;stroke-linecap:round"
         id="rect7-8-3-1-5"
         width="4"
         height="4"
         x="40.720833"
         y="22.5" /><rect
         style="fill:#a7e287;fill-opacity:1;stroke:none;stroke-width:0.600001;stroke-linecap:round"
         id="rect7-8-3-1-8-4-8"
         width="4"
         height="4"
         x="45.990814"
         y="22.5" /><rect
         style="fill:#f8df3a;fill-opacity:1;stroke:none;stroke-width:0.600001;stroke-linecap:round"
         id="rect7-8-3-1-8-4-9-83"
         width="4"
         height="4"
         x="50.990814"
         y="22.5" /><rect
         style="fill:#fcb620;fill-opacity:1;stroke:none;stroke-width:0.600001;stroke-linecap:round"
         id="rect7-8-3-1-8-4-9-8-1"
         width="4"
         height="4"
         x="55.990814"
         y="22.5" /><rect
         style="fill:#7accc3;fill-opacity:1;stroke:none;stroke-width:0.600001;stroke-linecap:round"
         id="rect7-3"
         width="4"
         height="4"
         x="25.720833"
         y="27.5" /><rect
         style="fill:#93dbb1;fill-opacity:1;stroke:none;stroke-width:0.600001;stroke-linecap:round"
         id="rect7-8-33"
         width="4"
         height="4"
         x="30.720833"
         y="27.5" /><rect
         style="fill:#a8e0a4;fill-opacity:1;stroke:none;stroke-width:0.600001;stroke-linecap:round"
         id="rect7-8-3-8"
         width="4"
         height="4"
         x="35.720833"
         y="27.5" /><rect
         style="fill:#b2e49f;fill-opacity:1;stroke:none;stroke-width:0.600001;stroke-linecap:round"
         id="rect7-8-3-1-6"
         width="4"
         height="4"
         x="40.720833"
         y="27.5" /><rect
         style="fill:#ace296;fill-opacity:1;stroke:none;stroke-width:0.600001;stroke-linecap:round"
         id="rect7-8-3-1-8-4-4"
         width="4"
         height="4"
         x="45.990814"
         y="27.5" /><rect
         style="fill:#ade288;fill-opacity:1;stroke:none;stroke-width:0.600001;stroke-linecap:round"
         id="rect7-8-3-1-8-4-9-88"
         width="4"
         height="4"
         x="50.990814"
         y="27.5" /><rect
         style="fill:#b6da4e;fill-opacity:1;stroke:none;stroke-width:0.600001;stroke-linecap:round"
         id="rect7-8-3-1-8-4-9-8-8"
         width="4"
         height="4"
         x="55.990814"
         y="27.5" /><rect
         style="fill:#65c9d5;fill-opacity:1;stroke:none;stroke-width:0.600001;stroke-linecap:round"
         id="rect7-85-6"
         width="4"
         height="4"
         x="25.720833"
         y="32.5" /><rect
         style="fill:#8bdab4;fill-opacity:1;stroke:none;stroke-width:0.600001;stroke-linecap:round"
         id="rect7-8-9-2"
         width="4"
         height="4"
         x="30.720833"
         y="32.5" /><rect
         style="fill:#aae2a2;fill-opacity:1;stroke:none;stroke-width:0.600001;stroke-linecap:round"
         id="rect7-8-3-7-8"
         width="4"
         height="4"
         x="35.720833"
         y="32.5" /><rect
         style="fill:#b1e398;fill-opacity:1;stroke:none;stroke-width:0.600001;stroke-linecap:round"
         id="rect7-8-3-1-5-4"
         width="4"
         height="4"
         x="40.720833"
         y="32.5" /><rect
         style="fill:#b1e38a;fill-opacity:1;stroke:none;stroke-width:0.600001;stroke-linecap:round"
         id="rect7-8-3-1-8-4-8-2"
         width="4"
         height="4"
         x="45.990814"
         y="32.5" /><rect
         style="fill:#c7e57c;fill-opacity:1;stroke:none;stroke-width:0.600001;stroke-linecap:round"
         id="rect7-8-3-1-8-4-9-83-4"
         width="4"
         height="4"
         x="50.990814"
         y="32.5" /><rect
         style="fill:#fec338;fill-opacity:1;stroke:none;stroke-width:0.600001;stroke-linecap:round"
         id="rect7-8-3-1-8-4-9-8-1-0"
         width="4"
         height="4"
         x="55.990814"
         y="32.5" /><rect
         style="fill:#2f94cd;fill-opacity:1;stroke:none;stroke-width:0.600001;stroke-linecap:round"
         id="rect7-3-6"
         width="4"
         height="4"
         x="25.720833"
         y="37.5" /><rect
         style="fill:#46c3bd;fill-opacity:1;stroke:none;stroke-width:0.600001;stroke-linecap:round"
         id="rect7-8-33-2"
         width="4"
         height="4"
         x="30.720833"
         y="37.5" /><rect
         style="fill:#81d591;fill-opacity:1;stroke:none;stroke-width:0.600001;stroke-linecap:round"
         id="rect7-8-3-8-9"
         width="4"
         height="4"
         x="35.720833"
         y="37.5" /><rect
         style="fill:#99dd72;fill-opacity:1;stroke:none;stroke-width:0.600001;stroke-linecap:round"
         id="rect7-8-3-1-6-9"
         width="4"
         height="4"
         x="40.720833"
         y="37.5" /><rect
         style="fill:#bbde58;fill-opacity:1;stroke:none;stroke-width:0.600001;stroke-linecap:round"
         id="rect7-8-3-1-8-4-4-8"
         width="4"
         height="4"
         x="45.990814"
         y="37.5" /><rect
         style="fill:#fdc829;fill-opacity:1;stroke:none;stroke-width:0.600001;stroke-linecap:round"
         id="rect7-8-3-1-8-4-9-88-1"
         width="4"
         height="4"
         x="50.990814"
         y="37.5" /><rect
         style="fill:#fd8b30;fill-opacity:1;stroke:none;stroke-width:0.600001;stroke-linecap:round"
         id="rect7-8-3-1-8-4-9-8-8-3"
         width="4"
         height="4"
         x="55.990814"
         y="37.5" /><rect
         style="fill:#336eb3;fill-opacity:1;stroke:none;stroke-width:0.600001;stroke-linecap:round"
         id="rect7-85-9-1"
         width="4"
         height="4"
         x="25.720833"
         y="42.5" /><rect
         style="fill:#0aacbd;fill-opacity:1;stroke:none;stroke-width:0.600001;stroke-linecap:round"
         id="rect7-8-9-7-1"
         width="4"
         height="4"
         x="30.720833"
         y="42.5" /><rect
         style="fill:#2db999;fill-opacity:1;stroke:none;stroke-width:0.600001;stroke-linecap:round"
         id="rect7-8-3-7-7-0"
         width="4"
         height="4"
         x="35.720833"
         y="42.5" /><rect
         style="fill:#7eca5a;fill-opacity:1;stroke:none;stroke-width:0.600001;stroke-linecap:round"
         id="rect7-8-3-1-5-6-3"
         width="4"
         height="4"
         x="40.720833"
         y="42.5" /><rect
         style="fill:#e5ce22;fill-opacity:1;stroke:none;stroke-width:0.600001;stroke-linecap:round"
         id="rect7-8-3-1-8-4-8-3-0"
         width="4"
         height="4"
         x="45.990814"
         y="42.5" /><rect
         style="fill:#fd9325;fill-opacity:1;stroke:none;stroke-width:0.600001;stroke-linecap:round"
         id="rect7-8-3-1-8-4-9-83-0-3"
         width="4"
         height="4"
         x="50.990814"
         y="42.5" /><rect
         style="fill:#ea335f;fill-opacity:1;stroke:none;stroke-width:0.600001;stroke-linecap:round"
         id="rect7-8-3-1-8-4-9-8-1-3-9"
         width="4"
         height="4"
         x="55.990814"
         y="42.5" /><rect
         style="fill:#624996;fill-opacity:1;stroke:none;stroke-width:0.600001;stroke-linecap:round"
         id="rect6"
         width="4"
         height="4"
         x="25.720833"
         y="12.5" /><rect
         style="fill:#2b82c0;fill-opacity:1;stroke:none;stroke-width:0.600001;stroke-linecap:round"
         id="rect6-0"
         width="4"
         height="4"
         x="30.720833"
         y="12.5" /><rect
         style="fill:#25bed5;fill-opacity:1;stroke:none;stroke-width:0.600001;stroke-linecap:round"
         id="rect6-0-4"
         width="4"
         height="4"
         x="35.720833"
         y="12.5" /><rect
         style="fill:#2ab9a0;fill-opacity:1;stroke:none;stroke-width:0.600001;stroke-linecap:round"
         id="rect6-0-4-7"
         width="4"
         height="4"
         x="40.720833"
         y="12.5" /><rect
         style="fill:#78c352;fill-opacity:1;stroke:none;stroke-width:0.600001;stroke-linecap:round"
         id="rect6-0-4-7-9-3"
         width="4"
         height="4"
         x="45.990814"
         y="12.5" /><rect
         style="fill:#faa615;fill-opacity:1;stroke:none;stroke-width:0.600001;stroke-linecap:round"
         id="rect6-0-4-7-9-3-9"
         width="4"
         height="4"
         x="50.990814"
         y="12.5" /><rect
         style="fill:#ee4a40;fill-opacity:1;stroke:none;stroke-width:0.600001;stroke-linecap:round"
         id="rect6-0-4-7-9-3-9-9"
         width="4"
         height="4"
         x="55.990814"
         y="12.5" /><path
         style="fill:#b3b3b3;fill-opacity:1;stroke:#000000;stroke-width:0.460978;stroke-linecap:butt;stroke-linejoin:bevel;stroke-dasharray:none;stroke-opacity:1"
         d="m 63.720834,12.499999 v 34"
         id="path7" /><path
         d="m 283.80931,162.25647 -8.064,8.192 c 5.12,6.656 14.08,13.056 26.368,13.056 12.8,0 20.992,-7.296 20.992,-18.432 0,-10.624 -8.192,-14.592 -18.048,-18.56 -7.168,-2.816 -12.8,-4.864 -12.8,-9.216 0,-3.328 2.944,-4.992 6.912,-4.992 5.76,0 11.52,3.328 15.36,7.808 l 7.68,-8.192 c -4.864,-5.888 -13.184,-10.368 -22.784,-10.368 -10.88,0 -20.224,5.376 -20.224,16 0,10.624 8.704,15.104 16.768,17.92 7.808,2.816 13.184,5.12 13.184,10.368 0,3.84 -2.944,6.272 -7.936,6.272 -6.016,0 -11.648,-3.456 -17.408,-9.856 z m 77.18397,20.736 c 13.568,0 23.296,-5.248 29.568,-16 l -12.032,-4.736 c -3.712,6.272 -9.344,9.344 -16.896,9.344 -9.6,0 -15.616,-5.76 -16.512,-16.128 h 45.824 c 0,-0.64 0.128,-2.304 0.128,-3.84 0,-18.816 -10.88,-30.08 -29.44,-30.08 -18.688,0 -30.72,12.16 -30.72,30.72 0,18.432 11.904,30.72 30.08,30.72 z m 0.512,-50.944 c 8.32,0 13.824,5.504 14.464,13.824 h -30.464 c 1.664,-8.96 7.168,-13.696 16,-13.824 z m 52.09594,20.224 c 0,-10.88 7.936,-18.816 18.304,-18.816 8.192,0 16.256,4.224 19.2,9.984 v -15.36 c -4.096,-3.968 -11.392,-6.528 -19.84,-6.528 -18.176,0 -31.872,12.544 -31.872,30.72 0,18.048 13.696,30.72 31.872,30.72 8.448,0 15.744,-2.432 19.84,-6.656 v -15.232 c -2.944,5.632 -10.624,9.984 -19.2,9.984 -10.368,0 -18.304,-7.68 -18.304,-18.816 z m 48.25591,0 c 0,18.048 13.696,30.72 31.744,30.72 18.048,0 31.744,-12.672 31.744,-30.72 0,-18.176 -13.696,-30.72 -31.744,-30.72 -18.048,0 -31.744,12.544 -31.744,30.72 z m 14.208,0 c 0,-11.008 7.552,-18.56 17.536,-18.56 9.856,0 17.536,7.552 17.536,18.56 0,11.008 -7.68,18.56 -17.536,18.56 -9.984,0 -17.536,-7.552 -17.536,-18.56 z"
         id="text1-5"
         style="font-weight:500;font-size:128px;line-height:1.05;font-family:'Jost*';-inkscape-font-specification:'Jost* Medium';text-align:center;white-space:pre;fill:#1e1e1e;stroke-width:4.62992"
         transform="matrix(0.26882345,0,0,0.26882345,-7.405985,-2.8303053)"
         aria-label="seco" /><path
         style="font-weight:600;font-size:64px;line-height:1.05;font-family:'Jost*';-inkscape-font-specification:'Jost* Semi-Bold';text-align:center;white-space:pre;fill:#8c8b86;stroke-width:4.62992"
         d="m 393.7612,113.90547 c 0,-7.168 -2.752,-11.264 -9.344,-11.264 -4.032,0 -7.168,1.792 -9.28,5.056 -1.28,-3.328 -4.032,-5.056 -8.448,-5.056 -3.968,0 -6.72,1.792 -8.448,4.992 v -4.352 h -8 v 29.44 h 8 v -17.92 c 0,-3.904 2.048,-6.016 5.12,-6.016 3.008,0 4.352,1.984 4.352,6.016 v 17.92 h 8.256 v -17.92 c 0,-3.904 2.048,-6.016 5.12,-6.016 3.072,0 4.352,1.984 4.352,6.016 v 17.92 h 8.32 z m 8.19204,-31.103999 v 49.919999 h 8.32 V 82.801471 Z m 33.27996,29.119999 3.776,-7.04 c -1.216,-1.472 -3.264,-2.304 -5.376,-2.304 -2.624,0 -5.248,1.664 -7.04,4.288 v -3.584 h -8.128 v 29.44 h 8.128 v -15.616 c 0,-4.224 1.664,-6.784 4.8,-6.784 1.664,0 2.688,0.576 3.84,1.6 z m 8.19196,-29.119999 v 49.919999 h 8.32 V 82.801471 Z"
         id="text1"
         transform="matrix(0.26458333,0,0,0.26458333,-25.947135,-9.4078786)"
         aria-label="mlrl" /></g></g></svg>
