<?xml version="1.0" encoding="UTF-8" standalone="no"?>
<!-- Created with Inkscape (http://www.inkscape.org/) -->

<svg
   width="220mm"
   height="62.166664mm"
   viewBox="0 0 220 62.166664"
   version="1.1"
   id="svg5"
   xmlns="http://www.w3.org/2000/svg"
   xmlns:svg="http://www.w3.org/2000/svg">
  <defs
     id="defs2">
    <rect
       x="370"
       y="160"
       width="70"
       height="60"
       id="rect32155" />
    <rect
       x="20"
       y="170"
       width="240"
       height="50"
       id="rect9477" />
  </defs>
  <g
     id="g1"
     transform="translate(13.473433)">
    <g
       id="layer1"
       transform="translate(6.6458333,-3.3125)">
      <rect
         style="fill:#e5e5e5;fill-opacity:1;stroke:#006d93;stroke-width:1.25;stroke-linejoin:round;stroke-opacity:0.5"
         id="rect66020"
         width="158.75"
         height="21.166666"
         x="0"
         y="39.6875" />
      <rect
         style="fill:#e5e5e5;fill-opacity:1;stroke:#006d93;stroke-width:1.25;stroke-linejoin:round;stroke-opacity:0.5"
         id="rect65836"
         width="158.75"
         height="21.166666"
         x="0"
         y="7.9375" />
      <path
         id="rect1978"
         style="fill:#afe2f5;fill-opacity:1;stroke:#006d93;stroke-width:1.37743;stroke-linejoin:round;stroke-opacity:0.5"
         d="M 2.6458333,42.333332 H 47.625001 V 58.208333 H 2.6458333 Z" />
      <path
         id="rect1978-3"
         style="fill:#fac2d2;fill-opacity:1;stroke:#006d93;stroke-width:1.37743;stroke-linejoin:round;stroke-opacity:0.5"
         d="M 50.270833,42.333333 H 95.250001 V 58.208334 H 50.270833 Z" />
      <g
         aria-label="libmlrlcommon"
         transform="matrix(0.26458333,0,0,0.26458333,0,2.2405893)"
         id="text9475"
         style="font-size:24px;line-height:1.25;font-family:'Jost*';-inkscape-font-specification:'Jost*';letter-spacing:0px;word-spacing:0px;white-space:pre;shape-inside:url(#rect9477)">
        <path
           d="m 21.8,172.05163 v 18.72 h 1.92 v -18.72 z"
           style="font-size:24px;line-height:1.25;font-family:'Jost*';-inkscape-font-specification:'Jost*';letter-spacing:0px;word-spacing:0px;white-space:pre;shape-inside:url(#rect9477)"
           id="path18114" />
        <path
           d="m 27.319989,175.17163 c 0,0.72 0.6,1.32 1.32,1.32 0.72,0 1.32,-0.6 1.32,-1.32 0,-0.72 -0.6,-1.32 -1.32,-1.32 -0.72,0 -1.32,0.6 -1.32,1.32 z m 0.36,4.56 v 11.04 h 1.92 v -11.04 z"
           style="font-size:24px;line-height:1.25;font-family:'Jost*';-inkscape-font-specification:'Jost*';letter-spacing:0px;word-spacing:0px;white-space:pre;shape-inside:url(#rect9477)"
           id="path18116" />
        <path
           d="m 44.599949,185.25163 c 0,-3.576 -2.472,-5.76 -5.472,-5.76 -1.632,0 -2.952,0.768 -3.768,2.136 v -9.576 h -1.92 v 18.72 h 1.92 v -1.896 c 0.816,1.368 2.136,2.136 3.768,2.136 3,0 5.472,-2.184 5.472,-5.76 z m -1.944,0 c 0,2.544 -1.728,3.96 -3.768,3.96 -1.68,0 -3.528,-1.416 -3.528,-3.96 0,-2.544 1.848,-3.96 3.528,-3.96 2.04,0 3.768,1.416 3.768,3.96 z"
           style="font-size:24px;line-height:1.25;font-family:'Jost*';-inkscape-font-specification:'Jost*';letter-spacing:0px;word-spacing:0px;white-space:pre;shape-inside:url(#rect9477)"
           id="path18118" />
        <path
           d="m 62.359941,183.81163 c 0,-2.736 -1.296,-4.32 -3.552,-4.32 -1.488,0 -2.64,0.696 -3.408,2.064 -0.504,-1.32 -1.656,-2.064 -3.192,-2.064 -1.368,0 -2.376,0.6 -3.048,1.848 v -1.608 h -1.92 v 11.04 h 1.92 v -6.72 c 0,-1.728 0.984,-2.76 2.568,-2.76 1.44,0 2.112,0.864 2.112,2.76 v 6.72 h 1.92 v -6.72 c 0,-1.728 0.984,-2.76 2.568,-2.76 1.44,0 2.112,0.864 2.112,2.76 v 6.72 h 1.92 z"
           style="font-size:24px;line-height:1.25;font-family:'Jost*';-inkscape-font-specification:'Jost*';letter-spacing:0px;word-spacing:0px;white-space:pre;shape-inside:url(#rect9477)"
           id="path18120" />
        <path
           d="m 65.959912,172.05163 v 18.72 h 1.92 v -18.72 z"
           style="font-size:24px;line-height:1.25;font-family:'Jost*';-inkscape-font-specification:'Jost*';letter-spacing:0px;word-spacing:0px;white-space:pre;shape-inside:url(#rect9477)"
           id="path18122" />
        <path
           d="m 76.735901,181.84363 1.056,-1.584 c -0.576,-0.6 -1.272,-0.768 -2.064,-0.768 -0.84,0 -1.704,0.576 -2.328,1.512 v -1.272 h -1.92 v 11.04 h 1.92 v -6.72 c 0,-1.584 0.408,-2.76 1.848,-2.76 0.624,0 0.96,0.168 1.488,0.552 z"
           style="font-size:24px;line-height:1.25;font-family:'Jost*';-inkscape-font-specification:'Jost*';letter-spacing:0px;word-spacing:0px;white-space:pre;shape-inside:url(#rect9477)"
           id="path18124" />
        <path
           d="m 79.711865,172.05163 v 18.72 h 1.92 v -18.72 z"
           style="font-size:24px;line-height:1.25;font-family:'Jost*';-inkscape-font-specification:'Jost*';letter-spacing:0px;word-spacing:0px;white-space:pre;shape-inside:url(#rect9477)"
           id="path18126" />
        <path
           d="m 86.095854,185.25163 c 0,-2.304 1.608,-3.96 3.768,-3.96 1.776,0 3.336,0.936 3.84,2.016 v -2.4 c -0.768,-0.888 -2.328,-1.416 -3.84,-1.416 -3.24,0 -5.712,2.424 -5.712,5.76 0,3.336 2.472,5.76 5.712,5.76 1.512,0 3.072,-0.504 3.84,-1.416 v -2.4 c -0.504,1.08 -2.064,2.016 -3.84,2.016 -2.16,0 -3.768,-1.656 -3.768,-3.96 z"
           style="font-size:24px;line-height:1.25;font-family:'Jost*';-inkscape-font-specification:'Jost*';letter-spacing:0px;word-spacing:0px;white-space:pre;shape-inside:url(#rect9477)"
           id="path18128" />
        <path
           d="m 95.743824,185.25163 c 0,3.336 2.472,5.76 5.711996,5.76 3.24,0 5.712,-2.424 5.712,-5.76 0,-3.336 -2.472,-5.76 -5.712,-5.76 -3.239996,0 -5.711996,2.424 -5.711996,5.76 z m 1.944,0 c 0,-2.304 1.608,-3.96 3.767996,-3.96 2.16,0 3.768,1.656 3.768,3.96 0,2.304 -1.608,3.96 -3.768,3.96 -2.159996,0 -3.767996,-1.656 -3.767996,-3.96 z"
           style="font-size:24px;line-height:1.25;font-family:'Jost*';-inkscape-font-specification:'Jost*';letter-spacing:0px;word-spacing:0px;white-space:pre;shape-inside:url(#rect9477)"
           id="path18130" />
        <path
           d="m 124.92781,183.81163 c 0,-2.736 -1.296,-4.32 -3.552,-4.32 -1.488,0 -2.64,0.696 -3.408,2.064 -0.504,-1.32 -1.656,-2.064 -3.192,-2.064 -1.368,0 -2.376,0.6 -3.048,1.848 v -1.608 h -1.92 v 11.04 h 1.92 v -6.72 c 0,-1.728 0.984,-2.76 2.568,-2.76 1.44,0 2.112,0.864 2.112,2.76 v 6.72 h 1.92 v -6.72 c 0,-1.728 0.984,-2.76 2.568,-2.76 1.44,0 2.112,0.864 2.112,2.76 v 6.72 h 1.92 z"
           style="font-size:24px;line-height:1.25;font-family:'Jost*';-inkscape-font-specification:'Jost*';letter-spacing:0px;word-spacing:0px;white-space:pre;shape-inside:url(#rect9477)"
           id="path18132" />
        <path
           d="m 143.64778,183.81163 c 0,-2.736 -1.296,-4.32 -3.552,-4.32 -1.488,0 -2.64,0.696 -3.408,2.064 -0.504,-1.32 -1.656,-2.064 -3.192,-2.064 -1.368,0 -2.376,0.6 -3.048,1.848 v -1.608 h -1.92 v 11.04 h 1.92 v -6.72 c 0,-1.728 0.984,-2.76 2.568,-2.76 1.44,0 2.112,0.864 2.112,2.76 v 6.72 h 1.92 v -6.72 c 0,-1.728 0.984,-2.76 2.568,-2.76 1.44,0 2.112,0.864 2.112,2.76 v 6.72 h 1.92 z"
           style="font-size:24px;line-height:1.25;font-family:'Jost*';-inkscape-font-specification:'Jost*';letter-spacing:0px;word-spacing:0px;white-space:pre;shape-inside:url(#rect9477)"
           id="path18134" />
        <path
           d="m 146.28775,185.25163 c 0,3.336 2.472,5.76 5.712,5.76 3.24,0 5.712,-2.424 5.712,-5.76 0,-3.336 -2.472,-5.76 -5.712,-5.76 -3.24,0 -5.712,2.424 -5.712,5.76 z m 1.944,0 c 0,-2.304 1.608,-3.96 3.768,-3.96 2.16,0 3.768,1.656 3.768,3.96 0,2.304 -1.608,3.96 -3.768,3.96 -2.16,0 -3.768,-1.656 -3.768,-3.96 z"
           style="font-size:24px;line-height:1.25;font-family:'Jost*';-inkscape-font-specification:'Jost*';letter-spacing:0px;word-spacing:0px;white-space:pre;shape-inside:url(#rect9477)"
           id="path18136" />
        <path
           d="m 167.43174,184.05163 v 6.72 h 1.92 v -6.96 c 0,-2.664 -1.464,-4.32 -3.792,-4.32 -1.44,0 -2.544,0.624 -3.288,1.968 v -1.728 h -1.92 v 11.04 h 1.92 v -6.72 c 0,-1.632 1.128,-2.76 2.808,-2.76 1.536,0 2.352,0.936 2.352,2.76 z"
           style="font-size:24px;line-height:1.25;font-family:'Jost*';-inkscape-font-specification:'Jost*';letter-spacing:0px;word-spacing:0px;white-space:pre;shape-inside:url(#rect9477)"
           id="path18138" />
      </g>
      <g
         aria-label="libmlrlcommon"
         transform="matrix(0.26458333,0,0,0.26458333,48.473855,5.6484229)"
         id="text9475-6"
         style="font-size:24px;line-height:1.25;font-family:'Jost*';-inkscape-font-specification:'Jost*';letter-spacing:0px;word-spacing:0px;white-space:pre;shape-inside:url(#rect9477)">
        <path
           d="m 17.89585,156.53163 h 1.92 v 18.72 h -1.92 z m 5.519989,3.12 q 0,-0.552 0.384,-0.936 0.408,-0.384 0.936,-0.384 0.552,0 0.936,0.384 0.384,0.384 0.384,0.936 0,0.528 -0.384,0.936 -0.384,0.384 -0.936,0.384 -0.528,0 -0.936,-0.384 -0.384,-0.408 -0.384,-0.936 z m 0.36,4.56 h 1.92 v 11.04 h -1.92 z m 16.920005,5.52 q 0,1.776 -0.744,3.072 -0.744,1.296 -1.992,1.992 -1.224,0.696 -2.736,0.696 -1.224,0 -2.208,-0.552 -0.96,-0.552 -1.56,-1.584 v 1.896 h -1.92 v -18.72 h 1.92 v 9.576 q 0.6,-1.032 1.56,-1.584 0.984,-0.552 2.208,-0.552 1.512,0 2.736,0.696 1.248,0.696 1.992,1.992 0.744,1.272 0.744,3.072 z m -1.944,0 q 0,-1.272 -0.528,-2.16 -0.504,-0.888 -1.368,-1.344 -0.84,-0.456 -1.872,-0.456 -0.84,0 -1.656,0.456 -0.816,0.456 -1.344,1.344 -0.528,0.888 -0.528,2.16 0,1.272 0.528,2.16 0.528,0.888 1.344,1.344 0.816,0.456 1.656,0.456 1.032,0 1.872,-0.456 0.864,-0.456 1.368,-1.344 0.528,-0.888 0.528,-2.16 z m 19.703993,-1.44 v 6.96 h -1.92 v -6.72 q 0,-1.416 -0.528,-2.088 -0.504,-0.672 -1.584,-0.672 -1.176,0 -1.872,0.744 -0.696,0.72 -0.696,2.016 v 6.72 h -1.92 v -6.72 q 0,-1.416 -0.528,-2.088 -0.504,-0.672 -1.584,-0.672 -1.176,0 -1.872,0.744 -0.696,0.72 -0.696,2.016 v 6.72 h -1.92 v -11.04 h 1.92 v 1.608 q 0.984,-1.848 3.048,-1.848 1.152,0 1.968,0.552 0.84,0.528 1.224,1.512 1.152,-2.064 3.408,-2.064 1.704,0 2.616,1.128 0.936,1.128 0.936,3.192 z m 3.600017,-11.76 h 1.92 v 18.72 h -1.92 z m 10.775989,9.792 q -0.384,-0.288 -0.696,-0.408 -0.312,-0.144 -0.792,-0.144 -1.08,0 -1.464,0.792 -0.384,0.768 -0.384,1.968 v 6.72 h -1.92 v -11.04 h 1.92 v 1.272 q 0.456,-0.696 1.08,-1.104 0.624,-0.408 1.248,-0.408 0.6,0 1.104,0.168 0.528,0.144 0.96,0.6 z m 2.97601,-9.792 h 1.92 v 18.72 h -1.92 z m 16.559989,13.2 q 0,1.776 -0.744,3.072 -0.744,1.296 -1.992,1.992 -1.224,0.696 -2.736,0.696 -1.224,0 -2.208,-0.552 -0.96,-0.552 -1.56,-1.584 v 1.896 h -1.92 v -18.72 h 1.92 v 9.576 q 0.6,-1.032 1.56,-1.584 0.984,-0.552 2.208,-0.552 1.512,0 2.736,0.696 1.248,0.696 1.992,1.992 0.744,1.272 0.744,3.072 z m -1.944,0 q 0,-1.272 -0.528,-2.16 -0.504,-0.888 -1.368,-1.344 -0.84,-0.456 -1.872,-0.456 -0.84,0 -1.656,0.456 -0.816,0.456 -1.344,1.344 -0.528,0.888 -0.528,2.16 0,1.272 0.528,2.16 0.528,0.888 1.344,1.344 0.816,0.456 1.656,0.456 1.032,0 1.872,-0.456 0.864,-0.456 1.368,-1.344 0.528,-0.888 0.528,-2.16 z m 3.623992,0 q 0,-1.68 0.744,-2.976 0.768,-1.296 2.064,-2.04 1.296,-0.744 2.904,-0.744 1.631996,0 2.903996,0.744 1.296,0.744 2.04,2.04 0.768,1.296 0.768,2.976 0,1.656 -0.768,2.976 -0.744,1.296 -2.04,2.04 -1.272,0.744 -2.903996,0.744 -1.608,0 -2.904,-0.744 -1.296,-0.744 -2.064,-2.04 -0.744,-1.32 -0.744,-2.976 z m 1.944,0 q 0,1.152 0.48,2.04 0.504,0.888 1.344,1.416 0.864,0.504 1.944,0.504 1.079996,0 1.919996,-0.504 0.864,-0.528 1.344,-1.416 0.504,-0.888 0.504,-2.04 0,-1.152 -0.504,-2.04 -0.48,-0.912 -1.344,-1.416 -0.84,-0.504 -1.919996,-0.504 -1.08,0 -1.944,0.504 -0.84,0.504 -1.344,1.416 -0.48,0.888 -0.48,2.04 z m 11.159986,0 q 0,-1.68 0.744,-2.976 0.768,-1.296 2.064,-2.04 1.296,-0.744 2.904,-0.744 1.632,0 2.904,0.744 1.296,0.744 2.04,2.04 0.768,1.296 0.768,2.976 0,1.656 -0.768,2.976 -0.744,1.296 -2.04,2.04 -1.272,0.744 -2.904,0.744 -1.608,0 -2.904,-0.744 -1.296,-0.744 -2.064,-2.04 -0.744,-1.32 -0.744,-2.976 z m 1.944,0 q 0,1.152 0.48,2.04 0.504,0.888 1.344,1.416 0.864,0.504 1.944,0.504 1.08,0 1.92,-0.504 0.864,-0.528 1.344,-1.416 0.504,-0.888 0.504,-2.04 0,-1.152 -0.504,-2.04 -0.48,-0.912 -1.344,-1.416 -0.84,-0.504 -1.92,-0.504 -1.08,0 -1.944,0.504 -0.84,0.504 -1.344,1.416 -0.48,0.888 -0.48,2.04 z m 12.57599,2.136 q 0.504,0.768 1.224,1.32 0.744,0.552 1.776,0.552 0.816,0 1.272,-0.36 0.48,-0.384 0.48,-1.032 0,-0.576 -0.384,-0.96 -0.36,-0.408 -0.936,-0.672 -0.576,-0.288 -1.224,-0.528 -0.72,-0.288 -1.464,-0.672 -0.72,-0.408 -1.224,-1.032 -0.48,-0.648 -0.48,-1.608 0,-0.984 0.504,-1.632 0.528,-0.648 1.344,-0.96 0.84,-0.312 1.728,-0.312 1.32,0 2.4,0.624 1.08,0.624 1.584,1.536 l -1.536,0.984 q -0.456,-0.624 -1.152,-1.032 -0.672,-0.408 -1.536,-0.408 -0.6,0 -1.032,0.264 -0.432,0.264 -0.432,0.816 0,0.672 0.696,1.104 0.72,0.408 1.608,0.768 0.96,0.384 1.752,0.84 0.792,0.432 1.248,1.056 0.48,0.624 0.48,1.608 0,1.44 -1.056,2.4 -1.032,0.96 -2.736,0.96 -1.104,0 -1.992,-0.384 -0.888,-0.408 -1.512,-1.032 -0.6,-0.624 -0.912,-1.272 z m 7.536,-7.656 h 1.8 v -3.84 h 1.92 v 3.84 h 1.8 v 1.8 h -1.8 v 9.24 h -1.92 v -9.24 h -1.8 z m 7.43999,-4.56 q 0,-0.552 0.384,-0.936 0.408,-0.384 0.936,-0.384 0.552,0 0.936,0.384 0.384,0.384 0.384,0.936 0,0.528 -0.384,0.936 -0.384,0.384 -0.936,0.384 -0.528,0 -0.936,-0.384 -0.384,-0.408 -0.384,-0.936 z m 0.36,4.56 h 1.92 v 11.04 h -1.92 z m 12.96001,4.32 q 0,-2.76 -2.352,-2.76 -1.248,0 -2.04,0.768 -0.768,0.768 -0.768,1.992 v 6.72 h -1.92 v -11.04 h 1.92 v 1.728 q 1.08,-1.968 3.288,-1.968 1.752,0 2.76,1.176 1.032,1.152 1.032,3.144 v 6.96 h -1.92 z m 4.77599,7.44 h 1.944 q 0,0.792 0.432,1.464 0.432,0.696 1.224,1.104 0.792,0.432 1.872,0.432 0.84,0 1.656,-0.408 0.816,-0.408 1.344,-1.296 0.552,-0.864 0.552,-2.256 v -1.656 q -0.6,1.032 -1.584,1.584 -0.96,0.552 -2.184,0.552 -1.488,0 -2.736,-0.696 -1.248,-0.696 -1.992,-1.992 -0.744,-1.296 -0.744,-3.072 0,-1.8 0.744,-3.072 0.744,-1.296 1.992,-1.992 1.248,-0.696 2.736,-0.696 1.224,0 2.184,0.552 0.984,0.552 1.584,1.584 v -1.896 h 1.92 v 10.8 q 0,1.896 -0.792,3.168 -0.792,1.296 -2.04,1.944 -1.248,0.648 -2.64,0.648 -1.608,0 -2.856,-0.6 -1.224,-0.6 -1.92,-1.704 -0.696,-1.08 -0.696,-2.496 z m 1.728,-6.24 q 0,1.272 0.504,2.16 0.528,0.888 1.392,1.344 0.864,0.456 1.872,0.456 0.84,0 1.656,-0.456 0.816,-0.456 1.344,-1.344 0.528,-0.888 0.528,-2.16 0,-1.272 -0.528,-2.16 -0.528,-0.888 -1.344,-1.344 -0.816,-0.456 -1.656,-0.456 -1.008,0 -1.872,0.456 -0.864,0.456 -1.392,1.344 -0.504,0.888 -0.504,2.16 z"
           id="text27731"
           aria-label="libmlrlboosting" />
      </g>
      <path
         d="m 372.28,179.81163 q 0,-0.552 0.384,-0.936 0.408,-0.384 0.936,-0.384 0.552,0 0.936,0.384 0.384,0.384 0.384,0.936 0,0.528 -0.384,0.936 -0.384,0.384 -0.936,0.384 -0.528,0 -0.936,-0.384 -0.384,-0.408 -0.384,-0.936 z m 7.19998,0 q 0,-0.552 0.384,-0.936 0.408,-0.384 0.936,-0.384 0.552,0 0.936,0.384 0.384,0.384 0.384,0.936 0,0.528 -0.384,0.936 -0.384,0.384 -0.936,0.384 -0.528,0 -0.936,-0.384 -0.384,-0.408 -0.384,-0.936 z m 7.19998,0 q 0,-0.552 0.384,-0.936 0.408,-0.384 0.936,-0.384 0.552,0 0.936,0.384 0.384,0.384 0.384,0.936 0,0.528 -0.384,0.936 -0.384,0.384 -0.936,0.384 -0.528,0 -0.936,-0.384 -0.384,-0.408 -0.384,-0.936 z"
         id="text32153"
         style="font-size:24px;line-height:1.25;font-family:'Jost*';-inkscape-font-specification:'Jost*';letter-spacing:0px;word-spacing:0px;white-space:pre"
         transform="matrix(0.26458333,0,0,0.26458333,2.11697,2.6956746)"
         aria-label="..." />
      <path
         d="m 165.24068,50.270832 q 0,0.51435 0.2286,0.90805 0.23495,0.3937 0.6096,0.61595 0.37465,0.22225 0.8128,0.22225 0.4699,0 0.83185,-0.18415 0.36195,-0.18415 0.5969,-0.47625 v 0.7112 q -0.2794,0.24765 -0.6096,0.3683 -0.3302,0.12065 -0.81915,0.12065 -0.46355,0 -0.86995,-0.1651 -0.40005,-0.17145 -0.70485,-0.47625 -0.3048,-0.31115 -0.47625,-0.73025 -0.17145,-0.4191 -0.17145,-0.9144 0,-0.4953 0.17145,-0.9144 0.17145,-0.4191 0.47625,-0.7239 0.3048,-0.31115 0.70485,-0.47625 0.4064,-0.17145 0.86995,-0.17145 0.48895,0 0.81915,0.12065 0.3302,0.12065 0.6096,0.3683 v 0.7112 q -0.23495,-0.29845 -0.5969,-0.47625 -0.36195,-0.18415 -0.83185,-0.18415 -0.43815,0 -0.8128,0.22225 -0.37465,0.22225 -0.6096,0.61595 -0.2286,0.38735 -0.2286,0.90805 z m 3.93699,0.85725 v -0.508 h 1.27 v -1.30175 h 0.53975 v 1.30175 h 1.27 v 0.508 h -1.27 v 1.30175 h -0.53975 v -1.30175 z m 3.90525,0 v -0.508 h 1.27 v -1.30175 h 0.53975 v 1.30175 h 1.27 v 0.508 h -1.27 v 1.30175 h -0.53975 v -1.30175 z"
         id="text43158"
         style="font-size:6.35px;line-height:1.25;font-family:'Jost*';-inkscape-font-specification:'Jost*';letter-spacing:0px;word-spacing:0px;stroke-width:0.264583"
         aria-label="C++" />
      <rect
         style="fill:#afe2f5;fill-opacity:1;stroke:#006d93;stroke-width:1.25;stroke-linejoin:round;stroke-opacity:0.5"
         id="rect47384"
         width="44.979168"
         height="15.875"
         x="2.6458333"
         y="10.583334" />
      <rect
         style="fill:#a2f6de;fill-opacity:1;stroke:#006d93;stroke-width:1.25;stroke-linejoin:round;stroke-opacity:0.5"
         id="rect47384-6"
         width="44.979168"
         height="15.875"
         x="111.125"
         y="10.583333" />
      <path
         d="m 12.314797,19.124084 v 1.8415 h -0.508 v -1.778 q 0,-0.37465 -0.1397,-0.55245 -0.13335,-0.1778 -0.4191,-0.1778 -0.31115,0 -0.4953,0.19685 -0.18415,0.1905 -0.18415,0.5334 v 1.778 h -0.508 v -1.778 q 0,-0.37465 -0.1397,-0.55245 -0.13335,-0.1778 -0.4191,-0.1778 -0.31115,0 -0.4953,0.19685 -0.18415,0.1905 -0.18415,0.5334 v 1.778 h -0.508 v -2.921 h 0.508 v 0.42545 q 0.26035,-0.48895 0.80645,-0.48895 0.3048,0 0.5207,0.14605 0.22225,0.1397 0.32385,0.40005 0.3048,-0.5461 0.9017,-0.5461 0.45085,0 0.69215,0.29845 0.24765,0.29845 0.24765,0.84455 z m 0.952504,-3.1115 h 0.508 v 4.953 h -0.508 z m 2.851147,2.5908 q -0.1016,-0.0762 -0.18415,-0.10795 -0.08255,-0.0381 -0.20955,-0.0381 -0.28575,0 -0.38735,0.20955 -0.1016,0.2032 -0.1016,0.5207 v 1.778 h -0.508 v -2.921 h 0.508 v 0.33655 q 0.12065,-0.18415 0.28575,-0.2921 0.1651,-0.10795 0.3302,-0.10795 0.15875,0 0.2921,0.04445 0.1397,0.0381 0.254,0.15875 z m 0.787403,-2.5908 h 0.508 v 4.953 h -0.508 z m 1.015998,3.683 v -0.47625 h 1.27 v 0.47625 z m 2.006594,-0.1905 q 0,0.3048 0.127,0.53975 0.13335,0.23495 0.3556,0.37465 0.2286,0.13335 0.51435,0.13335 0.3556,0 0.635,-0.15875 0.2794,-0.15875 0.381,-0.37465 v 0.635 q -0.1524,0.1778 -0.43815,0.2794 -0.2794,0.09525 -0.57785,0.09525 -0.42545,0 -0.76835,-0.19685 -0.3429,-0.19685 -0.5461,-0.53975 -0.19685,-0.34925 -0.19685,-0.7874 0,-0.4445 0.19685,-0.7874 0.2032,-0.3429 0.5461,-0.53975 0.3429,-0.19685 0.76835,-0.19685 0.29845,0 0.57785,0.1016 0.28575,0.09525 0.43815,0.27305 v 0.635 q -0.1016,-0.2159 -0.381,-0.37465 -0.2794,-0.15875 -0.635,-0.15875 -0.28575,0 -0.51435,0.13335 -0.22225,0.13335 -0.3556,0.37465 -0.127,0.23495 -0.127,0.53975 z m 2.552703,0 q 0,-0.4445 0.19685,-0.7874 0.2032,-0.3429 0.5461,-0.53975 0.3429,-0.19685 0.76835,-0.19685 0.4318,0 0.76835,0.19685 0.3429,0.19685 0.53975,0.53975 0.2032,0.3429 0.2032,0.7874 0,0.43815 -0.2032,0.7874 -0.19685,0.3429 -0.53975,0.53975 -0.33655,0.19685 -0.76835,0.19685 -0.42545,0 -0.76835,-0.19685 -0.3429,-0.19685 -0.5461,-0.53975 -0.19685,-0.34925 -0.19685,-0.7874 z m 0.51435,0 q 0,0.3048 0.127,0.53975 0.13335,0.23495 0.3556,0.37465 0.2286,0.13335 0.51435,0.13335 0.28575,0 0.508,-0.13335 0.2286,-0.1397 0.3556,-0.37465 0.13335,-0.23495 0.13335,-0.53975 0,-0.3048 -0.13335,-0.53975 -0.127,-0.2413 -0.3556,-0.37465 -0.22225,-0.13335 -0.508,-0.13335 -0.28575,0 -0.51435,0.13335 -0.22225,0.13335 -0.3556,0.37465 -0.127,0.23495 -0.127,0.53975 z m 7.207248,-0.381 v 1.8415 h -0.508 v -1.778 q 0,-0.37465 -0.1397,-0.55245 -0.13335,-0.1778 -0.4191,-0.1778 -0.31115,0 -0.4953,0.19685 -0.18415,0.1905 -0.18415,0.5334 v 1.778 h -0.508 v -1.778 q 0,-0.37465 -0.1397,-0.55245 -0.13335,-0.1778 -0.4191,-0.1778 -0.31115,0 -0.4953,0.19685 -0.18415,0.1905 -0.18415,0.5334 v 1.778 h -0.508 v -2.921 h 0.508 v 0.42545 q 0.26035,-0.48895 0.80645,-0.48895 0.3048,0 0.5207,0.14605 0.22225,0.1397 0.32385,0.40005 0.3048,-0.5461 0.9017,-0.5461 0.45085,0 0.69215,0.29845 0.24765,0.29845 0.24765,0.84455 z m 4.953003,0 v 1.8415 h -0.508 v -1.778 q 0,-0.37465 -0.1397,-0.55245 -0.13335,-0.1778 -0.4191,-0.1778 -0.31115,0 -0.4953,0.19685 -0.18415,0.1905 -0.18415,0.5334 v 1.778 h -0.508 v -1.778 q 0,-0.37465 -0.1397,-0.55245 -0.13335,-0.1778 -0.4191,-0.1778 -0.31115,0 -0.4953,0.19685 -0.18415,0.1905 -0.18415,0.5334 v 1.778 h -0.508 v -2.921 h 0.508 v 0.42545 q 0.26035,-0.48895 0.80645,-0.48895 0.3048,0 0.5207,0.14605 0.22225,0.1397 0.32385,0.40005 0.3048,-0.5461 0.9017,-0.5461 0.45085,0 0.69215,0.29845 0.24765,0.29845 0.24765,0.84455 z m 0.698505,0.381 q 0,-0.4445 0.19685,-0.7874 0.2032,-0.3429 0.5461,-0.53975 0.3429,-0.19685 0.76835,-0.19685 0.4318,0 0.76835,0.19685 0.3429,0.19685 0.53975,0.53975 0.2032,0.3429 0.2032,0.7874 0,0.43815 -0.2032,0.7874 -0.19685,0.3429 -0.53975,0.53975 -0.33655,0.19685 -0.76835,0.19685 -0.42545,0 -0.76835,-0.19685 -0.3429,-0.19685 -0.5461,-0.53975 -0.19685,-0.34925 -0.19685,-0.7874 z m 0.51435,0 q 0,0.3048 0.127,0.53975 0.13335,0.23495 0.3556,0.37465 0.2286,0.13335 0.51435,0.13335 0.28575,0 0.508,-0.13335 0.2286,-0.1397 0.3556,-0.37465 0.13335,-0.23495 0.13335,-0.53975 0,-0.3048 -0.13335,-0.53975 -0.127,-0.2413 -0.3556,-0.37465 -0.22225,-0.13335 -0.508,-0.13335 -0.28575,0 -0.51435,0.13335 -0.22225,0.13335 -0.3556,0.37465 -0.127,0.23495 -0.127,0.53975 z m 5.079996,-0.3175 q 0,-0.73025 -0.6223,-0.73025 -0.3302,0 -0.53975,0.2032 -0.2032,0.2032 -0.2032,0.52705 v 1.778 h -0.508 v -2.921 h 0.508 v 0.4572 q 0.28575,-0.5207 0.86995,-0.5207 0.46355,0 0.73025,0.31115 0.27305,0.3048 0.27305,0.83185 v 1.8415 h -0.508 z"
         id="text49126"
         style="font-size:6.35px;line-height:1.25;font-family:'Jost*';-inkscape-font-specification:'Jost*';letter-spacing:0px;word-spacing:0px;stroke-width:0.264583"
         aria-label="mlrl-common" />
      <rect
         style="fill:#fac2d2;fill-opacity:1;stroke:#006d93;stroke-width:1.25;stroke-linejoin:round;stroke-opacity:0.5"
         id="rect54730"
         width="44.979168"
         height="15.875"
         x="50.270832"
         y="10.583334" />
      <path
         d="m 60.844666,19.124084 v 1.8415 h -0.508 v -1.778 q 0,-0.37465 -0.1397,-0.55245 -0.13335,-0.1778 -0.4191,-0.1778 -0.31115,0 -0.4953,0.19685 -0.18415,0.1905 -0.18415,0.5334 v 1.778 h -0.508 v -1.778 q 0,-0.37465 -0.1397,-0.55245 -0.13335,-0.1778 -0.4191,-0.1778 -0.31115,0 -0.4953,0.19685 -0.18415,0.1905 -0.18415,0.5334 v 1.778 h -0.508 v -2.921 h 0.508 v 0.42545 q 0.26035,-0.48895 0.80645,-0.48895 0.3048,0 0.5207,0.14605 0.22225,0.1397 0.32385,0.40005 0.3048,-0.5461 0.9017,-0.5461 0.45085,0 0.69215,0.29845 0.24765,0.29845 0.24765,0.84455 z m 0.952504,-3.1115 h 0.508 v 4.953 h -0.508 z m 2.851147,2.5908 q -0.1016,-0.0762 -0.18415,-0.10795 -0.08255,-0.0381 -0.20955,-0.0381 -0.28575,0 -0.38735,0.20955 -0.1016,0.2032 -0.1016,0.5207 v 1.778 h -0.508 v -2.921 h 0.508 v 0.33655 q 0.12065,-0.18415 0.28575,-0.2921 0.1651,-0.10795 0.3302,-0.10795 0.15875,0 0.2921,0.04445 0.1397,0.0381 0.254,0.15875 z m 0.787403,-2.5908 h 0.508 v 4.953 h -0.508 z m 1.015998,3.683 v -0.47625 h 1.27 v 0.47625 z m 4.698994,-0.1905 q 0,0.4699 -0.19685,0.8128 -0.19685,0.3429 -0.52705,0.52705 -0.32385,0.18415 -0.7239,0.18415 -0.32385,0 -0.5842,-0.14605 -0.254,-0.14605 -0.41275,-0.4191 v 0.50165 h -0.508 v -4.953 h 0.508 v 2.53365 q 0.15875,-0.27305 0.41275,-0.4191 0.26035,-0.14605 0.5842,-0.14605 0.40005,0 0.7239,0.18415 0.3302,0.18415 0.52705,0.52705 0.19685,0.33655 0.19685,0.8128 z m -0.51435,0 q 0,-0.33655 -0.1397,-0.5715 -0.13335,-0.23495 -0.36195,-0.3556 -0.22225,-0.12065 -0.4953,-0.12065 -0.22225,0 -0.43815,0.12065 -0.2159,0.12065 -0.3556,0.3556 -0.1397,0.23495 -0.1397,0.5715 0,0.33655 0.1397,0.5715 0.1397,0.23495 0.3556,0.3556 0.2159,0.12065 0.43815,0.12065 0.27305,0 0.4953,-0.12065 0.2286,-0.12065 0.36195,-0.3556 0.1397,-0.23495 0.1397,-0.5715 z m 0.958847,0 q 0,-0.4445 0.19685,-0.7874 0.2032,-0.3429 0.5461,-0.53975 0.3429,-0.19685 0.76835,-0.19685 0.4318,0 0.76835,0.19685 0.3429,0.19685 0.53975,0.53975 0.2032,0.3429 0.2032,0.7874 0,0.43815 -0.2032,0.7874 -0.19685,0.3429 -0.53975,0.53975 -0.33655,0.19685 -0.76835,0.19685 -0.42545,0 -0.76835,-0.19685 -0.3429,-0.19685 -0.5461,-0.53975 -0.19685,-0.34925 -0.19685,-0.7874 z m 0.51435,0 q 0,0.3048 0.127,0.53975 0.13335,0.23495 0.3556,0.37465 0.2286,0.13335 0.51435,0.13335 0.28575,0 0.508,-0.13335 0.2286,-0.1397 0.3556,-0.37465 0.13335,-0.23495 0.13335,-0.53975 0,-0.3048 -0.13335,-0.53975 -0.127,-0.2413 -0.3556,-0.37465 -0.22225,-0.13335 -0.508,-0.13335 -0.28575,0 -0.51435,0.13335 -0.22225,0.13335 -0.3556,0.37465 -0.127,0.23495 -0.127,0.53975 z m 2.952748,0 q 0,-0.4445 0.19685,-0.7874 0.2032,-0.3429 0.5461,-0.53975 0.3429,-0.19685 0.76835,-0.19685 0.4318,0 0.76835,0.19685 0.3429,0.19685 0.53975,0.53975 0.2032,0.3429 0.2032,0.7874 0,0.43815 -0.2032,0.7874 -0.19685,0.3429 -0.53975,0.53975 -0.33655,0.19685 -0.76835,0.19685 -0.42545,0 -0.76835,-0.19685 -0.3429,-0.19685 -0.5461,-0.53975 -0.19685,-0.34925 -0.19685,-0.7874 z m 0.51435,0 q 0,0.3048 0.127,0.53975 0.13335,0.23495 0.3556,0.37465 0.2286,0.13335 0.51435,0.13335 0.28575,0 0.508,-0.13335 0.2286,-0.1397 0.3556,-0.37465 0.13335,-0.23495 0.13335,-0.53975 0,-0.3048 -0.13335,-0.53975 -0.127,-0.2413 -0.3556,-0.37465 -0.22225,-0.13335 -0.508,-0.13335 -0.28575,0 -0.51435,0.13335 -0.22225,0.13335 -0.3556,0.37465 -0.127,0.23495 -0.127,0.53975 z m 7.207247,-0.381 v 1.8415 h -0.508 v -1.778 q 0,-0.37465 -0.1397,-0.55245 -0.13335,-0.1778 -0.4191,-0.1778 -0.31115,0 -0.4953,0.19685 -0.18415,0.1905 -0.18415,0.5334 v 1.778 h -0.508 v -1.778 q 0,-0.37465 -0.1397,-0.55245 -0.13335,-0.1778 -0.4191,-0.1778 -0.31115,0 -0.4953,0.19685 -0.18415,0.1905 -0.18415,0.5334 v 1.778 h -0.508 v -2.921 h 0.508 v 0.42545 q 0.26035,-0.48895 0.80645,-0.48895 0.3048,0 0.5207,0.14605 0.22225,0.1397 0.32385,0.40005 0.3048,-0.5461 0.9017,-0.5461 0.45085,0 0.69215,0.29845 0.24765,0.29845 0.24765,0.84455 z m 2.082805,1.905 q -0.4064,0 -0.7239,-0.1905 -0.31115,-0.19685 -0.48895,-0.53975 -0.17145,-0.3429 -0.17145,-0.79375 0,-0.4572 0.1778,-0.8001 0.18415,-0.3429 0.508,-0.5334 0.3302,-0.1905 0.762,-0.1905 0.64135,0 1.009649,0.40005 0.3683,0.40005 0.3683,1.09855 0,0.04445 -0.0064,0.09525 0,0.04445 0,0.05715 h -2.298699 q 0.03175,0.43815 0.27305,0.67945 0.2413,0.2413 0.65405,0.2413 0.5969,0 0.9144,-0.52705 l 0.412749,0.26035 q -0.457199,0.74295 -1.390649,0.74295 z m 0.0635,-2.6035 q -0.37465,0 -0.6096,0.2032 -0.23495,0.19685 -0.29845,0.5715 h 1.73355 q -0.0254,-0.34925 -0.254,-0.5588 -0.22225,-0.2159 -0.5715,-0.2159 z m 3.467094,0.1778 q -0.1016,-0.0762 -0.18415,-0.10795 -0.08255,-0.0381 -0.20955,-0.0381 -0.28575,0 -0.38735,0.20955 -0.1016,0.2032 -0.1016,0.5207 v 1.778 h -0.508 v -2.921 h 0.508 v 0.33655 q 0.12065,-0.18415 0.28575,-0.2921 0.1651,-0.10795 0.3302,-0.10795 0.15875,0 0.2921,0.04445 0.1397,0.0381 0.254,0.15875 z"
         id="text56065"
         style="font-size:6.35px;line-height:1.25;font-family:'Jost*';-inkscape-font-specification:'Jost*';letter-spacing:0px;word-spacing:0px;stroke-width:0.264583"
         aria-label="mlrl-boomer" />
      <path
         d="m 122.68943,19.124084 v 1.8415 h -0.508 v -1.778 q 0,-0.37465 -0.1397,-0.55245 -0.13335,-0.1778 -0.4191,-0.1778 -0.31115,0 -0.4953,0.19685 -0.18415,0.1905 -0.18415,0.5334 v 1.778 h -0.508 v -1.778 q 0,-0.37465 -0.1397,-0.55245 -0.13335,-0.1778 -0.4191,-0.1778 -0.31115,0 -0.4953,0.19685 -0.18415,0.1905 -0.18415,0.5334 v 1.778 h -0.508 v -2.921 h 0.508 v 0.42545 q 0.26035,-0.48895 0.80645,-0.48895 0.3048,0 0.5207,0.14605 0.22225,0.1397 0.32385,0.40005 0.3048,-0.5461 0.9017,-0.5461 0.45085,0 0.69215,0.29845 0.24765,0.29845 0.24765,0.84455 z m 0.9525,-3.1115 h 0.508 v 4.953 h -0.508 z m 2.85115,2.5908 q -0.1016,-0.0762 -0.18415,-0.10795 -0.0825,-0.0381 -0.20955,-0.0381 -0.28575,0 -0.38735,0.20955 -0.1016,0.2032 -0.1016,0.5207 v 1.778 h -0.508 v -2.921 h 0.508 v 0.33655 q 0.12065,-0.18415 0.28575,-0.2921 0.1651,-0.10795 0.3302,-0.10795 0.15875,0 0.2921,0.04445 0.1397,0.0381 0.254,0.15875 z m 0.7874,-2.5908 h 0.508 v 4.953 h -0.508 z m 1.016,3.683 v -0.47625 h 1.27 v 0.47625 z m 1.33349,-1.651 h 0.47625 v -1.016 h 0.508 v 1.016 h 0.47625 v 0.47625 h -0.47625 v 2.44475 h -0.508 v -2.44475 h -0.47625 z m 3.0988,2.9845 q -0.4064,0 -0.7239,-0.1905 -0.31115,-0.19685 -0.48895,-0.53975 -0.17145,-0.3429 -0.17145,-0.79375 0,-0.4572 0.1778,-0.8001 0.18415,-0.3429 0.508,-0.5334 0.3302,-0.1905 0.762,-0.1905 0.64135,0 1.00965,0.40005 0.3683,0.40005 0.3683,1.09855 0,0.04445 -0.006,0.09525 0,0.04445 0,0.05715 h -2.2987 q 0.0317,0.43815 0.27305,0.67945 0.2413,0.2413 0.65405,0.2413 0.5969,0 0.9144,-0.52705 l 0.41275,0.26035 q -0.4572,0.74295 -1.39065,0.74295 z m 0.0635,-2.6035 q -0.37465,0 -0.6096,0.2032 -0.23495,0.19685 -0.29845,0.5715 h 1.73355 q -0.0254,-0.34925 -0.254,-0.5588 -0.22225,-0.2159 -0.5715,-0.2159 z m 2.1971,1.64465 q 0.13335,0.2032 0.32385,0.34925 0.19685,0.14605 0.4699,0.14605 0.2159,0 0.33655,-0.09525 0.127,-0.1016 0.127,-0.27305 0,-0.1524 -0.1016,-0.254 -0.0952,-0.10795 -0.24765,-0.1778 -0.1524,-0.0762 -0.32385,-0.1397 -0.1905,-0.0762 -0.38735,-0.1778 -0.1905,-0.10795 -0.32385,-0.27305 -0.127,-0.17145 -0.127,-0.42545 0,-0.26035 0.13335,-0.4318 0.1397,-0.17145 0.3556,-0.254 0.22225,-0.08255 0.4572,-0.08255 0.34925,0 0.635,0.1651 0.28575,0.1651 0.4191,0.4064 l -0.4064,0.26035 q -0.12065,-0.1651 -0.3048,-0.27305 -0.1778,-0.10795 -0.4064,-0.10795 -0.15875,0 -0.27305,0.06985 -0.1143,0.06985 -0.1143,0.2159 0,0.1778 0.18415,0.2921 0.1905,0.10795 0.42545,0.2032 0.254,0.1016 0.46355,0.22225 0.20955,0.1143 0.3302,0.2794 0.127,0.1651 0.127,0.42545 0,0.381 -0.2794,0.635 -0.27305,0.254 -0.7239,0.254 -0.2921,0 -0.52705,-0.1016 -0.23495,-0.10795 -0.40005,-0.27305 -0.15875,-0.1651 -0.2413,-0.33655 z m 1.9939,-2.02565 h 0.47625 v -1.016 h 0.508 v 1.016 h 0.47625 v 0.47625 h -0.47625 v 2.44475 h -0.508 v -2.44475 h -0.47625 z m 4.88949,1.4605 q 0,0.4699 -0.19685,0.8128 -0.19685,0.3429 -0.52705,0.52705 -0.32385,0.18415 -0.7239,0.18415 -0.32385,0 -0.5842,-0.14605 -0.254,-0.14605 -0.41275,-0.4191 v 0.50165 h -0.508 v -4.953 h 0.508 v 2.53365 q 0.15875,-0.27305 0.41275,-0.4191 0.26035,-0.14605 0.5842,-0.14605 0.40005,0 0.7239,0.18415 0.3302,0.18415 0.52705,0.52705 0.19685,0.33655 0.19685,0.8128 z m -0.51435,0 q 0,-0.33655 -0.1397,-0.5715 -0.13335,-0.23495 -0.36195,-0.3556 -0.22225,-0.12065 -0.4953,-0.12065 -0.22225,0 -0.43815,0.12065 -0.2159,0.12065 -0.3556,0.3556 -0.1397,0.23495 -0.1397,0.5715 0,0.33655 0.1397,0.5715 0.1397,0.23495 0.3556,0.3556 0.2159,0.12065 0.43815,0.12065 0.27305,0 0.4953,-0.12065 0.2286,-0.12065 0.36195,-0.3556 0.1397,-0.23495 0.1397,-0.5715 z m 2.34315,1.524 q -0.4064,0 -0.7239,-0.1905 -0.31115,-0.19685 -0.48895,-0.53975 -0.17145,-0.3429 -0.17145,-0.79375 0,-0.4572 0.1778,-0.8001 0.18415,-0.3429 0.508,-0.5334 0.3302,-0.1905 0.762,-0.1905 0.64135,0 1.00965,0.40005 0.3683,0.40005 0.3683,1.09855 0,0.04445 -0.006,0.09525 0,0.04445 0,0.05715 h -2.2987 q 0.0317,0.43815 0.27305,0.67945 0.2413,0.2413 0.65405,0.2413 0.5969,0 0.9144,-0.52705 l 0.41275,0.26035 q -0.4572,0.74295 -1.39065,0.74295 z m 0.0635,-2.6035 q -0.37465,0 -0.6096,0.2032 -0.23495,0.19685 -0.29845,0.5715 h 1.73355 q -0.0254,-0.34925 -0.254,-0.5588 -0.22225,-0.2159 -0.5715,-0.2159 z m 1.82245,1.0795 q 0,-0.47625 0.19685,-0.8128 0.19685,-0.3429 0.52705,-0.52705 0.3302,-0.18415 0.7239,-0.18415 0.32385,0 0.57785,0.14605 0.26035,0.14605 0.4191,0.4191 v -2.53365 h 0.508 v 4.953 h -0.508 v -0.50165 q -0.15875,0.27305 -0.4191,0.4191 -0.254,0.14605 -0.57785,0.14605 -0.3937,0 -0.7239,-0.18415 -0.3302,-0.18415 -0.52705,-0.52705 -0.19685,-0.3429 -0.19685,-0.8128 z m 0.51435,0 q 0,0.33655 0.13335,0.5715 0.1397,0.23495 0.3683,0.3556 0.2286,0.12065 0.4953,0.12065 0.22225,0 0.43815,-0.12065 0.2159,-0.12065 0.3556,-0.3556 0.1397,-0.23495 0.1397,-0.5715 0,-0.33655 -0.1397,-0.5715 -0.1397,-0.23495 -0.3556,-0.3556 -0.2159,-0.12065 -0.43815,-0.12065 -0.2667,0 -0.4953,0.12065 -0.2286,0.12065 -0.3683,0.3556 -0.13335,0.23495 -0.13335,0.5715 z"
         id="text62122"
         style="font-size:6.35px;line-height:1.25;font-family:'Jost*';-inkscape-font-specification:'Jost*';letter-spacing:0px;word-spacing:0px;stroke-width:0.264583"
         aria-label="mlrl-testbed" />
      <path
         d="m 164.89719,15.853834 h 1.2065 q 0.4318,0 0.76835,0.1651 0.3429,0.15875 0.53975,0.4572 0.2032,0.29845 0.2032,0.7112 0,0.4064 -0.2032,0.7112 -0.19685,0.29845 -0.53975,0.46355 -0.33655,0.15875 -0.76835,0.15875 h -0.66675 v 1.778 h -0.53975 z m 1.2065,0.508 h -0.66675 v 1.651 h 0.66675 q 0.4318,0 0.6985,-0.20955 0.27305,-0.20955 0.27305,-0.61595 0,-0.41275 -0.27305,-0.61595 -0.2667,-0.20955 -0.6985,-0.20955 z m 4.5593,1.016 -1.905,4.318 h -0.5715 l 0.8001,-1.80975 -1.1176,-2.50825 h 0.60325 l 0.81915,2.01295 0.8001,-2.01295 z m 0.0318,0 h 0.47625 v -1.016 h 0.508 v 1.016 h 0.47625 v 0.47625 H 171.679 v 2.44475 h -0.508 v -2.44475 h -0.47625 z m 3.84174,1.143 q 0,-0.73025 -0.6223,-0.73025 -0.3302,0 -0.53975,0.20955 -0.2032,0.2032 -0.2032,0.5207 v 1.778 h -0.508 v -4.953 h 0.508 v 2.49555 q 0.13335,-0.2413 0.3556,-0.381 0.2286,-0.14605 0.51435,-0.14605 0.45085,0 0.7239,0.2921 0.2794,0.28575 0.2794,0.8509 v 1.8415 h -0.508 z m 1.2065,0.3175 q 0,-0.4445 0.19685,-0.7874 0.2032,-0.3429 0.5461,-0.53975 0.3429,-0.19685 0.76835,-0.19685 0.4318,0 0.76835,0.19685 0.3429,0.19685 0.53975,0.53975 0.2032,0.3429 0.2032,0.7874 0,0.43815 -0.2032,0.7874 -0.19685,0.3429 -0.53975,0.53975 -0.33655,0.19685 -0.76835,0.19685 -0.42545,0 -0.76835,-0.19685 -0.3429,-0.19685 -0.5461,-0.53975 -0.19685,-0.34925 -0.19685,-0.7874 z m 0.51435,0 q 0,0.3048 0.127,0.53975 0.13335,0.23495 0.3556,0.37465 0.2286,0.13335 0.51435,0.13335 0.28575,0 0.508,-0.13335 0.2286,-0.1397 0.3556,-0.37465 0.13335,-0.23495 0.13335,-0.53975 0,-0.3048 -0.13335,-0.53975 -0.127,-0.2413 -0.3556,-0.37465 -0.22225,-0.13335 -0.508,-0.13335 -0.28575,0 -0.51435,0.13335 -0.22225,0.13335 -0.3556,0.37465 -0.127,0.23495 -0.127,0.53975 z m 5.08,-0.3175 q 0,-0.73025 -0.6223,-0.73025 -0.3302,0 -0.53975,0.2032 -0.2032,0.2032 -0.2032,0.52705 v 1.778 h -0.508 v -2.921 h 0.508 v 0.4572 q 0.28575,-0.5207 0.86995,-0.5207 0.46355,0 0.73025,0.31115 0.27305,0.3048 0.27305,0.83185 v 1.8415 h -0.508 z"
         id="text68758"
         style="font-size:6.35px;line-height:1.25;font-family:'Jost*';-inkscape-font-specification:'Jost*';letter-spacing:0px;word-spacing:0px;stroke-width:0.264583"
         aria-label="Python" />
      <path
         style="fill:none;stroke:#000000;stroke-width:1;stroke-linecap:round;stroke-linejoin:round;stroke-miterlimit:4;stroke-dasharray:1, 4;stroke-dashoffset:0;stroke-opacity:1"
         d="M 161.39583,34.395833 H -2.6458333"
         id="path72981" />
      <path
         d="m 164.90671,33.951332 q 0,0.51435 0.2286,0.90805 0.23495,0.3937 0.6096,0.61595 0.37465,0.22225 0.8128,0.22225 0.4699,0 0.83185,-0.18415 0.36195,-0.18415 0.5969,-0.47625 v 0.7112 q -0.2794,0.24765 -0.6096,0.3683 -0.3302,0.12065 -0.81915,0.12065 -0.46355,0 -0.86995,-0.1651 -0.40005,-0.17145 -0.70485,-0.47625 -0.3048,-0.31115 -0.47625,-0.73025 -0.17145,-0.4191 -0.17145,-0.9144 0,-0.4953 0.17145,-0.9144 0.17145,-0.4191 0.47625,-0.7239 0.3048,-0.31115 0.70485,-0.47625 0.4064,-0.17145 0.86995,-0.17145 0.48895,0 0.81915,0.12065 0.3302,0.12065 0.6096,0.3683 v 0.7112 q -0.23495,-0.29845 -0.5969,-0.47625 -0.36195,-0.18415 -0.83185,-0.18415 -0.43815,0 -0.8128,0.22225 -0.37465,0.22225 -0.6096,0.61595 -0.2286,0.38735 -0.2286,0.90805 z m 6.31824,-0.6985 -1.905,4.318 h -0.5715 l 0.8001,-1.80975 -1.1176,-2.50825 h 0.60325 l 0.81915,2.01295 0.8001,-2.01295 z m 0.0318,0 h 0.47625 v -1.016 h 0.508 v 1.016 h 0.47625 v 0.47625 h -0.47625 v 2.44475 h -0.508 v -2.44475 h -0.47625 z m 3.84175,1.143 q 0,-0.73025 -0.6223,-0.73025 -0.3302,0 -0.53975,0.20955 -0.2032,0.2032 -0.2032,0.5207 v 1.778 h -0.508 v -4.953 h 0.508 v 2.49555 q 0.13335,-0.2413 0.3556,-0.381 0.2286,-0.14605 0.51435,-0.14605 0.45085,0 0.7239,0.2921 0.2794,0.28575 0.2794,0.8509 v 1.8415 h -0.508 z m 1.20649,0.3175 q 0,-0.4445 0.19685,-0.7874 0.2032,-0.3429 0.5461,-0.53975 0.3429,-0.19685 0.76835,-0.19685 0.4318,0 0.76835,0.19685 0.3429,0.19685 0.53975,0.53975 0.2032,0.3429 0.2032,0.7874 0,0.43815 -0.2032,0.7874 -0.19685,0.3429 -0.53975,0.53975 -0.33655,0.19685 -0.76835,0.19685 -0.42545,0 -0.76835,-0.19685 -0.3429,-0.19685 -0.5461,-0.53975 -0.19685,-0.34925 -0.19685,-0.7874 z m 0.51435,0 q 0,0.3048 0.127,0.53975 0.13335,0.23495 0.3556,0.37465 0.2286,0.13335 0.51435,0.13335 0.28575,0 0.508,-0.13335 0.2286,-0.1397 0.3556,-0.37465 0.13335,-0.23495 0.13335,-0.53975 0,-0.3048 -0.13335,-0.53975 -0.127,-0.2413 -0.3556,-0.37465 -0.22225,-0.13335 -0.508,-0.13335 -0.28575,0 -0.51435,0.13335 -0.22225,0.13335 -0.3556,0.37465 -0.127,0.23495 -0.127,0.53975 z m 5.08,-0.3175 q 0,-0.73025 -0.6223,-0.73025 -0.3302,0 -0.53975,0.2032 -0.2032,0.2032 -0.2032,0.52705 v 1.778 h -0.508 v -2.921 h 0.508 v 0.4572 q 0.28575,-0.5207 0.86995,-0.5207 0.46355,0 0.73025,0.31115 0.27305,0.3048 0.27305,0.83185 v 1.8415 h -0.508 z"
         id="text86071"
         style="font-size:6.35px;line-height:1.25;font-family:'Jost*';-inkscape-font-specification:'Jost*';letter-spacing:0px;word-spacing:0px;stroke-width:0.264583"
         aria-label="Cython" />
      <path
         d="m 100.61605,18.520834 q 0,-0.14605 0.1016,-0.24765 0.10795,-0.1016 0.24765,-0.1016 0.14605,0 0.24765,0.1016 0.1016,0.1016 0.1016,0.24765 0,0.1397 -0.1016,0.24765 -0.1016,0.1016 -0.24765,0.1016 -0.1397,0 -0.24765,-0.1016 -0.1016,-0.10795 -0.1016,-0.24765 z m 1.905,0 q 0,-0.14605 0.1016,-0.24765 0.10795,-0.1016 0.24765,-0.1016 0.14605,0 0.24765,0.1016 0.1016,0.1016 0.1016,0.24765 0,0.1397 -0.1016,0.24765 -0.1016,0.1016 -0.24765,0.1016 -0.1397,0 -0.24765,-0.1016 -0.1016,-0.10795 -0.1016,-0.24765 z m 1.90499,0 q 0,-0.14605 0.1016,-0.24765 0.10795,-0.1016 0.24765,-0.1016 0.14605,0 0.24765,0.1016 0.1016,0.1016 0.1016,0.24765 0,0.1397 -0.1016,0.24765 -0.1016,0.1016 -0.24765,0.1016 -0.1397,0 -0.24765,-0.1016 -0.1016,-0.10795 -0.1016,-0.24765 z"
         id="text97092"
         style="font-size:6.35px;line-height:1.25;font-family:'Jost*';-inkscape-font-specification:'Jost*';letter-spacing:0px;word-spacing:0px;stroke-width:0.264583"
         aria-label="..." />
    </g>
  </g>
</svg>
