<?xml version="1.0" encoding="UTF-8" standalone="no"?>
<!-- Created with Inkscape (http://www.inkscape.org/) -->

<svg
   width="220mm"
   height="86mm"
   viewBox="0 0 220 86"
   version="1.1"
   id="svg5"
   sodipodi:docname="project_structure_light.svg"
   inkscape:version="1.4 (e7c3feb100, 2024-10-09)"
   xmlns:inkscape="http://www.inkscape.org/namespaces/inkscape"
   xmlns:sodipodi="http://sodipodi.sourceforge.net/DTD/sodipodi-0.dtd"
   xmlns="http://www.w3.org/2000/svg"
   xmlns:svg="http://www.w3.org/2000/svg">
  <sodipodi:namedview
     id="namedview1"
     pagecolor="#ffffff"
     bordercolor="#000000"
     borderopacity="0.25"
     inkscape:showpageshadow="2"
     inkscape:pageopacity="0.0"
     inkscape:pagecheckerboard="0"
     inkscape:deskcolor="#d1d1d1"
     inkscape:document-units="mm"
     inkscape:zoom="1.0442949"
     inkscape:cx="294.45705"
     inkscape:cy="26.333558"
     inkscape:window-width="1920"
     inkscape:window-height="1012"
     inkscape:window-x="0"
     inkscape:window-y="0"
     inkscape:window-maximized="1"
     inkscape:current-layer="layer1" />
  <defs
     id="defs2">
    <rect
       x="370"
       y="160"
       width="70"
       height="60"
       id="rect32155" />
    <rect
       x="20"
       y="170"
       width="240"
       height="50"
       id="rect9477" />
  </defs>
  <g
     id="g1"
     transform="translate(13.473433)">
    <g
       id="layer1"
       transform="translate(6.6458333,-3.3125)">
      <rect
         style="fill:#e5e5e5;fill-opacity:1;stroke:#006d93;stroke-width:1.25;stroke-linejoin:round;stroke-opacity:0.5"
         id="rect66020"
         width="158.75"
         height="21.166666"
         x="0"
         y="61.383354" />
      <rect
         style="fill:#e5e5e5;fill-opacity:1;stroke:#006d93;stroke-width:1.71687;stroke-linejoin:round;stroke-opacity:0.5"
         id="rect65836"
         width="158.28313"
         height="40.048332"
         x="0.23343316"
         y="10.518229" />
      <path
         id="rect1978"
         style="fill:#afe2f5;fill-opacity:1;stroke:#006d93;stroke-width:1.37743;stroke-linejoin:round;stroke-opacity:0.5"
         d="M 2.6458333,64.029179 H 47.625001 V 79.90418 H 2.6458333 Z" />
      <path
         id="rect1978-3"
         style="fill:#fac2d2;fill-opacity:1;stroke:#006d93;stroke-width:1.37743;stroke-linejoin:round;stroke-opacity:0.5"
         d="M 50.270833,64.02918 H 95.250001 V 79.904181 H 50.270833 Z" />
      <g
         aria-label="libmlrlcommon"
         transform="matrix(0.26458333,0,0,0.26458333,0,23.936432)"
         id="text9475"
         style="font-size:24px;line-height:1.25;font-family:'Jost*';-inkscape-font-specification:'Jost*';letter-spacing:0px;word-spacing:0px;white-space:pre;shape-inside:url(#rect9477)">
        <path
           d="m 21.8,172.05163 v 18.72 h 1.92 v -18.72 z"
           style="font-size:24px;line-height:1.25;font-family:'Jost*';-inkscape-font-specification:'Jost*';letter-spacing:0px;word-spacing:0px;white-space:pre;shape-inside:url(#rect9477)"
           id="path18114" />
        <path
           d="m 27.319989,175.17163 c 0,0.72 0.6,1.32 1.32,1.32 0.72,0 1.32,-0.6 1.32,-1.32 0,-0.72 -0.6,-1.32 -1.32,-1.32 -0.72,0 -1.32,0.6 -1.32,1.32 z m 0.36,4.56 v 11.04 h 1.92 v -11.04 z"
           style="font-size:24px;line-height:1.25;font-family:'Jost*';-inkscape-font-specification:'Jost*';letter-spacing:0px;word-spacing:0px;white-space:pre;shape-inside:url(#rect9477)"
           id="path18116" />
        <path
           d="m 44.599949,185.25163 c 0,-3.576 -2.472,-5.76 -5.472,-5.76 -1.632,0 -2.952,0.768 -3.768,2.136 v -9.576 h -1.92 v 18.72 h 1.92 v -1.896 c 0.816,1.368 2.136,2.136 3.768,2.136 3,0 5.472,-2.184 5.472,-5.76 z m -1.944,0 c 0,2.544 -1.728,3.96 -3.768,3.96 -1.68,0 -3.528,-1.416 -3.528,-3.96 0,-2.544 1.848,-3.96 3.528,-3.96 2.04,0 3.768,1.416 3.768,3.96 z"
           style="font-size:24px;line-height:1.25;font-family:'Jost*';-inkscape-font-specification:'Jost*';letter-spacing:0px;word-spacing:0px;white-space:pre;shape-inside:url(#rect9477)"
           id="path18118" />
        <path
           d="m 62.359941,183.81163 c 0,-2.736 -1.296,-4.32 -3.552,-4.32 -1.488,0 -2.64,0.696 -3.408,2.064 -0.504,-1.32 -1.656,-2.064 -3.192,-2.064 -1.368,0 -2.376,0.6 -3.048,1.848 v -1.608 h -1.92 v 11.04 h 1.92 v -6.72 c 0,-1.728 0.984,-2.76 2.568,-2.76 1.44,0 2.112,0.864 2.112,2.76 v 6.72 h 1.92 v -6.72 c 0,-1.728 0.984,-2.76 2.568,-2.76 1.44,0 2.112,0.864 2.112,2.76 v 6.72 h 1.92 z"
           style="font-size:24px;line-height:1.25;font-family:'Jost*';-inkscape-font-specification:'Jost*';letter-spacing:0px;word-spacing:0px;white-space:pre;shape-inside:url(#rect9477)"
           id="path18120" />
        <path
           d="m 65.959912,172.05163 v 18.72 h 1.92 v -18.72 z"
           style="font-size:24px;line-height:1.25;font-family:'Jost*';-inkscape-font-specification:'Jost*';letter-spacing:0px;word-spacing:0px;white-space:pre;shape-inside:url(#rect9477)"
           id="path18122" />
        <path
           d="m 76.735901,181.84363 1.056,-1.584 c -0.576,-0.6 -1.272,-0.768 -2.064,-0.768 -0.84,0 -1.704,0.576 -2.328,1.512 v -1.272 h -1.92 v 11.04 h 1.92 v -6.72 c 0,-1.584 0.408,-2.76 1.848,-2.76 0.624,0 0.96,0.168 1.488,0.552 z"
           style="font-size:24px;line-height:1.25;font-family:'Jost*';-inkscape-font-specification:'Jost*';letter-spacing:0px;word-spacing:0px;white-space:pre;shape-inside:url(#rect9477)"
           id="path18124" />
        <path
           d="m 79.711865,172.05163 v 18.72 h 1.92 v -18.72 z"
           style="font-size:24px;line-height:1.25;font-family:'Jost*';-inkscape-font-specification:'Jost*';letter-spacing:0px;word-spacing:0px;white-space:pre;shape-inside:url(#rect9477)"
           id="path18126" />
        <path
           d="m 86.095854,185.25163 c 0,-2.304 1.608,-3.96 3.768,-3.96 1.776,0 3.336,0.936 3.84,2.016 v -2.4 c -0.768,-0.888 -2.328,-1.416 -3.84,-1.416 -3.24,0 -5.712,2.424 -5.712,5.76 0,3.336 2.472,5.76 5.712,5.76 1.512,0 3.072,-0.504 3.84,-1.416 v -2.4 c -0.504,1.08 -2.064,2.016 -3.84,2.016 -2.16,0 -3.768,-1.656 -3.768,-3.96 z"
           style="font-size:24px;line-height:1.25;font-family:'Jost*';-inkscape-font-specification:'Jost*';letter-spacing:0px;word-spacing:0px;white-space:pre;shape-inside:url(#rect9477)"
           id="path18128" />
        <path
           d="m 95.743824,185.25163 c 0,3.336 2.472,5.76 5.711996,5.76 3.24,0 5.712,-2.424 5.712,-5.76 0,-3.336 -2.472,-5.76 -5.712,-5.76 -3.239996,0 -5.711996,2.424 -5.711996,5.76 z m 1.944,0 c 0,-2.304 1.608,-3.96 3.767996,-3.96 2.16,0 3.768,1.656 3.768,3.96 0,2.304 -1.608,3.96 -3.768,3.96 -2.159996,0 -3.767996,-1.656 -3.767996,-3.96 z"
           style="font-size:24px;line-height:1.25;font-family:'Jost*';-inkscape-font-specification:'Jost*';letter-spacing:0px;word-spacing:0px;white-space:pre;shape-inside:url(#rect9477)"
           id="path18130" />
        <path
           d="m 124.92781,183.81163 c 0,-2.736 -1.296,-4.32 -3.552,-4.32 -1.488,0 -2.64,0.696 -3.408,2.064 -0.504,-1.32 -1.656,-2.064 -3.192,-2.064 -1.368,0 -2.376,0.6 -3.048,1.848 v -1.608 h -1.92 v 11.04 h 1.92 v -6.72 c 0,-1.728 0.984,-2.76 2.568,-2.76 1.44,0 2.112,0.864 2.112,2.76 v 6.72 h 1.92 v -6.72 c 0,-1.728 0.984,-2.76 2.568,-2.76 1.44,0 2.112,0.864 2.112,2.76 v 6.72 h 1.92 z"
           style="font-size:24px;line-height:1.25;font-family:'Jost*';-inkscape-font-specification:'Jost*';letter-spacing:0px;word-spacing:0px;white-space:pre;shape-inside:url(#rect9477)"
           id="path18132" />
        <path
           d="m 143.64778,183.81163 c 0,-2.736 -1.296,-4.32 -3.552,-4.32 -1.488,0 -2.64,0.696 -3.408,2.064 -0.504,-1.32 -1.656,-2.064 -3.192,-2.064 -1.368,0 -2.376,0.6 -3.048,1.848 v -1.608 h -1.92 v 11.04 h 1.92 v -6.72 c 0,-1.728 0.984,-2.76 2.568,-2.76 1.44,0 2.112,0.864 2.112,2.76 v 6.72 h 1.92 v -6.72 c 0,-1.728 0.984,-2.76 2.568,-2.76 1.44,0 2.112,0.864 2.112,2.76 v 6.72 h 1.92 z"
           style="font-size:24px;line-height:1.25;font-family:'Jost*';-inkscape-font-specification:'Jost*';letter-spacing:0px;word-spacing:0px;white-space:pre;shape-inside:url(#rect9477)"
           id="path18134" />
        <path
           d="m 146.28775,185.25163 c 0,3.336 2.472,5.76 5.712,5.76 3.24,0 5.712,-2.424 5.712,-5.76 0,-3.336 -2.472,-5.76 -5.712,-5.76 -3.24,0 -5.712,2.424 -5.712,5.76 z m 1.944,0 c 0,-2.304 1.608,-3.96 3.768,-3.96 2.16,0 3.768,1.656 3.768,3.96 0,2.304 -1.608,3.96 -3.768,3.96 -2.16,0 -3.768,-1.656 -3.768,-3.96 z"
           style="font-size:24px;line-height:1.25;font-family:'Jost*';-inkscape-font-specification:'Jost*';letter-spacing:0px;word-spacing:0px;white-space:pre;shape-inside:url(#rect9477)"
           id="path18136" />
        <path
           d="m 167.43174,184.05163 v 6.72 h 1.92 v -6.96 c 0,-2.664 -1.464,-4.32 -3.792,-4.32 -1.44,0 -2.544,0.624 -3.288,1.968 v -1.728 h -1.92 v 11.04 h 1.92 v -6.72 c 0,-1.632 1.128,-2.76 2.808,-2.76 1.536,0 2.352,0.936 2.352,2.76 z"
           style="font-size:24px;line-height:1.25;font-family:'Jost*';-inkscape-font-specification:'Jost*';letter-spacing:0px;word-spacing:0px;white-space:pre;shape-inside:url(#rect9477)"
           id="path18138" />
      </g>
      <g
         aria-label="libmlrlcommon"
         transform="matrix(0.26458333,0,0,0.26458333,48.473855,27.344267)"
         id="text9475-6"
         style="font-size:24px;line-height:1.25;font-family:'Jost*';-inkscape-font-specification:'Jost*';letter-spacing:0px;word-spacing:0px;white-space:pre;shape-inside:url(#rect9477)">
        <path
           d="m 17.89585,156.53163 v 18.72 h 1.92 v -18.72 z m 5.519989,3.12 c 0,0.72 0.6,1.32 1.32,1.32 0.72,0 1.32,-0.6 1.32,-1.32 0,-0.72 -0.6,-1.32 -1.32,-1.32 -0.72,0 -1.32,0.6 -1.32,1.32 z m 0.36,4.56 v 11.04 h 1.92 v -11.04 z m 16.920005,5.52 c 0,-3.576 -2.472,-5.76 -5.472,-5.76 -1.632,0 -2.952,0.768 -3.768,2.136 v -9.576 h -1.92 v 18.72 h 1.92 v -1.896 c 0.816,1.368 2.136,2.136 3.768,2.136 3,0 5.472,-2.184 5.472,-5.76 z m -1.944,0 c 0,2.544 -1.728,3.96 -3.768,3.96 -1.68,0 -3.528,-1.416 -3.528,-3.96 0,-2.544 1.848,-3.96 3.528,-3.96 2.04,0 3.768,1.416 3.768,3.96 z m 19.703993,-1.44 c 0,-2.736 -1.296,-4.32 -3.552,-4.32 -1.488,0 -2.64,0.696 -3.408,2.064 -0.504,-1.32 -1.656,-2.064 -3.192,-2.064 -1.368,0 -2.376,0.6 -3.048,1.848 v -1.608 h -1.92 v 11.04 h 1.92 v -6.72 c 0,-1.728 0.984,-2.76 2.568,-2.76 1.44,0 2.112,0.864 2.112,2.76 v 6.72 h 1.92 v -6.72 c 0,-1.728 0.984,-2.76 2.568,-2.76 1.44,0 2.112,0.864 2.112,2.76 v 6.72 h 1.92 z m 3.600017,-11.76 v 18.72 h 1.92 v -18.72 z m 10.775989,9.792 1.056,-1.584 c -0.576,-0.6 -1.272,-0.768 -2.064,-0.768 -0.84,0 -1.704,0.576 -2.328,1.512 v -1.272 h -1.92 v 11.04 h 1.92 v -6.72 c 0,-1.584 0.408,-2.76 1.848,-2.76 0.624,0 0.96,0.168 1.488,0.552 z m 2.97601,-9.792 v 18.72 h 1.92 v -18.72 z m 16.559989,13.2 c 0,-3.576 -2.472,-5.76 -5.472,-5.76 -1.632,0 -2.952,0.768 -3.768,2.136 v -9.576 h -1.92 v 18.72 h 1.92 v -1.896 c 0.816,1.368 2.136,2.136 3.768,2.136 3,0 5.472,-2.184 5.472,-5.76 z m -1.944,0 c 0,2.544 -1.728,3.96 -3.768,3.96 -1.68,0 -3.528,-1.416 -3.528,-3.96 0,-2.544 1.848,-3.96 3.528,-3.96 2.04,0 3.768,1.416 3.768,3.96 z m 3.623992,0 c 0,3.336 2.472,5.76 5.712,5.76 3.239996,0 5.711996,-2.424 5.711996,-5.76 0,-3.336 -2.472,-5.76 -5.711996,-5.76 -3.24,0 -5.712,2.424 -5.712,5.76 z m 1.944,0 c 0,-2.304 1.608,-3.96 3.768,-3.96 2.159996,0 3.767996,1.656 3.767996,3.96 0,2.304 -1.608,3.96 -3.767996,3.96 -2.16,0 -3.768,-1.656 -3.768,-3.96 z m 11.159986,0 c 0,3.336 2.472,5.76 5.712,5.76 3.24,0 5.712,-2.424 5.712,-5.76 0,-3.336 -2.472,-5.76 -5.712,-5.76 -3.24,0 -5.712,2.424 -5.712,5.76 z m 1.944,0 c 0,-2.304 1.608,-3.96 3.768,-3.96 2.16,0 3.768,1.656 3.768,3.96 0,2.304 -1.608,3.96 -3.768,3.96 -2.16,0 -3.768,-1.656 -3.768,-3.96 z m 12.57599,2.136 -1.512,0.936 c 0.6,1.32 2.208,2.688 4.416,2.688 2.256,0 3.792,-1.44 3.792,-3.36 0,-1.968 -1.56,-2.712 -3.48,-3.504 -1.176,-0.48 -2.304,-0.984 -2.304,-1.872 0,-0.744 0.672,-1.08 1.464,-1.08 1.152,0 2.088,0.624 2.688,1.44 l 1.536,-0.984 c -0.672,-1.224 -2.232,-2.16 -3.984,-2.16 -1.8,0 -3.576,0.936 -3.576,2.904 0,1.944 1.704,2.76 3.168,3.312 1.272,0.48 2.544,1.008 2.544,2.16 0,0.864 -0.672,1.392 -1.752,1.392 -1.368,0 -2.328,-0.84 -3,-1.872 z m 7.536,-7.656 v 1.8 h 1.8 v 9.24 h 1.92 v -9.24 h 1.8 v -1.8 h -1.8 v -3.84 h -1.92 v 3.84 z m 7.43999,-4.56 c 0,0.72 0.6,1.32 1.32,1.32 0.72,0 1.32,-0.6 1.32,-1.32 0,-0.72 -0.6,-1.32 -1.32,-1.32 -0.72,0 -1.32,0.6 -1.32,1.32 z m 0.36,4.56 v 11.04 h 1.92 v -11.04 z m 12.96001,4.32 v 6.72 h 1.92 v -6.96 c 0,-2.664 -1.464,-4.32 -3.792,-4.32 -1.44,0 -2.544,0.624 -3.288,1.968 v -1.728 h -1.92 v 11.04 h 1.92 v -6.72 c 0,-1.632 1.128,-2.76 2.808,-2.76 1.536,0 2.352,0.936 2.352,2.76 z m 4.77599,7.44 c 0,2.856 2.232,4.8 5.472,4.8 2.76,0 5.472,-1.944 5.472,-5.76 v -10.8 h -1.92 v 1.896 c -0.816,-1.368 -2.136,-2.136 -3.768,-2.136 -3,0 -5.472,2.184 -5.472,5.76 0,3.576 2.472,5.76 5.472,5.76 1.632,0 2.952,-0.768 3.768,-2.136 v 1.656 c 0,2.784 -1.872,3.96 -3.552,3.96 -2.16,0 -3.528,-1.416 -3.528,-3 z m 1.728,-6.24 c 0,-2.544 1.728,-3.96 3.768,-3.96 1.68,0 3.528,1.416 3.528,3.96 0,2.544 -1.848,3.96 -3.528,3.96 -2.04,0 -3.768,-1.416 -3.768,-3.96 z"
           id="text27731"
           aria-label="libmlrlboosting" />
      </g>
      <path
         d="m 372.28,179.81163 c 0,0.72 0.6,1.32 1.32,1.32 0.72,0 1.32,-0.6 1.32,-1.32 0,-0.72 -0.6,-1.32 -1.32,-1.32 -0.72,0 -1.32,0.6 -1.32,1.32 z m 7.19998,0 c 0,0.72 0.6,1.32 1.32,1.32 0.72,0 1.32,-0.6 1.32,-1.32 0,-0.72 -0.6,-1.32 -1.32,-1.32 -0.72,0 -1.32,0.6 -1.32,1.32 z m 7.19998,0 c 0,0.72 0.6,1.32 1.32,1.32 0.72,0 1.32,-0.6 1.32,-1.32 0,-0.72 -0.6,-1.32 -1.32,-1.32 -0.72,0 -1.32,0.6 -1.32,1.32 z"
         id="text32153"
         style="font-size:24px;line-height:1.25;font-family:'Jost*';-inkscape-font-specification:'Jost*';letter-spacing:0px;word-spacing:0px;white-space:pre"
         transform="matrix(0.26458333,0,0,0.26458333,2.11697,24.391517)"
         aria-label="..." />
      <path
         d="m 165.24068,71.966686 c 0,-1.03505 0.7747,-1.74625 1.651,-1.74625 0.62865,0 1.1176,0.2667 1.42875,0.6604 v -0.7112 c -0.37465,-0.3302 -0.78105,-0.48895 -1.42875,-0.48895 -1.2319,0 -2.2225,0.95885 -2.2225,2.286 0,1.32715 0.9906,2.286 2.2225,2.286 0.6477,0 1.0541,-0.15875 1.42875,-0.48895 v -0.7112 c -0.31115,0.3937 -0.8001,0.6604 -1.42875,0.6604 -0.8763,0 -1.651,-0.7112 -1.651,-1.74625 z m 3.93699,0.85725 h 1.27 v 1.30175 h 0.53975 v -1.30175 h 1.27 v -0.508 h -1.27 v -1.30175 h -0.53975 v 1.30175 h -1.27 z m 3.90525,0 h 1.27 v 1.30175 h 0.53975 v -1.30175 h 1.27 v -0.508 h -1.27 v -1.30175 h -0.53975 v 1.30175 h -1.27 z"
         id="text43158"
         style="font-size:6.35px;line-height:1.25;font-family:'Jost*';-inkscape-font-specification:'Jost*';letter-spacing:0px;word-spacing:0px;stroke-width:0.264583"
         aria-label="C++" />
      <rect
         style="fill:#afe2f5;fill-opacity:1;stroke:#006d93;stroke-width:1.25;stroke-linejoin:round;stroke-opacity:0.5"
         id="rect47384"
         width="44.979168"
         height="15.875"
         x="2.6458333"
         y="13.229166" />
      <rect
         style="fill:#c3d9e1;fill-opacity:1;stroke:#006d93;stroke-width:1.25;stroke-linejoin:round;stroke-opacity:0.5"
         id="rect47384-1"
         width="153.5"
         height="15.875"
         x="2.6458333"
         y="31.766792" />
      <rect
         style="fill:#a2f6de;fill-opacity:1;stroke:#006d93;stroke-width:1.25;stroke-linejoin:round;stroke-opacity:0.5"
         id="rect47384-6"
         width="44.979168"
         height="15.875"
         x="111.125"
         y="13.229164" />
      <path
         d="m 12.314797,21.76992 c 0,-0.7239 -0.3429,-1.143 -0.9398,-1.143 -0.3937,0 -0.6985,0.18415 -0.9017,0.5461 -0.13335,-0.34925 -0.43815,-0.5461 -0.84455,-0.5461 -0.36195,0 -0.62865,0.15875 -0.80645,0.48895 v -0.42545 h -0.508 v 2.921 h 0.508 v -1.778 c 0,-0.4572 0.26035,-0.73025 0.67945,-0.73025 0.381,0 0.5588,0.2286 0.5588,0.73025 v 1.778 h 0.508 v -1.778 c 0,-0.4572 0.26035,-0.73025 0.67945,-0.73025 0.381,0 0.5588,0.2286 0.5588,0.73025 v 1.778 h 0.508 z m 0.952504,-3.1115 v 4.953 h 0.508 v -4.953 z m 2.851147,2.5908 0.2794,-0.4191 c -0.1524,-0.15875 -0.33655,-0.2032 -0.5461,-0.2032 -0.22225,0 -0.45085,0.1524 -0.61595,0.40005 v -0.33655 h -0.508 v 2.921 h 0.508 v -1.778 c 0,-0.4191 0.10795,-0.73025 0.48895,-0.73025 0.1651,0 0.254,0.04445 0.3937,0.14605 z m 0.787403,-2.5908 v 4.953 h 0.508 v -4.953 z m 1.015998,3.683 h 1.27 v -0.47625 h -1.27 z m 2.006594,-0.1905 c 0,-0.6096 0.42545,-1.04775 0.99695,-1.04775 0.4699,0 0.88265,0.24765 1.016,0.5334 v -0.635 c -0.2032,-0.23495 -0.61595,-0.37465 -1.016,-0.37465 -0.85725,0 -1.5113,0.64135 -1.5113,1.524 0,0.88265 0.65405,1.524 1.5113,1.524 0.40005,0 0.8128,-0.13335 1.016,-0.37465 v -0.635 c -0.13335,0.28575 -0.5461,0.5334 -1.016,0.5334 -0.5715,0 -0.99695,-0.43815 -0.99695,-1.04775 z m 2.552703,0 c 0,0.88265 0.65405,1.524 1.5113,1.524 0.85725,0 1.5113,-0.64135 1.5113,-1.524 0,-0.88265 -0.65405,-1.524 -1.5113,-1.524 -0.85725,0 -1.5113,0.64135 -1.5113,1.524 z m 0.51435,0 c 0,-0.6096 0.42545,-1.04775 0.99695,-1.04775 0.5715,0 0.99695,0.43815 0.99695,1.04775 0,0.6096 -0.42545,1.04775 -0.99695,1.04775 -0.5715,0 -0.99695,-0.43815 -0.99695,-1.04775 z m 7.207248,-0.381 c 0,-0.7239 -0.3429,-1.143 -0.9398,-1.143 -0.3937,0 -0.6985,0.18415 -0.9017,0.5461 -0.13335,-0.34925 -0.43815,-0.5461 -0.84455,-0.5461 -0.36195,0 -0.62865,0.15875 -0.80645,0.48895 v -0.42545 h -0.508 v 2.921 h 0.508 v -1.778 c 0,-0.4572 0.26035,-0.73025 0.67945,-0.73025 0.381,0 0.5588,0.2286 0.5588,0.73025 v 1.778 h 0.508 v -1.778 c 0,-0.4572 0.26035,-0.73025 0.67945,-0.73025 0.381,0 0.5588,0.2286 0.5588,0.73025 v 1.778 h 0.508 z m 4.953003,0 c 0,-0.7239 -0.3429,-1.143 -0.9398,-1.143 -0.3937,0 -0.6985,0.18415 -0.9017,0.5461 -0.13335,-0.34925 -0.43815,-0.5461 -0.84455,-0.5461 -0.36195,0 -0.62865,0.15875 -0.80645,0.48895 v -0.42545 h -0.508 v 2.921 h 0.508 v -1.778 c 0,-0.4572 0.26035,-0.73025 0.67945,-0.73025 0.381,0 0.5588,0.2286 0.5588,0.73025 v 1.778 h 0.508 v -1.778 c 0,-0.4572 0.26035,-0.73025 0.67945,-0.73025 0.381,0 0.5588,0.2286 0.5588,0.73025 v 1.778 h 0.508 z m 0.698505,0.381 c 0,0.88265 0.65405,1.524 1.5113,1.524 0.85725,0 1.5113,-0.64135 1.5113,-1.524 0,-0.88265 -0.65405,-1.524 -1.5113,-1.524 -0.85725,0 -1.5113,0.64135 -1.5113,1.524 z m 0.51435,0 c 0,-0.6096 0.42545,-1.04775 0.99695,-1.04775 0.5715,0 0.99695,0.43815 0.99695,1.04775 0,0.6096 -0.42545,1.04775 -0.99695,1.04775 -0.5715,0 -0.99695,-0.43815 -0.99695,-1.04775 z m 5.079996,-0.3175 v 1.778 h 0.508 v -1.8415 c 0,-0.70485 -0.38735,-1.143 -1.0033,-1.143 -0.381,0 -0.6731,0.1651 -0.86995,0.5207 v -0.4572 h -0.508 v 2.921 h 0.508 v -1.778 c 0,-0.4318 0.29845,-0.73025 0.74295,-0.73025 0.4064,0 0.6223,0.24765 0.6223,0.73025 z"
         id="text49126"
         style="font-size:6.35px;line-height:1.25;font-family:'Jost*';-inkscape-font-specification:'Jost*';letter-spacing:0px;word-spacing:0px;stroke-width:0.264583"
         aria-label="mlrl-common" />
      <rect
         style="fill:#fac2d2;fill-opacity:1;stroke:#006d93;stroke-width:1.25;stroke-linejoin:round;stroke-opacity:0.5"
         id="rect54730"
         width="44.979168"
         height="15.875"
         x="50.270832"
         y="13.229166" />
      <path
         d="m 60.844666,21.76992 c 0,-0.7239 -0.3429,-1.143 -0.9398,-1.143 -0.3937,0 -0.6985,0.18415 -0.9017,0.5461 -0.13335,-0.34925 -0.43815,-0.5461 -0.84455,-0.5461 -0.36195,0 -0.62865,0.15875 -0.80645,0.48895 v -0.42545 h -0.508 v 2.921 h 0.508 v -1.778 c 0,-0.4572 0.26035,-0.73025 0.67945,-0.73025 0.381,0 0.5588,0.2286 0.5588,0.73025 v 1.778 h 0.508 v -1.778 c 0,-0.4572 0.26035,-0.73025 0.67945,-0.73025 0.381,0 0.5588,0.2286 0.5588,0.73025 v 1.778 h 0.508 z m 0.952504,-3.1115 v 4.953 h 0.508 v -4.953 z m 2.851147,2.5908 0.2794,-0.4191 c -0.1524,-0.15875 -0.33655,-0.2032 -0.5461,-0.2032 -0.22225,0 -0.45085,0.1524 -0.61595,0.40005 v -0.33655 h -0.508 v 2.921 h 0.508 v -1.778 c 0,-0.4191 0.10795,-0.73025 0.48895,-0.73025 0.1651,0 0.254,0.04445 0.3937,0.14605 z m 0.787403,-2.5908 v 4.953 h 0.508 v -4.953 z m 1.015998,3.683 h 1.27 v -0.47625 h -1.27 z m 4.698994,-0.1905 c 0,-0.94615 -0.65405,-1.524 -1.4478,-1.524 -0.4318,0 -0.78105,0.2032 -0.99695,0.56515 v -2.53365 h -0.508 v 4.953 h 0.508 v -0.50165 c 0.2159,0.36195 0.56515,0.56515 0.99695,0.56515 0.79375,0 1.4478,-0.57785 1.4478,-1.524 z m -0.51435,0 c 0,0.6731 -0.4572,1.04775 -0.99695,1.04775 -0.4445,0 -0.93345,-0.37465 -0.93345,-1.04775 0,-0.6731 0.48895,-1.04775 0.93345,-1.04775 0.53975,0 0.99695,0.37465 0.99695,1.04775 z m 0.958847,0 c 0,0.88265 0.65405,1.524 1.5113,1.524 0.85725,0 1.5113,-0.64135 1.5113,-1.524 0,-0.88265 -0.65405,-1.524 -1.5113,-1.524 -0.85725,0 -1.5113,0.64135 -1.5113,1.524 z m 0.51435,0 c 0,-0.6096 0.42545,-1.04775 0.99695,-1.04775 0.5715,0 0.99695,0.43815 0.99695,1.04775 0,0.6096 -0.42545,1.04775 -0.99695,1.04775 -0.5715,0 -0.99695,-0.43815 -0.99695,-1.04775 z m 2.952748,0 c 0,0.88265 0.65405,1.524 1.5113,1.524 0.85725,0 1.5113,-0.64135 1.5113,-1.524 0,-0.88265 -0.65405,-1.524 -1.5113,-1.524 -0.85725,0 -1.5113,0.64135 -1.5113,1.524 z m 0.51435,0 c 0,-0.6096 0.42545,-1.04775 0.99695,-1.04775 0.5715,0 0.99695,0.43815 0.99695,1.04775 0,0.6096 -0.42545,1.04775 -0.99695,1.04775 -0.5715,0 -0.99695,-0.43815 -0.99695,-1.04775 z m 7.207247,-0.381 c 0,-0.7239 -0.3429,-1.143 -0.9398,-1.143 -0.3937,0 -0.6985,0.18415 -0.9017,0.5461 -0.13335,-0.34925 -0.43815,-0.5461 -0.84455,-0.5461 -0.36195,0 -0.62865,0.15875 -0.80645,0.48895 v -0.42545 h -0.508 v 2.921 h 0.508 v -1.778 c 0,-0.4572 0.26035,-0.73025 0.67945,-0.73025 0.381,0 0.5588,0.2286 0.5588,0.73025 v 1.778 h 0.508 v -1.778 c 0,-0.4572 0.26035,-0.73025 0.67945,-0.73025 0.381,0 0.5588,0.2286 0.5588,0.73025 v 1.778 h 0.508 z m 2.082805,1.905 c 0.6223,0 1.085849,-0.24765 1.390649,-0.74295 l -0.412749,-0.26035 c -0.2159,0.3556 -0.5207,0.52705 -0.9144,0.52705 -0.5461,0 -0.88265,-0.3302 -0.9271,-0.92075 h 2.298699 c 0,-0.0127 0.0064,-0.0889 0.0064,-0.1524 0,-0.9271 -0.520699,-1.4986 -1.377949,-1.4986 -0.8636,0 -1.4478,0.61595 -1.4478,1.524 0,0.9017 0.56515,1.524 1.3843,1.524 z m 0.0635,-2.6035 c 0.4699,0 0.7874,0.3048 0.8255,0.7747 h -1.73355 c 0.0889,-0.4953 0.4064,-0.7747 0.90805,-0.7747 z m 3.467094,0.1778 0.2794,-0.4191 c -0.1524,-0.15875 -0.33655,-0.2032 -0.5461,-0.2032 -0.22225,0 -0.45085,0.1524 -0.61595,0.40005 v -0.33655 h -0.508 v 2.921 h 0.508 v -1.778 c 0,-0.4191 0.10795,-0.73025 0.48895,-0.73025 0.1651,0 0.254,0.04445 0.3937,0.14605 z"
         id="text56065"
         style="font-size:6.35px;line-height:1.25;font-family:'Jost*';-inkscape-font-specification:'Jost*';letter-spacing:0px;word-spacing:0px;stroke-width:0.264583"
         aria-label="mlrl-boomer" />
      <path
         d="m 73.591122,40.524104 c 0,-0.7239 -0.3429,-1.143 -0.9398,-1.143 -0.3937,0 -0.6985,0.18415 -0.9017,0.5461 -0.13335,-0.34925 -0.43815,-0.5461 -0.84455,-0.5461 -0.36195,0 -0.62865,0.15875 -0.80645,0.48895 v -0.42545 h -0.508 v 2.921 h 0.508 v -1.778 c 0,-0.4572 0.26035,-0.73025 0.67945,-0.73025 0.381,0 0.5588,0.2286 0.5588,0.73025 v 1.778 h 0.508 v -1.778 c 0,-0.4572 0.26035,-0.73025 0.67945,-0.73025 0.381,0 0.5588,0.2286 0.5588,0.73025 v 1.778 h 0.508 z m 0.952505,-3.1115 v 4.953 h 0.508 v -4.953 z m 2.851146,2.5908 0.2794,-0.4191 c -0.1524,-0.15875 -0.33655,-0.2032 -0.5461,-0.2032 -0.22225,0 -0.45085,0.1524 -0.615949,0.40005 v -0.33655 h -0.508 v 2.921 h 0.508 v -1.778 c 0,-0.4191 0.107949,-0.73025 0.488949,-0.73025 0.1651,0 0.254,0.04445 0.3937,0.14605 z m 0.787403,-2.5908 v 4.953 h 0.508 v -4.953 z m 1.015998,3.683 h 1.27 v -0.47625 h -1.27 z m 2.285994,0.127 v -1.778 h -0.508 v 1.8415 c 0,0.6985 0.3937,1.143 1.0033,1.143 0.38735,0 0.6731,-0.17145 0.86995,-0.5207 v 0.4572 h 0.508 v -2.921 h -0.508 v 1.778 c 0,0.4318 -0.29845,0.73025 -0.74295,0.73025 -0.4064,0 -0.6223,-0.26035 -0.6223,-0.73025 z m 2.381247,-1.778 v 0.47625 h 0.47625 v 2.44475 h 0.508 v -2.44475 h 0.47625 v -0.47625 h -0.47625 v -1.016 h -0.508 v 1.016 z m 1.968499,-1.2065 c 0,0.1905 0.15875,0.34925 0.34925,0.34925 0.1905,0 0.34925,-0.15875 0.34925,-0.34925 0,-0.1905 -0.15875,-0.34925 -0.34925,-0.34925 -0.1905,0 -0.34925,0.15875 -0.34925,0.34925 z m 0.09525,1.2065 v 2.921 h 0.508 v -2.921 z m 1.555751,-2.032 v 4.953 h 0.508 v -4.953 z"
         id="text56065-5"
         style="font-size:6.35px;line-height:1.25;font-family:'Jost*';-inkscape-font-specification:'Jost*';letter-spacing:0px;word-spacing:0px;stroke-width:0.264583"
         aria-label="mlrl-util" />
      <path
         d="m 122.68943,21.76992 c 0,-0.7239 -0.3429,-1.143 -0.9398,-1.143 -0.3937,0 -0.6985,0.18415 -0.9017,0.5461 -0.13335,-0.34925 -0.43815,-0.5461 -0.84455,-0.5461 -0.36195,0 -0.62865,0.15875 -0.80645,0.48895 v -0.42545 h -0.508 v 2.921 h 0.508 v -1.778 c 0,-0.4572 0.26035,-0.73025 0.67945,-0.73025 0.381,0 0.5588,0.2286 0.5588,0.73025 v 1.778 h 0.508 v -1.778 c 0,-0.4572 0.26035,-0.73025 0.67945,-0.73025 0.381,0 0.5588,0.2286 0.5588,0.73025 v 1.778 h 0.508 z m 0.9525,-3.1115 v 4.953 h 0.508 v -4.953 z m 2.85115,2.5908 0.2794,-0.4191 c -0.1524,-0.15875 -0.33655,-0.2032 -0.5461,-0.2032 -0.22225,0 -0.45085,0.1524 -0.61595,0.40005 v -0.33655 h -0.508 v 2.921 h 0.508 v -1.778 c 0,-0.4191 0.10795,-0.73025 0.48895,-0.73025 0.1651,0 0.254,0.04445 0.3937,0.14605 z m 0.7874,-2.5908 v 4.953 h 0.508 v -4.953 z m 1.016,3.683 h 1.27 v -0.47625 h -1.27 z m 1.33349,-1.651 v 0.47625 h 0.47625 v 2.44475 h 0.508 v -2.44475 h 0.47625 v -0.47625 h -0.47625 v -1.016 h -0.508 v 1.016 z m 3.0988,2.9845 c 0.6223,0 1.08585,-0.24765 1.39065,-0.74295 l -0.41275,-0.26035 c -0.2159,0.3556 -0.5207,0.52705 -0.9144,0.52705 -0.5461,0 -0.88265,-0.3302 -0.9271,-0.92075 h 2.2987 c 0,-0.0127 0.006,-0.0889 0.006,-0.1524 0,-0.9271 -0.5207,-1.4986 -1.37795,-1.4986 -0.8636,0 -1.4478,0.61595 -1.4478,1.524 0,0.9017 0.56515,1.524 1.3843,1.524 z m 0.0635,-2.6035 c 0.4699,0 0.7874,0.3048 0.8255,0.7747 h -1.73355 c 0.0889,-0.4953 0.4064,-0.7747 0.90805,-0.7747 z m 2.1971,1.64465 -0.40005,0.24765 c 0.15875,0.34925 0.5842,0.7112 1.1684,0.7112 0.5969,0 1.0033,-0.381 1.0033,-0.889 0,-0.5207 -0.41275,-0.71755 -0.92075,-0.9271 -0.31115,-0.127 -0.6096,-0.26035 -0.6096,-0.4953 0,-0.19685 0.1778,-0.28575 0.38735,-0.28575 0.3048,0 0.55245,0.1651 0.7112,0.381 l 0.4064,-0.26035 c -0.1778,-0.32385 -0.59055,-0.5715 -1.0541,-0.5715 -0.47625,0 -0.94615,0.24765 -0.94615,0.76835 0,0.51435 0.45085,0.73025 0.8382,0.8763 0.33655,0.127 0.6731,0.2667 0.6731,0.5715 0,0.2286 -0.1778,0.3683 -0.46355,0.3683 -0.36195,0 -0.61595,-0.22225 -0.79375,-0.4953 z m 1.9939,-2.02565 v 0.47625 h 0.47625 v 2.44475 h 0.508 v -2.44475 h 0.47625 v -0.47625 h -0.47625 v -1.016 h -0.508 v 1.016 z m 4.88949,1.4605 c 0,-0.94615 -0.65405,-1.524 -1.4478,-1.524 -0.4318,0 -0.78105,0.2032 -0.99695,0.56515 v -2.53365 h -0.508 v 4.953 h 0.508 v -0.50165 c 0.2159,0.36195 0.56515,0.56515 0.99695,0.56515 0.79375,0 1.4478,-0.57785 1.4478,-1.524 z m -0.51435,0 c 0,0.6731 -0.4572,1.04775 -0.99695,1.04775 -0.4445,0 -0.93345,-0.37465 -0.93345,-1.04775 0,-0.6731 0.48895,-1.04775 0.93345,-1.04775 0.53975,0 0.99695,0.37465 0.99695,1.04775 z m 2.34315,1.524 c 0.6223,0 1.08585,-0.24765 1.39065,-0.74295 l -0.41275,-0.26035 c -0.2159,0.3556 -0.5207,0.52705 -0.9144,0.52705 -0.5461,0 -0.88265,-0.3302 -0.9271,-0.92075 h 2.2987 c 0,-0.0127 0.006,-0.0889 0.006,-0.1524 0,-0.9271 -0.5207,-1.4986 -1.37795,-1.4986 -0.8636,0 -1.4478,0.61595 -1.4478,1.524 0,0.9017 0.56515,1.524 1.3843,1.524 z m 0.0635,-2.6035 c 0.4699,0 0.7874,0.3048 0.8255,0.7747 h -1.73355 c 0.0889,-0.4953 0.4064,-0.7747 0.90805,-0.7747 z m 1.82245,1.0795 c 0,0.94615 0.65405,1.524 1.4478,1.524 0.4318,0 0.78105,-0.2032 0.99695,-0.56515 v 0.50165 h 0.508 v -4.953 h -0.508 v 2.53365 c -0.2159,-0.36195 -0.56515,-0.56515 -0.99695,-0.56515 -0.79375,0 -1.4478,0.57785 -1.4478,1.524 z m 0.51435,0 c 0,-0.6731 0.4572,-1.04775 0.99695,-1.04775 0.4445,0 0.93345,0.37465 0.93345,1.04775 0,0.6731 -0.48895,1.04775 -0.93345,1.04775 -0.53975,0 -0.99695,-0.37465 -0.99695,-1.04775 z"
         id="text62122"
         style="font-size:6.35px;line-height:1.25;font-family:'Jost*';-inkscape-font-specification:'Jost*';letter-spacing:0px;word-spacing:0px;stroke-width:0.264583"
         aria-label="mlrl-testbed" />
      <path
         d="m 164.89719,27.875408 v 4.445 h 0.53975 v -1.778 h 0.66675 c 0.85725,0 1.5113,-0.51435 1.5113,-1.3335 0,-0.81915 -0.65405,-1.3335 -1.5113,-1.3335 z m 1.2065,0.508 c 0.5715,0 0.97155,0.2794 0.97155,0.8255 0,0.5461 -0.40005,0.8255 -0.97155,0.8255 h -0.66675 v -1.651 z m 4.5593,1.016 h -0.5715 l -0.8001,2.01295 -0.81915,-2.01295 h -0.60325 l 1.1176,2.50825 -0.8001,1.80975 h 0.5715 z m 0.0318,0 v 0.47625 h 0.47625 v 2.44475 h 0.508 v -2.44475 h 0.47625 v -0.47625 H 171.679 v -1.016 h -0.508 v 1.016 z m 3.84174,1.143 v 1.778 h 0.508 v -1.8415 c 0,-0.75565 -0.40005,-1.143 -1.0033,-1.143 -0.381,0 -0.69215,0.2032 -0.86995,0.52705 v -2.49555 h -0.508 v 4.953 h 0.508 v -1.778 c 0,-0.4191 0.29845,-0.73025 0.74295,-0.73025 0.41275,0 0.6223,0.24765 0.6223,0.73025 z m 1.2065,0.3175 c 0,0.88265 0.65405,1.524 1.5113,1.524 0.85725,0 1.5113,-0.64135 1.5113,-1.524 0,-0.88265 -0.65405,-1.524 -1.5113,-1.524 -0.85725,0 -1.5113,0.64135 -1.5113,1.524 z m 0.51435,0 c 0,-0.6096 0.42545,-1.04775 0.99695,-1.04775 0.5715,0 0.99695,0.43815 0.99695,1.04775 0,0.6096 -0.42545,1.04775 -0.99695,1.04775 -0.5715,0 -0.99695,-0.43815 -0.99695,-1.04775 z m 5.08,-0.3175 v 1.778 h 0.508 v -1.8415 c 0,-0.70485 -0.38735,-1.143 -1.0033,-1.143 -0.381,0 -0.6731,0.1651 -0.86995,0.5207 v -0.4572 h -0.508 v 2.921 h 0.508 v -1.778 c 0,-0.4318 0.29845,-0.73025 0.74295,-0.73025 0.4064,0 0.6223,0.24765 0.6223,0.73025 z"
         id="text68758"
         style="font-size:6.35px;line-height:1.25;font-family:'Jost*';-inkscape-font-specification:'Jost*';letter-spacing:0px;word-spacing:0px;stroke-width:0.264583"
         aria-label="Python" />
      <path
         style="fill:none;stroke:#000000;stroke-width:1;stroke-linecap:round;stroke-linejoin:round;stroke-miterlimit:4;stroke-dasharray:1, 4;stroke-dashoffset:0;stroke-opacity:1"
         d="M 161.39583,56.09168 H -2.6458333"
         id="path72981" />
      <path
         d="m 164.90671,55.647186 c 0,-1.03505 0.7747,-1.74625 1.651,-1.74625 0.62865,0 1.1176,0.2667 1.42875,0.6604 v -0.7112 c -0.37465,-0.3302 -0.78105,-0.48895 -1.42875,-0.48895 -1.2319,0 -2.2225,0.95885 -2.2225,2.286 0,1.32715 0.9906,2.286 2.2225,2.286 0.6477,0 1.0541,-0.15875 1.42875,-0.48895 v -0.7112 c -0.31115,0.3937 -0.8001,0.6604 -1.42875,0.6604 -0.8763,0 -1.651,-0.7112 -1.651,-1.74625 z m 6.31824,-0.6985 h -0.5715 l -0.8001,2.01295 -0.81915,-2.01295 h -0.60325 l 1.1176,2.50825 -0.8001,1.80975 h 0.5715 z m 0.0318,0 v 0.47625 h 0.47625 v 2.44475 h 0.508 v -2.44475 h 0.47625 v -0.47625 h -0.47625 v -1.016 h -0.508 v 1.016 z m 3.84175,1.143 v 1.778 h 0.508 v -1.8415 c 0,-0.75565 -0.40005,-1.143 -1.0033,-1.143 -0.381,0 -0.69215,0.2032 -0.86995,0.52705 v -2.49555 h -0.508 v 4.953 h 0.508 v -1.778 c 0,-0.4191 0.29845,-0.73025 0.74295,-0.73025 0.41275,0 0.6223,0.24765 0.6223,0.73025 z m 1.20649,0.3175 c 0,0.88265 0.65405,1.524 1.5113,1.524 0.85725,0 1.5113,-0.64135 1.5113,-1.524 0,-0.88265 -0.65405,-1.524 -1.5113,-1.524 -0.85725,0 -1.5113,0.64135 -1.5113,1.524 z m 0.51435,0 c 0,-0.6096 0.42545,-1.04775 0.99695,-1.04775 0.5715,0 0.99695,0.43815 0.99695,1.04775 0,0.6096 -0.42545,1.04775 -0.99695,1.04775 -0.5715,0 -0.99695,-0.43815 -0.99695,-1.04775 z m 5.08,-0.3175 v 1.778 h 0.508 v -1.8415 c 0,-0.70485 -0.38735,-1.143 -1.0033,-1.143 -0.381,0 -0.6731,0.1651 -0.86995,0.5207 v -0.4572 h -0.508 v 2.921 h 0.508 v -1.778 c 0,-0.4318 0.29845,-0.73025 0.74295,-0.73025 0.4064,0 0.6223,0.24765 0.6223,0.73025 z"
         id="text86071"
         style="font-size:6.35px;line-height:1.25;font-family:'Jost*';-inkscape-font-specification:'Jost*';letter-spacing:0px;word-spacing:0px;stroke-width:0.264583"
         aria-label="Cython" />
      <path
         d="m 100.61605,21.16667 c 0,0.1905 0.15875,0.34925 0.34925,0.34925 0.1905,0 0.34925,-0.15875 0.34925,-0.34925 0,-0.1905 -0.15875,-0.34925 -0.34925,-0.34925 -0.1905,0 -0.34925,0.15875 -0.34925,0.34925 z m 1.905,0 c 0,0.1905 0.15875,0.34925 0.34925,0.34925 0.1905,0 0.34925,-0.15875 0.34925,-0.34925 0,-0.1905 -0.15875,-0.34925 -0.34925,-0.34925 -0.1905,0 -0.34925,0.15875 -0.34925,0.34925 z m 1.90499,0 c 0,0.1905 0.15875,0.34925 0.34925,0.34925 0.1905,0 0.34925,-0.15875 0.34925,-0.34925 0,-0.1905 -0.15875,-0.34925 -0.34925,-0.34925 -0.1905,0 -0.34925,0.15875 -0.34925,0.34925 z"
         id="text97092"
         style="font-size:6.35px;line-height:1.25;font-family:'Jost*';-inkscape-font-specification:'Jost*';letter-spacing:0px;word-spacing:0px;stroke-width:0.264583"
         aria-label="..." />
    </g>
  </g>
</svg>
