<?xml version="1.0" encoding="UTF-8" standalone="no"?>
<!-- Created with Inkscape (http://www.inkscape.org/) -->

<svg
   version="1.1"
   id="svg1"
   width="99.633331"
   height="154.08932"
   viewBox="0 0 99.633331 154.08932"
   xmlns="http://www.w3.org/2000/svg"
   xmlns:svg="http://www.w3.org/2000/svg">
  <defs
     id="defs1" />
  <g
     id="g1">
    <path
       id="path1"
       d="M 0,0 H 26.456"
       style="fill:#ffffff;stroke:#ffffff;stroke-width:0.1;stroke-linecap:butt;stroke-linejoin:miter;stroke-miterlimit:10;stroke-dasharray:none;stroke-opacity:1;fill-opacity:1"
       transform="matrix(1.3333333,0,0,-1.3333333,18.578667,5.38)" />
    <g
       id="g2"
       aria-label="1−5.0&#10;&#10;&#10;&#10;&#10;&#10;&#10;&#10;&#10;≤1.0"
       transform="matrix(1.3333333,0,0,1.3333333,9.2986667,16.472)"
       style="fill:#ffffff;fill-opacity:1">
      <path
         id="path2"
         d="m 2.3306875,-4.4291953 c 0,-0.1875 -0.011719,-0.1992188 -0.2109375,-0.1992188 -0.4453125,0.4335938 -1.078125,0.4453125 -1.359375,0.4453125 v 0.2460938 c 0.1640625,0 0.6210938,0 1.0078125,-0.1875 v 3.55078124 c 0,0.234375 0,0.328125 -0.6914062,0.328125 H 0.80725 V 4.921875e-4 C 0.93615625,-0.01122656 1.791625,-0.02294531 2.0494375,-0.02294531 c 0.2109375,0 1.0898438,0.01171875 1.2421875,0.0234374975 V -0.24560156 H 3.0338125 c -0.703125,0 -0.703125,-0.09375 -0.703125,-0.328125 z m 0,0"
         style="fill:#ffffff;fill-opacity:1;fill-rule:nonzero;stroke:none" />
      <path
         id="path3"
         d="m 16.510375,-2.2963828 c 0.175781,0 0.351562,0 0.351562,-0.1992188 0,-0.1992187 -0.175781,-0.1992187 -0.351562,-0.1992187 H 11.11975 c -0.164062,0 -0.339844,0 -0.339844,0.1992187 0,0.1992188 0.175782,0.1992188 0.339844,0.1992188 z m 0,0"
         style="fill:#ffffff;fill-opacity:1;fill-rule:nonzero;stroke:none" />
      <path
         id="path4"
         d="m 22.173461,-2.0034141 c 0,-1.1835937 -0.820313,-2.1796875 -1.898438,-2.1796875 -0.480468,0 -0.902343,0.1640625 -1.265625,0.5039063 v -1.9335938 c 0.199219,0.058594 0.527344,0.1289063 0.84375,0.1289063 1.230469,0 1.933594,-0.9140625 1.933594,-1.0429688 0,-0.058594 -0.03516,-0.1054687 -0.105469,-0.1054687 -0.01172,0 -0.03516,0 -0.08203,0.023437 -0.199219,0.09375 -0.679687,0.2929687 -1.347656,0.2929687 -0.398438,0 -0.855469,-0.070312 -1.324219,-0.28125 -0.08203,-0.023437 -0.105469,-0.023437 -0.128906,-0.023437 -0.09375,0 -0.09375,0.082031 -0.09375,0.234375 v 2.953125 c 0,0.1757813 0,0.2578125 0.140625,0.2578125 0.07031,0 0.08203,-0.035156 0.128906,-0.09375 0.105469,-0.1523437 0.480469,-0.6914062 1.277344,-0.6914062 0.527344,0 0.773437,0.4570312 0.855469,0.6328125 0.152343,0.375 0.175781,0.7617187 0.175781,1.2539062 0,0.3515625 0,0.9492188 -0.234375,1.37109379 -0.246094,0.38671875 -0.609375,0.64453125 -1.066406,0.64453125 -0.726563,0 -1.300782,-0.52734375 -1.464844,-1.11328124 0.02344,0.011719 0.05859,0.011719 0.164062,0.011719 0.328125,0 0.503907,-0.2460937 0.503907,-0.4804687 0,-0.2460938 -0.175782,-0.4921875 -0.503907,-0.4921875 -0.140625,0 -0.480468,0.070312 -0.480468,0.5273437 0,0.85546879 0.679687,1.82812504 1.792968,1.82812504 1.160157,0 2.179688,-0.9609375 2.179688,-2.22656254 z m 0,0"
         style="fill:#ffffff;fill-opacity:1;fill-rule:nonzero;stroke:none" />
      <path
         id="path5"
         d="m 24.590453,-0.52685156 c 0,-0.29296875 -0.234375,-0.52734374 -0.527344,-0.52734374 -0.28125,0 -0.527343,0.23437499 -0.527343,0.52734374 0,0.29296875 0.246093,0.5273437475 0.527343,0.5273437475 0.292969,0 0.527344,-0.2343749975 0.527344,-0.5273437475 z m 0,0"
         style="fill:#ffffff;fill-opacity:1;fill-rule:nonzero;stroke:none" />
      <path
         id="path6"
         d="m 30.027953,-3.1870078 c 0,-0.796875 -0.04687,-1.59375 -0.398437,-2.3320313 -0.457032,-0.9609375 -1.277344,-1.1132812 -1.6875,-1.1132812 -0.597657,0 -1.335938,0.2578125 -1.734375,1.1835937 -0.328125,0.6914063 -0.375,1.4648438 -0.375,2.2617188 0,0.75 0.04687,1.640625 0.445312,2.40234374 0.433594,0.80859375 1.160156,1.0078125 1.652344,1.0078125 0.539062,0 1.289062,-0.2109375 1.734375,-1.16015625 0.316406,-0.69140629 0.363281,-1.46484379 0.363281,-2.24999999 z M 27.930297,4.921875e-4 c -0.386719,0 -0.984375,-0.2460937475 -1.160156,-1.2070312875 -0.105469,-0.5976562 -0.105469,-1.5117187 -0.105469,-2.0976562 0,-0.6445313 0,-1.3007813 0.08203,-1.8398438 0.1875,-1.1835937 0.925781,-1.265625 1.183594,-1.265625 0.328125,0 0.984375,0.1757813 1.171875,1.1601563 0.09375,0.5625 0.09375,1.3125 0.09375,1.9453125 0,0.75 0,1.4179687 -0.105469,2.0625 -0.152344,0.93749999 -0.714844,1.2421874875 -1.160156,1.2421874875 z m 0,0"
         style="fill:#ffffff;fill-opacity:1;fill-rule:nonzero;stroke:none" />
      <path
         id="path7"
         d="m 39.101195,9.5600625 h 0.691407 V -8.3579063 H 36.476195 V -7.6665 h 2.625 z m 0,5.9912105 h 0.691407 V 9.5512734 h -0.691407 z m 0,5.979493 h 0.691407 v -6 h -0.691407 z m 0,5.976562 h 0.691407 v -6 h -0.691407 z m 0,5.976563 h 0.691407 v -6 h -0.691407 z m 0,5.979492 h 0.691407 v -6 h -0.691407 z m 0,5.976562 h 0.691407 v -6 h -0.691407 z m 0,17.229492 h -2.625 v 0.679688 h 3.316407 V 45.431156 h -0.691407 z m 0,0"
         style="fill:#ffffff;fill-opacity:1;fill-rule:nonzero;stroke:none" />
      <path
         id="path8"
         d="m 48.356078,25.570805 c 0.09375,-0.04687 0.152344,-0.105469 0.152344,-0.1875 0,-0.09375 -0.07031,-0.175782 -0.164063,-0.175782 -0.01172,0 -0.04687,0 -0.128906,0.04687 l -4.253906,2.039063 c -0.117188,0.05859 -0.164063,0.117187 -0.164063,0.1875 0,0.08203 0.04687,0.140625 0.164063,0.1875 l 4.242187,2.039062 c 0.09375,0.04687 0.117188,0.04687 0.140625,0.04687 0.105469,0 0.164063,-0.08203 0.164063,-0.164062 0,-0.105469 -0.08203,-0.152344 -0.140625,-0.175781 l -4.007813,-1.933594 z m -0.117187,5.71875 c 0.105468,0 0.269531,0 0.269531,-0.164063 0,-0.175781 -0.152344,-0.175781 -0.269531,-0.175781 h -4.160157 c -0.117187,0 -0.28125,0 -0.28125,0.175781 0,0.164063 0.175782,0.164063 0.28125,0.164063 z m 0,0"
         style="fill:#ffffff;fill-opacity:1;fill-rule:nonzero;stroke:none" />
      <path
         id="path9"
         d="m 51.605102,25.559086 c 0,-0.1875 -0.01172,-0.199219 -0.210938,-0.199219 -0.445312,0.433594 -1.078125,0.445313 -1.359375,0.445313 v 0.246093 c 0.164063,0 0.621094,0 1.007813,-0.1875 v 3.550782 c 0,0.234375 0,0.328125 -0.691407,0.328125 h -0.269531 v 0.246093 c 0.128906,-0.01172 0.984375,-0.02344 1.242188,-0.02344 0.210937,0 1.089843,0.01172 1.242187,0.02344 V 29.74268 h -0.257812 c -0.703125,0 -0.703125,-0.09375 -0.703125,-0.328125 z m 0,0"
         style="fill:#ffffff;fill-opacity:1;fill-rule:nonzero;stroke:none" />
      <path
         id="path10"
         d="m 54.827758,29.590336 c 0,-0.246094 -0.210938,-0.398438 -0.398438,-0.398438 -0.222656,0 -0.398437,0.1875 -0.398437,0.386719 0,0.257813 0.199219,0.410156 0.398437,0.410156 0.222657,0 0.398438,-0.1875 0.398438,-0.398437 z m 0,0"
         style="fill:#ffffff;fill-opacity:1;fill-rule:nonzero;stroke:none" />
      <path
         id="path11"
         d="m 59.207641,27.762211 c 0,-0.761719 -0.09375,-1.3125 -0.410157,-1.804688 -0.222656,-0.316406 -0.644531,-0.597656 -1.207031,-0.597656 -1.617187,0 -1.617187,1.898438 -1.617187,2.402344 0,0.503906 0,2.367187 1.617187,2.367187 1.617188,0 1.617188,-1.863281 1.617188,-2.367187 z m -1.617188,2.167969 c -0.316406,0 -0.75,-0.1875 -0.890625,-0.761719 -0.09375,-0.410156 -0.09375,-0.984375 -0.09375,-1.5 0,-0.503906 0,-1.03125 0.105469,-1.417969 0.152344,-0.550781 0.597656,-0.691406 0.878906,-0.691406 0.375,0 0.738281,0.222656 0.867188,0.632812 0.105468,0.375 0.117187,0.878907 0.117187,1.476563 0,0.515625 0,1.042969 -0.09375,1.476562 -0.140625,0.632813 -0.609375,0.785157 -0.890625,0.785157 z m 0,0"
         style="fill:#ffffff;fill-opacity:1;fill-rule:nonzero;stroke:none" />
    </g>
    <path
       id="path12"
       d="M 0,0 H 26.456"
       style="fill:#ffffff;stroke:#ffffff;stroke-width:0.1;stroke-linecap:butt;stroke-linejoin:miter;stroke-miterlimit:10;stroke-dasharray:none;stroke-opacity:1;fill-opacity:1"
       transform="matrix(1.3333333,0,0,-1.3333333,18.578667,21.32)" />
    <g
       id="g12"
       aria-label="2−3.0"
       transform="matrix(1.3333333,0,0,1.3333333,9.2986667,32.412)"
       style="fill:#ffffff;fill-opacity:1">
      <path
         id="path13"
         d="m 3.5142813,-1.2670078 h -0.234375 c -0.023437,0.1523437 -0.082031,0.56249999 -0.1757813,0.63281249 -0.058594,0.0351563 -0.5976562,0.0351563 -0.6914062,0.0351563 H 1.1236563 C 1.8619375,-1.2435702 2.1080313,-1.442789 2.5181875,-1.770914 3.0338125,-2.1810703 3.5142813,-2.6146641 3.5142813,-3.2709141 3.5142813,-4.114664 2.776,-4.630289 1.885375,-4.630289 c -0.8671875,0 -1.453125,0.609375 -1.453125,1.2421874 0,0.3632813 0.3046875,0.3984375 0.375,0.3984375 0.1640625,0 0.375,-0.1171875 0.375,-0.375 0,-0.1289062 -0.058594,-0.3632812 -0.421875,-0.3632812 0.22265625,-0.5039062 0.6914063,-0.6562499 1.0195313,-0.6562499 0.703125,0 1.0664062,0.5507812 1.0664062,1.1132812 0,0.609375 -0.4335937,1.0898438 -0.65625,1.3359375 l -1.6875,1.66406249 C 0.43225,-0.21232031 0.43225,-0.20060156 0.43225,-0.00138281 h 2.8828125 z m 0,0"
         style="fill:#ffffff;fill-opacity:1;fill-rule:nonzero;stroke:none" />
      <path
         id="path14"
         d="m 16.510375,-2.2982578 c 0.175781,0 0.351562,0 0.351562,-0.1992188 0,-0.1992187 -0.175781,-0.1992187 -0.351562,-0.1992187 H 11.11975 c -0.164062,0 -0.339844,0 -0.339844,0.1992187 0,0.1992188 0.175782,0.1992188 0.339844,0.1992188 z m 0,0"
         style="fill:#ffffff;fill-opacity:1;fill-rule:nonzero;stroke:none" />
      <path
         id="path15"
         d="m 20.59143,-3.5052891 c 0.808593,-0.2695312 1.394531,-0.9726562 1.394531,-1.7578125 0,-0.8203125 -0.878906,-1.3710937 -1.839844,-1.3710937 -1.007812,0 -1.757812,0.5976562 -1.757812,1.3476562 0,0.3398438 0.210937,0.5273438 0.503906,0.5273438 0.304687,0 0.503906,-0.2226563 0.503906,-0.515625 0,-0.4921875 -0.46875,-0.4921875 -0.609375,-0.4921875 0.304688,-0.4921875 0.960938,-0.6210938 1.324219,-0.6210938 0.410156,0 0.949219,0.2226563 0.949219,1.1132813 0,0.1289062 -0.01172,0.703125 -0.269532,1.1367187 -0.304687,0.4804688 -0.644531,0.515625 -0.890625,0.515625 -0.08203,0.011719 -0.316406,0.035156 -0.386718,0.035156 -0.08203,0.011719 -0.152344,0.023437 -0.152344,0.1171875 0,0.1171875 0.07031,0.1171875 0.234375,0.1171875 h 0.445312 c 0.808594,0 1.183594,0.6679687 1.183594,1.6523437 0,1.34765629 -0.691406,1.64062504 -1.125,1.64062504 -0.433594,0 -1.171875,-0.17578125 -1.523437,-0.76171875 0.351562,0.0585938 0.65625,-0.1640625 0.65625,-0.53906249 0,-0.3632813 -0.269532,-0.5625 -0.5625,-0.5625 -0.234375,0 -0.550782,0.140625 -0.550782,0.5742187 0,0.91406254 0.925782,1.57031254 2.003907,1.57031254 1.21875,0 2.121093,-0.9140625 2.121093,-1.92187504 0,-0.8203125 -0.621093,-1.59375 -1.652343,-1.8046872 z m 0,0"
         style="fill:#ffffff;fill-opacity:1;fill-rule:nonzero;stroke:none" />
      <path
         id="path16"
         d="m 24.590453,-0.52872656 c 0,-0.29296875 -0.234375,-0.52734374 -0.527344,-0.52734374 -0.28125,0 -0.527343,0.23437499 -0.527343,0.52734374 0,0.29296875 0.246093,0.52734375 0.527343,0.52734375 0.292969,0 0.527344,-0.234375 0.527344,-0.52734375 z m 0,0"
         style="fill:#ffffff;fill-opacity:1;fill-rule:nonzero;stroke:none" />
      <path
         id="path17"
         d="m 30.027953,-3.1888828 c 0,-0.796875 -0.04687,-1.59375 -0.398437,-2.3320313 -0.457032,-0.9609375 -1.277344,-1.1132812 -1.6875,-1.1132812 -0.597657,0 -1.335938,0.2578125 -1.734375,1.1835937 -0.328125,0.6914063 -0.375,1.4648438 -0.375,2.2617188 0,0.75 0.04687,1.640625 0.445312,2.40234374 0.433594,0.80859375 1.160156,1.0078125 1.652344,1.0078125 0.539062,0 1.289062,-0.2109375 1.734375,-1.16015625 0.316406,-0.69140629 0.363281,-1.46484379 0.363281,-2.24999999 z m -2.097656,3.18749999 c -0.386719,0 -0.984375,-0.24609375 -1.160156,-1.20703129 -0.105469,-0.5976562 -0.105469,-1.5117187 -0.105469,-2.0976562 0,-0.6445313 0,-1.3007813 0.08203,-1.8398438 0.1875,-1.1835937 0.925781,-1.265625 1.183594,-1.265625 0.328125,0 0.984375,0.1757813 1.171875,1.1601563 0.09375,0.5625 0.09375,1.3125 0.09375,1.9453125 0,0.75 0,1.4179687 -0.105469,2.0625 -0.152344,0.93749999 -0.714844,1.24218749 -1.160156,1.24218749 z m 0,0"
         style="fill:#ffffff;fill-opacity:1;fill-rule:nonzero;stroke:none" />
    </g>
    <path
       id="path18"
       d="M 0,0 H 26.456"
       style="fill:#ffffff;stroke:#ffffff;stroke-width:0.1;stroke-linecap:butt;stroke-linejoin:miter;stroke-miterlimit:10;stroke-dasharray:none;stroke-opacity:1;fill-opacity:1"
       transform="matrix(1.3333333,0,0,-1.3333333,18.578667,37.261333)" />
    <g
       id="g18"
       aria-label="3−1.0"
       transform="matrix(1.3333333,0,0,1.3333333,9.2986667,48.352)"
       style="fill:#ffffff;fill-opacity:1">
      <path
         id="path19"
         d="m 1.8970938,-2.3323594 c 0.5507812,0 0.9375,0.375 0.9375,1.125 0,0.86718752 -0.5039063,1.12500002 -0.9023438,1.12500002 -0.28125,0 -0.890625,-0.08203125 -1.18359375,-0.4921875 0.32812505,-0.0117188 0.39843755,-0.24609375 0.39843755,-0.38671875 0,-0.22265627 -0.16406255,-0.38671877 -0.3867188,-0.38671877 -0.1875,0 -0.38671875,0.1171875 -0.38671875,0.41015627 0,0.65625 0.72656255,1.078125 1.57031255,1.078125 0.9726562,0 1.640625,-0.64453125 1.640625,-1.34765627 0,-0.5390625 -0.4453125,-1.0898437 -1.21875,-1.2421875 0.7382812,-0.2695312 0.9960937,-0.796875 0.9960937,-1.21875 0,-0.5507812 -0.6328125,-0.9609375 -1.40625,-0.9609375 -0.7734375,0 -1.359375,0.375 -1.359375,0.9375 0,0.234375 0.15234375,0.3632813 0.36328125,0.3632813 0.21093755,0 0.35156255,-0.1640625 0.35156255,-0.3515625 0,-0.1992188 -0.140625,-0.3515625 -0.35156255,-0.3632813 C 1.1939688,-4.3479844 1.6744375,-4.4300156 1.93225,-4.4300156 c 0.3164063,0 0.7617188,0.1523437 0.7617188,0.7617187 0,0.2929688 -0.1054688,0.609375 -0.28125,0.8320313 -0.234375,0.2578125 -0.421875,0.28125 -0.7734375,0.2929687 -0.1757813,0.023437 -0.1875,0.023437 -0.2226563,0.023437 -0.011719,0 -0.070312,0.011719 -0.070312,0.09375 0,0.09375 0.058594,0.09375 0.1757813,0.09375 z m 0,0"
         style="fill:#ffffff;fill-opacity:1;fill-rule:nonzero;stroke:none" />
      <path
         id="path20"
         d="m 16.510375,-2.2972031 c 0.175781,0 0.351562,0 0.351562,-0.1992188 0,-0.1992187 -0.175781,-0.1992187 -0.351562,-0.1992187 H 11.11975 c -0.164062,0 -0.339844,0 -0.339844,0.1992187 0,0.1992188 0.175782,0.1992188 0.339844,0.1992188 z m 0,0"
         style="fill:#ffffff;fill-opacity:1;fill-rule:nonzero;stroke:none" />
      <path
         id="path21"
         d="m 20.626586,-6.3753281 c 0,-0.234375 0,-0.2578125 -0.234375,-0.2578125 -0.609375,0.6328125 -1.488281,0.6328125 -1.804688,0.6328125 v 0.3164062 c 0.199219,0 0.785157,0 1.300782,-0.2578125 v 5.15625002 c 0,0.3515625 -0.03516,0.48046875 -0.925782,0.48046875 h -0.316406 v 0.304687505 c 0.351563,-0.035156255 1.207031,-0.035156255 1.605469,-0.035156255 0.398437,0 1.265625,0 1.617187,0.035156255 V -0.30501563 h -0.316406 c -0.902344,0 -0.925781,-0.1171875 -0.925781,-0.48046875 z m 0,0"
         style="fill:#ffffff;fill-opacity:1;fill-rule:nonzero;stroke:none" />
      <path
         id="path22"
         d="m 24.590453,-0.52767188 c 0,-0.29296875 -0.234375,-0.52734372 -0.527344,-0.52734372 -0.28125,0 -0.527343,0.23437497 -0.527343,0.52734372 0,0.29296875 0.246093,0.527343755 0.527343,0.527343755 0.292969,0 0.527344,-0.234375005 0.527344,-0.527343755 z m 0,0"
         style="fill:#ffffff;fill-opacity:1;fill-rule:nonzero;stroke:none" />
      <path
         id="path23"
         d="m 30.027953,-3.1878281 c 0,-0.796875 -0.04687,-1.59375 -0.398437,-2.3320313 -0.457032,-0.9609375 -1.277344,-1.1132812 -1.6875,-1.1132812 -0.597657,0 -1.335938,0.2578125 -1.734375,1.1835937 -0.328125,0.6914063 -0.375,1.4648438 -0.375,2.2617188 0,0.75 0.04687,1.640625 0.445312,2.40234372 0.433594,0.80859375 1.160156,1.0078125 1.652344,1.0078125 0.539062,0 1.289062,-0.2109375 1.734375,-1.16015625 0.316406,-0.69140627 0.363281,-1.46484377 0.363281,-2.24999997 z m -2.097656,3.187499975 c -0.386719,0 -0.984375,-0.246093755 -1.160156,-1.207031275 -0.105469,-0.5976562 -0.105469,-1.5117187 -0.105469,-2.0976562 0,-0.6445313 0,-1.3007813 0.08203,-1.8398438 0.1875,-1.1835937 0.925781,-1.265625 1.183594,-1.265625 0.328125,0 0.984375,0.1757813 1.171875,1.1601563 0.09375,0.5625 0.09375,1.3125 0.09375,1.9453125 0,0.75 0,1.4179687 -0.105469,2.0625 -0.152344,0.93749997 -0.714844,1.242187475 -1.160156,1.242187475 z m 0,0"
         style="fill:#ffffff;fill-opacity:1;fill-rule:nonzero;stroke:none" />
    </g>
    <path
       id="path24"
       d="M 0,0 H 26.456"
       style="fill:#ffffff;stroke:#ffffff;stroke-width:0.1;stroke-linecap:butt;stroke-linejoin:miter;stroke-miterlimit:10;stroke-dasharray:none;stroke-opacity:1;fill-opacity:1"
       transform="matrix(1.3333333,0,0,-1.3333333,18.578667,53.201333)" />
    <g
       id="g24"
       aria-label="40.0"
       transform="matrix(1.3333333,0,0,1.3333333,9.2986667,64.293333)"
       style="fill:#ffffff;fill-opacity:1">
      <path
         id="path25"
         d="M 3.6900625,-1.1487109 V -1.3948047 H 2.916625 v -3.1054687 c 0,-0.1523438 0,-0.1992188 -0.1523437,-0.1992188 -0.09375,0 -0.1171875,0 -0.1875,0.09375 l -2.3085938,3.2109375 v 0.2460938 h 2.0507813 v 0.57421871 c 0,0.234375 0,0.328125 -0.5625,0.328125 h -0.1875 V -2.734375e-4 C 1.9205313,-0.01199219 2.3658438,-0.02371094 2.6119375,-0.02371094 c 0.2578125,0 0.703125,0.01171875 1.0546875,0.0234375025 V -0.24636719 h -0.1875 c -0.5625,0 -0.5625,-0.09375 -0.5625,-0.328125 V -1.1487109 Z M 2.3658438,-3.9494922 v 2.5546875 H 0.526 Z m 0,0"
         style="fill:#ffffff;fill-opacity:1;fill-rule:nonzero;stroke:none" />
      <path
         id="path26"
         d="m 22.27893,-3.1877734 c 0,-0.796875 -0.04687,-1.59375 -0.398438,-2.3320313 -0.457031,-0.9609375 -1.277344,-1.1132812 -1.6875,-1.1132812 -0.597656,0 -1.335937,0.2578125 -1.734375,1.1835937 -0.328125,0.6914063 -0.375,1.4648438 -0.375,2.2617188 0,0.75 0.04687,1.640625 0.445313,2.40234371 0.433593,0.80859375 1.160156,1.0078125 1.652343,1.0078125 0.539063,0 1.289063,-0.2109375 1.734375,-1.16015625 0.316407,-0.69140626 0.363282,-1.46484376 0.363282,-2.24999996 z m -2.097657,3.1874999625 c -0.386718,0 -0.984375,-0.2460937525 -1.160156,-1.2070312625 -0.105469,-0.5976562 -0.105469,-1.5117187 -0.105469,-2.0976562 0,-0.6445313 0,-1.3007813 0.08203,-1.8398438 0.1875,-1.1835937 0.925781,-1.265625 1.183593,-1.265625 0.328125,0 0.984375,0.1757813 1.171875,1.1601563 0.09375,0.5625 0.09375,1.3125 0.09375,1.9453125 0,0.75 0,1.4179687 -0.105468,2.0625 -0.152344,0.93749996 -0.714844,1.2421874625 -1.160157,1.2421874625 z m 0,0"
         style="fill:#ffffff;fill-opacity:1;fill-rule:nonzero;stroke:none" />
      <path
         id="path27"
         d="m 24.590453,-0.52761719 c 0,-0.29296875 -0.234375,-0.52734371 -0.527344,-0.52734371 -0.28125,0 -0.527343,0.23437496 -0.527343,0.52734371 0,0.29296875 0.246093,0.5273437525 0.527343,0.5273437525 0.292969,0 0.527344,-0.2343750025 0.527344,-0.5273437525 z m 0,0"
         style="fill:#ffffff;fill-opacity:1;fill-rule:nonzero;stroke:none" />
      <path
         id="path28"
         d="m 30.027953,-3.1877734 c 0,-0.796875 -0.04687,-1.59375 -0.398437,-2.3320313 -0.457032,-0.9609375 -1.277344,-1.1132812 -1.6875,-1.1132812 -0.597657,0 -1.335938,0.2578125 -1.734375,1.1835937 -0.328125,0.6914063 -0.375,1.4648438 -0.375,2.2617188 0,0.75 0.04687,1.640625 0.445312,2.40234371 0.433594,0.80859375 1.160156,1.0078125 1.652344,1.0078125 0.539062,0 1.289062,-0.2109375 1.734375,-1.16015625 0.316406,-0.69140626 0.363281,-1.46484376 0.363281,-2.24999996 z m -2.097656,3.1874999625 c -0.386719,0 -0.984375,-0.2460937525 -1.160156,-1.2070312625 -0.105469,-0.5976562 -0.105469,-1.5117187 -0.105469,-2.0976562 0,-0.6445313 0,-1.3007813 0.08203,-1.8398438 0.1875,-1.1835937 0.925781,-1.265625 1.183594,-1.265625 0.328125,0 0.984375,0.1757813 1.171875,1.1601563 0.09375,0.5625 0.09375,1.3125 0.09375,1.9453125 0,0.75 0,1.4179687 -0.105469,2.0625 -0.152344,0.93749996 -0.714844,1.2421874625 -1.160156,1.2421874625 z m 0,0"
         style="fill:#ffffff;fill-opacity:1;fill-rule:nonzero;stroke:none" />
    </g>
    <path
       id="path29"
       d="M 0,0 H 26.456"
       style="fill:#ffffff;stroke:#ffffff;stroke-width:0.1;stroke-linecap:butt;stroke-linejoin:miter;stroke-miterlimit:10;stroke-dasharray:none;stroke-opacity:1;fill-opacity:1"
       transform="matrix(1.3333333,0,0,-1.3333333,18.578667,69.141333)" />
    <g
       id="g29"
       aria-label="50.0"
       transform="matrix(1.3333333,0,0,1.3333333,9.2986667,80.233333)"
       style="fill:#ffffff;fill-opacity:1">
      <path
         id="path30"
         d="m 1.0767813,-3.8898438 c 0.3632812,0.09375 0.5625,0.09375 0.6796875,0.09375 0.9140625,0 1.4648437,-0.6328125 1.4648437,-0.7382812 0,-0.070312 -0.046875,-0.09375 -0.082031,-0.09375 -0.011719,0 -0.035156,0 -0.058594,0.023437 C 2.916625,-4.5460938 2.541625,-4.4054688 2.026,-4.4054688 c -0.1992187,0 -0.5625,-0.011719 -1.0195312,-0.1875 -0.0703125,-0.035156 -0.0820313,-0.035156 -0.0820313,-0.035156 -0.09375,0 -0.09375,0.070312 -0.09375,0.1875 v 2.0625 c 0,0.1171875 0,0.1992187 0.10546875,0.1992187 0.0703125,0 0.0703125,-0.011719 0.14062505,-0.1054687 0.3046875,-0.375 0.7265625,-0.4335938 0.9726562,-0.4335938 0.421875,0 0.609375,0.3398438 0.6445313,0.3867188 0.1171875,0.234375 0.1640625,0.5039062 0.1640625,0.9023437 0,0.2109375 0,0.6210938 -0.2109375,0.9257813 -0.1757813,0.2578125 -0.46875,0.421875 -0.8203125,0.421875 -0.4453125,0 -0.91406255,-0.2578125 -1.0898438,-0.71484375 0.2695313,0.0234375 0.3984375,-0.15234375 0.3984375,-0.33984375 0,-0.3046875 -0.2578125,-0.3515625 -0.3515625,-0.3515625 -0.0117188,0 -0.3515625,0 -0.3515625,0.375 0,0.62109375 0.5742188,1.25390625 1.4179688,1.25390625 0.890625,0 1.6640625,-0.66796875 1.6640625,-1.54687505 0,-0.7851562 -0.5976563,-1.5117187 -1.453125,-1.5117187 -0.3164063,0 -0.6796875,0.082031 -0.984375,0.3398437 z m 0,0"
         style="fill:#ffffff;fill-opacity:1;fill-rule:nonzero;stroke:none" />
      <path
         id="path31"
         d="m 22.27893,-3.1867188 c 0,-0.796875 -0.04687,-1.59375 -0.398438,-2.3320312 -0.457031,-0.9609375 -1.277344,-1.1132813 -1.6875,-1.1132813 -0.597656,0 -1.335937,0.2578125 -1.734375,1.1835938 -0.328125,0.6914062 -0.375,1.4648437 -0.375,2.2617187 0,0.75 0.04687,1.640625 0.445313,2.4023438 0.433593,0.80859375 1.160156,1.0078125 1.652343,1.0078125 0.539063,0 1.289063,-0.2109375 1.734375,-1.16015625 C 22.232055,-1.628125 22.27893,-2.4015625 22.27893,-3.1867188 Z M 20.181273,7.8125e-4 c -0.386718,0 -0.984375,-0.24609375 -1.160156,-1.20703125 -0.105469,-0.5976563 -0.105469,-1.5117188 -0.105469,-2.0976563 0,-0.6445312 0,-1.3007812 0.08203,-1.8398437 0.1875,-1.1835938 0.925781,-1.265625 1.183593,-1.265625 0.328125,0 0.984375,0.1757812 1.171875,1.1601562 0.09375,0.5625 0.09375,1.3125 0.09375,1.9453125 0,0.75 0,1.4179688 -0.105468,2.0625 -0.152344,0.93750005 -0.714844,1.24218755 -1.160157,1.24218755 z m 0,0"
         style="fill:#ffffff;fill-opacity:1;fill-rule:nonzero;stroke:none" />
      <path
         id="path32"
         d="m 24.590453,-0.5265625 c 0,-0.29296875 -0.234375,-0.5273438 -0.527344,-0.5273438 -0.28125,0 -0.527343,0.23437505 -0.527343,0.5273438 0,0.29296875 0.246093,0.52734375 0.527343,0.52734375 0.292969,0 0.527344,-0.234375 0.527344,-0.52734375 z m 0,0"
         style="fill:#ffffff;fill-opacity:1;fill-rule:nonzero;stroke:none" />
      <path
         id="path33"
         d="m 30.027953,-3.1867188 c 0,-0.796875 -0.04687,-1.59375 -0.398437,-2.3320312 -0.457032,-0.9609375 -1.277344,-1.1132813 -1.6875,-1.1132813 -0.597657,0 -1.335938,0.2578125 -1.734375,1.1835938 -0.328125,0.6914062 -0.375,1.4648437 -0.375,2.2617187 0,0.75 0.04687,1.640625 0.445312,2.4023438 0.433594,0.80859375 1.160156,1.0078125 1.652344,1.0078125 0.539062,0 1.289062,-0.2109375 1.734375,-1.16015625 0.316406,-0.69140625 0.363281,-1.46484375 0.363281,-2.25000005 z M 27.930297,7.8125e-4 c -0.386719,0 -0.984375,-0.24609375 -1.160156,-1.20703125 -0.105469,-0.5976563 -0.105469,-1.5117188 -0.105469,-2.0976563 0,-0.6445312 0,-1.3007812 0.08203,-1.8398437 0.1875,-1.1835938 0.925781,-1.265625 1.183594,-1.265625 0.328125,0 0.984375,0.1757812 1.171875,1.1601562 0.09375,0.5625 0.09375,1.3125 0.09375,1.9453125 0,0.75 0,1.4179688 -0.105469,2.0625 -0.152344,0.93750005 -0.714844,1.24218755 -1.160156,1.24218755 z m 0,0"
         style="fill:#ffffff;fill-opacity:1;fill-rule:nonzero;stroke:none" />
    </g>
    <path
       id="path34"
       d="M 0,0 H 26.456"
       style="fill:#ffffff;stroke:#ffffff;stroke-width:0.1;stroke-linecap:butt;stroke-linejoin:miter;stroke-miterlimit:10;stroke-dasharray:none;stroke-opacity:1;fill-opacity:1"
       transform="matrix(1.3333333,0,0,-1.3333333,18.578667,85.081333)" />
    <g
       id="g34"
       aria-label="60.0"
       transform="matrix(1.3333333,0,0,1.3333333,9.2986667,96.173333)"
       style="fill:#ffffff;fill-opacity:1">
      <path
         id="path35"
         d="m 1.041625,-2.28625 c 0,-0.5625 0.046875,-1.078125 0.3164063,-1.5117188 0.234375,-0.375 0.609375,-0.6328125 1.0546875,-0.6328125 0.2109375,0 0.4921875,0.058594 0.6328125,0.2460938 -0.1757813,0.011719 -0.3164063,0.1289062 -0.3164063,0.3398437 0,0.1640625 0.1171875,0.328125 0.328125,0.328125 0.1992188,0 0.328125,-0.140625 0.328125,-0.3515625 C 3.385375,-4.2667188 3.0924063,-4.63 2.401,-4.63 c -0.9960937,0 -2.02734375,0.9140625 -2.02734375,2.4140625 0,1.8046875 0.85546875,2.35546875 1.61718755,2.35546875 0.8554687,0 1.59375,-0.64453125 1.59375,-1.55859375 0,-0.890625 -0.703125,-1.546875 -1.5234375,-1.546875 -0.5507813,0 -0.8671875,0.375 -1.0195313,0.6796875 z m 0.9492188,2.203125 c -0.3515625,0 -0.6210938,-0.19921875 -0.7617188,-0.515625 -0.1054687,-0.19921875 -0.1640625,-0.5507813 -0.1640625,-0.9726563 0,-0.6796875 0.4101563,-1.1953125 0.9609375,-1.1953125 0.328125,0 0.5390625,0.1171875 0.7148438,0.3867188 0.1640625,0.2578125 0.1757812,0.5507812 0.1757812,0.9609375 0,0.3984375 0,0.69140625 -0.1875,0.9609375 -0.1757812,0.24609375 -0.3984375,0.375 -0.7382812,0.375 z m 0,0"
         style="fill:#ffffff;fill-opacity:1;fill-rule:nonzero;stroke:none" />
      <path
         id="path36"
         d="m 22.27893,-3.1885938 c 0,-0.796875 -0.04687,-1.59375 -0.398438,-2.3320312 -0.457031,-0.9609375 -1.277344,-1.1132813 -1.6875,-1.1132813 -0.597656,0 -1.335937,0.2578125 -1.734375,1.1835938 -0.328125,0.6914062 -0.375,1.4648437 -0.375,2.2617187 0,0.75 0.04687,1.640625 0.445313,2.4023438 0.433593,0.80859375 1.160156,1.0078125 1.652343,1.0078125 0.539063,0 1.289063,-0.2109375 1.734375,-1.16015625 C 22.232055,-1.63 22.27893,-2.4034375 22.27893,-3.1885938 Z m -2.097657,3.18750005 c -0.386718,0 -0.984375,-0.24609375 -1.160156,-1.20703125 -0.105469,-0.5976563 -0.105469,-1.5117188 -0.105469,-2.0976563 0,-0.6445312 0,-1.3007812 0.08203,-1.8398437 0.1875,-1.1835938 0.925781,-1.265625 1.183593,-1.265625 0.328125,0 0.984375,0.1757812 1.171875,1.1601562 0.09375,0.5625 0.09375,1.3125 0.09375,1.9453125 0,0.75 0,1.4179688 -0.105468,2.0625 -0.152344,0.93750005 -0.714844,1.24218755 -1.160157,1.24218755 z m 0,0"
         style="fill:#ffffff;fill-opacity:1;fill-rule:nonzero;stroke:none" />
      <path
         id="path37"
         d="m 24.590453,-0.5284375 c 0,-0.29296875 -0.234375,-0.5273438 -0.527344,-0.5273438 -0.28125,0 -0.527343,0.23437505 -0.527343,0.5273438 0,0.29296875 0.246093,0.52734375 0.527343,0.52734375 0.292969,0 0.527344,-0.234375 0.527344,-0.52734375 z m 0,0"
         style="fill:#ffffff;fill-opacity:1;fill-rule:nonzero;stroke:none" />
      <path
         id="path38"
         d="m 30.027953,-3.1885938 c 0,-0.796875 -0.04687,-1.59375 -0.398437,-2.3320312 -0.457032,-0.9609375 -1.277344,-1.1132813 -1.6875,-1.1132813 -0.597657,0 -1.335938,0.2578125 -1.734375,1.1835938 -0.328125,0.6914062 -0.375,1.4648437 -0.375,2.2617187 0,0.75 0.04687,1.640625 0.445312,2.4023438 0.433594,0.80859375 1.160156,1.0078125 1.652344,1.0078125 0.539062,0 1.289062,-0.2109375 1.734375,-1.16015625 C 29.981078,-1.63 30.027953,-2.4034375 30.027953,-3.1885938 Z m -2.097656,3.18750005 c -0.386719,0 -0.984375,-0.24609375 -1.160156,-1.20703125 -0.105469,-0.5976563 -0.105469,-1.5117188 -0.105469,-2.0976563 0,-0.6445312 0,-1.3007812 0.08203,-1.8398437 0.1875,-1.1835938 0.925781,-1.265625 1.183594,-1.265625 0.328125,0 0.984375,0.1757812 1.171875,1.1601562 0.09375,0.5625 0.09375,1.3125 0.09375,1.9453125 0,0.75 0,1.4179688 -0.105469,2.0625 -0.152344,0.93750005 -0.714844,1.24218755 -1.160156,1.24218755 z m 0,0"
         style="fill:#ffffff;fill-opacity:1;fill-rule:nonzero;stroke:none" />
    </g>
    <path
       id="path39"
       d="M 0,0 H 26.456"
       style="fill:#ffffff;stroke:#ffffff;stroke-width:0.1;stroke-linecap:butt;stroke-linejoin:miter;stroke-miterlimit:10;stroke-dasharray:none;stroke-opacity:1;fill-opacity:1"
       transform="matrix(1.3333333,0,0,-1.3333333,18.578667,101.02133)" />
    <g
       id="g39"
       aria-label="72.0&#10;&#10;&#10;&gt;1.0"
       transform="matrix(1.3333333,0,0,1.3333333,9.2986667,112.11333)"
       style="fill:#ffffff;fill-opacity:1">
      <path
         id="path40"
         d="m 3.7252188,-4.2070703 c 0.070312,-0.09375 0.070312,-0.1054688 0.070312,-0.28125 h -1.828125 c -0.2695313,0 -0.3515625,-0.011719 -0.5976563,-0.035156 -0.3632812,-0.023437 -0.38671875,-0.070312 -0.3984375,-0.1875 H 0.72521875 l -0.234375,1.4882813 h 0.234375 c 0.0117188,-0.1054688 0.0820313,-0.5625 0.19921875,-0.6328125 0.046875,-0.046875 0.609375,-0.046875 0.7148438,-0.046875 H 3.1627188 C 2.9400625,-3.6094141 2.5885,-3.1758203 2.4361563,-2.9766016 c -0.9140625,1.1953125 -0.9960938,2.30859379 -0.9960938,2.71875004 0,0.0820312 0,0.3984375 0.328125,0.3984375 0.3398438,0 0.3398438,-0.31640625 0.3398438,-0.41015625 v -0.26953125 c 0,-1.35937504 0.2695312,-1.98046874 0.5742187,-2.35546874 z m 0,0"
         style="fill:#ffffff;fill-opacity:1;fill-rule:nonzero;stroke:none" />
      <path
         id="path41"
         d="m 18.962523,-0.76175781 1.054688,-1.03124999 c 1.558594,-1.3710938 2.15625,-1.9101563 2.15625,-2.90625 0,-1.1367188 -0.902344,-1.9335938 -2.121094,-1.9335938 -1.125,0 -1.851562,0.9140625 -1.851562,1.8046875 0,0.5507813 0.492187,0.5507813 0.527343,0.5507813 0.164063,0 0.515625,-0.1171875 0.515625,-0.5273438 0,-0.2578125 -0.1875,-0.515625 -0.527343,-0.515625 -0.08203,0 -0.105469,0 -0.128907,0.011719 0.222657,-0.6445313 0.761719,-1.0195313 1.335938,-1.0195313 0.914062,0 1.335937,0.8085938 1.335937,1.6289063 0,0.796875 -0.492187,1.5820312 -1.042968,2.203125 l -1.910157,2.13281249 c -0.105468,0.10546875 -0.105468,0.12890625 -0.105468,0.3632812475 h 3.691406 L 22.173461,-1.7344141 h -0.257813 c -0.04687,0.3046875 -0.117187,0.73828129 -0.210937,0.89062504 -0.07031,0.0820313 -0.726563,0.0820313 -0.949219,0.0820313 z m 0,0"
         style="fill:#ffffff;fill-opacity:1;fill-rule:nonzero;stroke:none" />
      <path
         id="path42"
         d="m 24.590453,-0.52738281 c 0,-0.29296875 -0.234375,-0.52734379 -0.527344,-0.52734379 -0.28125,0 -0.527343,0.23437504 -0.527343,0.52734379 0,0.29296875 0.246093,0.5273437475 0.527343,0.5273437475 0.292969,0 0.527344,-0.2343749975 0.527344,-0.5273437475 z m 0,0"
         style="fill:#ffffff;fill-opacity:1;fill-rule:nonzero;stroke:none" />
      <path
         id="path43"
         d="m 30.027953,-3.1875391 c 0,-0.796875 -0.04687,-1.59375 -0.398437,-2.3320312 -0.457032,-0.9609375 -1.277344,-1.1132813 -1.6875,-1.1132813 -0.597657,0 -1.335938,0.2578125 -1.734375,1.1835938 -0.328125,0.6914062 -0.375,1.4648437 -0.375,2.2617187 0,0.75 0.04687,1.640625 0.445312,2.40234379 0.433594,0.80859375 1.160156,1.0078125 1.652344,1.0078125 0.539062,0 1.289062,-0.2109375 1.734375,-1.16015625 0.316406,-0.69140624 0.363281,-1.46484374 0.363281,-2.25000004 z M 27.930297,-3.90625e-5 c -0.386719,0 -0.984375,-0.2460937475 -1.160156,-1.2070312375 -0.105469,-0.5976563 -0.105469,-1.5117188 -0.105469,-2.0976563 0,-0.6445312 0,-1.3007812 0.08203,-1.8398437 0.1875,-1.1835938 0.925781,-1.265625 1.183594,-1.265625 0.328125,0 0.984375,0.1757812 1.171875,1.1601562 0.09375,0.5625 0.09375,1.3125 0.09375,1.9453125 0,0.75 0,1.4179688 -0.105469,2.0625 -0.152344,0.93750004 -0.714844,1.2421875375 -1.160156,1.2421875375 z m 0,0"
         style="fill:#ffffff;fill-opacity:1;fill-rule:nonzero;stroke:none" />
      <path
         id="path44"
         d="m 39.101195,9.5624609 h 0.691407 V -8.3555078 h -3.316407 v 0.6914062 h 2.625 z m 0,17.2412111 h -2.625 v 0.679687 h 3.316407 V 9.5653906 h -0.691407 z m 0,0"
         style="fill:#ffffff;fill-opacity:1;fill-rule:nonzero;stroke:none" />
      <path
         id="path45"
         d="m 48.356078,10.497031 c 0.09375,-0.04687 0.152344,-0.09375 0.152344,-0.1875 0,-0.105469 -0.07031,-0.140625 -0.140625,-0.175781 L 44.113891,8.0829687 c -0.09375,-0.046875 -0.128907,-0.046875 -0.140625,-0.046875 -0.09375,0 -0.175782,0.070312 -0.175782,0.1757813 0,0.09375 0.08203,0.140625 0.152344,0.1640625 l 3.996094,1.9335935 -3.996094,1.921875 c -0.08203,0.03516 -0.152344,0.09375 -0.152344,0.175781 0,0.105469 0.08203,0.175782 0.175782,0.175782 0.01172,0 0.04687,0 0.128906,-0.03516 z m 0,0"
         style="fill:#ffffff;fill-opacity:1;fill-rule:nonzero;stroke:none" />
      <path
         id="path46"
         d="m 51.605102,7.6259375 c 0,-0.1875 -0.01172,-0.1992188 -0.210938,-0.1992188 -0.445312,0.4335938 -1.078125,0.4453125 -1.359375,0.4453125 V 8.118125 c 0.164063,0 0.621094,0 1.007813,-0.1875 v 3.550781 c 0,0.234375 0,0.328125 -0.691407,0.328125 h -0.269531 v 0.246094 c 0.128906,-0.01172 0.984375,-0.02344 1.242188,-0.02344 0.210937,0 1.089843,0.01172 1.242187,0.02344 v -0.246094 h -0.257812 c -0.703125,0 -0.703125,-0.09375 -0.703125,-0.328125 z m 0,0"
         style="fill:#ffffff;fill-opacity:1;fill-rule:nonzero;stroke:none" />
      <path
         id="path47"
         d="m 54.827758,11.657187 c 0,-0.246093 -0.210938,-0.398437 -0.398438,-0.398437 -0.222656,0 -0.398437,0.1875 -0.398437,0.386719 0,0.257812 0.199219,0.410156 0.398437,0.410156 0.222657,0 0.398438,-0.1875 0.398438,-0.398438 z m 0,0"
         style="fill:#ffffff;fill-opacity:1;fill-rule:nonzero;stroke:none" />
      <path
         id="path48"
         d="m 59.207641,9.8290625 c 0,-0.7617188 -0.09375,-1.3125 -0.410157,-1.8046875 -0.222656,-0.3164063 -0.644531,-0.5976563 -1.207031,-0.5976563 -1.617187,0 -1.617187,1.8984375 -1.617187,2.4023438 0,0.5039065 0,2.3671875 1.617187,2.3671875 1.617188,0 1.617188,-1.863281 1.617188,-2.3671875 z m -1.617188,2.1679685 c -0.316406,0 -0.75,-0.1875 -0.890625,-0.761719 -0.09375,-0.410156 -0.09375,-0.984375 -0.09375,-1.4999995 0,-0.5039063 0,-1.03125 0.105469,-1.4179688 0.152344,-0.5507812 0.597656,-0.6914062 0.878906,-0.6914062 0.375,0 0.738281,0.2226562 0.867188,0.6328125 0.105468,0.375 0.117187,0.8789062 0.117187,1.4765625 0,0.5156245 0,1.0429685 -0.09375,1.4765625 -0.140625,0.632812 -0.609375,0.785156 -0.890625,0.785156 z m 0,0"
         style="fill:#ffffff;fill-opacity:1;fill-rule:nonzero;stroke:none" />
    </g>
    <path
       id="path49"
       d="M 0,0 H 26.456"
       style="fill:#ffffff;stroke:#ffffff;stroke-width:0.1;stroke-linecap:butt;stroke-linejoin:miter;stroke-miterlimit:10;stroke-dasharray:none;stroke-opacity:1;fill-opacity:1"
       transform="matrix(1.3333333,0,0,-1.3333333,18.578667,116.96133)" />
    <g
       id="g49"
       aria-label="85.0"
       transform="matrix(1.3333333,0,0,1.3333333,9.2986667,128.05333)"
       style="fill:#ffffff;fill-opacity:1">
      <path
         id="path50"
         d="m 2.4713125,-2.5185156 c 0.5507813,-0.2578125 0.890625,-0.5859375 0.890625,-1.0664063 0,-0.6796875 -0.703125,-1.0429687 -1.3710937,-1.0429687 -0.7734375,0 -1.3945313,0.5039062 -1.3945313,1.1601562 0,0.328125 0.15234375,0.5625 0.26953125,0.703125 0.12890625,0.1523438 0.17578125,0.1757813 0.58593755,0.421875 -0.3867188,0.1640625 -1.07812505,0.5390625 -1.07812505,1.2773438 0,0.77343747 0.80859375,1.20703122 1.59375005,1.20703122 0.890625,0 1.6171875,-0.5625 1.6171875,-1.32421872 0,-0.4570313 -0.2695313,-0.84375 -0.6796875,-1.078125 -0.09375,-0.058594 -0.328125,-0.1992188 -0.4335938,-0.2578125 z m -1.1367187,-0.65625 C 1.1588125,-3.2802344 0.95959375,-3.4677344 0.95959375,-3.7255469 c 0,-0.4453125 0.51562505,-0.703125 1.00781255,-0.703125 0.5507812,0 1.03125,0.3398438 1.03125,0.84375 0,0.6210938 -0.7265625,0.9257813 -0.7382813,0.9257813 -0.011719,0 -0.035156,0 -0.082031,-0.035156 z m 0.3398437,0.9609375 0.9609375,0.5507812 c 0.1757813,0.1054688 0.5273438,0.3164063 0.5273438,0.72656252 0,0.52734375 -0.5742188,0.85546875 -1.171875,0.85546875 -0.6445313,0 -1.19531255,-0.41015625 -1.19531255,-0.98437497 0,-0.515625 0.38671875,-0.9140625 0.87890625,-1.1484375 z m 0,0"
         style="fill:#ffffff;fill-opacity:1;fill-rule:nonzero;stroke:none" />
      <path
         id="path51"
         d="m 22.173461,-2.0028906 c 0,-1.1835938 -0.820313,-2.1796875 -1.898438,-2.1796875 -0.480468,0 -0.902343,0.1640625 -1.265625,0.5039062 v -1.9335937 c 0.199219,0.058594 0.527344,0.1289062 0.84375,0.1289062 1.230469,0 1.933594,-0.9140625 1.933594,-1.0429687 0,-0.058594 -0.03516,-0.1054688 -0.105469,-0.1054688 -0.01172,0 -0.03516,0 -0.08203,0.023437 -0.199219,0.09375 -0.679687,0.2929688 -1.347656,0.2929688 -0.398438,0 -0.855469,-0.070312 -1.324219,-0.28125 -0.08203,-0.023437 -0.105469,-0.023437 -0.128906,-0.023437 -0.09375,0 -0.09375,0.082031 -0.09375,0.234375 v 2.953125 c 0,0.1757812 0,0.2578125 0.140625,0.2578125 0.07031,0 0.08203,-0.035156 0.128906,-0.09375 0.105469,-0.1523438 0.480469,-0.6914063 1.277344,-0.6914063 0.527344,0 0.773437,0.4570313 0.855469,0.6328125 0.152343,0.375 0.175781,0.7617188 0.175781,1.2539063 0,0.3515625 0,0.9492187 -0.234375,1.37109372 -0.246094,0.38671875 -0.609375,0.64453125 -1.066406,0.64453125 -0.726563,0 -1.300782,-0.52734375 -1.464844,-1.11328127 0.02344,0.011719 0.05859,0.011719 0.164062,0.011719 0.328125,0 0.503907,-0.2460938 0.503907,-0.4804688 0,-0.2460937 -0.175782,-0.4921875 -0.503907,-0.4921875 -0.140625,0 -0.480468,0.070312 -0.480468,0.5273438 0,0.85546872 0.679687,1.82812497 1.792968,1.82812497 1.160157,0 2.179688,-0.9609375 2.179688,-2.22656247 z m 0,0"
         style="fill:#ffffff;fill-opacity:1;fill-rule:nonzero;stroke:none" />
      <path
         id="path52"
         d="m 24.590453,-0.52632813 c 0,-0.29296875 -0.234375,-0.52734377 -0.527344,-0.52734377 -0.28125,0 -0.527343,0.23437502 -0.527343,0.52734377 0,0.29296875 0.246093,0.52734375 0.527343,0.52734375 0.292969,0 0.527344,-0.234375 0.527344,-0.52734375 z m 0,0"
         style="fill:#ffffff;fill-opacity:1;fill-rule:nonzero;stroke:none" />
      <path
         id="path53"
         d="m 30.027953,-3.1864844 c 0,-0.796875 -0.04687,-1.59375 -0.398437,-2.3320312 -0.457032,-0.9609375 -1.277344,-1.1132813 -1.6875,-1.1132813 -0.597657,0 -1.335938,0.2578125 -1.734375,1.1835938 -0.328125,0.6914062 -0.375,1.4648437 -0.375,2.2617187 0,0.75 0.04687,1.640625 0.445312,2.40234377 0.433594,0.80859375 1.160156,1.0078125 1.652344,1.0078125 0.539062,0 1.289062,-0.2109375 1.734375,-1.16015625 0.316406,-0.69140622 0.363281,-1.46484372 0.363281,-2.25000002 z m -2.097656,3.18750002 c -0.386719,0 -0.984375,-0.24609375 -1.160156,-1.20703122 -0.105469,-0.5976563 -0.105469,-1.5117188 -0.105469,-2.0976563 0,-0.6445312 0,-1.3007812 0.08203,-1.8398437 0.1875,-1.1835938 0.925781,-1.265625 1.183594,-1.265625 0.328125,0 0.984375,0.1757812 1.171875,1.1601562 0.09375,0.5625 0.09375,1.3125 0.09375,1.9453125 0,0.75 0,1.4179688 -0.105469,2.0625 -0.152344,0.93750002 -0.714844,1.24218752 -1.160156,1.24218752 z m 0,0"
         style="fill:#ffffff;fill-opacity:1;fill-rule:nonzero;stroke:none" />
    </g>
    <path
       id="path54"
       d="M 0,0 H 26.456"
       style="fill:#ffffff;stroke:#ffffff;stroke-width:0.1;stroke-linecap:butt;stroke-linejoin:miter;stroke-miterlimit:10;stroke-dasharray:none;stroke-opacity:1;fill-opacity:1"
       transform="matrix(1.3333333,0,0,-1.3333333,18.578667,132.90267)" />
    <g
       id="g54"
       aria-label="98.0"
       transform="matrix(1.3333333,0,0,1.3333333,9.2986667,143.99333)"
       style="fill:#ffffff;fill-opacity:1">
      <path
         id="path55"
         d="m 2.916625,-2.0750781 c 0,1.72265622 -0.8554687,1.99218747 -1.2773437,1.99218747 -0.1523438,0 -0.5273438,-0.01171875 -0.7148438,-0.234375 0.2929688,-0.0234375 0.3046875,-0.2578125 0.3046875,-0.328125 0,-0.17578125 -0.1171875,-0.328125 -0.328125,-0.328125 -0.19921875,0 -0.328125,0.140625 -0.328125,0.33984375 0,0.48046875 0.3984375,0.7734375 1.0664063,0.7734375 1.0078125,0 1.9453125,-0.9375 1.9453125,-2.43750002 0,-1.7226562 -0.7734375,-2.3320312 -1.5820313,-2.3320312 -0.234375,0 -0.7148437,0.035156 -1.11328125,0.421875 -0.234375,0.234375 -0.515625,0.5039062 -0.515625,1.1367187 0,0.8789063 0.70312505,1.5351563 1.52343755,1.5351563 0.5507812,0 0.8554687,-0.3632813 1.0195312,-0.6796875 z M 1.93225,-1.7352344 c -0.2695312,0 -0.5273437,-0.082031 -0.7265625,-0.4101562 C 1.041625,-2.4032031 1.041625,-2.6961719 1.041625,-3.0711719 c 0,-0.4101562 0,-0.6914062 0.2109375,-0.9726562 0.1640625,-0.234375 0.3867188,-0.3867188 0.75,-0.3867188 0.3632813,0 0.5742188,0.2226563 0.6796875,0.4101563 0.1875,0.2929687 0.2109375,0.7734375 0.2109375,1.0195312 0,0.9023438 -0.5273437,1.265625 -0.9609375,1.265625 z m 0,0"
         style="fill:#ffffff;fill-opacity:1;fill-rule:nonzero;stroke:none" />
      <path
         id="path56"
         d="m 19.325805,-4.5477344 c -0.46875,-0.3046875 -0.503907,-0.6445312 -0.503907,-0.8085937 0,-0.609375 0.644532,-1.03125 1.359375,-1.03125 0.726563,0 1.359375,0.515625 1.359375,1.2421875 0,0.5625 -0.386718,1.0429687 -0.984375,1.3945312 z m 1.453125,0.9375 c 0.714843,-0.3632812 1.207031,-0.8789062 1.207031,-1.5351562 0,-0.9257813 -0.890625,-1.4882813 -1.792969,-1.4882813 -0.996094,0 -1.804687,0.7382813 -1.804687,1.6640625 0,0.1757813 0.01172,0.6210938 0.433593,1.0898438 0.105469,0.1289062 0.480469,0.375 0.726563,0.5390625 -0.574219,0.2929687 -1.429688,0.84375 -1.429688,1.8398437 0,1.05468752 1.007813,1.72265627 2.0625,1.72265627 1.125,0 2.0625,-0.83203125 2.0625,-1.89843747 0,-0.3515625 -0.105468,-0.8085938 -0.480468,-1.21875 -0.1875,-0.2109375 -0.351563,-0.3164063 -0.984375,-0.7148438 z m -0.996094,0.421875 1.21875,0.7734375 c 0.28125,0.1875 0.75,0.4921875 0.75,1.1015625 0,0.73828127 -0.75,1.25390627 -1.558594,1.25390627 -0.867187,0 -1.582031,-0.62109375 -1.582031,-1.44140627 0,-0.5859375 0.316406,-1.21875 1.171875,-1.6875 z m 0,0"
         style="fill:#ffffff;fill-opacity:1;fill-rule:nonzero;stroke:none" />
      <path
         id="path57"
         d="m 24.590453,-0.52820313 c 0,-0.29296875 -0.234375,-0.52734377 -0.527344,-0.52734377 -0.28125,0 -0.527343,0.23437502 -0.527343,0.52734377 0,0.29296875 0.246093,0.527343755 0.527343,0.527343755 0.292969,0 0.527344,-0.234375005 0.527344,-0.527343755 z m 0,0"
         style="fill:#ffffff;fill-opacity:1;fill-rule:nonzero;stroke:none" />
      <path
         id="path58"
         d="m 30.027953,-3.1883594 c 0,-0.796875 -0.04687,-1.59375 -0.398437,-2.3320312 -0.457032,-0.9609375 -1.277344,-1.1132813 -1.6875,-1.1132813 -0.597657,0 -1.335938,0.2578125 -1.734375,1.1835938 -0.328125,0.6914062 -0.375,1.4648437 -0.375,2.2617187 0,0.75 0.04687,1.640625 0.445312,2.40234377 0.433594,0.80859375 1.160156,1.0078125 1.652344,1.0078125 0.539062,0 1.289062,-0.2109375 1.734375,-1.16015625 0.316406,-0.69140622 0.363281,-1.46484372 0.363281,-2.25000002 z m -2.097656,3.187500025 c -0.386719,0 -0.984375,-0.246093755 -1.160156,-1.207031225 -0.105469,-0.5976563 -0.105469,-1.5117188 -0.105469,-2.0976563 0,-0.6445312 0,-1.3007812 0.08203,-1.8398437 0.1875,-1.1835938 0.925781,-1.265625 1.183594,-1.265625 0.328125,0 0.984375,0.1757812 1.171875,1.1601562 0.09375,0.5625 0.09375,1.3125 0.09375,1.9453125 0,0.75 0,1.4179688 -0.105469,2.0625 -0.152344,0.93750002 -0.714844,1.242187525 -1.160156,1.242187525 z m 0,0"
         style="fill:#ffffff;fill-opacity:1;fill-rule:nonzero;stroke:none" />
    </g>
    <path
       id="path59"
       d="M 0,0 H 26.456"
       style="fill:#ffffff;stroke:#ffffff;stroke-width:0.1;stroke-linecap:butt;stroke-linejoin:miter;stroke-miterlimit:10;stroke-dasharray:none;stroke-opacity:1;fill-opacity:1"
       transform="matrix(1.3333333,0,0,-1.3333333,18.578667,148.84267)" />
    <path
       id="path60"
       d="M 0,0 V 107.597"
       style="fill:#ffffff;stroke:#ffffff;stroke-width:0.1;stroke-linecap:butt;stroke-linejoin:miter;stroke-miterlimit:10;stroke-dasharray:none;stroke-opacity:1;fill-opacity:1"
       transform="matrix(1.3333333,0,0,-1.3333333,18.578667,148.776)" />
    <path
       id="path61"
       d="M 0,0 V 107.597"
       style="fill:#ffffff;stroke:#ffffff;stroke-width:0.1;stroke-linecap:butt;stroke-linejoin:miter;stroke-miterlimit:10;stroke-dasharray:none;stroke-opacity:1;fill-opacity:1"
       transform="matrix(1.3333333,0,0,-1.3333333,53.853333,148.776)" />
  </g>
</svg>
