<?xml version="1.0" encoding="UTF-8" standalone="no"?>
<!-- Created with Inkscape (http://www.inkscape.org/) -->

<svg
   version="1.1"
   id="svg1"
   width="134.36667"
   height="138.14799"
   viewBox="0 0 134.36667 138.14799"
   xmlns="http://www.w3.org/2000/svg"
   xmlns:svg="http://www.w3.org/2000/svg">
  <defs
     id="defs1" />
  <g
     id="g1">
    <path
       id="path1"
       d="M 0,0 H 26.456"
       style="fill:#ffffff;stroke:#ffffff;stroke-width:0.1;stroke-linecap:butt;stroke-linejoin:miter;stroke-miterlimit:10;stroke-dasharray:none;stroke-opacity:1;fill-opacity:1"
       transform="matrix(1.3333333,0,0,-1.3333333,18.578667,5.3786667)" />
    <g
       id="g2"
       aria-label="1−5.0&#10;−4.0(I)"
       transform="matrix(1.3333333,0,0,1.3333333,9.2986667,16.470667)"
       style="fill:#ffffff;fill-opacity:1">
      <path
         id="path2"
         d="m 2.3306875,-4.431125 c 0,-0.1875 -0.011719,-0.1992188 -0.2109375,-0.1992188 -0.4453125,0.4335938 -1.078125,0.4453125 -1.359375,0.4453125 v 0.2460938 c 0.1640625,0 0.6210938,0 1.0078125,-0.1875 v 3.55078125 c 0,0.234375 0,0.328125 -0.6914062,0.328125 H 0.80725 v 0.24609375 c 0.12890625,-0.01171875 0.984375,-0.0234375 1.2421875,-0.0234375 0.2109375,0 1.0898438,0.01171875 1.2421875,0.0234375 V -0.24753125 H 3.0338125 c -0.703125,0 -0.703125,-0.09375 -0.703125,-0.328125 z m 0,0"
         style="fill:#ffffff;fill-opacity:1;fill-rule:nonzero;stroke:none" />
      <path
         id="path3"
         d="m 16.510375,-2.2983125 c 0.175781,0 0.351562,0 0.351562,-0.1992188 0,-0.1992187 -0.175781,-0.1992187 -0.351562,-0.1992187 H 11.11975 c -0.164062,0 -0.339844,0 -0.339844,0.1992187 0,0.1992188 0.175782,0.1992188 0.339844,0.1992188 z m 0,0"
         style="fill:#ffffff;fill-opacity:1;fill-rule:nonzero;stroke:none" />
      <path
         id="path4"
         d="m 22.173461,-2.0053438 c 0,-1.1835937 -0.820313,-2.1796875 -1.898438,-2.1796875 -0.480468,0 -0.902343,0.1640625 -1.265625,0.5039063 v -1.9335938 c 0.199219,0.058594 0.527344,0.1289063 0.84375,0.1289063 1.230469,0 1.933594,-0.9140625 1.933594,-1.0429688 0,-0.058594 -0.03516,-0.1054687 -0.105469,-0.1054687 -0.01172,0 -0.03516,0 -0.08203,0.023437 -0.199219,0.09375 -0.679687,0.2929687 -1.347656,0.2929687 -0.398438,0 -0.855469,-0.070312 -1.324219,-0.28125 -0.08203,-0.023437 -0.105469,-0.023437 -0.128906,-0.023437 -0.09375,0 -0.09375,0.082031 -0.09375,0.234375 v 2.953125 c 0,0.1757813 0,0.2578125 0.140625,0.2578125 0.07031,0 0.08203,-0.035156 0.128906,-0.09375 0.105469,-0.1523437 0.480469,-0.6914062 1.277344,-0.6914062 0.527344,0 0.773437,0.4570312 0.855469,0.6328125 0.152343,0.375 0.175781,0.7617187 0.175781,1.2539062 0,0.3515625 0,0.9492188 -0.234375,1.3710938 -0.246094,0.38671875 -0.609375,0.64453125 -1.066406,0.64453125 -0.726563,0 -1.300782,-0.52734375 -1.464844,-1.11328125 0.02344,0.011719 0.05859,0.011719 0.164062,0.011719 0.328125,0 0.503907,-0.2460937 0.503907,-0.4804687 0,-0.2460938 -0.175782,-0.4921875 -0.503907,-0.4921875 -0.140625,0 -0.480468,0.070312 -0.480468,0.5273437 0,0.8554688 0.679687,1.82812505 1.792968,1.82812505 1.160157,0 2.179688,-0.9609375 2.179688,-2.22656255 z m 0,0"
         style="fill:#ffffff;fill-opacity:1;fill-rule:nonzero;stroke:none" />
      <path
         id="path5"
         d="m 24.590453,-0.52878125 c 0,-0.29296875 -0.234375,-0.52734375 -0.527344,-0.52734375 -0.28125,0 -0.527343,0.234375 -0.527343,0.52734375 0,0.29296875 0.246093,0.52734375 0.527343,0.52734375 0.292969,0 0.527344,-0.234375 0.527344,-0.52734375 z m 0,0"
         style="fill:#ffffff;fill-opacity:1;fill-rule:nonzero;stroke:none" />
      <path
         id="path6"
         d="m 30.027953,-3.1889375 c 0,-0.796875 -0.04687,-1.59375 -0.398437,-2.3320313 -0.457032,-0.9609375 -1.277344,-1.1132812 -1.6875,-1.1132812 -0.597657,0 -1.335938,0.2578125 -1.734375,1.1835937 -0.328125,0.6914063 -0.375,1.4648438 -0.375,2.2617188 0,0.75 0.04687,1.640625 0.445312,2.40234375 0.433594,0.80859375 1.160156,1.0078125 1.652344,1.0078125 0.539062,0 1.289062,-0.2109375 1.734375,-1.16015625 0.316406,-0.6914063 0.363281,-1.4648438 0.363281,-2.25 z m -2.097656,3.1875 c -0.386719,0 -0.984375,-0.24609375 -1.160156,-1.2070313 -0.105469,-0.5976562 -0.105469,-1.5117187 -0.105469,-2.0976562 0,-0.6445313 0,-1.3007813 0.08203,-1.8398438 0.1875,-1.1835937 0.925781,-1.265625 1.183594,-1.265625 0.328125,0 0.984375,0.1757813 1.171875,1.1601563 0.09375,0.5625 0.09375,1.3125 0.09375,1.9453125 0,0.75 0,1.4179687 -0.105469,2.0625 -0.152344,0.9375 -0.714844,1.2421875 -1.160156,1.2421875 z m 0,0"
         style="fill:#ffffff;fill-opacity:1;fill-rule:nonzero;stroke:none" />
      <path
         id="path7"
         d="m 54.215453,4.4077422 c 0.105469,0 0.269531,0 0.269531,-0.1757813 0,-0.1757812 -0.152343,-0.1757812 -0.269531,-0.1757812 h -4.160156 c -0.105469,0 -0.28125,0 -0.28125,0.1757812 0,0.1757813 0.164062,0.1757813 0.28125,0.1757813 z m 0,0"
         style="fill:#ffffff;fill-opacity:1;fill-rule:nonzero;stroke:none" />
      <path
         id="path8"
         d="M 58.941039,4.8296172 V 4.5835234 H 58.167602 V 1.4780547 c 0,-0.1523438 0,-0.1992188 -0.152344,-0.1992188 -0.09375,0 -0.117188,0 -0.1875,0.09375 l -2.308594,3.2109375 v 0.2460938 h 2.050781 v 0.5742187 c 0,0.234375 0,0.328125 -0.5625,0.328125 h -0.1875 v 0.2460938 c 0.351563,-0.011719 0.796875,-0.023437 1.042969,-0.023437 0.257813,0 0.703125,0.011719 1.054688,0.023437 V 5.7319609 h -0.1875 c -0.5625,0 -0.5625,-0.09375 -0.5625,-0.328125 V 4.8296172 Z M 57.61682,2.0288359 v 2.5546875 h -1.839843 z m 0,0"
         style="fill:#ffffff;fill-opacity:1;fill-rule:nonzero;stroke:none" />
      <path
         id="path9"
         d="m 60.80432,5.5796172 c 0,-0.2460938 -0.210937,-0.3984375 -0.398437,-0.3984375 -0.222656,0 -0.398438,0.1875 -0.398438,0.3867187 0,0.2578125 0.199219,0.4101563 0.398438,0.4101563 0.222656,0 0.398437,-0.1875 0.398437,-0.3984375 z m 0,0"
         style="fill:#ffffff;fill-opacity:1;fill-rule:nonzero;stroke:none" />
      <path
         id="path10"
         d="m 65.184203,3.7514922 c 0,-0.7617188 -0.09375,-1.3125 -0.410156,-1.8046875 -0.222656,-0.3164063 -0.644531,-0.5976563 -1.207031,-0.5976563 -1.617188,0 -1.617188,1.8984375 -1.617188,2.4023438 0,0.5039062 0,2.3671875 1.617188,2.3671875 1.617187,0 1.617187,-1.8632813 1.617187,-2.3671875 z m -1.617187,2.1679687 c -0.316407,0 -0.75,-0.1875 -0.890625,-0.7617187 -0.09375,-0.4101563 -0.09375,-0.984375 -0.09375,-1.5 0,-0.5039063 0,-1.03125 0.105468,-1.4179688 0.152344,-0.5507812 0.597657,-0.6914062 0.878907,-0.6914062 0.375,0 0.738281,0.2226562 0.867187,0.6328125 0.105469,0.375 0.117188,0.8789062 0.117188,1.4765625 0,0.515625 0,1.0429687 -0.09375,1.4765625 -0.140625,0.6328125 -0.609375,0.7851562 -0.890625,0.7851562 z M 74.008422,0.75149219 C 72.684203,1.6772734 72.332641,3.1655547 72.332641,4.2319609 c 0,0.984375 0.292968,2.5078125 1.675781,3.4804688 0.05859,0 0.140625,0 0.140625,-0.082031 0,-0.046875 -0.02344,-0.058594 -0.07031,-0.1054687 -0.925781,-0.8320313 -1.265625,-2.015625 -1.265625,-3.2929688 0,-1.875 0.714844,-2.8007812 1.289063,-3.31640621 0.02344,-0.0234375 0.04687,-0.046875 0.04687,-0.0820313 0,-0.0820313 -0.08203,-0.0820313 -0.140625,-0.0820313 z m 2.411133,1.03125001 c 0,-0.234375 0,-0.3164063 0.574218,-0.3164063 h 0.175782 V 1.2202422 c -0.04687,0 -0.808594,0.023437 -1.078125,0.023437 -0.28125,0 -1.042969,-0.023437 -1.089844,-0.023437 v 0.2460937 h 0.1875 c 0.574219,0 0.574219,0.082031 0.574219,0.3164063 v 3.6210937 c 0,0.234375 0,0.328125 -0.574219,0.328125 h -0.1875 v 0.2460938 c 0.05859,0 0.808594,-0.023437 1.089844,-0.023437 0.269531,0 1.042968,0.023437 1.078125,0.023437 V 5.7319609 h -0.175782 c -0.574218,0 -0.574218,-0.09375 -0.574218,-0.328125 z m 1.740234,-1.03125001 c -0.05859,0 -0.140625,0 -0.140625,0.0820313 0,0.0351563 0.02344,0.0585938 0.07031,0.10546875 0.597656,0.55078116 1.265625,1.48828126 1.265625,3.29296866 0,1.453125 -0.457032,2.5546875 -1.207032,3.234375 -0.117187,0.1171875 -0.128906,0.1289063 -0.128906,0.1640625 0,0.035156 0.02344,0.082031 0.09375,0.082031 0.08203,0 0.75,-0.4570313 1.207031,-1.3242188 0.304688,-0.5859375 0.503907,-1.3359375 0.503907,-2.15625 0,-0.984375 -0.292969,-2.5078125 -1.664063,-3.48046866 z m 0,0"
         style="fill:#ffffff;fill-opacity:1;fill-rule:nonzero;stroke:none" />
    </g>
    <path
       id="path11"
       d="M 0,0 H 26.456"
       style="fill:#ffffff;stroke:#ffffff;stroke-width:0.1;stroke-linecap:butt;stroke-linejoin:miter;stroke-miterlimit:10;stroke-dasharray:none;stroke-opacity:1;fill-opacity:1"
       transform="matrix(1.3333333,0,0,-1.3333333,18.578667,21.32)" />
    <path
       id="path12"
       d="M 0,0 H 0.498"
       style="fill:#ffffff;stroke:#ffffff;stroke-width:0.1;stroke-linecap:butt;stroke-linejoin:miter;stroke-miterlimit:10;stroke-dasharray:none;stroke-opacity:1;fill-opacity:1"
       transform="matrix(1.3333333,0,0,-1.3333333,18.578667,21.32)" />
    <path
       id="path13"
       d="M 0,0 H 0.996"
       style="fill:#ffffff;stroke:#ffffff;stroke-width:0.1;stroke-linecap:butt;stroke-linejoin:miter;stroke-miterlimit:10;stroke-dasharray:none;stroke-opacity:1;fill-opacity:1"
       transform="matrix(1.3333333,0,0,-1.3333333,20.656,21.32)" />
    <path
       id="path14"
       d="M 0,0 H 0.996"
       style="fill:#ffffff;stroke:#ffffff;stroke-width:0.1;stroke-linecap:butt;stroke-linejoin:miter;stroke-miterlimit:10;stroke-dasharray:none;stroke-opacity:1;fill-opacity:1"
       transform="matrix(1.3333333,0,0,-1.3333333,23.398667,21.32)" />
    <path
       id="path15"
       d="M 0,0 H 0.996"
       style="fill:#ffffff;stroke:#ffffff;stroke-width:0.1;stroke-linecap:butt;stroke-linejoin:miter;stroke-miterlimit:10;stroke-dasharray:none;stroke-opacity:1;fill-opacity:1"
       transform="matrix(1.3333333,0,0,-1.3333333,26.141333,21.32)" />
    <path
       id="path16"
       d="M 0,0 H 0.996"
       style="fill:#ffffff;stroke:#ffffff;stroke-width:0.1;stroke-linecap:butt;stroke-linejoin:miter;stroke-miterlimit:10;stroke-dasharray:none;stroke-opacity:1;fill-opacity:1"
       transform="matrix(1.3333333,0,0,-1.3333333,28.882667,21.32)" />
    <path
       id="path17"
       d="M 0,0 H 0.996"
       style="fill:#ffffff;stroke:#ffffff;stroke-width:0.1;stroke-linecap:butt;stroke-linejoin:miter;stroke-miterlimit:10;stroke-dasharray:none;stroke-opacity:1;fill-opacity:1"
       transform="matrix(1.3333333,0,0,-1.3333333,31.625333,21.32)" />
    <path
       id="path18"
       d="M 0,0 H 0.996"
       style="fill:#ffffff;stroke:#ffffff;stroke-width:0.1;stroke-linecap:butt;stroke-linejoin:miter;stroke-miterlimit:10;stroke-dasharray:none;stroke-opacity:1;fill-opacity:1"
       transform="matrix(1.3333333,0,0,-1.3333333,34.368,21.32)" />
    <path
       id="path19"
       d="M 0,0 H 0.996"
       style="fill:#ffffff;stroke:#ffffff;stroke-width:0.1;stroke-linecap:butt;stroke-linejoin:miter;stroke-miterlimit:10;stroke-dasharray:none;stroke-opacity:1;fill-opacity:1"
       transform="matrix(1.3333333,0,0,-1.3333333,37.109333,21.32)" />
    <path
       id="path20"
       d="M 0,0 H 0.996"
       style="fill:#ffffff;stroke:#ffffff;stroke-width:0.1;stroke-linecap:butt;stroke-linejoin:miter;stroke-miterlimit:10;stroke-dasharray:none;stroke-opacity:1;fill-opacity:1"
       transform="matrix(1.3333333,0,0,-1.3333333,39.852,21.32)" />
    <path
       id="path21"
       d="M 0,0 H 0.996"
       style="fill:#ffffff;stroke:#ffffff;stroke-width:0.1;stroke-linecap:butt;stroke-linejoin:miter;stroke-miterlimit:10;stroke-dasharray:none;stroke-opacity:1;fill-opacity:1"
       transform="matrix(1.3333333,0,0,-1.3333333,42.593333,21.32)" />
    <path
       id="path22"
       d="M 0,0 H 0.996"
       style="fill:#ffffff;stroke:#ffffff;stroke-width:0.1;stroke-linecap:butt;stroke-linejoin:miter;stroke-miterlimit:10;stroke-dasharray:none;stroke-opacity:1;fill-opacity:1"
       transform="matrix(1.3333333,0,0,-1.3333333,45.336,21.32)" />
    <path
       id="path23"
       d="M 0,0 H 0.996"
       style="fill:#ffffff;stroke:#ffffff;stroke-width:0.1;stroke-linecap:butt;stroke-linejoin:miter;stroke-miterlimit:10;stroke-dasharray:none;stroke-opacity:1;fill-opacity:1"
       transform="matrix(1.3333333,0,0,-1.3333333,48.078667,21.32)" />
    <path
       id="path24"
       d="M 0,0 H 0.996"
       style="fill:#ffffff;stroke:#ffffff;stroke-width:0.1;stroke-linecap:butt;stroke-linejoin:miter;stroke-miterlimit:10;stroke-dasharray:none;stroke-opacity:1;fill-opacity:1"
       transform="matrix(1.3333333,0,0,-1.3333333,50.82,21.32)" />
    <path
       id="path25"
       d="M 0,0 H 0.996"
       style="fill:#ffffff;stroke:#ffffff;stroke-width:0.1;stroke-linecap:butt;stroke-linejoin:miter;stroke-miterlimit:10;stroke-dasharray:none;stroke-opacity:1;fill-opacity:1"
       transform="matrix(1.3333333,0,0,-1.3333333,53.562667,21.32)" />
    <path
       id="path26"
       d="M 0,0 H 0.996"
       style="fill:#ffffff;stroke:#ffffff;stroke-width:0.1;stroke-linecap:butt;stroke-linejoin:miter;stroke-miterlimit:10;stroke-dasharray:none;stroke-opacity:1;fill-opacity:1"
       transform="matrix(1.3333333,0,0,-1.3333333,56.304,21.32)" />
    <path
       id="path27"
       d="M 0,0 H 0.996"
       style="fill:#ffffff;stroke:#ffffff;stroke-width:0.1;stroke-linecap:butt;stroke-linejoin:miter;stroke-miterlimit:10;stroke-dasharray:none;stroke-opacity:1;fill-opacity:1"
       transform="matrix(1.3333333,0,0,-1.3333333,59.046667,21.32)" />
    <path
       id="path28"
       d="M 0,0 H 0.996"
       style="fill:#ffffff;stroke:#ffffff;stroke-width:0.1;stroke-linecap:butt;stroke-linejoin:miter;stroke-miterlimit:10;stroke-dasharray:none;stroke-opacity:1;fill-opacity:1"
       transform="matrix(1.3333333,0,0,-1.3333333,61.789333,21.32)" />
    <path
       id="path29"
       d="M 0,0 H 0.996"
       style="fill:#ffffff;stroke:#ffffff;stroke-width:0.1;stroke-linecap:butt;stroke-linejoin:miter;stroke-miterlimit:10;stroke-dasharray:none;stroke-opacity:1;fill-opacity:1"
       transform="matrix(1.3333333,0,0,-1.3333333,64.530667,21.32)" />
    <path
       id="path30"
       d="M 0,0 H 0.996"
       style="fill:#ffffff;stroke:#ffffff;stroke-width:0.1;stroke-linecap:butt;stroke-linejoin:miter;stroke-miterlimit:10;stroke-dasharray:none;stroke-opacity:1;fill-opacity:1"
       transform="matrix(1.3333333,0,0,-1.3333333,67.273333,21.32)" />
    <path
       id="path31"
       d="M 0,0 H 0.498"
       style="fill:#ffffff;stroke:#ffffff;stroke-width:0.1;stroke-linecap:butt;stroke-linejoin:miter;stroke-miterlimit:10;stroke-dasharray:none;stroke-opacity:1;fill-opacity:1"
       transform="matrix(1.3333333,0,0,-1.3333333,70.014667,21.32)" />
    <g
       id="g31"
       aria-label="2−3.0&#10;−2.0(I)"
       transform="matrix(1.3333333,0,0,1.3333333,9.2986667,32.410667)"
       style="fill:#ffffff;fill-opacity:1">
      <path
         id="path32"
         d="m 3.5142813,-1.2660078 h -0.234375 c -0.023437,0.1523437 -0.082031,0.56249999 -0.1757813,0.63281249 -0.058594,0.0351563 -0.5976562,0.0351563 -0.6914062,0.0351563 H 1.1236563 C 1.8619375,-1.2425702 2.1080313,-1.441789 2.5181875,-1.769914 c 0.515625,-0.4101563 0.9960938,-0.84375 0.9960938,-1.5 0,-0.84375 -0.7382813,-1.359375 -1.6289063,-1.359375 -0.8671875,0 -1.453125,0.609375 -1.453125,1.2421875 0,0.3632813 0.3046875,0.3984375 0.375,0.3984375 0.1640625,0 0.375,-0.1171875 0.375,-0.375 0,-0.1289062 -0.058594,-0.3632812 -0.421875,-0.3632812 0.22265625,-0.5039063 0.6914063,-0.65625 1.0195313,-0.65625 0.703125,0 1.0664062,0.5507811 1.0664062,1.1132812 0,0.609375 -0.4335937,1.0898437 -0.65625,1.3359375 l -1.6875,1.66406249 C 0.43225,-0.21132031 0.43225,-0.19960156 0.43225,-3.828125e-4 h 2.8828125 z m 0,0"
         style="fill:#ffffff;fill-opacity:1;fill-rule:nonzero;stroke:none" />
      <path
         id="path33"
         d="m 16.510375,-2.2972578 c 0.175781,0 0.351562,0 0.351562,-0.1992188 0,-0.1992187 -0.175781,-0.1992187 -0.351562,-0.1992187 H 11.11975 c -0.164062,0 -0.339844,0 -0.339844,0.1992187 0,0.1992188 0.175782,0.1992188 0.339844,0.1992188 z m 0,0"
         style="fill:#ffffff;fill-opacity:1;fill-rule:nonzero;stroke:none" />
      <path
         id="path34"
         d="m 20.59143,-3.5042891 c 0.808593,-0.2695312 1.394531,-0.9726562 1.394531,-1.7578125 0,-0.8203125 -0.878906,-1.3710937 -1.839844,-1.3710937 -1.007812,0 -1.757812,0.5976562 -1.757812,1.3476562 0,0.3398438 0.210937,0.5273438 0.503906,0.5273438 0.304687,0 0.503906,-0.2226563 0.503906,-0.515625 0,-0.4921875 -0.46875,-0.4921875 -0.609375,-0.4921875 0.304688,-0.4921875 0.960938,-0.6210938 1.324219,-0.6210938 0.410156,0 0.949219,0.2226563 0.949219,1.1132813 0,0.1289062 -0.01172,0.703125 -0.269532,1.1367187 -0.304687,0.4804688 -0.644531,0.515625 -0.890625,0.515625 -0.08203,0.011719 -0.316406,0.035156 -0.386718,0.035156 -0.08203,0.011719 -0.152344,0.023437 -0.152344,0.1171875 0,0.1171875 0.07031,0.1171875 0.234375,0.1171875 h 0.445312 c 0.808594,0 1.183594,0.6679687 1.183594,1.6523437 0,1.34765629 -0.691406,1.64062504 -1.125,1.64062504 -0.433594,0 -1.171875,-0.17578125 -1.523437,-0.76171875 0.351562,0.0585938 0.65625,-0.1640625 0.65625,-0.53906249 0,-0.3632813 -0.269532,-0.5625 -0.5625,-0.5625 -0.234375,0 -0.550782,0.140625 -0.550782,0.5742187 0,0.91406254 0.925782,1.57031254 2.003907,1.57031254 1.21875,0 2.121093,-0.9140625 2.121093,-1.92187504 0,-0.8203125 -0.621093,-1.59375 -1.652343,-1.8046872 z m 0,0"
         style="fill:#ffffff;fill-opacity:1;fill-rule:nonzero;stroke:none" />
      <path
         id="path35"
         d="m 24.590453,-0.52772656 c 0,-0.29296875 -0.234375,-0.52734374 -0.527344,-0.52734374 -0.28125,0 -0.527343,0.23437499 -0.527343,0.52734374 0,0.29296875 0.246093,0.5273437475 0.527343,0.5273437475 0.292969,0 0.527344,-0.2343749975 0.527344,-0.5273437475 z m 0,0"
         style="fill:#ffffff;fill-opacity:1;fill-rule:nonzero;stroke:none" />
      <path
         id="path36"
         d="m 30.027953,-3.1878828 c 0,-0.796875 -0.04687,-1.59375 -0.398437,-2.3320313 -0.457032,-0.9609375 -1.277344,-1.1132812 -1.6875,-1.1132812 -0.597657,0 -1.335938,0.2578125 -1.734375,1.1835937 -0.328125,0.6914063 -0.375,1.4648438 -0.375,2.2617188 0,0.75 0.04687,1.640625 0.445312,2.40234374 0.433594,0.80859375 1.160156,1.0078125 1.652344,1.0078125 0.539062,0 1.289062,-0.2109375 1.734375,-1.16015625 0.316406,-0.69140629 0.363281,-1.46484379 0.363281,-2.24999999 z m -2.097656,3.1874999875 c -0.386719,0 -0.984375,-0.2460937475 -1.160156,-1.2070312875 -0.105469,-0.5976562 -0.105469,-1.5117187 -0.105469,-2.0976562 0,-0.6445313 0,-1.3007813 0.08203,-1.8398438 0.1875,-1.1835937 0.925781,-1.265625 1.183594,-1.265625 0.328125,0 0.984375,0.1757813 1.171875,1.1601563 0.09375,0.5625 0.09375,1.3125 0.09375,1.9453125 0,0.75 0,1.4179687 -0.105469,2.0625 -0.152344,0.93749999 -0.714844,1.2421874875 -1.160156,1.2421874875 z m 0,0"
         style="fill:#ffffff;fill-opacity:1;fill-rule:nonzero;stroke:none" />
      <path
         id="path37"
         d="m 54.215453,4.4087969 c 0.105469,0 0.269531,0 0.269531,-0.1757813 0,-0.1757812 -0.152343,-0.1757812 -0.269531,-0.1757812 h -4.160156 c -0.105469,0 -0.28125,0 -0.28125,0.1757812 0,0.1757813 0.164062,0.1757813 0.28125,0.1757813 z m 0,0"
         style="fill:#ffffff;fill-opacity:1;fill-rule:nonzero;stroke:none" />
      <path
         id="path38"
         d="m 58.765258,4.7134844 h -0.234375 c -0.02344,0.1523437 -0.08203,0.5625 -0.175781,0.6328125 -0.05859,0.035156 -0.597657,0.035156 -0.691407,0.035156 h -1.289062 c 0.738281,-0.6445312 0.984375,-0.84375 1.394531,-1.171875 0.515625,-0.4101562 0.996094,-0.84375 0.996094,-1.5 0,-0.84375 -0.738281,-1.359375 -1.628906,-1.359375 -0.867188,0 -1.453125,0.609375 -1.453125,1.2421875 0,0.3632813 0.304687,0.3984375 0.375,0.3984375 0.164062,0 0.375,-0.1171875 0.375,-0.375 0,-0.1289062 -0.05859,-0.3632812 -0.421875,-0.3632812 0.222656,-0.5039063 0.691406,-0.65625 1.019531,-0.65625 0.703125,0 1.066406,0.5507812 1.066406,1.1132812 0,0.609375 -0.433594,1.0898438 -0.65625,1.3359375 l -1.6875,1.6640625 c -0.07031,0.058594 -0.07031,0.070312 -0.07031,0.2695313 h 2.882812 z m 0,0"
         style="fill:#ffffff;fill-opacity:1;fill-rule:nonzero;stroke:none" />
      <path
         id="path39"
         d="m 60.80432,5.5806719 c 0,-0.2460938 -0.210937,-0.3984375 -0.398437,-0.3984375 -0.222656,0 -0.398438,0.1875 -0.398438,0.3867187 0,0.2578125 0.199219,0.4101563 0.398438,0.4101563 0.222656,0 0.398437,-0.1875 0.398437,-0.3984375 z m 0,0"
         style="fill:#ffffff;fill-opacity:1;fill-rule:nonzero;stroke:none" />
      <path
         id="path40"
         d="m 65.184203,3.7525469 c 0,-0.7617188 -0.09375,-1.3125 -0.410156,-1.8046875 -0.222656,-0.3164063 -0.644531,-0.5976563 -1.207031,-0.5976563 -1.617188,0 -1.617188,1.8984375 -1.617188,2.4023438 0,0.5039062 0,2.3671875 1.617188,2.3671875 1.617187,0 1.617187,-1.8632813 1.617187,-2.3671875 z m -1.617187,2.1679687 c -0.316407,0 -0.75,-0.1875 -0.890625,-0.7617187 -0.09375,-0.4101563 -0.09375,-0.984375 -0.09375,-1.5 0,-0.5039063 0,-1.03125 0.105468,-1.4179688 0.152344,-0.5507812 0.597657,-0.6914062 0.878907,-0.6914062 0.375,0 0.738281,0.2226562 0.867187,0.6328125 0.105469,0.375 0.117188,0.8789062 0.117188,1.4765625 0,0.515625 0,1.0429687 -0.09375,1.4765625 -0.140625,0.6328125 -0.609375,0.7851562 -0.890625,0.7851562 z M 74.008422,0.75254687 C 72.684203,1.6783281 72.332641,3.1666094 72.332641,4.2330156 c 0,0.984375 0.292968,2.5078125 1.675781,3.4804688 0.05859,0 0.140625,0 0.140625,-0.082031 0,-0.046875 -0.02344,-0.058594 -0.07031,-0.1054687 -0.925781,-0.8320313 -1.265625,-2.015625 -1.265625,-3.2929688 0,-1.875 0.714844,-2.8007812 1.289063,-3.31640623 0.02344,-0.0234375 0.04687,-0.046875 0.04687,-0.0820313 0,-0.0820313 -0.08203,-0.0820313 -0.140625,-0.0820313 z m 2.411133,1.03125003 c 0,-0.234375 0,-0.3164063 0.574218,-0.3164063 h 0.175782 V 1.2212969 c -0.04687,0 -0.808594,0.023437 -1.078125,0.023437 -0.28125,0 -1.042969,-0.023437 -1.089844,-0.023437 v 0.2460937 h 0.1875 c 0.574219,0 0.574219,0.082031 0.574219,0.3164063 v 3.6210937 c 0,0.234375 0,0.328125 -0.574219,0.328125 h -0.1875 v 0.2460938 c 0.05859,0 0.808594,-0.023437 1.089844,-0.023437 0.269531,0 1.042968,0.023437 1.078125,0.023437 V 5.7330156 h -0.175782 c -0.574218,0 -0.574218,-0.09375 -0.574218,-0.328125 z m 1.740234,-1.03125003 c -0.05859,0 -0.140625,0 -0.140625,0.0820313 0,0.0351563 0.02344,0.0585938 0.07031,0.10546875 0.597656,0.55078118 1.265625,1.48828128 1.265625,3.29296878 0,1.453125 -0.457032,2.5546875 -1.207032,3.234375 -0.117187,0.1171875 -0.128906,0.1289062 -0.128906,0.1640625 0,0.035156 0.02344,0.082031 0.09375,0.082031 0.08203,0 0.75,-0.4570312 1.207031,-1.3242187 0.304688,-0.5859375 0.503907,-1.3359375 0.503907,-2.15625 0,-0.984375 -0.292969,-2.5078125 -1.664063,-3.48046878 z m 0,0"
         style="fill:#ffffff;fill-opacity:1;fill-rule:nonzero;stroke:none" />
    </g>
    <path
       id="path41"
       d="M 0,0 H 26.456"
       style="fill:#ffffff;stroke:#ffffff;stroke-width:0.1;stroke-linecap:butt;stroke-linejoin:miter;stroke-miterlimit:10;stroke-dasharray:none;stroke-opacity:1;fill-opacity:1"
       transform="matrix(1.3333333,0,0,-1.3333333,18.578667,37.26)" />
    <path
       id="path42"
       d="M 0,0 H 0.498"
       style="fill:#ffffff;stroke:#ffffff;stroke-width:0.1;stroke-linecap:butt;stroke-linejoin:miter;stroke-miterlimit:10;stroke-dasharray:none;stroke-opacity:1;fill-opacity:1"
       transform="matrix(1.3333333,0,0,-1.3333333,18.578667,37.26)" />
    <path
       id="path43"
       d="M 0,0 H 0.996"
       style="fill:#ffffff;stroke:#ffffff;stroke-width:0.1;stroke-linecap:butt;stroke-linejoin:miter;stroke-miterlimit:10;stroke-dasharray:none;stroke-opacity:1;fill-opacity:1"
       transform="matrix(1.3333333,0,0,-1.3333333,20.656,37.26)" />
    <path
       id="path44"
       d="M 0,0 H 0.996"
       style="fill:#ffffff;stroke:#ffffff;stroke-width:0.1;stroke-linecap:butt;stroke-linejoin:miter;stroke-miterlimit:10;stroke-dasharray:none;stroke-opacity:1;fill-opacity:1"
       transform="matrix(1.3333333,0,0,-1.3333333,23.398667,37.26)" />
    <path
       id="path45"
       d="M 0,0 H 0.996"
       style="fill:#ffffff;stroke:#ffffff;stroke-width:0.1;stroke-linecap:butt;stroke-linejoin:miter;stroke-miterlimit:10;stroke-dasharray:none;stroke-opacity:1;fill-opacity:1"
       transform="matrix(1.3333333,0,0,-1.3333333,26.141333,37.26)" />
    <path
       id="path46"
       d="M 0,0 H 0.996"
       style="fill:#ffffff;stroke:#ffffff;stroke-width:0.1;stroke-linecap:butt;stroke-linejoin:miter;stroke-miterlimit:10;stroke-dasharray:none;stroke-opacity:1;fill-opacity:1"
       transform="matrix(1.3333333,0,0,-1.3333333,28.882667,37.26)" />
    <path
       id="path47"
       d="M 0,0 H 0.996"
       style="fill:#ffffff;stroke:#ffffff;stroke-width:0.1;stroke-linecap:butt;stroke-linejoin:miter;stroke-miterlimit:10;stroke-dasharray:none;stroke-opacity:1;fill-opacity:1"
       transform="matrix(1.3333333,0,0,-1.3333333,31.625333,37.26)" />
    <path
       id="path48"
       d="M 0,0 H 0.996"
       style="fill:#ffffff;stroke:#ffffff;stroke-width:0.1;stroke-linecap:butt;stroke-linejoin:miter;stroke-miterlimit:10;stroke-dasharray:none;stroke-opacity:1;fill-opacity:1"
       transform="matrix(1.3333333,0,0,-1.3333333,34.368,37.26)" />
    <path
       id="path49"
       d="M 0,0 H 0.996"
       style="fill:#ffffff;stroke:#ffffff;stroke-width:0.1;stroke-linecap:butt;stroke-linejoin:miter;stroke-miterlimit:10;stroke-dasharray:none;stroke-opacity:1;fill-opacity:1"
       transform="matrix(1.3333333,0,0,-1.3333333,37.109333,37.26)" />
    <path
       id="path50"
       d="M 0,0 H 0.996"
       style="fill:#ffffff;stroke:#ffffff;stroke-width:0.1;stroke-linecap:butt;stroke-linejoin:miter;stroke-miterlimit:10;stroke-dasharray:none;stroke-opacity:1;fill-opacity:1"
       transform="matrix(1.3333333,0,0,-1.3333333,39.852,37.26)" />
    <path
       id="path51"
       d="M 0,0 H 0.996"
       style="fill:#ffffff;stroke:#ffffff;stroke-width:0.1;stroke-linecap:butt;stroke-linejoin:miter;stroke-miterlimit:10;stroke-dasharray:none;stroke-opacity:1;fill-opacity:1"
       transform="matrix(1.3333333,0,0,-1.3333333,42.593333,37.26)" />
    <path
       id="path52"
       d="M 0,0 H 0.996"
       style="fill:#ffffff;stroke:#ffffff;stroke-width:0.1;stroke-linecap:butt;stroke-linejoin:miter;stroke-miterlimit:10;stroke-dasharray:none;stroke-opacity:1;fill-opacity:1"
       transform="matrix(1.3333333,0,0,-1.3333333,45.336,37.26)" />
    <path
       id="path53"
       d="M 0,0 H 0.996"
       style="fill:#ffffff;stroke:#ffffff;stroke-width:0.1;stroke-linecap:butt;stroke-linejoin:miter;stroke-miterlimit:10;stroke-dasharray:none;stroke-opacity:1;fill-opacity:1"
       transform="matrix(1.3333333,0,0,-1.3333333,48.078667,37.26)" />
    <path
       id="path54"
       d="M 0,0 H 0.996"
       style="fill:#ffffff;stroke:#ffffff;stroke-width:0.1;stroke-linecap:butt;stroke-linejoin:miter;stroke-miterlimit:10;stroke-dasharray:none;stroke-opacity:1;fill-opacity:1"
       transform="matrix(1.3333333,0,0,-1.3333333,50.82,37.26)" />
    <path
       id="path55"
       d="M 0,0 H 0.996"
       style="fill:#ffffff;stroke:#ffffff;stroke-width:0.1;stroke-linecap:butt;stroke-linejoin:miter;stroke-miterlimit:10;stroke-dasharray:none;stroke-opacity:1;fill-opacity:1"
       transform="matrix(1.3333333,0,0,-1.3333333,53.562667,37.26)" />
    <path
       id="path56"
       d="M 0,0 H 0.996"
       style="fill:#ffffff;stroke:#ffffff;stroke-width:0.1;stroke-linecap:butt;stroke-linejoin:miter;stroke-miterlimit:10;stroke-dasharray:none;stroke-opacity:1;fill-opacity:1"
       transform="matrix(1.3333333,0,0,-1.3333333,56.304,37.26)" />
    <path
       id="path57"
       d="M 0,0 H 0.996"
       style="fill:#ffffff;stroke:#ffffff;stroke-width:0.1;stroke-linecap:butt;stroke-linejoin:miter;stroke-miterlimit:10;stroke-dasharray:none;stroke-opacity:1;fill-opacity:1"
       transform="matrix(1.3333333,0,0,-1.3333333,59.046667,37.26)" />
    <path
       id="path58"
       d="M 0,0 H 0.996"
       style="fill:#ffffff;stroke:#ffffff;stroke-width:0.1;stroke-linecap:butt;stroke-linejoin:miter;stroke-miterlimit:10;stroke-dasharray:none;stroke-opacity:1;fill-opacity:1"
       transform="matrix(1.3333333,0,0,-1.3333333,61.789333,37.26)" />
    <path
       id="path59"
       d="M 0,0 H 0.996"
       style="fill:#ffffff;stroke:#ffffff;stroke-width:0.1;stroke-linecap:butt;stroke-linejoin:miter;stroke-miterlimit:10;stroke-dasharray:none;stroke-opacity:1;fill-opacity:1"
       transform="matrix(1.3333333,0,0,-1.3333333,64.530667,37.26)" />
    <path
       id="path60"
       d="M 0,0 H 0.996"
       style="fill:#ffffff;stroke:#ffffff;stroke-width:0.1;stroke-linecap:butt;stroke-linejoin:miter;stroke-miterlimit:10;stroke-dasharray:none;stroke-opacity:1;fill-opacity:1"
       transform="matrix(1.3333333,0,0,-1.3333333,67.273333,37.26)" />
    <path
       id="path61"
       d="M 0,0 H 0.498"
       style="fill:#ffffff;stroke:#ffffff;stroke-width:0.1;stroke-linecap:butt;stroke-linejoin:miter;stroke-miterlimit:10;stroke-dasharray:none;stroke-opacity:1;fill-opacity:1"
       transform="matrix(1.3333333,0,0,-1.3333333,70.014667,37.26)" />
    <g
       id="g61"
       aria-label="3−1.0&#10;−0.5(III)"
       transform="matrix(1.3333333,0,0,1.3333333,9.2986667,48.352)"
       style="fill:#ffffff;fill-opacity:1">
      <path
         id="path62"
         d="m 1.8970938,-2.3323594 c 0.5507812,0 0.9375,0.375 0.9375,1.125 0,0.86718753 -0.5039063,1.12500003 -0.9023438,1.12500003 -0.28125,0 -0.890625,-0.08203125 -1.18359375,-0.4921875 0.32812505,-0.0117188 0.39843755,-0.24609375 0.39843755,-0.38671875 0,-0.22265628 -0.16406255,-0.38671878 -0.3867188,-0.38671878 -0.1875,0 -0.38671875,0.1171875 -0.38671875,0.41015628 0,0.65625 0.72656255,1.078125 1.57031255,1.078125 0.9726562,0 1.640625,-0.64453125 1.640625,-1.34765628 0,-0.5390625 -0.4453125,-1.0898437 -1.21875,-1.2421875 0.7382812,-0.2695312 0.9960937,-0.796875 0.9960937,-1.21875 0,-0.5507812 -0.6328125,-0.9609375 -1.40625,-0.9609375 -0.7734375,0 -1.359375,0.375 -1.359375,0.9375 0,0.234375 0.15234375,0.3632813 0.36328125,0.3632813 0.21093755,0 0.35156255,-0.1640625 0.35156255,-0.3515625 0,-0.1992188 -0.140625,-0.3515625 -0.35156255,-0.3632813 C 1.1939688,-4.3479844 1.6744375,-4.4300156 1.93225,-4.4300156 c 0.3164063,0 0.7617188,0.1523437 0.7617188,0.7617187 0,0.2929688 -0.1054688,0.609375 -0.28125,0.8320313 -0.234375,0.2578125 -0.421875,0.28125 -0.7734375,0.2929687 -0.1757813,0.023437 -0.1875,0.023437 -0.2226563,0.023437 -0.011719,0 -0.070312,0.011719 -0.070312,0.09375 0,0.09375 0.058594,0.09375 0.1757813,0.09375 z m 0,0"
         style="fill:#ffffff;fill-opacity:1;fill-rule:nonzero;stroke:none" />
      <path
         id="path63"
         d="m 16.510375,-2.2972031 c 0.175781,0 0.351562,0 0.351562,-0.1992188 0,-0.1992187 -0.175781,-0.1992187 -0.351562,-0.1992187 H 11.11975 c -0.164062,0 -0.339844,0 -0.339844,0.1992187 0,0.1992188 0.175782,0.1992188 0.339844,0.1992188 z m 0,0"
         style="fill:#ffffff;fill-opacity:1;fill-rule:nonzero;stroke:none" />
      <path
         id="path64"
         d="m 20.626586,-6.3753281 c 0,-0.234375 0,-0.2578125 -0.234375,-0.2578125 -0.609375,0.6328125 -1.488281,0.6328125 -1.804688,0.6328125 v 0.3164062 c 0.199219,0 0.785157,0 1.300782,-0.2578125 v 5.15625003 c 0,0.3515625 -0.03516,0.48046875 -0.925782,0.48046875 h -0.316406 v 0.304687495 c 0.351563,-0.035156245 1.207031,-0.035156245 1.605469,-0.035156245 0.398437,0 1.265625,0 1.617187,0.035156245 V -0.30501562 h -0.316406 c -0.902344,0 -0.925781,-0.1171875 -0.925781,-0.48046875 z m 0,0"
         style="fill:#ffffff;fill-opacity:1;fill-rule:nonzero;stroke:none" />
      <path
         id="path65"
         d="m 24.590453,-0.52767187 c 0,-0.29296875 -0.234375,-0.52734373 -0.527344,-0.52734373 -0.28125,0 -0.527343,0.23437498 -0.527343,0.52734373 0,0.29296875 0.246093,0.527343745 0.527343,0.527343745 0.292969,0 0.527344,-0.234374995 0.527344,-0.527343745 z m 0,0"
         style="fill:#ffffff;fill-opacity:1;fill-rule:nonzero;stroke:none" />
      <path
         id="path66"
         d="m 30.027953,-3.1878281 c 0,-0.796875 -0.04687,-1.59375 -0.398437,-2.3320313 -0.457032,-0.9609375 -1.277344,-1.1132812 -1.6875,-1.1132812 -0.597657,0 -1.335938,0.2578125 -1.734375,1.1835937 -0.328125,0.6914063 -0.375,1.4648438 -0.375,2.2617188 0,0.75 0.04687,1.640625 0.445312,2.40234373 0.433594,0.80859375 1.160156,1.0078125 1.652344,1.0078125 0.539062,0 1.289062,-0.2109375 1.734375,-1.16015625 0.316406,-0.69140628 0.363281,-1.46484378 0.363281,-2.24999998 z m -2.097656,3.187499975 c -0.386719,0 -0.984375,-0.246093745 -1.160156,-1.207031275 -0.105469,-0.5976562 -0.105469,-1.5117187 -0.105469,-2.0976562 0,-0.6445313 0,-1.3007813 0.08203,-1.8398438 0.1875,-1.1835937 0.925781,-1.265625 1.183594,-1.265625 0.328125,0 0.984375,0.1757813 1.171875,1.1601563 0.09375,0.5625 0.09375,1.3125 0.09375,1.9453125 0,0.75 0,1.4179687 -0.105469,2.0625 -0.152344,0.93749998 -0.714844,1.242187475 -1.160156,1.242187475 z m 0,0"
         style="fill:#ffffff;fill-opacity:1;fill-rule:nonzero;stroke:none" />
      <path
         id="path67"
         d="m 54.215453,4.4059219 c 0.105469,0 0.269531,0 0.269531,-0.1757813 0,-0.1757812 -0.152343,-0.1757812 -0.269531,-0.1757812 h -4.160156 c -0.105469,0 -0.28125,0 -0.28125,0.1757812 0,0.1757813 0.164062,0.1757813 0.28125,0.1757813 z m 0,0"
         style="fill:#ffffff;fill-opacity:1;fill-rule:nonzero;stroke:none" />
      <path
         id="path68"
         d="m 58.847289,3.7496719 c 0,-0.7617188 -0.09375,-1.3125 -0.410156,-1.8046875 -0.222656,-0.3164063 -0.644531,-0.5976563 -1.207031,-0.5976563 -1.617188,0 -1.617188,1.8984375 -1.617188,2.4023438 0,0.5039062 0,2.3671875 1.617188,2.3671875 1.617187,0 1.617187,-1.8632813 1.617187,-2.3671875 z m -1.617187,2.1679687 c -0.316407,0 -0.75,-0.1875 -0.890625,-0.7617187 -0.09375,-0.4101563 -0.09375,-0.984375 -0.09375,-1.5 0,-0.5039063 0,-1.03125 0.105468,-1.4179688 0.152344,-0.5507812 0.597657,-0.6914062 0.878907,-0.6914062 0.375,0 0.738281,0.2226562 0.867187,0.6328125 0.105469,0.375 0.117188,0.8789062 0.117188,1.4765625 0,0.515625 0,1.0429687 -0.09375,1.4765625 -0.140625,0.6328125 -0.609375,0.7851562 -0.890625,0.7851562 z m 0,0"
         style="fill:#ffffff;fill-opacity:1;fill-rule:nonzero;stroke:none" />
      <path
         id="path69"
         d="m 60.80432,5.5777969 c 0,-0.2460938 -0.210937,-0.3984375 -0.398437,-0.3984375 -0.222656,0 -0.398438,0.1875 -0.398438,0.3867187 0,0.2578125 0.199219,0.4101563 0.398438,0.4101563 0.222656,0 0.398437,-0.1875 0.398437,-0.3984375 z m 0,0"
         style="fill:#ffffff;fill-opacity:1;fill-rule:nonzero;stroke:none" />
      <path
         id="path70"
         d="m 62.664672,2.0856094 c 0.363281,0.09375 0.5625,0.09375 0.679687,0.09375 0.914063,0 1.464844,-0.6328125 1.464844,-0.7382813 0,-0.070312 -0.04687,-0.09375 -0.08203,-0.09375 -0.01172,0 -0.03516,0 -0.05859,0.023437 -0.164062,0.058594 -0.539062,0.1992188 -1.054687,0.1992188 -0.199219,0 -0.5625,-0.011719 -1.019532,-0.1875 -0.07031,-0.035156 -0.08203,-0.035156 -0.08203,-0.035156 -0.09375,0 -0.09375,0.070312 -0.09375,0.1875 v 2.0625 c 0,0.1171875 0,0.1992188 0.105469,0.1992188 0.07031,0 0.07031,-0.011719 0.140625,-0.1054688 0.304687,-0.375 0.726562,-0.4335937 0.972656,-0.4335937 0.421875,0 0.609375,0.3398437 0.644531,0.3867187 0.117188,0.234375 0.164063,0.5039063 0.164063,0.9023438 0,0.2109375 0,0.6210937 -0.210938,0.9257812 -0.175781,0.2578125 -0.46875,0.421875 -0.820312,0.421875 -0.445313,0 -0.914063,-0.2578125 -1.089844,-0.7148437 0.269531,0.023437 0.398438,-0.1523438 0.398438,-0.3398438 0,-0.3046875 -0.257813,-0.3515625 -0.351563,-0.3515625 -0.01172,0 -0.351562,0 -0.351562,0.375 0,0.6210938 0.574218,1.2539063 1.417968,1.2539063 0.890625,0 1.664063,-0.6679688 1.664063,-1.546875 0,-0.7851563 -0.597656,-1.5117188 -1.453125,-1.5117188 -0.316406,0 -0.679688,0.082031 -0.984375,0.3398438 z M 74.008422,0.74967188 C 72.684203,1.6754531 72.332641,3.1637344 72.332641,4.2301406 c 0,0.984375 0.292968,2.5078125 1.675781,3.4804688 0.05859,0 0.140625,0 0.140625,-0.082031 0,-0.046875 -0.02344,-0.058594 -0.07031,-0.1054687 -0.925781,-0.8320313 -1.265625,-2.015625 -1.265625,-3.2929688 0,-1.875 0.714844,-2.8007812 1.289063,-3.31640622 0.02344,-0.0234375 0.04687,-0.046875 0.04687,-0.0820313 0,-0.0820313 -0.08203,-0.0820313 -0.140625,-0.0820313 z m 2.411133,1.03125002 c 0,-0.234375 0,-0.3164063 0.574218,-0.3164063 h 0.175782 V 1.2184219 c -0.04687,0 -0.808594,0.023437 -1.078125,0.023437 -0.28125,0 -1.042969,-0.023437 -1.089844,-0.023437 v 0.2460937 h 0.1875 c 0.574219,0 0.574219,0.082031 0.574219,0.3164063 v 3.6210937 c 0,0.234375 0,0.328125 -0.574219,0.328125 h -0.1875 v 0.2460938 c 0.05859,0 0.808594,-0.023437 1.089844,-0.023437 0.269531,0 1.042968,0.023437 1.078125,0.023437 V 5.7301406 h -0.175782 c -0.574218,0 -0.574218,-0.09375 -0.574218,-0.328125 z m 3.09375,0 c 0,-0.234375 0,-0.3164063 0.574218,-0.3164063 h 0.175782 V 1.2184219 c -0.04687,0 -0.808594,0.023437 -1.078125,0.023437 -0.28125,0 -1.042969,-0.023437 -1.089844,-0.023437 v 0.2460937 h 0.1875 c 0.574219,0 0.574219,0.082031 0.574219,0.3164063 v 3.6210937 c 0,0.234375 0,0.328125 -0.574219,0.328125 h -0.1875 v 0.2460938 c 0.05859,0 0.808594,-0.023437 1.089844,-0.023437 0.269531,0 1.042968,0.023437 1.078125,0.023437 V 5.7301406 h -0.175782 c -0.574218,0 -0.574218,-0.09375 -0.574218,-0.328125 z m 3.09375,0 c 0,-0.234375 0,-0.3164063 0.574218,-0.3164063 h 0.175782 V 1.2184219 c -0.04687,0 -0.808594,0.023437 -1.078125,0.023437 -0.28125,0 -1.042969,-0.023437 -1.089844,-0.023437 v 0.2460937 h 0.1875 c 0.574219,0 0.574219,0.082031 0.574219,0.3164063 v 3.6210937 c 0,0.234375 0,0.328125 -0.574219,0.328125 h -0.1875 v 0.2460938 c 0.05859,0 0.808594,-0.023437 1.089844,-0.023437 0.269531,0 1.042968,0.023437 1.078125,0.023437 V 5.7301406 h -0.175782 c -0.574218,0 -0.574218,-0.09375 -0.574218,-0.328125 z m 1.740234,-1.03125002 c -0.05859,0 -0.140625,0 -0.140625,0.0820313 0,0.0351563 0.02344,0.0585938 0.07031,0.10546875 0.597656,0.55078117 1.265625,1.48828127 1.265625,3.29296867 0,1.453125 -0.457032,2.5546875 -1.207032,3.234375 -0.117187,0.1171875 -0.128906,0.1289063 -0.128906,0.1640625 0,0.035156 0.02344,0.082031 0.09375,0.082031 0.08203,0 0.75,-0.4570313 1.207031,-1.3242188 0.304688,-0.5859375 0.503907,-1.3359375 0.503907,-2.15625 0,-0.9843749 -0.292969,-2.5078125 -1.664063,-3.48046867 z m 0,0"
         style="fill:#ffffff;fill-opacity:1;fill-rule:nonzero;stroke:none" />
    </g>
    <path
       id="path71"
       d="M 0,0 H 26.456"
       style="fill:#ffffff;stroke:#ffffff;stroke-width:0.1;stroke-linecap:butt;stroke-linejoin:miter;stroke-miterlimit:10;stroke-dasharray:none;stroke-opacity:1;fill-opacity:1"
       transform="matrix(1.3333333,0,0,-1.3333333,18.578667,53.2)" />
    <path
       id="path72"
       d="M 0,0 H 0.498"
       style="fill:#ffffff;stroke:#ffffff;stroke-width:0.1;stroke-linecap:butt;stroke-linejoin:miter;stroke-miterlimit:10;stroke-dasharray:none;stroke-opacity:1;fill-opacity:1"
       transform="matrix(1.3333333,0,0,-1.3333333,18.578667,53.2)" />
    <path
       id="path73"
       d="M 0,0 H 0.996"
       style="fill:#ffffff;stroke:#ffffff;stroke-width:0.1;stroke-linecap:butt;stroke-linejoin:miter;stroke-miterlimit:10;stroke-dasharray:none;stroke-opacity:1;fill-opacity:1"
       transform="matrix(1.3333333,0,0,-1.3333333,20.656,53.2)" />
    <path
       id="path74"
       d="M 0,0 H 0.996"
       style="fill:#ffffff;stroke:#ffffff;stroke-width:0.1;stroke-linecap:butt;stroke-linejoin:miter;stroke-miterlimit:10;stroke-dasharray:none;stroke-opacity:1;fill-opacity:1"
       transform="matrix(1.3333333,0,0,-1.3333333,23.398667,53.2)" />
    <path
       id="path75"
       d="M 0,0 H 0.996"
       style="fill:#ffffff;stroke:#ffffff;stroke-width:0.1;stroke-linecap:butt;stroke-linejoin:miter;stroke-miterlimit:10;stroke-dasharray:none;stroke-opacity:1;fill-opacity:1"
       transform="matrix(1.3333333,0,0,-1.3333333,26.141333,53.2)" />
    <path
       id="path76"
       d="M 0,0 H 0.996"
       style="fill:#ffffff;stroke:#ffffff;stroke-width:0.1;stroke-linecap:butt;stroke-linejoin:miter;stroke-miterlimit:10;stroke-dasharray:none;stroke-opacity:1;fill-opacity:1"
       transform="matrix(1.3333333,0,0,-1.3333333,28.882667,53.2)" />
    <path
       id="path77"
       d="M 0,0 H 0.996"
       style="fill:#ffffff;stroke:#ffffff;stroke-width:0.1;stroke-linecap:butt;stroke-linejoin:miter;stroke-miterlimit:10;stroke-dasharray:none;stroke-opacity:1;fill-opacity:1"
       transform="matrix(1.3333333,0,0,-1.3333333,31.625333,53.2)" />
    <path
       id="path78"
       d="M 0,0 H 0.996"
       style="fill:#ffffff;stroke:#ffffff;stroke-width:0.1;stroke-linecap:butt;stroke-linejoin:miter;stroke-miterlimit:10;stroke-dasharray:none;stroke-opacity:1;fill-opacity:1"
       transform="matrix(1.3333333,0,0,-1.3333333,34.368,53.2)" />
    <path
       id="path79"
       d="M 0,0 H 0.996"
       style="fill:#ffffff;stroke:#ffffff;stroke-width:0.1;stroke-linecap:butt;stroke-linejoin:miter;stroke-miterlimit:10;stroke-dasharray:none;stroke-opacity:1;fill-opacity:1"
       transform="matrix(1.3333333,0,0,-1.3333333,37.109333,53.2)" />
    <path
       id="path80"
       d="M 0,0 H 0.996"
       style="fill:#ffffff;stroke:#ffffff;stroke-width:0.1;stroke-linecap:butt;stroke-linejoin:miter;stroke-miterlimit:10;stroke-dasharray:none;stroke-opacity:1;fill-opacity:1"
       transform="matrix(1.3333333,0,0,-1.3333333,39.852,53.2)" />
    <path
       id="path81"
       d="M 0,0 H 0.996"
       style="fill:#ffffff;stroke:#ffffff;stroke-width:0.1;stroke-linecap:butt;stroke-linejoin:miter;stroke-miterlimit:10;stroke-dasharray:none;stroke-opacity:1;fill-opacity:1"
       transform="matrix(1.3333333,0,0,-1.3333333,42.593333,53.2)" />
    <path
       id="path82"
       d="M 0,0 H 0.996"
       style="fill:#ffffff;stroke:#ffffff;stroke-width:0.1;stroke-linecap:butt;stroke-linejoin:miter;stroke-miterlimit:10;stroke-dasharray:none;stroke-opacity:1;fill-opacity:1"
       transform="matrix(1.3333333,0,0,-1.3333333,45.336,53.2)" />
    <path
       id="path83"
       d="M 0,0 H 0.996"
       style="fill:#ffffff;stroke:#ffffff;stroke-width:0.1;stroke-linecap:butt;stroke-linejoin:miter;stroke-miterlimit:10;stroke-dasharray:none;stroke-opacity:1;fill-opacity:1"
       transform="matrix(1.3333333,0,0,-1.3333333,48.078667,53.2)" />
    <path
       id="path84"
       d="M 0,0 H 0.996"
       style="fill:#ffffff;stroke:#ffffff;stroke-width:0.1;stroke-linecap:butt;stroke-linejoin:miter;stroke-miterlimit:10;stroke-dasharray:none;stroke-opacity:1;fill-opacity:1"
       transform="matrix(1.3333333,0,0,-1.3333333,50.82,53.2)" />
    <path
       id="path85"
       d="M 0,0 H 0.996"
       style="fill:#ffffff;stroke:#ffffff;stroke-width:0.1;stroke-linecap:butt;stroke-linejoin:miter;stroke-miterlimit:10;stroke-dasharray:none;stroke-opacity:1;fill-opacity:1"
       transform="matrix(1.3333333,0,0,-1.3333333,53.562667,53.2)" />
    <path
       id="path86"
       d="M 0,0 H 0.996"
       style="fill:#ffffff;stroke:#ffffff;stroke-width:0.1;stroke-linecap:butt;stroke-linejoin:miter;stroke-miterlimit:10;stroke-dasharray:none;stroke-opacity:1;fill-opacity:1"
       transform="matrix(1.3333333,0,0,-1.3333333,56.304,53.2)" />
    <path
       id="path87"
       d="M 0,0 H 0.996"
       style="fill:#ffffff;stroke:#ffffff;stroke-width:0.1;stroke-linecap:butt;stroke-linejoin:miter;stroke-miterlimit:10;stroke-dasharray:none;stroke-opacity:1;fill-opacity:1"
       transform="matrix(1.3333333,0,0,-1.3333333,59.046667,53.2)" />
    <path
       id="path88"
       d="M 0,0 H 0.996"
       style="fill:#ffffff;stroke:#ffffff;stroke-width:0.1;stroke-linecap:butt;stroke-linejoin:miter;stroke-miterlimit:10;stroke-dasharray:none;stroke-opacity:1;fill-opacity:1"
       transform="matrix(1.3333333,0,0,-1.3333333,61.789333,53.2)" />
    <path
       id="path89"
       d="M 0,0 H 0.996"
       style="fill:#ffffff;stroke:#ffffff;stroke-width:0.1;stroke-linecap:butt;stroke-linejoin:miter;stroke-miterlimit:10;stroke-dasharray:none;stroke-opacity:1;fill-opacity:1"
       transform="matrix(1.3333333,0,0,-1.3333333,64.530667,53.2)" />
    <path
       id="path90"
       d="M 0,0 H 0.996"
       style="fill:#ffffff;stroke:#ffffff;stroke-width:0.1;stroke-linecap:butt;stroke-linejoin:miter;stroke-miterlimit:10;stroke-dasharray:none;stroke-opacity:1;fill-opacity:1"
       transform="matrix(1.3333333,0,0,-1.3333333,67.273333,53.2)" />
    <path
       id="path91"
       d="M 0,0 H 0.498"
       style="fill:#ffffff;stroke:#ffffff;stroke-width:0.1;stroke-linecap:butt;stroke-linejoin:miter;stroke-miterlimit:10;stroke-dasharray:none;stroke-opacity:1;fill-opacity:1"
       transform="matrix(1.3333333,0,0,-1.3333333,70.014667,53.2)" />
    <g
       id="g91"
       aria-label=".&#10;.&#10;.&#10;1.0(III)"
       transform="matrix(1.3333333,0,0,1.3333333,34.370667,66.054667)"
       style="fill:#ffffff;fill-opacity:1">
      <path
         id="path92"
         d="m 1.9104766,-0.52732812 c 0,-0.29296875 -0.234375,-0.52734378 -0.5273438,-0.52734378 -0.28125,0 -0.52734374,0.23437503 -0.52734374,0.52734378 0,0.29296875 0.24609374,0.527343745 0.52734374,0.527343745 0.2929688,0 0.5273438,-0.234374995 0.5273438,-0.527343745 z m 0,3.98730472 c 0,-0.2929688 -0.234375,-0.5273438 -0.5273438,-0.5273438 -0.28125,0 -0.52734374,0.234375 -0.52734374,0.5273438 0,0.2929687 0.24609374,0.5273437 0.52734374,0.5273437 0.2929688,0 0.5273438,-0.234375 0.5273438,-0.5273437 z m 0,3.984375 c 0,-0.2929688 -0.234375,-0.5273438 -0.5273438,-0.5273438 -0.28125,0 -0.52734374,0.234375 -0.52734374,0.5273438 0,0.2929687 0.24609374,0.5273437 0.52734374,0.5273437 0.2929688,0 0.5273438,-0.234375 0.5273438,-0.5273437 z m 0,0"
         style="fill:#ffffff;fill-opacity:1;fill-rule:nonzero;stroke:none" />
      <path
         id="path93"
         d="m 38.777664,12.181656 c 0,-0.1875 -0.01172,-0.199218 -0.210937,-0.199218 -0.445313,0.433593 -1.078125,0.445312 -1.359375,0.445312 v 0.246094 c 0.164062,0 0.621093,0 1.007812,-0.1875 v 3.550781 c 0,0.234375 0,0.328125 -0.691406,0.328125 h -0.269531 v 0.246094 c 0.128906,-0.01172 0.984375,-0.02344 1.242187,-0.02344 0.210938,0 1.089844,0.01172 1.242188,0.02344 V 16.36525 h -0.257813 c -0.703125,0 -0.703125,-0.09375 -0.703125,-0.328125 z m 0,0"
         style="fill:#ffffff;fill-opacity:1;fill-rule:nonzero;stroke:none" />
      <path
         id="path94"
         d="m 42.00032,16.212906 c 0,-0.246093 -0.210937,-0.398437 -0.398437,-0.398437 -0.222656,0 -0.398438,0.1875 -0.398438,0.386719 0,0.257812 0.199219,0.410156 0.398438,0.410156 0.222656,0 0.398437,-0.1875 0.398437,-0.398438 z m 0,0"
         style="fill:#ffffff;fill-opacity:1;fill-rule:nonzero;stroke:none" />
      <path
         id="path95"
         d="m 46.380203,14.384781 c 0,-0.761718 -0.09375,-1.3125 -0.410156,-1.804687 -0.222656,-0.316406 -0.644531,-0.597656 -1.207031,-0.597656 -1.617188,0 -1.617188,1.898437 -1.617188,2.402343 0,0.503907 0,2.367188 1.617188,2.367188 1.617187,0 1.617187,-1.863281 1.617187,-2.367188 z m -1.617187,2.167969 c -0.316407,0 -0.75,-0.1875 -0.890625,-0.761719 -0.09375,-0.410156 -0.09375,-0.984375 -0.09375,-1.5 0,-0.503906 0,-1.03125 0.105468,-1.417968 0.152344,-0.550782 0.597657,-0.691407 0.878907,-0.691407 0.375,0 0.738281,0.222657 0.867187,0.632813 0.105469,0.375 0.117188,0.878906 0.117188,1.476562 0,0.515625 0,1.042969 -0.09375,1.476563 -0.140625,0.632812 -0.609375,0.785156 -0.890625,0.785156 z m 10.441406,-5.167969 c -1.324219,0.925782 -1.675781,2.414063 -1.675781,3.480469 0,0.984375 0.292968,2.507813 1.675781,3.480469 0.05859,0 0.140625,0 0.140625,-0.08203 0,-0.04687 -0.02344,-0.05859 -0.07031,-0.105469 -0.925781,-0.832031 -1.265625,-2.015625 -1.265625,-3.292969 0,-1.875 0.714844,-2.800781 1.289063,-3.316406 0.02344,-0.02344 0.04687,-0.04687 0.04687,-0.08203 0,-0.08203 -0.08203,-0.08203 -0.140625,-0.08203 z m 2.411133,1.03125 c 0,-0.234375 0,-0.316406 0.574218,-0.316406 h 0.175782 v -0.246094 c -0.04687,0 -0.808594,0.02344 -1.078125,0.02344 -0.28125,0 -1.042969,-0.02344 -1.089844,-0.02344 v 0.246094 h 0.1875 c 0.574219,0 0.574219,0.08203 0.574219,0.316406 v 3.621094 c 0,0.234375 0,0.328125 -0.574219,0.328125 h -0.1875 v 0.246094 c 0.05859,0 0.808594,-0.02344 1.089844,-0.02344 0.269531,0 1.042968,0.02344 1.078125,0.02344 V 16.36525 h -0.175782 c -0.574218,0 -0.574218,-0.09375 -0.574218,-0.328125 z m 3.09375,0 c 0,-0.234375 0,-0.316406 0.574218,-0.316406 h 0.175782 v -0.246094 c -0.04687,0 -0.808594,0.02344 -1.078125,0.02344 -0.28125,0 -1.042969,-0.02344 -1.089844,-0.02344 v 0.246094 h 0.1875 c 0.574219,0 0.574219,0.08203 0.574219,0.316406 v 3.621094 c 0,0.234375 0,0.328125 -0.574219,0.328125 h -0.1875 v 0.246094 c 0.05859,0 0.808594,-0.02344 1.089844,-0.02344 0.269531,0 1.042968,0.02344 1.078125,0.02344 V 16.36525 h -0.175782 c -0.574218,0 -0.574218,-0.09375 -0.574218,-0.328125 z m 3.09375,0 c 0,-0.234375 0,-0.316406 0.574218,-0.316406 h 0.175782 v -0.246094 c -0.04687,0 -0.808594,0.02344 -1.078125,0.02344 -0.28125,0 -1.042969,-0.02344 -1.089844,-0.02344 v 0.246094 h 0.1875 c 0.574219,0 0.574219,0.08203 0.574219,0.316406 v 3.621094 c 0,0.234375 0,0.328125 -0.574219,0.328125 h -0.1875 v 0.246094 c 0.05859,0 0.808594,-0.02344 1.089844,-0.02344 0.269531,0 1.042968,0.02344 1.078125,0.02344 V 16.36525 h -0.175782 c -0.574218,0 -0.574218,-0.09375 -0.574218,-0.328125 z m 1.740234,-1.03125 c -0.05859,0 -0.140625,0 -0.140625,0.08203 0,0.03516 0.02344,0.05859 0.07031,0.105468 0.597656,0.550782 1.265625,1.488282 1.265625,3.292969 0,1.453125 -0.457032,2.554688 -1.207032,3.234375 -0.117187,0.117188 -0.128906,0.128906 -0.128906,0.164063 0,0.03516 0.02344,0.08203 0.09375,0.08203 0.08203,0 0.75,-0.457031 1.207031,-1.324219 0.304688,-0.585937 0.503907,-1.335937 0.503907,-2.15625 0,-0.984375 -0.292969,-2.507812 -1.664063,-3.480469 z m 0,0"
         style="fill:#ffffff;fill-opacity:1;fill-rule:nonzero;stroke:none" />
    </g>
    <path
       id="path96"
       d="M 0,0 H 26.456"
       style="fill:#ffffff;stroke:#ffffff;stroke-width:0.1;stroke-linecap:butt;stroke-linejoin:miter;stroke-miterlimit:10;stroke-dasharray:none;stroke-opacity:1;fill-opacity:1"
       transform="matrix(1.3333333,0,0,-1.3333333,18.578667,85.08)" />
    <path
       id="path97"
       d="M 0,0 H 0.498"
       style="fill:#ffffff;stroke:#ffffff;stroke-width:0.1;stroke-linecap:butt;stroke-linejoin:miter;stroke-miterlimit:10;stroke-dasharray:none;stroke-opacity:1;fill-opacity:1"
       transform="matrix(1.3333333,0,0,-1.3333333,18.578667,85.08)" />
    <path
       id="path98"
       d="M 0,0 H 0.996"
       style="fill:#ffffff;stroke:#ffffff;stroke-width:0.1;stroke-linecap:butt;stroke-linejoin:miter;stroke-miterlimit:10;stroke-dasharray:none;stroke-opacity:1;fill-opacity:1"
       transform="matrix(1.3333333,0,0,-1.3333333,20.656,85.08)" />
    <path
       id="path99"
       d="M 0,0 H 0.996"
       style="fill:#ffffff;stroke:#ffffff;stroke-width:0.1;stroke-linecap:butt;stroke-linejoin:miter;stroke-miterlimit:10;stroke-dasharray:none;stroke-opacity:1;fill-opacity:1"
       transform="matrix(1.3333333,0,0,-1.3333333,23.398667,85.08)" />
    <path
       id="path100"
       d="M 0,0 H 0.996"
       style="fill:#ffffff;stroke:#ffffff;stroke-width:0.1;stroke-linecap:butt;stroke-linejoin:miter;stroke-miterlimit:10;stroke-dasharray:none;stroke-opacity:1;fill-opacity:1"
       transform="matrix(1.3333333,0,0,-1.3333333,26.141333,85.08)" />
    <path
       id="path101"
       d="M 0,0 H 0.996"
       style="fill:#ffffff;stroke:#ffffff;stroke-width:0.1;stroke-linecap:butt;stroke-linejoin:miter;stroke-miterlimit:10;stroke-dasharray:none;stroke-opacity:1;fill-opacity:1"
       transform="matrix(1.3333333,0,0,-1.3333333,28.882667,85.08)" />
    <path
       id="path102"
       d="M 0,0 H 0.996"
       style="fill:#ffffff;stroke:#ffffff;stroke-width:0.1;stroke-linecap:butt;stroke-linejoin:miter;stroke-miterlimit:10;stroke-dasharray:none;stroke-opacity:1;fill-opacity:1"
       transform="matrix(1.3333333,0,0,-1.3333333,31.625333,85.08)" />
    <path
       id="path103"
       d="M 0,0 H 0.996"
       style="fill:#ffffff;stroke:#ffffff;stroke-width:0.1;stroke-linecap:butt;stroke-linejoin:miter;stroke-miterlimit:10;stroke-dasharray:none;stroke-opacity:1;fill-opacity:1"
       transform="matrix(1.3333333,0,0,-1.3333333,34.368,85.08)" />
    <path
       id="path104"
       d="M 0,0 H 0.996"
       style="fill:#ffffff;stroke:#ffffff;stroke-width:0.1;stroke-linecap:butt;stroke-linejoin:miter;stroke-miterlimit:10;stroke-dasharray:none;stroke-opacity:1;fill-opacity:1"
       transform="matrix(1.3333333,0,0,-1.3333333,37.109333,85.08)" />
    <path
       id="path105"
       d="M 0,0 H 0.996"
       style="fill:#ffffff;stroke:#ffffff;stroke-width:0.1;stroke-linecap:butt;stroke-linejoin:miter;stroke-miterlimit:10;stroke-dasharray:none;stroke-opacity:1;fill-opacity:1"
       transform="matrix(1.3333333,0,0,-1.3333333,39.852,85.08)" />
    <path
       id="path106"
       d="M 0,0 H 0.996"
       style="fill:#ffffff;stroke:#ffffff;stroke-width:0.1;stroke-linecap:butt;stroke-linejoin:miter;stroke-miterlimit:10;stroke-dasharray:none;stroke-opacity:1;fill-opacity:1"
       transform="matrix(1.3333333,0,0,-1.3333333,42.593333,85.08)" />
    <path
       id="path107"
       d="M 0,0 H 0.996"
       style="fill:#ffffff;stroke:#ffffff;stroke-width:0.1;stroke-linecap:butt;stroke-linejoin:miter;stroke-miterlimit:10;stroke-dasharray:none;stroke-opacity:1;fill-opacity:1"
       transform="matrix(1.3333333,0,0,-1.3333333,45.336,85.08)" />
    <path
       id="path108"
       d="M 0,0 H 0.996"
       style="fill:#ffffff;stroke:#ffffff;stroke-width:0.1;stroke-linecap:butt;stroke-linejoin:miter;stroke-miterlimit:10;stroke-dasharray:none;stroke-opacity:1;fill-opacity:1"
       transform="matrix(1.3333333,0,0,-1.3333333,48.078667,85.08)" />
    <path
       id="path109"
       d="M 0,0 H 0.996"
       style="fill:#ffffff;stroke:#ffffff;stroke-width:0.1;stroke-linecap:butt;stroke-linejoin:miter;stroke-miterlimit:10;stroke-dasharray:none;stroke-opacity:1;fill-opacity:1"
       transform="matrix(1.3333333,0,0,-1.3333333,50.82,85.08)" />
    <path
       id="path110"
       d="M 0,0 H 0.996"
       style="fill:#ffffff;stroke:#ffffff;stroke-width:0.1;stroke-linecap:butt;stroke-linejoin:miter;stroke-miterlimit:10;stroke-dasharray:none;stroke-opacity:1;fill-opacity:1"
       transform="matrix(1.3333333,0,0,-1.3333333,53.562667,85.08)" />
    <path
       id="path111"
       d="M 0,0 H 0.996"
       style="fill:#ffffff;stroke:#ffffff;stroke-width:0.1;stroke-linecap:butt;stroke-linejoin:miter;stroke-miterlimit:10;stroke-dasharray:none;stroke-opacity:1;fill-opacity:1"
       transform="matrix(1.3333333,0,0,-1.3333333,56.304,85.08)" />
    <path
       id="path112"
       d="M 0,0 H 0.996"
       style="fill:#ffffff;stroke:#ffffff;stroke-width:0.1;stroke-linecap:butt;stroke-linejoin:miter;stroke-miterlimit:10;stroke-dasharray:none;stroke-opacity:1;fill-opacity:1"
       transform="matrix(1.3333333,0,0,-1.3333333,59.046667,85.08)" />
    <path
       id="path113"
       d="M 0,0 H 0.996"
       style="fill:#ffffff;stroke:#ffffff;stroke-width:0.1;stroke-linecap:butt;stroke-linejoin:miter;stroke-miterlimit:10;stroke-dasharray:none;stroke-opacity:1;fill-opacity:1"
       transform="matrix(1.3333333,0,0,-1.3333333,61.789333,85.08)" />
    <path
       id="path114"
       d="M 0,0 H 0.996"
       style="fill:#ffffff;stroke:#ffffff;stroke-width:0.1;stroke-linecap:butt;stroke-linejoin:miter;stroke-miterlimit:10;stroke-dasharray:none;stroke-opacity:1;fill-opacity:1"
       transform="matrix(1.3333333,0,0,-1.3333333,64.530667,85.08)" />
    <path
       id="path115"
       d="M 0,0 H 0.996"
       style="fill:#ffffff;stroke:#ffffff;stroke-width:0.1;stroke-linecap:butt;stroke-linejoin:miter;stroke-miterlimit:10;stroke-dasharray:none;stroke-opacity:1;fill-opacity:1"
       transform="matrix(1.3333333,0,0,-1.3333333,67.273333,85.08)" />
    <path
       id="path116"
       d="M 0,0 H 0.498"
       style="fill:#ffffff;stroke:#ffffff;stroke-width:0.1;stroke-linecap:butt;stroke-linejoin:miter;stroke-miterlimit:10;stroke-dasharray:none;stroke-opacity:1;fill-opacity:1"
       transform="matrix(1.3333333,0,0,-1.3333333,70.014667,85.08)" />
    <g
       id="g116"
       aria-label="42.0&#10;3.5(II)"
       transform="matrix(1.3333333,0,0,1.3333333,9.2986667,96.172)"
       style="fill:#ffffff;fill-opacity:1">
      <path
         id="path117"
         d="M 3.6900625,-1.1485312 V -1.394625 H 2.916625 v -3.1054687 c 0,-0.1523438 0,-0.1992188 -0.1523437,-0.1992188 -0.09375,0 -0.1171875,0 -0.1875,0.09375 L 0.2681875,-1.394625 v 0.2460938 h 2.0507813 v 0.5742187 c 0,0.234375 0,0.328125 -0.5625,0.328125 h -0.1875 V -9.375e-5 c 0.3515625,-0.01171875 0.796875,-0.0234375 1.0429687,-0.0234375 0.2578125,0 0.703125,0.01171875 1.0546875,0.0234375 V -0.2461875 h -0.1875 c -0.5625,0 -0.5625,-0.09375 -0.5625,-0.328125 V -1.1485312 Z M 2.3658438,-3.9493125 V -1.394625 H 0.526 Z m 0,0"
         style="fill:#ffffff;fill-opacity:1;fill-rule:nonzero;stroke:none" />
      <path
         id="path118"
         d="m 18.962523,-0.7618125 1.054688,-1.03125 c 1.558594,-1.3710937 2.15625,-1.9101562 2.15625,-2.90625 0,-1.1367187 -0.902344,-1.9335937 -2.121094,-1.9335937 -1.125,0 -1.851562,0.9140625 -1.851562,1.8046875 0,0.5507812 0.492187,0.5507812 0.527343,0.5507812 0.164063,0 0.515625,-0.1171875 0.515625,-0.5273437 0,-0.2578125 -0.1875,-0.515625 -0.527343,-0.515625 -0.08203,0 -0.105469,0 -0.128907,0.011719 0.222657,-0.6445312 0.761719,-1.0195312 1.335938,-1.0195312 0.914062,0 1.335937,0.8085937 1.335937,1.6289062 0,0.796875 -0.492187,1.5820313 -1.042968,2.203125 l -1.910157,2.1328125 c -0.105468,0.10546875 -0.105468,0.12890625 -0.105468,0.36328125 h 3.691406 l 0.28125,-1.73437495 h -0.257813 c -0.04687,0.3046875 -0.117187,0.7382812 -0.210937,0.89062495 -0.07031,0.0820313 -0.726563,0.0820313 -0.949219,0.0820313 z m 0,0"
         style="fill:#ffffff;fill-opacity:1;fill-rule:nonzero;stroke:none" />
      <path
         id="path119"
         d="m 24.590453,-0.5274375 c 0,-0.29296875 -0.234375,-0.5273437 -0.527344,-0.5273437 -0.28125,0 -0.527343,0.23437495 -0.527343,0.5273437 0,0.29296875 0.246093,0.52734375 0.527343,0.52734375 0.292969,0 0.527344,-0.234375 0.527344,-0.52734375 z m 0,0"
         style="fill:#ffffff;fill-opacity:1;fill-rule:nonzero;stroke:none" />
      <path
         id="path120"
         d="m 30.027953,-3.1875937 c 0,-0.796875 -0.04687,-1.59375 -0.398437,-2.3320313 -0.457032,-0.9609375 -1.277344,-1.1132812 -1.6875,-1.1132812 -0.597657,0 -1.335938,0.2578125 -1.734375,1.1835937 -0.328125,0.6914063 -0.375,1.4648438 -0.375,2.2617188 0,0.75 0.04687,1.640625 0.445312,2.4023437 0.433594,0.80859375 1.160156,1.0078125 1.652344,1.0078125 0.539062,0 1.289062,-0.2109375 1.734375,-1.16015625 C 29.981078,-1.629 30.027953,-2.4024375 30.027953,-3.1875937 Z M 27.930297,-9.375e-5 c -0.386719,0 -0.984375,-0.24609375 -1.160156,-1.20703125 -0.105469,-0.5976562 -0.105469,-1.5117187 -0.105469,-2.0976562 0,-0.6445313 0,-1.3007813 0.08203,-1.8398438 0.1875,-1.1835937 0.925781,-1.265625 1.183594,-1.265625 0.328125,0 0.984375,0.1757813 1.171875,1.1601563 0.09375,0.5625 0.09375,1.3125 0.09375,1.9453125 0,0.75 0,1.4179687 -0.105469,2.0625 -0.152344,0.93749995 -0.714844,1.24218745 -1.160156,1.24218745 z m 0,0"
         style="fill:#ffffff;fill-opacity:1;fill-rule:nonzero;stroke:none" />
      <path
         id="path121"
         d="m 57.14807,3.6473672 c 0.550782,0 0.9375,0.375 0.9375,1.125 0,0.8671875 -0.503906,1.125 -0.902343,1.125 -0.28125,0 -0.890625,-0.082031 -1.183594,-0.4921875 0.328125,-0.011719 0.398437,-0.2460938 0.398437,-0.3867188 0,-0.2226562 -0.164062,-0.3867187 -0.386718,-0.3867187 -0.1875,0 -0.386719,0.1171875 -0.386719,0.4101562 0,0.65625 0.726562,1.078125 1.570312,1.078125 0.972657,0 1.640625,-0.6445312 1.640625,-1.3476562 0,-0.5390625 -0.445312,-1.0898438 -1.21875,-1.2421875 0.738282,-0.2695313 0.996094,-0.796875 0.996094,-1.21875 0,-0.5507813 -0.632812,-0.9609375 -1.40625,-0.9609375 -0.773437,0 -1.359375,0.375 -1.359375,0.9375 0,0.234375 0.152344,0.3632812 0.363281,0.3632812 0.210938,0 0.351563,-0.1640625 0.351563,-0.3515625 0,-0.1992187 -0.140625,-0.3515625 -0.351563,-0.3632812 0.234375,-0.3046875 0.714844,-0.3867188 0.972657,-0.3867188 0.316406,0 0.761718,0.1523438 0.761718,0.7617188 0,0.2929687 -0.105468,0.609375 -0.28125,0.8320312 -0.234375,0.2578125 -0.421875,0.28125 -0.773437,0.2929688 -0.175781,0.023437 -0.1875,0.023437 -0.222656,0.023437 -0.01172,0 -0.07031,0.011719 -0.07031,0.09375 0,0.09375 0.05859,0.09375 0.175781,0.09375 z m 0,0"
         style="fill:#ffffff;fill-opacity:1;fill-rule:nonzero;stroke:none" />
      <path
         id="path122"
         d="m 60.80432,5.5809609 c 0,-0.2460937 -0.210937,-0.3984375 -0.398437,-0.3984375 -0.222656,0 -0.398438,0.1875 -0.398438,0.3867188 0,0.2578125 0.199219,0.4101562 0.398438,0.4101562 0.222656,0 0.398437,-0.1875 0.398437,-0.3984375 z m 0,0"
         style="fill:#ffffff;fill-opacity:1;fill-rule:nonzero;stroke:none" />
      <path
         id="path123"
         d="m 62.664672,2.0887734 c 0.363281,0.09375 0.5625,0.09375 0.679687,0.09375 0.914063,0 1.464844,-0.6328125 1.464844,-0.7382812 0,-0.070312 -0.04687,-0.09375 -0.08203,-0.09375 -0.01172,0 -0.03516,0 -0.05859,0.023437 -0.164062,0.058594 -0.539062,0.1992187 -1.054687,0.1992187 -0.199219,0 -0.5625,-0.011719 -1.019532,-0.1875 -0.07031,-0.035156 -0.08203,-0.035156 -0.08203,-0.035156 -0.09375,0 -0.09375,0.070312 -0.09375,0.1875 v 2.0625 c 0,0.1171875 0,0.1992187 0.105469,0.1992187 0.07031,0 0.07031,-0.011719 0.140625,-0.1054687 0.304687,-0.375 0.726562,-0.4335938 0.972656,-0.4335938 0.421875,0 0.609375,0.3398438 0.644531,0.3867188 0.117188,0.234375 0.164063,0.5039062 0.164063,0.9023437 0,0.2109375 0,0.6210938 -0.210938,0.9257813 -0.175781,0.2578125 -0.46875,0.421875 -0.820312,0.421875 -0.445313,0 -0.914063,-0.2578125 -1.089844,-0.7148438 0.269531,0.023437 0.398438,-0.1523437 0.398438,-0.3398437 0,-0.3046875 -0.257813,-0.3515625 -0.351563,-0.3515625 -0.01172,0 -0.351562,0 -0.351562,0.375 0,0.6210937 0.574218,1.2539062 1.417968,1.2539062 0.890625,0 1.664063,-0.6679687 1.664063,-1.546875 0,-0.7851562 -0.597656,-1.5117187 -1.453125,-1.5117187 -0.316406,0 -0.679688,0.082031 -0.984375,0.3398437 z M 74.008422,0.75283594 C 72.684203,1.6786172 72.332641,3.1668984 72.332641,4.2333047 c 0,0.984375 0.292968,2.5078125 1.675781,3.4804687 0.05859,0 0.140625,0 0.140625,-0.082031 0,-0.046875 -0.02344,-0.058594 -0.07031,-0.1054688 -0.925781,-0.8320312 -1.265625,-2.015625 -1.265625,-3.2929687 0,-1.875 0.714844,-2.8007813 1.289063,-3.31640626 0.02344,-0.0234375 0.04687,-0.046875 0.04687,-0.0820313 0,-0.0820313 -0.08203,-0.0820313 -0.140625,-0.0820313 z m 2.411133,1.03124996 c 0,-0.234375 0,-0.3164062 0.574218,-0.3164062 h 0.175782 V 1.2215859 c -0.04687,0 -0.808594,0.023437 -1.078125,0.023437 -0.28125,0 -1.042969,-0.023437 -1.089844,-0.023437 v 0.2460938 h 0.1875 c 0.574219,0 0.574219,0.082031 0.574219,0.3164062 v 3.6210938 c 0,0.234375 0,0.328125 -0.574219,0.328125 h -0.1875 v 0.2460937 c 0.05859,0 0.808594,-0.023437 1.089844,-0.023437 0.269531,0 1.042968,0.023437 1.078125,0.023437 V 5.7333047 h -0.175782 c -0.574218,0 -0.574218,-0.09375 -0.574218,-0.328125 z m 3.09375,0 c 0,-0.234375 0,-0.3164062 0.574218,-0.3164062 h 0.175782 V 1.2215859 c -0.04687,0 -0.808594,0.023437 -1.078125,0.023437 -0.28125,0 -1.042969,-0.023437 -1.089844,-0.023437 v 0.2460938 h 0.1875 c 0.574219,0 0.574219,0.082031 0.574219,0.3164062 v 3.6210938 c 0,0.234375 0,0.328125 -0.574219,0.328125 h -0.1875 v 0.2460937 c 0.05859,0 0.808594,-0.023437 1.089844,-0.023437 0.269531,0 1.042968,0.023437 1.078125,0.023437 V 5.7333047 h -0.175782 c -0.574218,0 -0.574218,-0.09375 -0.574218,-0.328125 z m 1.740234,-1.03124996 c -0.05859,0 -0.140625,0 -0.140625,0.0820313 0,0.0351563 0.02344,0.0585938 0.07031,0.10546875 0.597656,0.55078121 1.265625,1.48828121 1.265625,3.29296871 0,1.453125 -0.457032,2.5546875 -1.207032,3.234375 -0.117187,0.1171875 -0.128906,0.1289063 -0.128906,0.1640625 0,0.035156 0.02344,0.082031 0.09375,0.082031 0.08203,0 0.75,-0.4570312 1.207031,-1.3242187 0.304688,-0.5859375 0.503907,-1.3359375 0.503907,-2.15625 0,-0.984375 -0.292969,-2.5078125 -1.664063,-3.48046871 z m 0,0"
         style="fill:#ffffff;fill-opacity:1;fill-rule:nonzero;stroke:none" />
    </g>
    <path
       id="path124"
       d="M 0,0 H 26.456"
       style="fill:#ffffff;stroke:#ffffff;stroke-width:0.1;stroke-linecap:butt;stroke-linejoin:miter;stroke-miterlimit:10;stroke-dasharray:none;stroke-opacity:1;fill-opacity:1"
       transform="matrix(1.3333333,0,0,-1.3333333,18.578667,101.02)" />
    <path
       id="path125"
       d="M 0,0 H 0.498"
       style="fill:#ffffff;stroke:#ffffff;stroke-width:0.1;stroke-linecap:butt;stroke-linejoin:miter;stroke-miterlimit:10;stroke-dasharray:none;stroke-opacity:1;fill-opacity:1"
       transform="matrix(1.3333333,0,0,-1.3333333,18.578667,101.02)" />
    <path
       id="path126"
       d="M 0,0 H 0.996"
       style="fill:#ffffff;stroke:#ffffff;stroke-width:0.1;stroke-linecap:butt;stroke-linejoin:miter;stroke-miterlimit:10;stroke-dasharray:none;stroke-opacity:1;fill-opacity:1"
       transform="matrix(1.3333333,0,0,-1.3333333,20.656,101.02)" />
    <path
       id="path127"
       d="M 0,0 H 0.996"
       style="fill:#ffffff;stroke:#ffffff;stroke-width:0.1;stroke-linecap:butt;stroke-linejoin:miter;stroke-miterlimit:10;stroke-dasharray:none;stroke-opacity:1;fill-opacity:1"
       transform="matrix(1.3333333,0,0,-1.3333333,23.398667,101.02)" />
    <path
       id="path128"
       d="M 0,0 H 0.996"
       style="fill:#ffffff;stroke:#ffffff;stroke-width:0.1;stroke-linecap:butt;stroke-linejoin:miter;stroke-miterlimit:10;stroke-dasharray:none;stroke-opacity:1;fill-opacity:1"
       transform="matrix(1.3333333,0,0,-1.3333333,26.141333,101.02)" />
    <path
       id="path129"
       d="M 0,0 H 0.996"
       style="fill:#ffffff;stroke:#ffffff;stroke-width:0.1;stroke-linecap:butt;stroke-linejoin:miter;stroke-miterlimit:10;stroke-dasharray:none;stroke-opacity:1;fill-opacity:1"
       transform="matrix(1.3333333,0,0,-1.3333333,28.882667,101.02)" />
    <path
       id="path130"
       d="M 0,0 H 0.996"
       style="fill:#ffffff;stroke:#ffffff;stroke-width:0.1;stroke-linecap:butt;stroke-linejoin:miter;stroke-miterlimit:10;stroke-dasharray:none;stroke-opacity:1;fill-opacity:1"
       transform="matrix(1.3333333,0,0,-1.3333333,31.625333,101.02)" />
    <path
       id="path131"
       d="M 0,0 H 0.996"
       style="fill:#ffffff;stroke:#ffffff;stroke-width:0.1;stroke-linecap:butt;stroke-linejoin:miter;stroke-miterlimit:10;stroke-dasharray:none;stroke-opacity:1;fill-opacity:1"
       transform="matrix(1.3333333,0,0,-1.3333333,34.368,101.02)" />
    <path
       id="path132"
       d="M 0,0 H 0.996"
       style="fill:#ffffff;stroke:#ffffff;stroke-width:0.1;stroke-linecap:butt;stroke-linejoin:miter;stroke-miterlimit:10;stroke-dasharray:none;stroke-opacity:1;fill-opacity:1"
       transform="matrix(1.3333333,0,0,-1.3333333,37.109333,101.02)" />
    <path
       id="path133"
       d="M 0,0 H 0.996"
       style="fill:#ffffff;stroke:#ffffff;stroke-width:0.1;stroke-linecap:butt;stroke-linejoin:miter;stroke-miterlimit:10;stroke-dasharray:none;stroke-opacity:1;fill-opacity:1"
       transform="matrix(1.3333333,0,0,-1.3333333,39.852,101.02)" />
    <path
       id="path134"
       d="M 0,0 H 0.996"
       style="fill:#ffffff;stroke:#ffffff;stroke-width:0.1;stroke-linecap:butt;stroke-linejoin:miter;stroke-miterlimit:10;stroke-dasharray:none;stroke-opacity:1;fill-opacity:1"
       transform="matrix(1.3333333,0,0,-1.3333333,42.593333,101.02)" />
    <path
       id="path135"
       d="M 0,0 H 0.996"
       style="fill:#ffffff;stroke:#ffffff;stroke-width:0.1;stroke-linecap:butt;stroke-linejoin:miter;stroke-miterlimit:10;stroke-dasharray:none;stroke-opacity:1;fill-opacity:1"
       transform="matrix(1.3333333,0,0,-1.3333333,45.336,101.02)" />
    <path
       id="path136"
       d="M 0,0 H 0.996"
       style="fill:#ffffff;stroke:#ffffff;stroke-width:0.1;stroke-linecap:butt;stroke-linejoin:miter;stroke-miterlimit:10;stroke-dasharray:none;stroke-opacity:1;fill-opacity:1"
       transform="matrix(1.3333333,0,0,-1.3333333,48.078667,101.02)" />
    <path
       id="path137"
       d="M 0,0 H 0.996"
       style="fill:#ffffff;stroke:#ffffff;stroke-width:0.1;stroke-linecap:butt;stroke-linejoin:miter;stroke-miterlimit:10;stroke-dasharray:none;stroke-opacity:1;fill-opacity:1"
       transform="matrix(1.3333333,0,0,-1.3333333,50.82,101.02)" />
    <path
       id="path138"
       d="M 0,0 H 0.996"
       style="fill:#ffffff;stroke:#ffffff;stroke-width:0.1;stroke-linecap:butt;stroke-linejoin:miter;stroke-miterlimit:10;stroke-dasharray:none;stroke-opacity:1;fill-opacity:1"
       transform="matrix(1.3333333,0,0,-1.3333333,53.562667,101.02)" />
    <path
       id="path139"
       d="M 0,0 H 0.996"
       style="fill:#ffffff;stroke:#ffffff;stroke-width:0.1;stroke-linecap:butt;stroke-linejoin:miter;stroke-miterlimit:10;stroke-dasharray:none;stroke-opacity:1;fill-opacity:1"
       transform="matrix(1.3333333,0,0,-1.3333333,56.304,101.02)" />
    <path
       id="path140"
       d="M 0,0 H 0.996"
       style="fill:#ffffff;stroke:#ffffff;stroke-width:0.1;stroke-linecap:butt;stroke-linejoin:miter;stroke-miterlimit:10;stroke-dasharray:none;stroke-opacity:1;fill-opacity:1"
       transform="matrix(1.3333333,0,0,-1.3333333,59.046667,101.02)" />
    <path
       id="path141"
       d="M 0,0 H 0.996"
       style="fill:#ffffff;stroke:#ffffff;stroke-width:0.1;stroke-linecap:butt;stroke-linejoin:miter;stroke-miterlimit:10;stroke-dasharray:none;stroke-opacity:1;fill-opacity:1"
       transform="matrix(1.3333333,0,0,-1.3333333,61.789333,101.02)" />
    <path
       id="path142"
       d="M 0,0 H 0.996"
       style="fill:#ffffff;stroke:#ffffff;stroke-width:0.1;stroke-linecap:butt;stroke-linejoin:miter;stroke-miterlimit:10;stroke-dasharray:none;stroke-opacity:1;fill-opacity:1"
       transform="matrix(1.3333333,0,0,-1.3333333,64.530667,101.02)" />
    <path
       id="path143"
       d="M 0,0 H 0.996"
       style="fill:#ffffff;stroke:#ffffff;stroke-width:0.1;stroke-linecap:butt;stroke-linejoin:miter;stroke-miterlimit:10;stroke-dasharray:none;stroke-opacity:1;fill-opacity:1"
       transform="matrix(1.3333333,0,0,-1.3333333,67.273333,101.02)" />
    <path
       id="path144"
       d="M 0,0 H 0.498"
       style="fill:#ffffff;stroke:#ffffff;stroke-width:0.1;stroke-linecap:butt;stroke-linejoin:miter;stroke-miterlimit:10;stroke-dasharray:none;stroke-opacity:1;fill-opacity:1"
       transform="matrix(1.3333333,0,0,-1.3333333,70.014667,101.02)" />
    <g
       id="g144"
       aria-label="55.0&#10;6.5(II)"
       transform="matrix(1.3333333,0,0,1.3333333,9.2986667,112.112)"
       style="fill:#ffffff;fill-opacity:1">
      <path
         id="path145"
         d="m 1.0767813,-3.8896641 c 0.3632812,0.09375 0.5625,0.09375 0.6796875,0.09375 0.9140625,0 1.4648437,-0.6328125 1.4648437,-0.7382812 0,-0.070312 -0.046875,-0.09375 -0.082031,-0.09375 -0.011719,0 -0.035156,0 -0.058594,0.023437 C 2.916625,-4.5459141 2.541625,-4.4052891 2.026,-4.4052891 c -0.1992187,0 -0.5625,-0.011719 -1.0195312,-0.1875 -0.0703125,-0.035156 -0.0820313,-0.035156 -0.0820313,-0.035156 -0.09375,0 -0.09375,0.070312 -0.09375,0.1875 v 2.0625 c 0,0.1171875 0,0.1992187 0.10546875,0.1992187 0.0703125,0 0.0703125,-0.011719 0.14062505,-0.1054687 0.3046875,-0.375 0.7265625,-0.4335938 0.9726562,-0.4335938 0.421875,0 0.609375,0.3398438 0.6445313,0.3867188 0.1171875,0.234375 0.1640625,0.5039062 0.1640625,0.9023437 0,0.2109375 0,0.62109379 -0.2109375,0.92578129 -0.1757813,0.2578125 -0.46875,0.421875 -0.8203125,0.421875 -0.4453125,0 -0.91406255,-0.2578125 -1.0898438,-0.71484375 0.2695313,0.0234375 0.3984375,-0.15234375 0.3984375,-0.33984374 0,-0.3046875 -0.2578125,-0.3515625 -0.3515625,-0.3515625 -0.0117188,0 -0.3515625,0 -0.3515625,0.375 0,0.62109374 0.5742188,1.25390624 1.4179688,1.25390624 0.890625,0 1.6640625,-0.66796875 1.6640625,-1.54687504 0,-0.7851562 -0.5976563,-1.5117187 -1.453125,-1.5117187 -0.3164063,0 -0.6796875,0.082031 -0.984375,0.3398437 z m 0,0"
         style="fill:#ffffff;fill-opacity:1;fill-rule:nonzero;stroke:none" />
      <path
         id="path146"
         d="m 22.173461,-2.0029453 c 0,-1.1835938 -0.820313,-2.1796875 -1.898438,-2.1796875 -0.480468,0 -0.902343,0.1640625 -1.265625,0.5039062 v -1.9335937 c 0.199219,0.058594 0.527344,0.1289062 0.84375,0.1289062 1.230469,0 1.933594,-0.9140625 1.933594,-1.0429687 0,-0.058594 -0.03516,-0.1054688 -0.105469,-0.1054688 -0.01172,0 -0.03516,0 -0.08203,0.023437 -0.199219,0.09375 -0.679687,0.2929688 -1.347656,0.2929688 -0.398438,0 -0.855469,-0.070312 -1.324219,-0.28125 -0.08203,-0.023437 -0.105469,-0.023437 -0.128906,-0.023437 -0.09375,0 -0.09375,0.082031 -0.09375,0.234375 v 2.953125 c 0,0.1757812 0,0.2578125 0.140625,0.2578125 0.07031,0 0.08203,-0.035156 0.128906,-0.09375 0.105469,-0.1523438 0.480469,-0.6914063 1.277344,-0.6914063 0.527344,0 0.773437,0.4570313 0.855469,0.6328125 0.152343,0.375 0.175781,0.7617188 0.175781,1.2539063 0,0.3515625 0,0.9492187 -0.234375,1.37109374 -0.246094,0.38671875 -0.609375,0.64453125 -1.066406,0.64453125 -0.726563,0 -1.300782,-0.52734375 -1.464844,-1.11328129 0.02344,0.011719 0.05859,0.011719 0.164062,0.011719 0.328125,0 0.503907,-0.2460938 0.503907,-0.4804688 0,-0.2460937 -0.175782,-0.4921875 -0.503907,-0.4921875 -0.140625,0 -0.480468,0.070312 -0.480468,0.5273438 0,0.85546874 0.679687,1.82812499 1.792968,1.82812499 1.160157,0 2.179688,-0.9609375 2.179688,-2.22656249 z m 0,0"
         style="fill:#ffffff;fill-opacity:1;fill-rule:nonzero;stroke:none" />
      <path
         id="path147"
         d="m 24.590453,-0.52638281 c 0,-0.29296875 -0.234375,-0.52734379 -0.527344,-0.52734379 -0.28125,0 -0.527343,0.23437504 -0.527343,0.52734379 0,0.29296875 0.246093,0.5273437475 0.527343,0.5273437475 0.292969,0 0.527344,-0.2343749975 0.527344,-0.5273437475 z m 0,0"
         style="fill:#ffffff;fill-opacity:1;fill-rule:nonzero;stroke:none" />
      <path
         id="path148"
         d="m 30.027953,-3.1865391 c 0,-0.796875 -0.04687,-1.59375 -0.398437,-2.3320312 -0.457032,-0.9609375 -1.277344,-1.1132813 -1.6875,-1.1132813 -0.597657,0 -1.335938,0.2578125 -1.734375,1.1835938 -0.328125,0.6914062 -0.375,1.4648437 -0.375,2.2617187 0,0.75 0.04687,1.640625 0.445312,2.40234379 0.433594,0.80859375 1.160156,1.0078125 1.652344,1.0078125 0.539062,0 1.289062,-0.2109375 1.734375,-1.16015625 0.316406,-0.69140624 0.363281,-1.46484374 0.363281,-2.25000004 z M 27.930297,9.609375e-4 c -0.386719,0 -0.984375,-0.2460937475 -1.160156,-1.2070312375 -0.105469,-0.5976563 -0.105469,-1.5117188 -0.105469,-2.0976563 0,-0.6445312 0,-1.3007812 0.08203,-1.8398437 0.1875,-1.1835938 0.925781,-1.265625 1.183594,-1.265625 0.328125,0 0.984375,0.1757812 1.171875,1.1601562 0.09375,0.5625 0.09375,1.3125 0.09375,1.9453125 0,0.75 0,1.4179688 -0.105469,2.0625 -0.152344,0.93750004 -0.714844,1.2421875375 -1.160156,1.2421875375 z m 0,0"
         style="fill:#ffffff;fill-opacity:1;fill-rule:nonzero;stroke:none" />
      <path
         id="path149"
         d="m 56.292602,3.6923672 c 0,-0.5625 0.04687,-1.078125 0.316406,-1.5117188 0.234375,-0.375 0.609375,-0.6328125 1.054687,-0.6328125 0.210938,0 0.492188,0.058594 0.632813,0.2460938 -0.175781,0.011719 -0.316406,0.1289062 -0.316406,0.3398437 0,0.1640625 0.117187,0.328125 0.328125,0.328125 0.199218,0 0.328125,-0.140625 0.328125,-0.3515625 0,-0.3984375 -0.292969,-0.7617187 -0.984375,-0.7617187 -0.996094,0 -2.027344,0.9140625 -2.027344,2.4140625 0,1.8046875 0.855469,2.3554687 1.617187,2.3554687 0.855469,0 1.59375,-0.6445312 1.59375,-1.5585937 0,-0.890625 -0.703125,-1.546875 -1.523437,-1.546875 -0.550781,0 -0.867188,0.375 -1.019531,0.6796875 z m 0.949218,2.203125 c -0.351562,0 -0.621093,-0.1992188 -0.761718,-0.515625 -0.105469,-0.1992188 -0.164063,-0.5507813 -0.164063,-0.9726563 0,-0.6796875 0.410156,-1.1953125 0.960938,-1.1953125 0.328125,0 0.539062,0.1171875 0.714843,0.3867188 0.164063,0.2578125 0.175782,0.5507812 0.175782,0.9609375 0,0.3984375 0,0.6914062 -0.1875,0.9609375 -0.175782,0.2460937 -0.398438,0.375 -0.738282,0.375 z m 0,0"
         style="fill:#ffffff;fill-opacity:1;fill-rule:nonzero;stroke:none" />
      <path
         id="path150"
         d="m 60.80432,5.5790859 c 0,-0.2460937 -0.210937,-0.3984375 -0.398437,-0.3984375 -0.222656,0 -0.398438,0.1875 -0.398438,0.3867188 0,0.2578125 0.199219,0.4101562 0.398438,0.4101562 0.222656,0 0.398437,-0.1875 0.398437,-0.3984375 z m 0,0"
         style="fill:#ffffff;fill-opacity:1;fill-rule:nonzero;stroke:none" />
      <path
         id="path151"
         d="m 62.664672,2.0868984 c 0.363281,0.09375 0.5625,0.09375 0.679687,0.09375 0.914063,0 1.464844,-0.6328125 1.464844,-0.7382812 0,-0.070312 -0.04687,-0.09375 -0.08203,-0.09375 -0.01172,0 -0.03516,0 -0.05859,0.023437 -0.164062,0.058594 -0.539062,0.1992187 -1.054687,0.1992187 -0.199219,0 -0.5625,-0.011719 -1.019532,-0.1875 -0.07031,-0.035156 -0.08203,-0.035156 -0.08203,-0.035156 -0.09375,0 -0.09375,0.070312 -0.09375,0.1875 v 2.0625 c 0,0.1171875 0,0.1992187 0.105469,0.1992187 0.07031,0 0.07031,-0.011719 0.140625,-0.1054687 0.304687,-0.375 0.726562,-0.4335938 0.972656,-0.4335938 0.421875,0 0.609375,0.3398438 0.644531,0.3867188 0.117188,0.234375 0.164063,0.5039062 0.164063,0.9023437 0,0.2109375 0,0.6210938 -0.210938,0.9257813 -0.175781,0.2578125 -0.46875,0.421875 -0.820312,0.421875 -0.445313,0 -0.914063,-0.2578125 -1.089844,-0.7148438 0.269531,0.023437 0.398438,-0.1523437 0.398438,-0.3398437 0,-0.3046875 -0.257813,-0.3515625 -0.351563,-0.3515625 -0.01172,0 -0.351562,0 -0.351562,0.375 0,0.6210937 0.574218,1.2539062 1.417968,1.2539062 0.890625,0 1.664063,-0.6679687 1.664063,-1.546875 0,-0.7851562 -0.597656,-1.5117187 -1.453125,-1.5117187 -0.316406,0 -0.679688,0.082031 -0.984375,0.3398437 z M 74.008422,0.75096094 C 72.684203,1.6767422 72.332641,3.1650234 72.332641,4.2314297 c 0,0.984375 0.292968,2.5078125 1.675781,3.4804687 0.05859,0 0.140625,0 0.140625,-0.082031 0,-0.046875 -0.02344,-0.058594 -0.07031,-0.1054688 -0.925781,-0.8320312 -1.265625,-2.015625 -1.265625,-3.2929687 0,-1.875 0.714844,-2.8007813 1.289063,-3.31640626 0.02344,-0.0234375 0.04687,-0.046875 0.04687,-0.0820313 0,-0.0820313 -0.08203,-0.0820313 -0.140625,-0.0820313 z m 2.411133,1.03124996 c 0,-0.234375 0,-0.3164062 0.574218,-0.3164062 h 0.175782 V 1.2197109 c -0.04687,0 -0.808594,0.023437 -1.078125,0.023437 -0.28125,0 -1.042969,-0.023437 -1.089844,-0.023437 v 0.2460938 h 0.1875 c 0.574219,0 0.574219,0.082031 0.574219,0.3164062 v 3.6210938 c 0,0.234375 0,0.328125 -0.574219,0.328125 h -0.1875 v 0.2460937 c 0.05859,0 0.808594,-0.023437 1.089844,-0.023437 0.269531,0 1.042968,0.023437 1.078125,0.023437 V 5.7314297 h -0.175782 c -0.574218,0 -0.574218,-0.09375 -0.574218,-0.328125 z m 3.09375,0 c 0,-0.234375 0,-0.3164062 0.574218,-0.3164062 h 0.175782 V 1.2197109 c -0.04687,0 -0.808594,0.023437 -1.078125,0.023437 -0.28125,0 -1.042969,-0.023437 -1.089844,-0.023437 v 0.2460938 h 0.1875 c 0.574219,0 0.574219,0.082031 0.574219,0.3164062 v 3.6210938 c 0,0.234375 0,0.328125 -0.574219,0.328125 h -0.1875 v 0.2460937 c 0.05859,0 0.808594,-0.023437 1.089844,-0.023437 0.269531,0 1.042968,0.023437 1.078125,0.023437 V 5.7314297 h -0.175782 c -0.574218,0 -0.574218,-0.09375 -0.574218,-0.328125 z m 1.740234,-1.03124996 c -0.05859,0 -0.140625,0 -0.140625,0.0820313 0,0.0351563 0.02344,0.0585938 0.07031,0.10546875 0.597656,0.55078121 1.265625,1.48828121 1.265625,3.29296871 0,1.453125 -0.457032,2.5546875 -1.207032,3.234375 -0.117187,0.1171875 -0.128906,0.1289063 -0.128906,0.1640625 0,0.035156 0.02344,0.082031 0.09375,0.082031 0.08203,0 0.75,-0.4570312 1.207031,-1.3242187 0.304688,-0.5859375 0.503907,-1.3359375 0.503907,-2.15625 0,-0.984375 -0.292969,-2.5078125 -1.664063,-3.48046871 z m 0,0"
         style="fill:#ffffff;fill-opacity:1;fill-rule:nonzero;stroke:none" />
    </g>
    <path
       id="path152"
       d="M 0,0 H 26.456"
       style="fill:#ffffff;stroke:#ffffff;stroke-width:0.1;stroke-linecap:butt;stroke-linejoin:miter;stroke-miterlimit:10;stroke-dasharray:none;stroke-opacity:1;fill-opacity:1"
       transform="matrix(1.3333333,0,0,-1.3333333,18.578667,116.96133)" />
    <path
       id="path153"
       d="M 0,0 H 0.498"
       style="fill:#ffffff;stroke:#ffffff;stroke-width:0.1;stroke-linecap:butt;stroke-linejoin:miter;stroke-miterlimit:10;stroke-dasharray:none;stroke-opacity:1;fill-opacity:1"
       transform="matrix(1.3333333,0,0,-1.3333333,18.578667,116.96133)" />
    <path
       id="path154"
       d="M 0,0 H 0.996"
       style="fill:#ffffff;stroke:#ffffff;stroke-width:0.1;stroke-linecap:butt;stroke-linejoin:miter;stroke-miterlimit:10;stroke-dasharray:none;stroke-opacity:1;fill-opacity:1"
       transform="matrix(1.3333333,0,0,-1.3333333,20.656,116.96133)" />
    <path
       id="path155"
       d="M 0,0 H 0.996"
       style="fill:#ffffff;stroke:#ffffff;stroke-width:0.1;stroke-linecap:butt;stroke-linejoin:miter;stroke-miterlimit:10;stroke-dasharray:none;stroke-opacity:1;fill-opacity:1"
       transform="matrix(1.3333333,0,0,-1.3333333,23.398667,116.96133)" />
    <path
       id="path156"
       d="M 0,0 H 0.996"
       style="fill:#ffffff;stroke:#ffffff;stroke-width:0.1;stroke-linecap:butt;stroke-linejoin:miter;stroke-miterlimit:10;stroke-dasharray:none;stroke-opacity:1;fill-opacity:1"
       transform="matrix(1.3333333,0,0,-1.3333333,26.141333,116.96133)" />
    <path
       id="path157"
       d="M 0,0 H 0.996"
       style="fill:#ffffff;stroke:#ffffff;stroke-width:0.1;stroke-linecap:butt;stroke-linejoin:miter;stroke-miterlimit:10;stroke-dasharray:none;stroke-opacity:1;fill-opacity:1"
       transform="matrix(1.3333333,0,0,-1.3333333,28.882667,116.96133)" />
    <path
       id="path158"
       d="M 0,0 H 0.996"
       style="fill:#ffffff;stroke:#ffffff;stroke-width:0.1;stroke-linecap:butt;stroke-linejoin:miter;stroke-miterlimit:10;stroke-dasharray:none;stroke-opacity:1;fill-opacity:1"
       transform="matrix(1.3333333,0,0,-1.3333333,31.625333,116.96133)" />
    <path
       id="path159"
       d="M 0,0 H 0.996"
       style="fill:#ffffff;stroke:#ffffff;stroke-width:0.1;stroke-linecap:butt;stroke-linejoin:miter;stroke-miterlimit:10;stroke-dasharray:none;stroke-opacity:1;fill-opacity:1"
       transform="matrix(1.3333333,0,0,-1.3333333,34.368,116.96133)" />
    <path
       id="path160"
       d="M 0,0 H 0.996"
       style="fill:#ffffff;stroke:#ffffff;stroke-width:0.1;stroke-linecap:butt;stroke-linejoin:miter;stroke-miterlimit:10;stroke-dasharray:none;stroke-opacity:1;fill-opacity:1"
       transform="matrix(1.3333333,0,0,-1.3333333,37.109333,116.96133)" />
    <path
       id="path161"
       d="M 0,0 H 0.996"
       style="fill:#ffffff;stroke:#ffffff;stroke-width:0.1;stroke-linecap:butt;stroke-linejoin:miter;stroke-miterlimit:10;stroke-dasharray:none;stroke-opacity:1;fill-opacity:1"
       transform="matrix(1.3333333,0,0,-1.3333333,39.852,116.96133)" />
    <path
       id="path162"
       d="M 0,0 H 0.996"
       style="fill:#ffffff;stroke:#ffffff;stroke-width:0.1;stroke-linecap:butt;stroke-linejoin:miter;stroke-miterlimit:10;stroke-dasharray:none;stroke-opacity:1;fill-opacity:1"
       transform="matrix(1.3333333,0,0,-1.3333333,42.593333,116.96133)" />
    <path
       id="path163"
       d="M 0,0 H 0.996"
       style="fill:#ffffff;stroke:#ffffff;stroke-width:0.1;stroke-linecap:butt;stroke-linejoin:miter;stroke-miterlimit:10;stroke-dasharray:none;stroke-opacity:1;fill-opacity:1"
       transform="matrix(1.3333333,0,0,-1.3333333,45.336,116.96133)" />
    <path
       id="path164"
       d="M 0,0 H 0.996"
       style="fill:#ffffff;stroke:#ffffff;stroke-width:0.1;stroke-linecap:butt;stroke-linejoin:miter;stroke-miterlimit:10;stroke-dasharray:none;stroke-opacity:1;fill-opacity:1"
       transform="matrix(1.3333333,0,0,-1.3333333,48.078667,116.96133)" />
    <path
       id="path165"
       d="M 0,0 H 0.996"
       style="fill:#ffffff;stroke:#ffffff;stroke-width:0.1;stroke-linecap:butt;stroke-linejoin:miter;stroke-miterlimit:10;stroke-dasharray:none;stroke-opacity:1;fill-opacity:1"
       transform="matrix(1.3333333,0,0,-1.3333333,50.82,116.96133)" />
    <path
       id="path166"
       d="M 0,0 H 0.996"
       style="fill:#ffffff;stroke:#ffffff;stroke-width:0.1;stroke-linecap:butt;stroke-linejoin:miter;stroke-miterlimit:10;stroke-dasharray:none;stroke-opacity:1;fill-opacity:1"
       transform="matrix(1.3333333,0,0,-1.3333333,53.562667,116.96133)" />
    <path
       id="path167"
       d="M 0,0 H 0.996"
       style="fill:#ffffff;stroke:#ffffff;stroke-width:0.1;stroke-linecap:butt;stroke-linejoin:miter;stroke-miterlimit:10;stroke-dasharray:none;stroke-opacity:1;fill-opacity:1"
       transform="matrix(1.3333333,0,0,-1.3333333,56.304,116.96133)" />
    <path
       id="path168"
       d="M 0,0 H 0.996"
       style="fill:#ffffff;stroke:#ffffff;stroke-width:0.1;stroke-linecap:butt;stroke-linejoin:miter;stroke-miterlimit:10;stroke-dasharray:none;stroke-opacity:1;fill-opacity:1"
       transform="matrix(1.3333333,0,0,-1.3333333,59.046667,116.96133)" />
    <path
       id="path169"
       d="M 0,0 H 0.996"
       style="fill:#ffffff;stroke:#ffffff;stroke-width:0.1;stroke-linecap:butt;stroke-linejoin:miter;stroke-miterlimit:10;stroke-dasharray:none;stroke-opacity:1;fill-opacity:1"
       transform="matrix(1.3333333,0,0,-1.3333333,61.789333,116.96133)" />
    <path
       id="path170"
       d="M 0,0 H 0.996"
       style="fill:#ffffff;stroke:#ffffff;stroke-width:0.1;stroke-linecap:butt;stroke-linejoin:miter;stroke-miterlimit:10;stroke-dasharray:none;stroke-opacity:1;fill-opacity:1"
       transform="matrix(1.3333333,0,0,-1.3333333,64.530667,116.96133)" />
    <path
       id="path171"
       d="M 0,0 H 0.996"
       style="fill:#ffffff;stroke:#ffffff;stroke-width:0.1;stroke-linecap:butt;stroke-linejoin:miter;stroke-miterlimit:10;stroke-dasharray:none;stroke-opacity:1;fill-opacity:1"
       transform="matrix(1.3333333,0,0,-1.3333333,67.273333,116.96133)" />
    <path
       id="path172"
       d="M 0,0 H 0.498"
       style="fill:#ffffff;stroke:#ffffff;stroke-width:0.1;stroke-linecap:butt;stroke-linejoin:miter;stroke-miterlimit:10;stroke-dasharray:none;stroke-opacity:1;fill-opacity:1"
       transform="matrix(1.3333333,0,0,-1.3333333,70.014667,116.96133)" />
    <g
       id="g172"
       aria-label="68.0"
       transform="matrix(1.3333333,0,0,1.3333333,9.2986667,128.052)"
       style="fill:#ffffff;fill-opacity:1">
      <path
         id="path173"
         d="m 1.041625,-2.2860703 c 0,-0.5625 0.046875,-1.078125 0.3164063,-1.5117188 0.234375,-0.375 0.609375,-0.6328125 1.0546875,-0.6328125 0.2109375,0 0.4921875,0.058594 0.6328125,0.2460938 -0.1757813,0.011719 -0.3164063,0.1289062 -0.3164063,0.3398437 0,0.1640625 0.1171875,0.328125 0.328125,0.328125 0.1992188,0 0.328125,-0.140625 0.328125,-0.3515625 0,-0.3984375 -0.2929687,-0.7617187 -0.984375,-0.7617187 -0.9960937,0 -2.02734375,0.9140625 -2.02734375,2.4140625 0,1.80468749 0.85546875,2.35546874 1.61718755,2.35546874 0.8554687,0 1.59375,-0.64453125 1.59375,-1.55859374 0,-0.890625 -0.703125,-1.546875 -1.5234375,-1.546875 -0.5507813,0 -0.8671875,0.375 -1.0195313,0.6796875 z m 0.9492188,2.20312499 c -0.3515625,0 -0.6210938,-0.19921875 -0.7617188,-0.515625 C 1.1236563,-0.79778906 1.0650625,-1.1493516 1.0650625,-1.5712266 c 0,-0.6796875 0.4101563,-1.1953125 0.9609375,-1.1953125 0.328125,0 0.5390625,0.1171875 0.7148438,0.3867188 0.1640625,0.2578125 0.1757812,0.5507812 0.1757812,0.9609375 0,0.3984375 0,0.69140624 -0.1875,0.96093749 -0.1757812,0.24609375 -0.3984375,0.375 -0.7382812,0.375 z m 0,0"
         style="fill:#ffffff;fill-opacity:1;fill-rule:nonzero;stroke:none" />
      <path
         id="path174"
         d="m 19.325805,-4.5477891 c -0.46875,-0.3046875 -0.503907,-0.6445312 -0.503907,-0.8085937 0,-0.609375 0.644532,-1.03125 1.359375,-1.03125 0.726563,0 1.359375,0.515625 1.359375,1.2421875 0,0.5625 -0.386718,1.0429687 -0.984375,1.3945312 z m 1.453125,0.9375 c 0.714843,-0.3632812 1.207031,-0.8789062 1.207031,-1.5351562 0,-0.9257813 -0.890625,-1.4882813 -1.792969,-1.4882813 -0.996094,0 -1.804687,0.7382813 -1.804687,1.6640625 0,0.1757813 0.01172,0.6210938 0.433593,1.0898438 0.105469,0.1289062 0.480469,0.375 0.726563,0.5390625 -0.574219,0.2929687 -1.429688,0.84375 -1.429688,1.8398437 0,1.05468754 1.007813,1.72265629 2.0625,1.72265629 1.125,0 2.0625,-0.83203125 2.0625,-1.89843749 0,-0.3515625 -0.105468,-0.8085938 -0.480468,-1.21875 -0.1875,-0.2109375 -0.351563,-0.3164063 -0.984375,-0.7148438 z m -0.996094,0.421875 1.21875,0.7734375 c 0.28125,0.1875 0.75,0.4921875 0.75,1.1015625 0,0.73828129 -0.75,1.25390629 -1.558594,1.25390629 -0.867187,0 -1.582031,-0.62109375 -1.582031,-1.44140629 0,-0.5859375 0.316406,-1.21875 1.171875,-1.6875 z m 0,0"
         style="fill:#ffffff;fill-opacity:1;fill-rule:nonzero;stroke:none" />
      <path
         id="path175"
         d="m 24.590453,-0.52825781 c 0,-0.29296875 -0.234375,-0.52734379 -0.527344,-0.52734379 -0.28125,0 -0.527343,0.23437504 -0.527343,0.52734379 0,0.29296875 0.246093,0.5273437475 0.527343,0.5273437475 0.292969,0 0.527344,-0.2343749975 0.527344,-0.5273437475 z m 0,0"
         style="fill:#ffffff;fill-opacity:1;fill-rule:nonzero;stroke:none" />
      <path
         id="path176"
         d="m 30.027953,-3.1884141 c 0,-0.796875 -0.04687,-1.59375 -0.398437,-2.3320312 -0.457032,-0.9609375 -1.277344,-1.1132813 -1.6875,-1.1132813 -0.597657,0 -1.335938,0.2578125 -1.734375,1.1835938 -0.328125,0.6914062 -0.375,1.4648437 -0.375,2.2617187 0,0.75 0.04687,1.640625 0.445312,2.40234379 0.433594,0.80859375 1.160156,1.0078125 1.652344,1.0078125 0.539062,0 1.289062,-0.2109375 1.734375,-1.16015625 0.316406,-0.69140624 0.363281,-1.46484374 0.363281,-2.25000004 z m -2.097656,3.1875000375 c -0.386719,0 -0.984375,-0.2460937475 -1.160156,-1.2070312375 -0.105469,-0.5976563 -0.105469,-1.5117188 -0.105469,-2.0976563 0,-0.6445312 0,-1.3007812 0.08203,-1.8398437 0.1875,-1.1835938 0.925781,-1.265625 1.183594,-1.265625 0.328125,0 0.984375,0.1757812 1.171875,1.1601562 0.09375,0.5625 0.09375,1.3125 0.09375,1.9453125 0,0.75 0,1.4179688 -0.105469,2.0625 -0.152344,0.93750004 -0.714844,1.2421875375 -1.160156,1.2421875375 z m 0,0"
         style="fill:#ffffff;fill-opacity:1;fill-rule:nonzero;stroke:none" />
    </g>
    <path
       id="path177"
       d="M 0,0 H 26.456"
       style="fill:#ffffff;stroke:#ffffff;stroke-width:0.1;stroke-linecap:butt;stroke-linejoin:miter;stroke-miterlimit:10;stroke-dasharray:none;stroke-opacity:1;fill-opacity:1"
       transform="matrix(1.3333333,0,0,-1.3333333,18.578667,132.90133)" />
    <path
       id="path178"
       d="M 0,0 V 35.866"
       style="fill:#ffffff;stroke:#ffffff;stroke-width:0.1;stroke-linecap:butt;stroke-linejoin:miter;stroke-miterlimit:10;stroke-dasharray:none;stroke-opacity:1;fill-opacity:1"
       transform="matrix(1.3333333,0,0,-1.3333333,18.578667,132.83467)" />
    <path
       id="path179"
       d="M 0,0 V 35.866"
       style="fill:#ffffff;stroke:#ffffff;stroke-width:0.1;stroke-linecap:butt;stroke-linejoin:miter;stroke-miterlimit:10;stroke-dasharray:none;stroke-opacity:1;fill-opacity:1"
       transform="matrix(1.3333333,0,0,-1.3333333,18.578667,53.133333)" />
    <path
       id="path180"
       d="M 0,0 V 35.866"
       style="fill:#ffffff;stroke:#ffffff;stroke-width:0.1;stroke-linecap:butt;stroke-linejoin:miter;stroke-miterlimit:10;stroke-dasharray:none;stroke-opacity:1;fill-opacity:1"
       transform="matrix(1.3333333,0,0,-1.3333333,53.853333,132.83467)" />
    <path
       id="path181"
       d="M 0,0 V 35.866"
       style="fill:#ffffff;stroke:#ffffff;stroke-width:0.1;stroke-linecap:butt;stroke-linejoin:miter;stroke-miterlimit:10;stroke-dasharray:none;stroke-opacity:1;fill-opacity:1"
       transform="matrix(1.3333333,0,0,-1.3333333,53.853333,53.133333)" />
  </g>
</svg>
