<?xml version="1.0" encoding="UTF-8" standalone="no"?>
<!-- Created with Inkscape (http://www.inkscape.org/) -->

<svg
   width="185.05315mm"
   height="132.14842mm"
   viewBox="0 0 210 149.96324"
   version="1.1"
   id="svg5"
   sodipodi:docname="project_structure_dark.svg"
   inkscape:version="1.4.2 (ebf0e940d0, 2025-05-08)"
   xmlns:inkscape="http://www.inkscape.org/namespaces/inkscape"
   xmlns:sodipodi="http://sodipodi.sourceforge.net/DTD/sodipodi-0.dtd"
   xmlns="http://www.w3.org/2000/svg"
   xmlns:svg="http://www.w3.org/2000/svg">
  <sodipodi:namedview
     id="namedview1"
     pagecolor="#ffffff"
     bordercolor="#000000"
     borderopacity="0.25"
     inkscape:showpageshadow="2"
     inkscape:pageopacity="0.0"
     inkscape:pagecheckerboard="0"
     inkscape:deskcolor="#d1d1d1"
     inkscape:document-units="mm"
     inkscape:zoom="1.4969686"
     inkscape:cx="349.70673"
     inkscape:cy="249.83824"
     inkscape:window-width="1920"
     inkscape:window-height="1043"
     inkscape:window-x="0"
     inkscape:window-y="0"
     inkscape:window-maximized="1"
     inkscape:current-layer="text62122-5-6" />
  <defs
     id="defs2" />
  <g
     id="g1"
     transform="translate(-4,32.115249)">
    <g
       id="layer1"
       transform="translate(6.6458333,-3.3125)">
      <g
         id="g4"
         transform="translate(12.473431,8.9074092)">
        <rect
           style="fill:#e5e5e5;fill-opacity:1;stroke:#006d93;stroke-width:1.225;stroke-linejoin:round;stroke-dasharray:none;stroke-opacity:0.5"
           id="rect66020"
           width="147.62236"
           height="40.998272"
           x="5.686903"
           y="61.734898" />
        <rect
           style="fill:#e5e5e5;fill-opacity:1;stroke:#006d93;stroke-width:1.225;stroke-linejoin:round;stroke-dasharray:none;stroke-opacity:0.5"
           id="rect65836"
           width="147.58209"
           height="79.095711"
           x="5.7070804"
           y="-28.190248" />
        <path
           id="rect1978-8"
           style="fill:#afe2f5;fill-opacity:1;stroke:#006d93;stroke-width:1.225;stroke-linejoin:round;stroke-dasharray:none;stroke-opacity:0.5"
           d="M 8.9974239,83.981123 H 102.04224 V 99.348914 H 8.9974239 Z" />
        <path
           id="rect1978-3"
           style="fill:#fac2d2;fill-opacity:1;stroke:#006d93;stroke-width:1.225;stroke-linejoin:round;stroke-dasharray:none;stroke-opacity:0.5"
           d="M 57.149974,64.558346 H 102.1292 V 80.433347 H 57.149974 Z" />
        <path
           id="rect1978-3-2"
           style="fill:#fac2d2;fill-opacity:1;stroke:#006d93;stroke-width:1.225;stroke-linejoin:round;stroke-dasharray:none;stroke-opacity:0.5"
           d="M 8.9958324,64.558346 H 53.975054 V 80.433347 H 8.9958324 Z" />
        <path
           style="font-size:6.35px;line-height:1.25;font-family:'Jost*';-inkscape-font-specification:'Jost*';letter-spacing:0px;word-spacing:0px;fill:#d1d1d1;stroke-width:0.264583"
           d="m 165.24068,71.966686 c 0,-1.03505 0.7747,-1.74625 1.651,-1.74625 0.62865,0 1.1176,0.2667 1.42875,0.6604 v -0.7112 c -0.37465,-0.3302 -0.78105,-0.48895 -1.42875,-0.48895 -1.2319,0 -2.2225,0.95885 -2.2225,2.286 0,1.32715 0.9906,2.286 2.2225,2.286 0.6477,0 1.0541,-0.15875 1.42875,-0.48895 v -0.7112 c -0.31115,0.3937 -0.8001,0.6604 -1.42875,0.6604 -0.8763,0 -1.651,-0.7112 -1.651,-1.74625 z m 3.93699,0.85725 h 1.27 v 1.30175 h 0.53975 v -1.30175 h 1.27 v -0.508 h -1.27 v -1.30175 h -0.53975 v 1.30175 h -1.27 z m 3.90525,0 h 1.27 v 1.30175 h 0.53975 v -1.30175 h 1.27 v -0.508 h -1.27 v -1.30175 h -0.53975 v 1.30175 h -1.27 z"
           id="text43158"
           aria-label="C++" />
        <rect
           style="fill:#afe2f5;fill-opacity:1;stroke:#006d93;stroke-width:1.225;stroke-linejoin:round;stroke-dasharray:none;stroke-opacity:0.5"
           id="rect47384"
           width="93.048431"
           height="15.357841"
           x="9.0793161"
           y="13.487745" />
        <rect
           style="fill:#c3d9e1;fill-opacity:1;stroke:#006d93;stroke-width:1.20141;stroke-linejoin:round;stroke-opacity:0.5"
           id="rect47384-1"
           width="141.36618"
           height="15.923588"
           x="8.9715395"
           y="31.742498" />
        <rect
           style="fill:#a2f6de;fill-opacity:1;stroke:#006d93;stroke-width:1.225;stroke-linejoin:round;stroke-dasharray:none;stroke-opacity:0.5"
           id="rect47384-6"
           width="44.998531"
           height="15.380363"
           x="105.2945"
           y="13.476624" />
        <rect
           style="fill:#a2f6de;fill-opacity:1;stroke:#006d93;stroke-width:1.225;stroke-linejoin:round;stroke-dasharray:none;stroke-opacity:0.5"
           id="rect47384-6-7"
           width="44.979168"
           height="15.875"
           x="105.30422"
           y="-5.7029982" />
        <rect
           style="fill:#a2f6de;fill-opacity:1;stroke:#006d93;stroke-width:1.225;stroke-linejoin:round;stroke-dasharray:none;stroke-opacity:0.5"
           id="rect47384-6-7-3"
           width="44.979168"
           height="15.875"
           x="105.30422"
           y="-24.88262" />
        <path
           d="m 42.782887,21.769918 c 0,-0.7239 -0.3429,-1.143 -0.9398,-1.143 -0.3937,0 -0.6985,0.18415 -0.9017,0.5461 -0.13335,-0.34925 -0.43815,-0.5461 -0.84455,-0.5461 -0.36195,0 -0.62865,0.15875 -0.80645,0.48895 v -0.42545 h -0.508 v 2.921 h 0.508 v -1.778 c 0,-0.4572 0.26035,-0.73025 0.67945,-0.73025 0.381,0 0.5588,0.2286 0.5588,0.73025 v 1.778 h 0.508 v -1.778 c 0,-0.4572 0.26035,-0.73025 0.67945,-0.73025 0.381,0 0.5588,0.2286 0.5588,0.73025 v 1.778 h 0.508 z m 0.952504,-3.1115 v 4.953 h 0.508 v -4.953 z m 2.851147,2.5908 0.2794,-0.4191 c -0.1524,-0.15875 -0.33655,-0.2032 -0.5461,-0.2032 -0.22225,0 -0.45085,0.1524 -0.61595,0.40005 v -0.33655 h -0.508 v 2.921 h 0.508 v -1.778 c 0,-0.4191 0.10795,-0.73025 0.48895,-0.73025 0.1651,0 0.254,0.04445 0.3937,0.14605 z m 0.787403,-2.5908 v 4.953 h 0.508 v -4.953 z m 1.015998,3.683 h 1.27 v -0.47625 h -1.27 z m 2.006594,-0.1905 c 0,-0.6096 0.42545,-1.04775 0.99695,-1.04775 0.4699,0 0.88265,0.24765 1.016,0.5334 v -0.635 c -0.2032,-0.23495 -0.61595,-0.37465 -1.016,-0.37465 -0.85725,0 -1.5113,0.64135 -1.5113,1.524 0,0.88265 0.65405,1.524 1.5113,1.524 0.40005,0 0.8128,-0.13335 1.016,-0.37465 v -0.635 c -0.13335,0.28575 -0.5461,0.5334 -1.016,0.5334 -0.5715,0 -0.99695,-0.43815 -0.99695,-1.04775 z m 2.552703,0 c 0,0.88265 0.65405,1.524 1.5113,1.524 0.85725,0 1.5113,-0.64135 1.5113,-1.524 0,-0.88265 -0.65405,-1.524 -1.5113,-1.524 -0.85725,0 -1.5113,0.64135 -1.5113,1.524 z m 0.51435,0 c 0,-0.6096 0.42545,-1.04775 0.99695,-1.04775 0.5715,0 0.99695,0.43815 0.99695,1.04775 0,0.6096 -0.42545,1.04775 -0.99695,1.04775 -0.5715,0 -0.99695,-0.43815 -0.99695,-1.04775 z m 7.207248,-0.381 c 0,-0.7239 -0.3429,-1.143 -0.9398,-1.143 -0.3937,0 -0.6985,0.18415 -0.9017,0.5461 -0.13335,-0.34925 -0.43815,-0.5461 -0.84455,-0.5461 -0.36195,0 -0.62865,0.15875 -0.80645,0.48895 v -0.42545 h -0.508 v 2.921 h 0.508 v -1.778 c 0,-0.4572 0.26035,-0.73025 0.67945,-0.73025 0.381,0 0.5588,0.2286 0.5588,0.73025 v 1.778 h 0.508 v -1.778 c 0,-0.4572 0.26035,-0.73025 0.67945,-0.73025 0.381,0 0.5588,0.2286 0.5588,0.73025 v 1.778 h 0.508 z m 4.953003,0 c 0,-0.7239 -0.3429,-1.143 -0.9398,-1.143 -0.3937,0 -0.6985,0.18415 -0.9017,0.5461 -0.13335,-0.34925 -0.43815,-0.5461 -0.84455,-0.5461 -0.36195,0 -0.62865,0.15875 -0.80645,0.48895 v -0.42545 h -0.508 v 2.921 h 0.508 v -1.778 c 0,-0.4572 0.26035,-0.73025 0.67945,-0.73025 0.381,0 0.5588,0.2286 0.5588,0.73025 v 1.778 h 0.508 v -1.778 c 0,-0.4572 0.26035,-0.73025 0.67945,-0.73025 0.381,0 0.5588,0.2286 0.5588,0.73025 v 1.778 h 0.508 z m 0.698505,0.381 c 0,0.88265 0.65405,1.524 1.5113,1.524 0.85725,0 1.5113,-0.64135 1.5113,-1.524 0,-0.88265 -0.65405,-1.524 -1.5113,-1.524 -0.85725,0 -1.5113,0.64135 -1.5113,1.524 z m 0.51435,0 c 0,-0.6096 0.42545,-1.04775 0.99695,-1.04775 0.5715,0 0.99695,0.43815 0.99695,1.04775 0,0.6096 -0.42545,1.04775 -0.99695,1.04775 -0.5715,0 -0.99695,-0.43815 -0.99695,-1.04775 z m 5.079996,-0.3175 v 1.778 h 0.508 v -1.8415 c 0,-0.70485 -0.38735,-1.143 -1.0033,-1.143 -0.381,0 -0.6731,0.1651 -0.86995,0.5207 v -0.4572 h -0.508 v 2.921 h 0.508 v -1.778 c 0,-0.4318 0.29845,-0.73025 0.74295,-0.73025 0.4064,0 0.6223,0.24765 0.6223,0.73025 z"
           id="text49126"
           style="font-size:6.35px;line-height:1.25;font-family:'Jost*';-inkscape-font-specification:'Jost*';letter-spacing:0px;word-spacing:0px;stroke-width:0.264583"
           aria-label="mlrl-common" />
        <rect
           style="fill:#fac2d2;fill-opacity:1;stroke:#006d93;stroke-width:1.225;stroke-linejoin:round;stroke-dasharray:none;stroke-opacity:0.5"
           id="rect54730"
           width="44.979168"
           height="15.875"
           x="8.9958324"
           y="-5.7029982" />
        <path
           d="m 19.569644,2.8377531 c 0,-0.7239 -0.3429,-1.143 -0.9398,-1.143 -0.3937,0 -0.6985,0.18415 -0.9017,0.5461 -0.13335,-0.34925 -0.43815,-0.5461 -0.84455,-0.5461 -0.36195,0 -0.62865,0.15875 -0.80645,0.48895 v -0.42545 h -0.508 v 2.921 h 0.508 v -1.778 c 0,-0.4572 0.26035,-0.73025 0.67945,-0.73025 0.381,0 0.5588,0.2286 0.5588,0.73025 v 1.778 h 0.508 v -1.778 c 0,-0.4572 0.26035,-0.73025 0.67945,-0.73025 0.381,0 0.5588,0.2286 0.5588,0.73025 v 1.778 h 0.508 z m 0.952504,-3.11149992 V 4.6792531 h 0.508 v -4.95299992 z m 2.851147,2.59079992 0.2794,-0.4191 c -0.1524,-0.15875 -0.33655,-0.2032 -0.5461,-0.2032 -0.22225,0 -0.45085,0.1524 -0.61595,0.40005 v -0.33655 h -0.508 v 2.921 h 0.508 v -1.778 c 0,-0.4191 0.10795,-0.73025 0.48895,-0.73025 0.1651,0 0.254,0.04445 0.3937,0.14605 z m 0.787402,-2.59079992 V 4.6792531 h 0.508 v -4.95299992 z m 1.015998,3.68299992 h 1.27 v -0.47625 h -1.27 z m 4.698994,-0.1905 c 0,-0.94615 -0.65405,-1.524 -1.4478,-1.524 -0.4318,0 -0.78105,0.2032 -0.99695,0.56515 v -2.53364992 h -0.508 V 4.6792531 h 0.508 v -0.50165 c 0.2159,0.36195 0.56515,0.56515 0.99695,0.56515 0.79375,0 1.4478,-0.57785 1.4478,-1.524 z m -0.51435,0 c 0,0.6731 -0.4572,1.04775 -0.99695,1.04775 -0.4445,0 -0.93345,-0.37465 -0.93345,-1.04775 0,-0.6731 0.48895,-1.04775 0.93345,-1.04775 0.53975,0 0.99695,0.37465 0.99695,1.04775 z m 0.958848,0 c 0,0.88265 0.65405,1.524 1.5113,1.524 0.85725,0 1.5113,-0.64135 1.5113,-1.524 0,-0.88265 -0.65405,-1.524 -1.5113,-1.524 -0.85725,0 -1.5113,0.64135 -1.5113,1.524 z m 0.51435,0 c 0,-0.6096 0.42545,-1.04775 0.99695,-1.04775 0.5715,0 0.99695,0.43815 0.99695,1.04775 0,0.6096 -0.42545,1.04775 -0.99695,1.04775 -0.5715,0 -0.99695,-0.43815 -0.99695,-1.04775 z m 2.952748,0 c 0,0.88265 0.65405,1.524 1.5113,1.524 0.85725,0 1.5113,-0.64135 1.5113,-1.524 0,-0.88265 -0.65405,-1.524 -1.5113,-1.524 -0.85725,0 -1.5113,0.64135 -1.5113,1.524 z m 0.51435,0 c 0,-0.6096 0.42545,-1.04775 0.99695,-1.04775 0.5715,0 0.99695,0.43815 0.99695,1.04775 0,0.6096 -0.42545,1.04775 -0.99695,1.04775 -0.5715,0 -0.99695,-0.43815 -0.99695,-1.04775 z m 7.207246,-0.381 c 0,-0.7239 -0.3429,-1.143 -0.9398,-1.143 -0.3937,0 -0.6985,0.18415 -0.9017,0.5461 -0.13335,-0.34925 -0.43815,-0.5461 -0.84455,-0.5461 -0.36195,0 -0.62865,0.15875 -0.80645,0.48895 v -0.42545 h -0.508 v 2.921 h 0.508 v -1.778 c 0,-0.4572 0.26035,-0.73025 0.67945,-0.73025 0.381,0 0.5588,0.2286 0.5588,0.73025 v 1.778 h 0.508 v -1.778 c 0,-0.4572 0.26035,-0.73025 0.67945,-0.73025 0.381,0 0.5588,0.2286 0.5588,0.73025 v 1.778 h 0.508 z m 2.082805,1.905 c 0.6223,0 1.08585,-0.24765 1.39065,-0.74295 l -0.41275,-0.26035 c -0.2159,0.3556 -0.5207,0.52705 -0.9144,0.52705 -0.5461,0 -0.88265,-0.3302 -0.9271,-0.92075 h 2.2987 c 0,-0.0127 0.0063,-0.0889 0.0063,-0.1524 0,-0.9271 -0.5207,-1.4986 -1.37795,-1.4986 -0.8636,0 -1.4478,0.61595 -1.4478,1.524 0,0.9017 0.56515,1.524 1.3843,1.524 z m 0.0635,-2.6035 c 0.4699,0 0.7874,0.3048 0.8255,0.7747 h -1.73355 c 0.0889,-0.4953 0.4064,-0.7747 0.90805,-0.7747 z m 3.467095,0.1778 0.2794,-0.4191 c -0.1524,-0.15875 -0.33655,-0.2032 -0.5461,-0.2032 -0.22225,0 -0.45085,0.1524 -0.61595,0.40005 v -0.33655 h -0.508 v 2.921 h 0.508 v -1.778 c 0,-0.4191 0.10795,-0.73025 0.48895,-0.73025 0.1651,0 0.254,0.04445 0.3937,0.14605 z"
           id="text56065"
           style="font-size:6.35px;line-height:1.25;font-family:'Jost*';-inkscape-font-specification:'Jost*';letter-spacing:0px;word-spacing:0px;stroke-width:0.264583"
           aria-label="mlrl-boomer" />
        <path
           d="m 65.431511,69.987598 v 4.953 h 0.508 v -4.953 z m 1.460497,0.8255 c 0,0.1905 0.15875,0.34925 0.34925,0.34925 0.1905,0 0.34925,-0.15875 0.34925,-0.34925 0,-0.1905 -0.15875,-0.34925 -0.34925,-0.34925 -0.1905,0 -0.34925,0.15875 -0.34925,0.34925 z m 0.09525,1.2065 v 2.921 h 0.508 v -2.921 z m 4.476752,1.4605 c 0,-0.94615 -0.65405,-1.524 -1.4478,-1.524 -0.4318,0 -0.78105,0.2032 -0.99695,0.56515 v -2.53365 h -0.508 v 4.953 h 0.508 v -0.50165 c 0.2159,0.36195 0.56515,0.56515 0.99695,0.56515 0.79375,0 1.4478,-0.57785 1.4478,-1.524 z m -0.51435,0 c 0,0.6731 -0.4572,1.04775 -0.99695,1.04775 -0.4445,0 -0.93345,-0.37465 -0.93345,-1.04775 0,-0.6731 0.48895,-1.04775 0.93345,-1.04775 0.53975,0 0.99695,0.37465 0.99695,1.04775 z m 5.213348,-0.381 c 0,-0.7239 -0.3429,-1.143 -0.9398,-1.143 -0.3937,0 -0.6985,0.18415 -0.9017,0.5461 -0.13335,-0.34925 -0.43815,-0.5461 -0.84455,-0.5461 -0.36195,0 -0.62865,0.15875 -0.80645,0.48895 v -0.42545 h -0.508 v 2.921 h 0.508 v -1.778 c 0,-0.4572 0.26035,-0.73025 0.67945,-0.73025 0.381,0 0.5588,0.2286 0.5588,0.73025 v 1.778 h 0.508 v -1.778 c 0,-0.4572 0.26035,-0.73025 0.67945,-0.73025 0.381,0 0.5588,0.2286 0.5588,0.73025 v 1.778 h 0.508 z m 0.952504,-3.1115 v 4.953 h 0.508 v -4.953 z m 2.851147,2.5908 0.2794,-0.4191 c -0.1524,-0.15875 -0.33655,-0.2032 -0.5461,-0.2032 -0.22225,0 -0.45085,0.1524 -0.61595,0.40005 v -0.33655 h -0.508 v 2.921 h 0.508 v -1.778 c 0,-0.4191 0.10795,-0.73025 0.48895,-0.73025 0.1651,0 0.254,0.04445 0.3937,0.14605 z m 0.787403,-2.5908 v 4.953 h 0.508 v -4.953 z m 1.581146,4.05765 -0.40005,0.24765 c 0.15875,0.34925 0.5842,0.7112 1.1684,0.7112 0.5969,0 1.0033,-0.381 1.0033,-0.889 0,-0.5207 -0.41275,-0.71755 -0.92075,-0.9271 -0.31115,-0.127 -0.6096,-0.26035 -0.6096,-0.4953 0,-0.19685 0.1778,-0.28575 0.38735,-0.28575 0.3048,0 0.55245,0.1651 0.7112,0.381 l 0.4064,-0.26035 c -0.1778,-0.32385 -0.59055,-0.5715 -1.0541,-0.5715 -0.47625,0 -0.94615,0.24765 -0.94615,0.76835 0,0.51435 0.45085,0.73025 0.8382,0.8763 0.33655,0.127 0.6731,0.2667 0.6731,0.5715 0,0.2286 -0.1778,0.3683 -0.46355,0.3683 -0.36195,0 -0.61595,-0.22225 -0.79375,-0.4953 z m 3.5687,0.95885 c 0.6223,0 1.08585,-0.24765 1.39065,-0.74295 l -0.41275,-0.26035 c -0.2159,0.3556 -0.5207,0.52705 -0.9144,0.52705 -0.5461,0 -0.88265,-0.3302 -0.9271,-0.92075 h 2.2987 c 0,-0.0127 0.0063,-0.0889 0.0063,-0.1524 0,-0.9271 -0.5207,-1.4986 -1.37795,-1.4986 -0.8636,0 -1.4478,0.61595 -1.4478,1.524 0,0.9017 0.56515,1.524 1.3843,1.524 z m 0.0635,-2.6035 c 0.4699,0 0.7874,0.3048 0.8255,0.7747 h -1.73355 c 0.0889,-0.4953 0.4064,-0.7747 0.90805,-0.7747 z m 2.305046,1.0795 c 0,-0.6096 0.42545,-1.04775 0.99695,-1.04775 0.4699,0 0.88265,0.24765 1.016,0.5334 v -0.635 c -0.2032,-0.23495 -0.61595,-0.37465 -1.016,-0.37465 -0.85725,0 -1.5113,0.64135 -1.5113,1.524 0,0.88265 0.65405,1.524 1.5113,1.524 0.40005,0 0.8128,-0.13335 1.016,-0.37465 v -0.635 c -0.13335,0.28575 -0.5461,0.5334 -1.016,0.5334 -0.5715,0 -0.99695,-0.43815 -0.99695,-1.04775 z m 2.552703,0 c 0,0.88265 0.65405,1.524 1.5113,1.524 0.85725,0 1.5113,-0.64135 1.5113,-1.524 0,-0.88265 -0.65405,-1.524 -1.5113,-1.524 -0.85725,0 -1.5113,0.64135 -1.5113,1.524 z m 0.51435,0 c 0,-0.6096 0.42545,-1.04775 0.99695,-1.04775 0.5715,0 0.99695,0.43815 0.99695,1.04775 0,0.6096 -0.42545,1.04775 -0.99695,1.04775 -0.5715,0 -0.99695,-0.43815 -0.99695,-1.04775 z"
           id="text56065-9"
           style="font-size:6.35px;line-height:1.25;font-family:'Jost*';-inkscape-font-specification:'Jost*';letter-spacing:0px;word-spacing:0px;stroke-width:0.264583"
           aria-label="libmlrlseco" />
        <path
           d="m 11.997521,69.289096 v 4.953 h 0.508 v -4.953 z m 1.460497,0.8255 c 0,0.1905 0.15875,0.34925 0.34925,0.34925 0.1905,0 0.34925,-0.15875 0.34925,-0.34925 0,-0.1905 -0.15875,-0.34925 -0.34925,-0.34925 -0.1905,0 -0.34925,0.15875 -0.34925,0.34925 z m 0.09525,1.2065 v 2.921 h 0.508 v -2.921 z m 4.476751,1.4605 c 0,-0.94615 -0.65405,-1.524 -1.4478,-1.524 -0.4318,0 -0.78105,0.2032 -0.99695,0.56515 v -2.53365 h -0.508 v 4.953 h 0.508 v -0.50165 c 0.2159,0.36195 0.56515,0.56515 0.99695,0.56515 0.79375,0 1.4478,-0.57785 1.4478,-1.524 z m -0.51435,0 c 0,0.6731 -0.4572,1.04775 -0.99695,1.04775 -0.4445,0 -0.93345,-0.37465 -0.93345,-1.04775 0,-0.6731 0.48895,-1.04775 0.93345,-1.04775 0.53975,0 0.99695,0.37465 0.99695,1.04775 z m 5.213348,-0.381 c 0,-0.7239 -0.3429,-1.143 -0.9398,-1.143 -0.3937,0 -0.6985,0.18415 -0.9017,0.5461 -0.13335,-0.34925 -0.43815,-0.5461 -0.84455,-0.5461 -0.36195,0 -0.62865,0.15875 -0.80645,0.48895 v -0.42545 h -0.508 v 2.921 h 0.508 v -1.778 c 0,-0.4572 0.26035,-0.73025 0.67945,-0.73025 0.381,0 0.5588,0.2286 0.5588,0.73025 v 1.778 h 0.508 v -1.778 c 0,-0.4572 0.26035,-0.73025 0.67945,-0.73025 0.381,0 0.5588,0.2286 0.5588,0.73025 v 1.778 h 0.508 z m 0.952505,-3.1115 v 4.953 h 0.508 v -4.953 z m 2.851147,2.5908 0.2794,-0.4191 c -0.1524,-0.15875 -0.33655,-0.2032 -0.5461,-0.2032 -0.22225,0 -0.45085,0.1524 -0.61595,0.40005 v -0.33655 h -0.508 v 2.921 h 0.508 v -1.778 c 0,-0.4191 0.10795,-0.73025 0.48895,-0.73025 0.1651,0 0.254,0.04445 0.3937,0.14605 z m 0.787403,-2.5908 v 4.953 h 0.508 v -4.953 z m 4.381495,3.4925 c 0,-0.94615 -0.65405,-1.524 -1.4478,-1.524 -0.4318,0 -0.78105,0.2032 -0.99695,0.56515 v -2.53365 h -0.508 v 4.953 h 0.508 v -0.50165 c 0.2159,0.36195 0.56515,0.56515 0.99695,0.56515 0.79375,0 1.4478,-0.57785 1.4478,-1.524 z m -0.51435,0 c 0,0.6731 -0.4572,1.04775 -0.99695,1.04775 -0.4445,0 -0.93345,-0.37465 -0.93345,-1.04775 0,-0.6731 0.48895,-1.04775 0.93345,-1.04775 0.53975,0 0.99695,0.37465 0.99695,1.04775 z m 0.95885,0 c 0,0.88265 0.65405,1.524 1.5113,1.524 0.85725,0 1.5113,-0.64135 1.5113,-1.524 0,-0.88265 -0.65405,-1.524 -1.5113,-1.524 -0.85725,0 -1.5113,0.64135 -1.5113,1.524 z m 0.51435,0 c 0,-0.6096 0.42545,-1.04775 0.99695,-1.04775 0.5715,0 0.99695,0.43815 0.99695,1.04775 0,0.6096 -0.42545,1.04775 -0.99695,1.04775 -0.5715,0 -0.99695,-0.43815 -0.99695,-1.04775 z m 2.952746,0 c 0,0.88265 0.65405,1.524 1.5113,1.524 0.85725,0 1.5113,-0.64135 1.5113,-1.524 0,-0.88265 -0.65405,-1.524 -1.5113,-1.524 -0.85725,0 -1.5113,0.64135 -1.5113,1.524 z m 0.51435,0 c 0,-0.6096 0.42545,-1.04775 0.99695,-1.04775 0.5715,0 0.99695,0.43815 0.99695,1.04775 0,0.6096 -0.42545,1.04775 -0.99695,1.04775 -0.5715,0 -0.99695,-0.43815 -0.99695,-1.04775 z m 3.327398,0.56515 -0.40005,0.24765 c 0.15875,0.34925 0.5842,0.7112 1.1684,0.7112 0.5969,0 1.0033,-0.381 1.0033,-0.889 0,-0.5207 -0.41275,-0.71755 -0.92075,-0.9271 -0.31115,-0.127 -0.6096,-0.26035 -0.6096,-0.4953 0,-0.19685 0.1778,-0.28575 0.38735,-0.28575 0.3048,0 0.55245,0.1651 0.7112,0.381 l 0.4064,-0.26035 c -0.1778,-0.32385 -0.59055,-0.5715 -1.0541,-0.5715 -0.47625,0 -0.94615,0.24765 -0.94615,0.76835 0,0.51435 0.45085,0.73025 0.8382,0.8763 0.33655,0.127 0.6731,0.2667 0.6731,0.5715 0,0.2286 -0.1778,0.3683 -0.46355,0.3683 -0.36195,0 -0.61595,-0.22225 -0.79375,-0.4953 z m 1.993898,-2.02565 v 0.47625 h 0.47625 v 2.44475 h 0.508 v -2.44475 h 0.47625 v -0.47625 h -0.47625 v -1.016 h -0.508 v 1.016 z m 1.968498,-1.2065 c 0,0.1905 0.15875,0.34925 0.34925,0.34925 0.1905,0 0.34925,-0.15875 0.34925,-0.34925 0,-0.1905 -0.15875,-0.34925 -0.34925,-0.34925 -0.1905,0 -0.34925,0.15875 -0.34925,0.34925 z m 0.09525,1.2065 v 2.921 h 0.508 v -2.921 z m 3.429003,1.143 v 1.778 h 0.508 v -1.8415 c 0,-0.70485 -0.38735,-1.143 -1.0033,-1.143 -0.381,0 -0.6731,0.1651 -0.86995,0.5207 v -0.4572 h -0.508 v 2.921 h 0.508 v -1.778 c 0,-0.4318 0.29845,-0.73025 0.74295,-0.73025 0.4064,0 0.6223,0.24765 0.6223,0.73025 z m 1.263648,1.9685 c 0,0.75565 0.59055,1.27 1.4478,1.27 0.73025,0 1.4478,-0.51435 1.4478,-1.524 v -2.8575 h -0.508 v 0.50165 c -0.2159,-0.36195 -0.56515,-0.56515 -0.99695,-0.56515 -0.79375,0 -1.4478,0.57785 -1.4478,1.524 0,0.94615 0.65405,1.524 1.4478,1.524 0.4318,0 0.78105,-0.2032 0.99695,-0.56515 v 0.43815 c 0,0.7366 -0.4953,1.04775 -0.9398,1.04775 -0.5715,0 -0.93345,-0.37465 -0.93345,-0.79375 z m 0.4572,-1.651 c 0,-0.6731 0.4572,-1.04775 0.99695,-1.04775 0.4445,0 0.93345,0.37465 0.93345,1.04775 0,0.6731 -0.48895,1.04775 -0.93345,1.04775 -0.53975,0 -0.99695,-0.37465 -0.99695,-1.04775 z"
           id="text56065-9-6"
           style="font-size:6.35px;line-height:1.25;font-family:'Jost*';-inkscape-font-specification:'Jost*';letter-spacing:0px;word-spacing:0px;stroke-width:0.264583"
           aria-label="libmlrlboosting" />
        <path
           d="m 36.063649,89.156772 v 4.953 h 0.508 v -4.953 z m 1.460497,0.8255 c 0,0.1905 0.15875,0.34925 0.34925,0.34925 0.1905,0 0.34925,-0.15875 0.34925,-0.34925 0,-0.1905 -0.15875,-0.34925 -0.34925,-0.34925 -0.1905,0 -0.34925,0.15875 -0.34925,0.34925 z m 0.09525,1.2065 v 2.921 h 0.508 v -2.921 z m 4.476751,1.4605 c 0,-0.94615 -0.65405,-1.524 -1.4478,-1.524 -0.4318,0 -0.78105,0.2032 -0.99695,0.56515 v -2.53365 h -0.508 v 4.953 h 0.508 v -0.50165 c 0.2159,0.36195 0.56515,0.56515 0.99695,0.56515 0.79375,0 1.4478,-0.57785 1.4478,-1.524 z m -0.51435,0 c 0,0.6731 -0.4572,1.04775 -0.99695,1.04775 -0.4445,0 -0.93345,-0.37465 -0.93345,-1.04775 0,-0.6731 0.48895,-1.04775 0.93345,-1.04775 0.53975,0 0.99695,0.37465 0.99695,1.04775 z m 5.213348,-0.381 c 0,-0.7239 -0.3429,-1.143 -0.9398,-1.143 -0.3937,0 -0.6985,0.18415 -0.9017,0.5461 -0.13335,-0.34925 -0.43815,-0.5461 -0.84455,-0.5461 -0.36195,0 -0.62865,0.15875 -0.80645,0.48895 v -0.42545 h -0.508 v 2.921 h 0.508 v -1.778 c 0,-0.4572 0.26035,-0.73025 0.67945,-0.73025 0.381,0 0.5588,0.2286 0.5588,0.73025 v 1.778 h 0.508 v -1.778 c 0,-0.4572 0.26035,-0.73025 0.67945,-0.73025 0.381,0 0.5588,0.2286 0.5588,0.73025 v 1.778 h 0.508 z m 0.952504,-3.1115 v 4.953 h 0.508 v -4.953 z m 2.851147,2.5908 0.2794,-0.4191 c -0.1524,-0.15875 -0.33655,-0.2032 -0.5461,-0.2032 -0.22225,0 -0.45085,0.1524 -0.61595,0.40005 v -0.33655 h -0.508 v 2.921 h 0.508 v -1.778 c 0,-0.4191 0.10795,-0.73025 0.48895,-0.73025 0.1651,0 0.254,0.04445 0.3937,0.14605 z m 0.787403,-2.5908 v 4.953 h 0.508 v -4.953 z m 1.689096,3.4925 c 0,-0.6096 0.42545,-1.04775 0.99695,-1.04775 0.4699,0 0.88265,0.24765 1.016,0.5334 v -0.635 c -0.2032,-0.23495 -0.61595,-0.37465 -1.016,-0.37465 -0.85725,0 -1.5113,0.64135 -1.5113,1.524 0,0.88265 0.65405,1.524 1.5113,1.524 0.40005,0 0.8128,-0.13335 1.016,-0.37465 v -0.635 c -0.13335,0.28575 -0.5461,0.5334 -1.016,0.5334 -0.5715,0 -0.99695,-0.43815 -0.99695,-1.04775 z m 2.552705,0 c 0,0.88265 0.65405,1.524 1.5113,1.524 0.85725,0 1.5113,-0.64135 1.5113,-1.524 0,-0.88265 -0.65405,-1.524 -1.5113,-1.524 -0.85725,0 -1.5113,0.64135 -1.5113,1.524 z m 0.51435,0 c 0,-0.6096 0.42545,-1.04775 0.99695,-1.04775 0.5715,0 0.99695,0.43815 0.99695,1.04775 0,0.6096 -0.42545,1.04775 -0.99695,1.04775 -0.5715,0 -0.99695,-0.43815 -0.99695,-1.04775 z m 7.207247,-0.381 c 0,-0.7239 -0.3429,-1.143 -0.9398,-1.143 -0.3937,0 -0.6985,0.18415 -0.9017,0.5461 -0.13335,-0.34925 -0.43815,-0.5461 -0.84455,-0.5461 -0.36195,0 -0.62865,0.15875 -0.80645,0.48895 v -0.42545 h -0.508 v 2.921 h 0.508 v -1.778 c 0,-0.4572 0.26035,-0.73025 0.67945,-0.73025 0.381,0 0.5588,0.2286 0.5588,0.73025 v 1.778 h 0.508 v -1.778 c 0,-0.4572 0.26035,-0.73025 0.67945,-0.73025 0.381,0 0.5588,0.2286 0.5588,0.73025 v 1.778 h 0.508 z m 4.953004,0 c 0,-0.7239 -0.3429,-1.143 -0.9398,-1.143 -0.3937,0 -0.6985,0.18415 -0.9017,0.5461 -0.13335,-0.34925 -0.43815,-0.5461 -0.84455,-0.5461 -0.36195,0 -0.62865,0.15875 -0.80645,0.48895 v -0.42545 h -0.508 v 2.921 h 0.508 v -1.778 c 0,-0.4572 0.26035,-0.73025 0.67945,-0.73025 0.381,0 0.5588,0.2286 0.5588,0.73025 v 1.778 h 0.508 v -1.778 c 0,-0.4572 0.26035,-0.73025 0.67945,-0.73025 0.381,0 0.5588,0.2286 0.5588,0.73025 v 1.778 h 0.508 z m 0.698503,0.381 c 0,0.88265 0.65405,1.524 1.5113,1.524 0.85725,0 1.5113,-0.64135 1.5113,-1.524 0,-0.88265 -0.65405,-1.524 -1.5113,-1.524 -0.85725,0 -1.5113,0.64135 -1.5113,1.524 z m 0.51435,0 c 0,-0.6096 0.42545,-1.04775 0.99695,-1.04775 0.5715,0 0.99695,0.43815 0.99695,1.04775 0,0.6096 -0.42545,1.04775 -0.99695,1.04775 -0.5715,0 -0.99695,-0.43815 -0.99695,-1.04775 z m 5.079999,-0.3175 v 1.778 h 0.508 v -1.8415 c 0,-0.70485 -0.38735,-1.143 -1.0033,-1.143 -0.381,0 -0.6731,0.1651 -0.86995,0.5207 v -0.4572 h -0.508 v 2.921 h 0.508 v -1.778 c 0,-0.4318 0.29845,-0.73025 0.74295,-0.73025 0.4064,0 0.6223,0.24765 0.6223,0.73025 z"
           id="text56065-9-4"
           style="font-size:6.35px;line-height:1.25;font-family:'Jost*';-inkscape-font-specification:'Jost*';letter-spacing:0px;word-spacing:0px;stroke-width:0.264583"
           aria-label="libmlrlcommon" />
        <rect
           style="fill:#fac2d2;fill-opacity:1;stroke:#006d93;stroke-width:1.225;stroke-linejoin:round;stroke-dasharray:none;stroke-opacity:0.5"
           id="rect54730-1"
           width="44.979168"
           height="15.875"
           x="57.150028"
           y="-5.7029982" />
        <path
           d="m 72.130734,2.8377531 c 0,-0.7239 -0.3429,-1.143 -0.9398,-1.143 -0.3937,0 -0.6985,0.18415 -0.9017,0.5461 -0.13335,-0.34925 -0.43815,-0.5461 -0.84455,-0.5461 -0.36195,0 -0.62865,0.15875 -0.80645,0.48895 v -0.42545 h -0.508 v 2.921 h 0.508 v -1.778 c 0,-0.4572 0.26035,-0.73025 0.67945,-0.73025 0.381,0 0.5588,0.2286 0.5588,0.73025 v 1.778 h 0.508 v -1.778 c 0,-0.4572 0.26035,-0.73025 0.67945,-0.73025 0.381,0 0.5588,0.2286 0.5588,0.73025 v 1.778 h 0.508 z m 0.952504,-3.11149992 V 4.6792531 h 0.508 v -4.95299992 z m 2.851147,2.59079992 0.2794,-0.4191 c -0.1524,-0.15875 -0.33655,-0.2032 -0.5461,-0.2032 -0.22225,0 -0.45085,0.1524 -0.61595,0.40005 v -0.33655 h -0.508 v 2.921 h 0.508 v -1.778 c 0,-0.4191 0.10795,-0.73025 0.48895,-0.73025 0.1651,0 0.254,0.04445 0.3937,0.14605 z m 0.787403,-2.59079992 V 4.6792531 h 0.508 v -4.95299992 z m 1.015998,3.68299992 h 1.27 v -0.47625 h -1.27 z m 1.898644,0.37465 -0.40005,0.24765 c 0.15875,0.34925 0.5842,0.7112 1.1684,0.7112 0.5969,0 1.0033,-0.381 1.0033,-0.889 0,-0.5207 -0.41275,-0.71755 -0.92075,-0.9271 -0.31115,-0.127 -0.6096,-0.26035 -0.6096,-0.4953 0,-0.19685 0.1778,-0.28575 0.38735,-0.28575 0.3048,0 0.55245,0.1651 0.7112,0.381 l 0.4064,-0.26035 c -0.1778,-0.32385 -0.59055,-0.5715 -1.0541,-0.5715 -0.47625,0 -0.94615,0.24765 -0.94615,0.76835 0,0.51435 0.45085,0.73025 0.8382,0.8763 0.33655,0.127 0.6731,0.2667 0.6731,0.5715 0,0.2286 -0.1778,0.3683 -0.46355,0.3683 -0.36195,0 -0.61595,-0.22225 -0.79375,-0.4953 z m 3.568698,0.95885 c 0.6223,0 1.08585,-0.24765 1.39065,-0.74295 l -0.41275,-0.26035 c -0.2159,0.3556 -0.5207,0.52705 -0.9144,0.52705 -0.5461,0 -0.88265,-0.3302 -0.9271,-0.92075 h 2.2987 c 0,-0.0127 0.0064,-0.0889 0.0064,-0.1524 0,-0.9271 -0.5207,-1.4986 -1.37795,-1.4986 -0.8636,0 -1.4478,0.61595 -1.4478,1.524 0,0.9017 0.56515,1.524 1.3843,1.524 z m 0.0635,-2.6035 c 0.4699,0 0.7874,0.3048 0.8255,0.7747 h -1.73355 c 0.0889,-0.4953 0.4064,-0.7747 0.90805,-0.7747 z m 2.305046,1.0795 c 0,-0.6096 0.42545,-1.04775 0.99695,-1.04775 0.4699,0 0.88265,0.24765 1.016,0.5334 v -0.635 c -0.2032,-0.23495 -0.61595,-0.37465 -1.016,-0.37465 -0.85725,0 -1.5113,0.64135 -1.5113,1.524 0,0.88265 0.65405,1.524 1.5113,1.524 0.40005,0 0.8128,-0.13335 1.016,-0.37465 v -0.635 c -0.13335,0.28575 -0.5461,0.5334 -1.016,0.5334 -0.5715,0 -0.99695,-0.43815 -0.99695,-1.04775 z m 2.552705,0 c 0,0.88265 0.65405,1.524 1.5113,1.524 0.85725,0 1.5113,-0.64135 1.5113,-1.524 0,-0.88265 -0.65405,-1.524 -1.5113,-1.524 -0.85725,0 -1.5113,0.64135 -1.5113,1.524 z m 0.51435,0 c 0,-0.6096 0.42545,-1.04775 0.99695,-1.04775 0.5715,0 0.99695,0.43815 0.99695,1.04775 0,0.6096 -0.42545,1.04775 -0.99695,1.04775 -0.5715,0 -0.99695,-0.43815 -0.99695,-1.04775 z"
           id="text56065-2"
           style="font-size:6.35px;line-height:1.25;font-family:'Jost*';-inkscape-font-specification:'Jost*';letter-spacing:0px;word-spacing:0px;stroke-width:0.264583"
           aria-label="mlrl-seco" />
        <path
           d="m 74.453991,40.307544 c 0,-0.7239 -0.3429,-1.143 -0.9398,-1.143 -0.3937,0 -0.6985,0.18415 -0.9017,0.5461 -0.13335,-0.34925 -0.43815,-0.5461 -0.84455,-0.5461 -0.36195,0 -0.62865,0.15875 -0.806449,0.48895 v -0.42545 h -0.508 v 2.921 h 0.508 v -1.778 c 0,-0.4572 0.260349,-0.73025 0.679449,-0.73025 0.381,0 0.5588,0.2286 0.5588,0.73025 v 1.778 h 0.508 v -1.778 c 0,-0.4572 0.26035,-0.73025 0.67945,-0.73025 0.381,0 0.5588,0.2286 0.5588,0.73025 v 1.778 h 0.508 z m 0.952505,-3.1115 v 4.953 h 0.508 v -4.953 z m 2.851147,2.5908 0.2794,-0.4191 c -0.1524,-0.15875 -0.33655,-0.2032 -0.5461,-0.2032 -0.22225,0 -0.45085,0.1524 -0.61595,0.40005 v -0.33655 h -0.508 v 2.921 h 0.508 v -1.778 c 0,-0.4191 0.10795,-0.73025 0.48895,-0.73025 0.1651,0 0.254,0.04445 0.3937,0.14605 z m 0.787402,-2.5908 v 4.953 h 0.508 v -4.953 z m 1.015998,3.683 h 1.27 v -0.47625 h -1.27 z m 2.285994,0.127 v -1.778 h -0.508 v 1.8415 c 0,0.6985 0.3937,1.143 1.0033,1.143 0.38735,0 0.6731,-0.17145 0.86995,-0.5207 v 0.4572 h 0.508 v -2.921 h -0.508 v 1.778 c 0,0.4318 -0.29845,0.73025 -0.74295,0.73025 -0.4064,0 -0.6223,-0.26035 -0.6223,-0.73025 z m 2.381247,-1.778 v 0.47625 h 0.47625 v 2.44475 h 0.508 v -2.44475 h 0.47625 v -0.47625 h -0.47625 v -1.016 h -0.508 v 1.016 z m 1.968499,-1.2065 c 0,0.1905 0.15875,0.34925 0.34925,0.34925 0.1905,0 0.34925,-0.15875 0.34925,-0.34925 0,-0.1905 -0.15875,-0.34925 -0.34925,-0.34925 -0.1905,0 -0.34925,0.15875 -0.34925,0.34925 z m 0.09525,1.2065 v 2.921 h 0.508 v -2.921 z m 1.555751,-2.032 v 4.953 h 0.508 v -4.953 z"
           id="text56065-5"
           style="font-size:6.35px;line-height:1.25;font-family:'Jost*';-inkscape-font-specification:'Jost*';letter-spacing:0px;word-spacing:0px;stroke-width:0.264583"
           aria-label="mlrl-util" />
        <path
           d="m 116.8686,21.770057 c 0,-0.7239 -0.3429,-1.143 -0.9398,-1.143 -0.3937,0 -0.6985,0.18415 -0.9017,0.5461 -0.13335,-0.34925 -0.43815,-0.5461 -0.84455,-0.5461 -0.36195,0 -0.62865,0.15875 -0.80645,0.48895 v -0.42545 h -0.508 v 2.921 h 0.508 v -1.778 c 0,-0.4572 0.26035,-0.73025 0.67945,-0.73025 0.381,0 0.5588,0.2286 0.5588,0.73025 v 1.778 h 0.508 v -1.778 c 0,-0.4572 0.26035,-0.73025 0.67945,-0.73025 0.381,0 0.5588,0.2286 0.5588,0.73025 v 1.778 h 0.508 z m 0.95251,-3.1115 v 4.953 h 0.508 v -4.953 z m 2.85114,2.5908 0.2794,-0.4191 c -0.1524,-0.15875 -0.33655,-0.2032 -0.5461,-0.2032 -0.22225,0 -0.45085,0.1524 -0.61595,0.40005 v -0.33655 h -0.508 v 2.921 h 0.508 v -1.778 c 0,-0.4191 0.10795,-0.73025 0.48895,-0.73025 0.1651,0 0.254,0.04445 0.3937,0.14605 z m 0.78741,-2.5908 v 4.953 h 0.508 v -4.953 z m 1.01599,3.683 h 1.27 v -0.47625 h -1.27 z m 1.3335,-1.651 v 0.47625 h 0.47625 v 2.44475 h 0.508 v -2.44475 h 0.47625 v -0.47625 h -0.47625 v -1.016 h -0.508 v 1.016 z m 3.0988,2.9845 c 0.6223,0 1.08585,-0.24765 1.39065,-0.74295 l -0.41275,-0.26035 c -0.2159,0.3556 -0.5207,0.52705 -0.9144,0.52705 -0.5461,0 -0.88265,-0.3302 -0.9271,-0.92075 h 2.2987 c 0,-0.0127 0.006,-0.0889 0.006,-0.1524 0,-0.9271 -0.5207,-1.4986 -1.37795,-1.4986 -0.8636,0 -1.4478,0.61595 -1.4478,1.524 0,0.9017 0.56515,1.524 1.3843,1.524 z m 0.0635,-2.6035 c 0.4699,0 0.7874,0.3048 0.8255,0.7747 h -1.73355 c 0.0889,-0.4953 0.4064,-0.7747 0.90805,-0.7747 z m 2.19709,1.64465 -0.40005,0.24765 c 0.15875,0.34925 0.5842,0.7112 1.1684,0.7112 0.5969,0 1.0033,-0.381 1.0033,-0.889 0,-0.5207 -0.41275,-0.71755 -0.92075,-0.9271 -0.31115,-0.127 -0.6096,-0.26035 -0.6096,-0.4953 0,-0.19685 0.1778,-0.28575 0.38735,-0.28575 0.3048,0 0.55245,0.1651 0.7112,0.381 l 0.4064,-0.26035 c -0.1778,-0.32385 -0.59055,-0.5715 -1.0541,-0.5715 -0.47625,0 -0.94615,0.24765 -0.94615,0.76835 0,0.51435 0.45085,0.73025 0.8382,0.8763 0.33655,0.127 0.6731,0.2667 0.6731,0.5715 0,0.2286 -0.1778,0.3683 -0.46355,0.3683 -0.36195,0 -0.61595,-0.22225 -0.79375,-0.4953 z m 1.9939,-2.02565 v 0.47625 h 0.47625 v 2.44475 h 0.508 v -2.44475 h 0.47625 v -0.47625 h -0.47625 v -1.016 h -0.508 v 1.016 z m 4.8895,1.4605 c 0,-0.94615 -0.65405,-1.524 -1.4478,-1.524 -0.4318,0 -0.78105,0.2032 -0.99695,0.56515 v -2.53365 h -0.508 v 4.953 h 0.508 v -0.50165 c 0.2159,0.36195 0.56515,0.56515 0.99695,0.56515 0.79375,0 1.4478,-0.57785 1.4478,-1.524 z m -0.51435,0 c 0,0.6731 -0.4572,1.04775 -0.99695,1.04775 -0.4445,0 -0.93345,-0.37465 -0.93345,-1.04775 0,-0.6731 0.48895,-1.04775 0.93345,-1.04775 0.53975,0 0.99695,0.37465 0.99695,1.04775 z m 2.34315,1.524 c 0.6223,0 1.08585,-0.24765 1.39065,-0.74295 l -0.41275,-0.26035 c -0.2159,0.3556 -0.5207,0.52705 -0.9144,0.52705 -0.5461,0 -0.88265,-0.3302 -0.9271,-0.92075 h 2.2987 c 0,-0.0127 0.006,-0.0889 0.006,-0.1524 0,-0.9271 -0.5207,-1.4986 -1.37795,-1.4986 -0.8636,0 -1.4478,0.61595 -1.4478,1.524 0,0.9017 0.56515,1.524 1.3843,1.524 z m 0.0635,-2.6035 c 0.4699,0 0.7874,0.3048 0.8255,0.7747 h -1.73355 c 0.0889,-0.4953 0.4064,-0.7747 0.90805,-0.7747 z m 1.82245,1.0795 c 0,0.94615 0.65405,1.524 1.4478,1.524 0.4318,0 0.78105,-0.2032 0.99695,-0.56515 v 0.50165 h 0.508 v -4.953 h -0.508 v 2.53365 c -0.2159,-0.36195 -0.56515,-0.56515 -0.99695,-0.56515 -0.79375,0 -1.4478,0.57785 -1.4478,1.524 z m 0.51435,0 c 0,-0.6731 0.4572,-1.04775 0.99695,-1.04775 0.4445,0 0.93345,0.37465 0.93345,1.04775 0,0.6731 -0.48895,1.04775 -0.93345,1.04775 -0.53975,0 -0.99695,-0.37465 -0.99695,-1.04775 z"
           id="text62122"
           style="font-size:6.35px;line-height:1.25;font-family:'Jost*';-inkscape-font-specification:'Jost*';letter-spacing:0px;word-spacing:0px;stroke-width:0.264583"
           aria-label="mlrl-testbed" />
        <g
           id="text62122-5"
           style="font-size:6.35px;line-height:1.05;font-family:'Jost*';-inkscape-font-specification:'Jost*';letter-spacing:0px;word-spacing:0px;white-space:pre;inline-size:33.1438;stroke-width:0.264583"
           transform="translate(-19.729482,-3.1483076)"
           aria-label="mlrl-testbed-&#10;sklearn">
          <path
             style="text-align:center;text-anchor:middle"
             d="m 135.70912,2.6523112 c 0,-0.7239 -0.3429,-1.143 -0.9398,-1.143 -0.3937,0 -0.6985,0.18415 -0.9017,0.5461 -0.13335,-0.34925 -0.43815,-0.5461 -0.84455,-0.5461 -0.36195,0 -0.62865,0.15875 -0.80645,0.48895 v -0.42545 h -0.508 v 2.9209999 h 0.508 V 2.7158112 c 0,-0.4572 0.26035,-0.73025 0.67945,-0.73025 0.381,0 0.5588,0.2286 0.5588,0.73025 v 1.7779999 h 0.508 V 2.7158112 c 0,-0.4572 0.26035,-0.73025 0.67945,-0.73025 0.381,0 0.5588,0.2286 0.5588,0.73025 v 1.7779999 h 0.508 z m 0.9525,-3.1115 v 4.9529999 h 0.508 v -4.9529999 z m 2.85115,2.5908 0.2794,-0.4191 c -0.1524,-0.15875 -0.33655,-0.2032 -0.5461,-0.2032 -0.22225,0 -0.45085,0.1524 -0.61595,0.40005 v -0.33655 h -0.508 v 2.9209999 h 0.508 V 2.7158112 c 0,-0.4191 0.10795,-0.73025 0.48895,-0.73025 0.1651,0 0.254,0.04445 0.3937,0.14605 z m 0.7874,-2.5908 v 4.9529999 h 0.508 v -4.9529999 z m 1.016,3.6829999 h 1.27 V 2.7475612 h -1.27 z m 1.3335,-1.6509999 v 0.47625 h 0.47625 v 2.4447499 h 0.508 V 2.0490612 h 0.47625 v -0.47625 h -0.47625 V 0.55681119 h -0.508 V 1.5728112 Z m 3.09879,2.9844999 c 0.6223,0 1.08585,-0.24765 1.39065,-0.74295 l -0.41275,-0.26035 c -0.2159,0.3556 -0.5207,0.52705 -0.9144,0.52705 -0.5461,0 -0.88265,-0.3302 -0.9271,-0.9207499 h 2.2987 c 0,-0.0127 0.006,-0.0889 0.006,-0.1524 0,-0.9271 -0.5207,-1.4986 -1.37795,-1.4986 -0.8636,0 -1.4478,0.61595 -1.4478,1.524 0,0.9016999 0.56515,1.5239999 1.3843,1.5239999 z m 0.0635,-2.6034999 c 0.4699,0 0.7874,0.3048 0.8255,0.7747 h -1.73355 c 0.0889,-0.4953 0.4064,-0.7747 0.90805,-0.7747 z m 2.1971,1.6446499 -0.40005,0.24765 c 0.15875,0.34925 0.5842,0.7112 1.1684,0.7112 0.5969,0 1.0033,-0.381 1.0033,-0.889 0,-0.5206999 -0.41275,-0.7175499 -0.92075,-0.9270999 -0.31115,-0.127 -0.6096,-0.26035 -0.6096,-0.4953 0,-0.19685 0.1778,-0.28575 0.38735,-0.28575 0.3048,0 0.55245,0.1651 0.7112,0.381 l 0.4064,-0.26035 c -0.1778,-0.32385 -0.59055,-0.5715 -1.0541,-0.5715 -0.47625,0 -0.94615,0.24765 -0.94615,0.76835 0,0.51435 0.45085,0.73025 0.8382,0.8763 0.33655,0.1269999 0.6731,0.2666999 0.6731,0.5714999 0,0.2286 -0.1778,0.3683 -0.46355,0.3683 -0.36195,0 -0.61595,-0.22225 -0.79375,-0.4953 z m 1.9939,-2.0256499 v 0.47625 h 0.47625 v 2.4447499 h 0.508 V 2.0490612 h 0.47625 v -0.47625 h -0.47625 V 0.55681119 h -0.508 V 1.5728112 Z m 4.8895,1.4605 c 0,-0.94615 -0.65405,-1.524 -1.4478,-1.524 -0.4318,0 -0.78105,0.2032 -0.99695,0.56515 v -2.53365 h -0.508 v 4.9529999 h 0.508 v -0.50165 c 0.2159,0.36195 0.56515,0.56515 0.99695,0.56515 0.79375,0 1.4478,-0.57785 1.4478,-1.5239999 z m -0.51435,0 c 0,0.6730999 -0.4572,1.0477499 -0.99695,1.0477499 -0.4445,0 -0.93345,-0.37465 -0.93345,-1.0477499 0,-0.6731 0.48895,-1.04775 0.93345,-1.04775 0.53975,0 0.99695,0.37465 0.99695,1.04775 z m 2.34315,1.5239999 c 0.6223,0 1.08585,-0.24765 1.39064,-0.74295 l -0.41274,-0.26035 c -0.2159,0.3556 -0.5207,0.52705 -0.9144,0.52705 -0.5461,0 -0.88265,-0.3302 -0.9271,-0.9207499 h 2.29869 c 0,-0.0127 0.006,-0.0889 0.006,-0.1524 0,-0.9271 -0.52069,-1.4986 -1.37794,-1.4986 -0.8636,0 -1.4478,0.61595 -1.4478,1.524 0,0.9016999 0.56515,1.5239999 1.3843,1.5239999 z m 0.0635,-2.6034999 c 0.4699,0 0.7874,0.3048 0.8255,0.7747 h -1.73355 c 0.0889,-0.4953 0.4064,-0.7747 0.90805,-0.7747 z m 1.82244,1.0795 c 0,0.9461499 0.65405,1.5239999 1.4478,1.5239999 0.4318,0 0.78105,-0.2032 0.99695,-0.56515 v 0.50165 h 0.508 v -4.9529999 h -0.508 v 2.53365 c -0.2159,-0.36195 -0.56515,-0.56515 -0.99695,-0.56515 -0.79375,0 -1.4478,0.57785 -1.4478,1.524 z m 0.51435,0 c 0,-0.6731 0.4572,-1.04775 0.99695,-1.04775 0.4445,0 0.93345,0.37465 0.93345,1.04775 0,0.6730999 -0.48895,1.0477499 -0.93345,1.0477499 -0.53975,0 -0.99695,-0.37465 -0.99695,-1.0477499 z m 2.91465,0.1904999 h 1.27 V 2.7475612 h -1.27 z"
             id="path3" />
          <path
             style="text-align:center;text-anchor:middle"
             d="m 138.55708,10.265961 -0.40005,0.24765 c 0.15875,0.34925 0.5842,0.7112 1.1684,0.7112 0.5969,0 1.0033,-0.381 1.0033,-0.889 0,-0.5207004 -0.41275,-0.7175504 -0.92075,-0.9271004 -0.31115,-0.127 -0.6096,-0.26035 -0.6096,-0.4953 0,-0.19685 0.1778,-0.28575 0.38735,-0.28575 0.3048,0 0.55245,0.1651 0.7112,0.381 l 0.4064,-0.26035 c -0.1778,-0.32385 -0.59055,-0.5715 -1.0541,-0.5715 -0.47625,0 -0.94615,0.24765 -0.94615,0.76835 0,0.51435 0.45085,0.73025 0.8382,0.8763 0.33655,0.127 0.6731,0.2667004 0.6731,0.5715004 0,0.2286 -0.1778,0.3683 -0.46355,0.3683 -0.36195,0 -0.61595,-0.22225 -0.79375,-0.4953 z m 3.99415,-2.0256504 -1.0795,1.02235 v -3.05435 h -0.508 v 4.9530004 h 0.508 V 9.6817606 l 1.2065,1.4795504 h 0.635 l -1.397,-1.7145004 1.27,-1.2065 z m 1.23825,-2.032 v 4.9530004 h 0.508 V 6.2083106 Z m 2.5908,5.0165004 c 0.6223,0 1.08585,-0.24765 1.39065,-0.74295 l -0.41275,-0.26035 c -0.2159,0.3556 -0.5207,0.52705 -0.9144,0.52705 -0.5461,0 -0.88265,-0.3302 -0.9271,-0.9207504 h 2.2987 c 0,-0.0127 0.006,-0.0889 0.006,-0.1524 0,-0.9271 -0.5207,-1.4986 -1.37795,-1.4986 -0.8636,0 -1.4478,0.61595 -1.4478,1.524 0,0.9017004 0.56515,1.5240004 1.3843,1.5240004 z m 0.0635,-2.6035004 c 0.4699,0 0.7874,0.3048 0.8255,0.7747 h -1.73355 c 0.0889,-0.4953 0.4064,-0.7747 0.90805,-0.7747 z m 2.22885,0.2921 c 0.13335,-0.1016 0.43815,-0.2921 0.8763,-0.2921 0.36195,0 0.6604,0.1143 0.6604,0.51435 v 0.42545 c -0.17145,-0.10795 -0.4445,-0.2159 -0.83185,-0.2159 -0.71755,0 -1.143,0.37465 -1.143,0.9398004 0,0.5969 0.4699,0.9398 1.00965,0.9398 0.3556,0 0.7747,-0.14605 0.9652,-0.4572 v 0.3937 h 0.508 V 9.0658106 c 0,-0.56515 -0.46355,-0.889 -1.143,-0.889 -0.53975,0 -0.9271,0.2032 -1.14935,0.36195 z m 0.0762,1.3462004 c 0,-0.3175004 0.2159,-0.5143504 0.7112,-0.5143504 0.27305,0 0.51435,0.0508 0.7493,0.1651 v 0.1079504 c 0,0.46355 -0.3683,0.76835 -0.83185,0.76835 -0.37465,0 -0.62865,-0.1905 -0.62865,-0.52705 z m 4.2164,-1.4605004 0.2794,-0.4191 c -0.1524,-0.15875 -0.33655,-0.2032 -0.5461,-0.2032 -0.22225,0 -0.45085,0.1524 -0.61595,0.40005 v -0.33655 h -0.508 v 2.9210004 h 0.508 V 9.3833106 c 0,-0.4191 0.10795,-0.73025 0.48895,-0.73025 0.1651,0 0.254,0.04445 0.3937,0.14605 z m 2.66065,0.5842 v 1.7780004 h 0.508 V 9.3198106 c 0,-0.70485 -0.38735,-1.143 -1.0033,-1.143 -0.381,0 -0.6731,0.1651 -0.86995,0.5207 v -0.4572 h -0.508 v 2.9210004 h 0.508 V 9.3833106 c 0,-0.4318 0.29845,-0.73025 0.74295,-0.73025 0.4064,0 0.6223,0.24765 0.6223,0.73025 z"
             id="path4" />
        </g>
        <g
           id="text62122-5-6"
           style="font-size:6.35px;line-height:1.05;font-family:'Jost*';-inkscape-font-specification:'Jost*';letter-spacing:0px;word-spacing:0px;white-space:pre;inline-size:33.1438;stroke-width:0.264583"
           transform="translate(-19.729482,-22.327929)"
           aria-label="mlrl-testbed-&#10;arff">
          <path
             style="text-align:center;text-anchor:middle"
             d="m 135.70912,2.6523112 c 0,-0.7239 -0.3429,-1.143 -0.9398,-1.143 -0.3937,0 -0.6985,0.18415 -0.9017,0.5461 -0.13335,-0.34925 -0.43815,-0.5461 -0.84455,-0.5461 -0.36195,0 -0.62865,0.15875 -0.80645,0.48895 v -0.42545 h -0.508 v 2.9209999 h 0.508 V 2.7158112 c 0,-0.4572 0.26035,-0.73025 0.67945,-0.73025 0.381,0 0.5588,0.2286 0.5588,0.73025 v 1.7779999 h 0.508 V 2.7158112 c 0,-0.4572 0.26035,-0.73025 0.67945,-0.73025 0.381,0 0.5588,0.2286 0.5588,0.73025 v 1.7779999 h 0.508 z m 0.9525,-3.1115 v 4.9529999 h 0.508 v -4.9529999 z m 2.85115,2.5908 0.2794,-0.4191 c -0.1524,-0.15875 -0.33655,-0.2032 -0.5461,-0.2032 -0.22225,0 -0.45085,0.1524 -0.61595,0.40005 v -0.33655 h -0.508 v 2.9209999 h 0.508 V 2.7158112 c 0,-0.4191 0.10795,-0.73025 0.48895,-0.73025 0.1651,0 0.254,0.04445 0.3937,0.14605 z m 0.7874,-2.5908 v 4.9529999 h 0.508 v -4.9529999 z m 1.016,3.6829999 h 1.27 V 2.7475612 h -1.27 z m 1.3335,-1.6509999 v 0.47625 h 0.47625 v 2.4447499 h 0.508 V 2.0490612 h 0.47625 v -0.47625 h -0.47625 V 0.55681119 h -0.508 V 1.5728112 Z m 3.09879,2.9844999 c 0.6223,0 1.08585,-0.24765 1.39065,-0.74295 l -0.41275,-0.26035 c -0.2159,0.3556 -0.5207,0.52705 -0.9144,0.52705 -0.5461,0 -0.88265,-0.3302 -0.9271,-0.9207499 h 2.2987 c 0,-0.0127 0.006,-0.0889 0.006,-0.1524 0,-0.9271 -0.5207,-1.4986 -1.37795,-1.4986 -0.8636,0 -1.4478,0.61595 -1.4478,1.524 0,0.9016999 0.56515,1.5239999 1.3843,1.5239999 z m 0.0635,-2.6034999 c 0.4699,0 0.7874,0.3048 0.8255,0.7747 h -1.73355 c 0.0889,-0.4953 0.4064,-0.7747 0.90805,-0.7747 z m 2.1971,1.6446499 -0.40005,0.24765 c 0.15875,0.34925 0.5842,0.7112 1.1684,0.7112 0.5969,0 1.0033,-0.381 1.0033,-0.889 0,-0.5206999 -0.41275,-0.7175499 -0.92075,-0.9270999 -0.31115,-0.127 -0.6096,-0.26035 -0.6096,-0.4953 0,-0.19685 0.1778,-0.28575 0.38735,-0.28575 0.3048,0 0.55245,0.1651 0.7112,0.381 l 0.4064,-0.26035 c -0.1778,-0.32385 -0.59055,-0.5715 -1.0541,-0.5715 -0.47625,0 -0.94615,0.24765 -0.94615,0.76835 0,0.51435 0.45085,0.73025 0.8382,0.8763 0.33655,0.1269999 0.6731,0.2666999 0.6731,0.5714999 0,0.2286 -0.1778,0.3683 -0.46355,0.3683 -0.36195,0 -0.61595,-0.22225 -0.79375,-0.4953 z m 1.9939,-2.0256499 v 0.47625 h 0.47625 v 2.4447499 h 0.508 V 2.0490612 h 0.47625 v -0.47625 h -0.47625 V 0.55681119 h -0.508 V 1.5728112 Z m 4.8895,1.4605 c 0,-0.94615 -0.65405,-1.524 -1.4478,-1.524 -0.4318,0 -0.78105,0.2032 -0.99695,0.56515 v -2.53365 h -0.508 v 4.9529999 h 0.508 v -0.50165 c 0.2159,0.36195 0.56515,0.56515 0.99695,0.56515 0.79375,0 1.4478,-0.57785 1.4478,-1.5239999 z m -0.51435,0 c 0,0.6730999 -0.4572,1.0477499 -0.99695,1.0477499 -0.4445,0 -0.93345,-0.37465 -0.93345,-1.0477499 0,-0.6731 0.48895,-1.04775 0.93345,-1.04775 0.53975,0 0.99695,0.37465 0.99695,1.04775 z m 2.34315,1.5239999 c 0.6223,0 1.08585,-0.24765 1.39064,-0.74295 l -0.41274,-0.26035 c -0.2159,0.3556 -0.5207,0.52705 -0.9144,0.52705 -0.5461,0 -0.88265,-0.3302 -0.9271,-0.9207499 h 2.29869 c 0,-0.0127 0.006,-0.0889 0.006,-0.1524 0,-0.9271 -0.52069,-1.4986 -1.37794,-1.4986 -0.8636,0 -1.4478,0.61595 -1.4478,1.524 0,0.9016999 0.56515,1.5239999 1.3843,1.5239999 z m 0.0635,-2.6034999 c 0.4699,0 0.7874,0.3048 0.8255,0.7747 h -1.73355 c 0.0889,-0.4953 0.4064,-0.7747 0.90805,-0.7747 z m 1.82244,1.0795 c 0,0.9461499 0.65405,1.5239999 1.4478,1.5239999 0.4318,0 0.78105,-0.2032 0.99695,-0.56515 v 0.50165 h 0.508 v -4.9529999 h -0.508 v 2.53365 c -0.2159,-0.36195 -0.56515,-0.56515 -0.99695,-0.56515 -0.79375,0 -1.4478,0.57785 -1.4478,1.524 z m 0.51435,0 c 0,-0.6731 0.4572,-1.04775 0.99695,-1.04775 0.4445,0 0.93345,0.37465 0.93345,1.04775 0,0.6730999 -0.48895,1.0477499 -0.93345,1.0477499 -0.53975,0 -0.99695,-0.37465 -0.99695,-1.0477499 z m 2.91465,0.1904999 h 1.27 V 2.7475612 h -1.27 z"
             id="path1" />
          <path
             style="text-align:center;text-anchor:middle"
             d="m 143.48151,8.9134106 c 0.13335,-0.1016 0.43815,-0.2921 0.8763,-0.2921 0.36195,0 0.6604,0.1143 0.6604,0.51435 v 0.42545 c -0.17145,-0.10795 -0.4445,-0.2159 -0.83185,-0.2159 -0.71755,0 -1.143,0.37465 -1.143,0.9398004 0,0.5969 0.4699,0.9398 1.00965,0.9398 0.3556,0 0.7747,-0.14605 0.9652,-0.4572 v 0.3937 h 0.508 V 9.0658106 c 0,-0.56515 -0.46355,-0.889 -1.143,-0.889 -0.53975,0 -0.9271,0.2032 -1.14935,0.36195 z m 0.0762,1.3462004 c 0,-0.3175004 0.2159,-0.5143504 0.7112,-0.5143504 0.27305,0 0.51435,0.0508 0.7493,0.1651 v 0.1079504 c 0,0.46355 -0.3683,0.76835 -0.83185,0.76835 -0.37465,0 -0.62865,-0.1905 -0.62865,-0.52705 z m 4.2164,-1.4605004 0.2794,-0.4191 c -0.1524,-0.15875 -0.33655,-0.2032 -0.5461,-0.2032 -0.22225,0 -0.45085,0.1524 -0.61595,0.40005 v -0.33655 h -0.508 v 2.9210004 h 0.508 V 9.3833106 c 0,-0.4191 0.10795,-0.73025 0.48895,-0.73025 0.1651,0 0.254,0.04445 0.3937,0.14605 z m 0.56516,-0.5588 v 0.47625 h 0.28575 v 2.4447504 h 0.508 V 8.7165606 h 0.66675 v -0.47625 h -0.66675 v -1.016 c 0,-0.4191 0.1143,-0.5715 0.3048,-0.5715 0.1016,0 0.22225,0.01905 0.31115,0.1651 l 0.2794,-0.4191 c -0.0952,-0.127 -0.28575,-0.254 -0.5588,-0.254 -0.5334,0 -0.84455,0.32385 -0.84455,1.016 v 1.0795 z m 1.81609,0 v 0.47625 h 0.28575 v 2.4447504 h 0.508 V 8.7165606 h 0.66675 v -0.47625 h -0.66675 v -1.016 c 0,-0.4191 0.1143,-0.5715 0.3048,-0.5715 0.1016,0 0.22225,0.01905 0.31115,0.1651 l 0.2794,-0.4191 c -0.0952,-0.127 -0.28575,-0.254 -0.5588,-0.254 -0.5334,0 -0.84455,0.32385 -0.84455,1.016 v 1.0795 z"
             id="path2" />
        </g>
        <path
           style="font-size:6.35px;line-height:1.25;font-family:'Jost*';-inkscape-font-specification:'Jost*';letter-spacing:0px;word-spacing:0px;fill:#d1d1d1;stroke-width:0.264583"
           d="m 164.89719,27.875408 v 4.445 h 0.53975 v -1.778 h 0.66675 c 0.85725,0 1.5113,-0.51435 1.5113,-1.3335 0,-0.81915 -0.65405,-1.3335 -1.5113,-1.3335 z m 1.2065,0.508 c 0.5715,0 0.97155,0.2794 0.97155,0.8255 0,0.5461 -0.40005,0.8255 -0.97155,0.8255 h -0.66675 v -1.651 z m 4.5593,1.016 h -0.5715 l -0.8001,2.01295 -0.81915,-2.01295 h -0.60325 l 1.1176,2.50825 -0.8001,1.80975 h 0.5715 z m 0.0318,0 v 0.47625 h 0.47625 v 2.44475 h 0.508 v -2.44475 h 0.47625 v -0.47625 H 171.679 v -1.016 h -0.508 v 1.016 z m 3.84174,1.143 v 1.778 h 0.508 v -1.8415 c 0,-0.75565 -0.40005,-1.143 -1.0033,-1.143 -0.381,0 -0.69215,0.2032 -0.86995,0.52705 v -2.49555 h -0.508 v 4.953 h 0.508 v -1.778 c 0,-0.4191 0.29845,-0.73025 0.74295,-0.73025 0.41275,0 0.6223,0.24765 0.6223,0.73025 z m 1.2065,0.3175 c 0,0.88265 0.65405,1.524 1.5113,1.524 0.85725,0 1.5113,-0.64135 1.5113,-1.524 0,-0.88265 -0.65405,-1.524 -1.5113,-1.524 -0.85725,0 -1.5113,0.64135 -1.5113,1.524 z m 0.51435,0 c 0,-0.6096 0.42545,-1.04775 0.99695,-1.04775 0.5715,0 0.99695,0.43815 0.99695,1.04775 0,0.6096 -0.42545,1.04775 -0.99695,1.04775 -0.5715,0 -0.99695,-0.43815 -0.99695,-1.04775 z m 5.08,-0.3175 v 1.778 h 0.508 v -1.8415 c 0,-0.70485 -0.38735,-1.143 -1.0033,-1.143 -0.381,0 -0.6731,0.1651 -0.86995,0.5207 v -0.4572 h -0.508 v 2.921 h 0.508 v -1.778 c 0,-0.4318 0.29845,-0.73025 0.74295,-0.73025 0.4064,0 0.6223,0.24765 0.6223,0.73025 z"
           id="text68758"
           aria-label="Python" />
        <path
           style="fill:none;stroke:#d1d1d1;stroke-width:1;stroke-linecap:round;stroke-linejoin:round;stroke-miterlimit:4;stroke-dasharray:1, 4;stroke-dashoffset:0;stroke-opacity:1"
           d="M 161.39583,56.09168 H -2.6458333"
           id="path72981" />
        <path
           style="font-size:6.35px;line-height:1.25;font-family:'Jost*';-inkscape-font-specification:'Jost*';letter-spacing:0px;word-spacing:0px;fill:#d1d1d1;stroke-width:0.264583"
           d="m 164.90671,55.647186 c 0,-1.03505 0.7747,-1.74625 1.651,-1.74625 0.62865,0 1.1176,0.2667 1.42875,0.6604 v -0.7112 c -0.37465,-0.3302 -0.78105,-0.48895 -1.42875,-0.48895 -1.2319,0 -2.2225,0.95885 -2.2225,2.286 0,1.32715 0.9906,2.286 2.2225,2.286 0.6477,0 1.0541,-0.15875 1.42875,-0.48895 v -0.7112 c -0.31115,0.3937 -0.8001,0.6604 -1.42875,0.6604 -0.8763,0 -1.651,-0.7112 -1.651,-1.74625 z m 6.31824,-0.6985 h -0.5715 l -0.8001,2.01295 -0.81915,-2.01295 h -0.60325 l 1.1176,2.50825 -0.8001,1.80975 h 0.5715 z m 0.0318,0 v 0.47625 h 0.47625 v 2.44475 h 0.508 v -2.44475 h 0.47625 v -0.47625 h -0.47625 v -1.016 h -0.508 v 1.016 z m 3.84175,1.143 v 1.778 h 0.508 v -1.8415 c 0,-0.75565 -0.40005,-1.143 -1.0033,-1.143 -0.381,0 -0.69215,0.2032 -0.86995,0.52705 v -2.49555 h -0.508 v 4.953 h 0.508 v -1.778 c 0,-0.4191 0.29845,-0.73025 0.74295,-0.73025 0.41275,0 0.6223,0.24765 0.6223,0.73025 z m 1.20649,0.3175 c 0,0.88265 0.65405,1.524 1.5113,1.524 0.85725,0 1.5113,-0.64135 1.5113,-1.524 0,-0.88265 -0.65405,-1.524 -1.5113,-1.524 -0.85725,0 -1.5113,0.64135 -1.5113,1.524 z m 0.51435,0 c 0,-0.6096 0.42545,-1.04775 0.99695,-1.04775 0.5715,0 0.99695,0.43815 0.99695,1.04775 0,0.6096 -0.42545,1.04775 -0.99695,1.04775 -0.5715,0 -0.99695,-0.43815 -0.99695,-1.04775 z m 5.08,-0.3175 v 1.778 h 0.508 v -1.8415 c 0,-0.70485 -0.38735,-1.143 -1.0033,-1.143 -0.381,0 -0.6731,0.1651 -0.86995,0.5207 v -0.4572 h -0.508 v 2.921 h 0.508 v -1.778 c 0,-0.4318 0.29845,-0.73025 0.74295,-0.73025 0.4064,0 0.6223,0.24765 0.6223,0.73025 z"
           id="text86071"
           aria-label="Cython" />
      </g>
    </g>
  </g>
</svg>
